<svg width="176" height="40" viewBox="0 0 176 40" fill="none" xmlns="http://www.w3.org/2000/svg">
<g clip-path="url(#clip0_74:281)">
<path d="M56.9432 6.31592H7.25894C5.47222 6.31592 3.75867 7.02569 2.49527 8.28909C1.23186 9.55249 0.522095 11.266 0.522095 13.0528V33.2633C0.522095 35.05 1.23186 36.7635 2.49527 38.027C3.75867 39.2904 5.47222 40.0001 7.25894 40.0001H56.9432C58.7299 40.0001 60.4434 39.2904 61.7068 38.027C62.9702 36.7635 63.68 35.05 63.68 33.2633V13.0528C63.68 11.266 62.9702 9.55249 61.7068 8.28909C60.4434 7.02569 58.7299 6.31592 56.9432 6.31592ZM59.4695 32.4212C59.4695 33.3145 59.1146 34.1713 58.4829 34.803C57.8512 35.4347 56.9944 35.7896 56.1011 35.7896H8.10104C7.20768 35.7896 6.35091 35.4347 5.71921 34.803C5.08751 34.1713 4.73262 33.3145 4.73262 32.4212V13.8949C4.73262 13.0015 5.08751 12.1448 5.71921 11.5131C6.35091 10.8814 7.20768 10.5264 8.10104 10.5264H56.1011C56.9944 10.5264 57.8512 10.8814 58.4829 11.5131C59.1146 12.1448 59.4695 13.0015 59.4695 13.8949V32.4212Z" fill="white"/>
<path d="M10.5326 25.7264H13.8589C13.8799 27.3685 15.1221 28.4 17.3115 28.4C19.1221 28.4 20.1957 27.6842 20.1957 26.4842C20.1957 25.0526 18.6589 24.7579 16.8694 24.4842C14.2378 24.1052 10.68 23.6422 10.68 20.0211C10.68 17.1369 13.0589 15.2632 16.8905 15.2632C20.7642 15.2632 23.2484 17.3264 23.2484 20.4632H20.0273C20.0483 18.8422 18.8694 17.9158 16.9747 17.9158C15.2062 17.9158 14.1747 18.6526 14.1747 19.7684C14.1747 21.2211 15.8589 21.4737 17.7536 21.7474C20.3852 22.1474 23.6905 22.7158 23.6905 26.2737C23.6905 29.1789 21.1852 31.0527 17.2063 31.0527C13.1431 31.0527 10.5536 28.9264 10.5326 25.7264Z" fill="white"/>
<path d="M26.0693 15.6631H29.5641V27.6631H36.4062V30.6526H26.0693V15.6631Z" fill="white"/>
<path d="M37.0801 23.1579C37.0801 18.4211 40.4696 15.2632 45.3748 15.2632C50.2801 15.2632 53.6696 18.4211 53.6696 23.1579C53.6696 27.8948 50.2801 31.0527 45.3748 31.0527C40.4696 31.0527 37.0801 27.9158 37.0801 23.1579ZM50.1748 23.1579C50.1748 20.2106 48.1959 18.1895 45.3748 18.1895C42.5538 18.1895 40.5748 20.2106 40.5748 23.1579C40.5748 26.1053 42.5538 28.1474 45.3748 28.1474C48.1959 28.1474 50.1748 26.1053 50.1748 23.1579Z" fill="white"/>
<path d="M70.0884 23.1579C70.0884 18.5053 73.4357 15.2632 78.0884 15.2632C81.8357 15.2632 84.9305 17.6211 85.4989 20.9895L82.2357 21.3684C82.0138 20.4553 81.4894 19.6441 80.7478 19.0669C80.0062 18.4898 79.0912 18.1805 78.1515 18.1895C75.4568 18.1895 73.5831 20.2106 73.5831 23.1579C73.5831 26.1053 75.4779 28.1474 78.1515 28.1474C79.0801 28.149 79.9833 27.8447 80.7215 27.2815C81.4597 26.7183 81.9919 25.9275 82.2357 25.0316L85.52 25.4737C84.9936 28.7579 81.8989 31.0527 78.0884 31.0527C73.4357 31.0527 70.0884 27.8106 70.0884 23.1579Z" fill="white"/>
<path d="M87.0359 25.263C87.0359 21.7893 89.4148 19.5366 93.0148 19.5366C96.6148 19.5366 98.9938 21.7893 98.9938 25.263C98.9938 28.7367 96.5938 30.9893 93.0148 30.9893C89.4359 30.9893 87.0359 28.7367 87.0359 25.263ZM95.8569 25.263C95.8569 23.4735 94.678 22.2103 93.0148 22.2103C91.3517 22.2103 90.1517 23.4735 90.1517 25.263C90.1517 27.0525 91.3306 28.3367 93.0148 28.3367C94.699 28.3367 95.8569 27.0525 95.8569 25.263Z" fill="white"/>
<path d="M100.867 19.8735H103.962V21.4735H104.173C104.462 20.8942 104.907 20.4065 105.457 20.0646C106.007 19.7227 106.641 19.5399 107.288 19.5366C107.975 19.5341 108.649 19.7241 109.233 20.0851C109.817 20.446 110.289 20.9635 110.594 21.5788H110.804C111.121 20.9563 111.607 20.4361 112.207 20.0785C112.807 19.7208 113.496 19.5403 114.194 19.5577C116.573 19.5577 118.278 21.3682 118.278 23.9788V30.6525H115.162V24.5051C115.162 23.1998 114.341 22.2314 113.141 22.2104C111.941 22.1893 111.078 23.1577 111.078 24.5051V30.6525H107.941V24.5051C107.941 23.1156 107.183 22.2104 106.004 22.2104C104.783 22.2104 103.983 23.1156 103.983 24.5051V30.6525H100.867V19.8735Z" fill="white"/>
<path d="M132.32 25.263C132.32 28.6735 130.173 30.9893 127.225 30.9893C125.752 30.9893 124.573 30.3999 123.815 29.3051H123.604V35.4946H120.489V19.8735H123.604V21.2419H123.815C124.573 20.1472 125.689 19.5366 127.225 19.5366C130.194 19.5366 132.32 21.8419 132.32 25.263ZM123.478 25.263C123.478 26.9893 124.678 28.3367 126.341 28.3367C128.004 28.3367 129.183 26.9893 129.183 25.263C129.183 23.5367 127.983 22.2103 126.341 22.2103C124.699 22.2103 123.478 23.5367 123.478 25.263Z" fill="white"/>
<path d="M144.594 30.6525H141.478V29.1367H141.267C140.467 30.3577 139.436 30.9683 138.131 30.9683C135.688 30.9683 134.067 29.0735 134.067 26.484V19.8735H137.192V26.0525C137.192 27.3788 137.95 28.3052 139.213 28.3052C139.518 28.3039 139.82 28.2414 140.101 28.1214C140.382 28.0014 140.636 27.8263 140.848 27.6065C141.06 27.3866 141.225 27.1266 141.335 26.8416C141.445 26.5566 141.496 26.2525 141.486 25.9472V19.8841H144.602L144.594 30.6525Z" fill="white"/>
<path d="M147.815 27.1791V22.1476H146.299V19.8738H147.899L148.51 16.4634H150.952L150.931 19.8738H153.402V22.1476H150.939V27.0528C150.939 27.9581 151.486 28.5686 152.371 28.5686C152.747 28.557 153.12 28.5076 153.486 28.4212V30.6528C152.805 30.8672 152.096 30.9807 151.381 30.9897C149.204 30.9897 147.815 29.4528 147.815 27.1791Z" fill="white"/>
<path d="M154.665 25.1788C154.665 21.8104 157.128 19.5366 160.604 19.5366C164.036 19.5366 166.394 21.8314 166.394 25.2208C166.402 25.5372 166.388 25.8538 166.352 26.1682H157.888C158.141 27.684 159.215 28.6735 160.752 28.6735C161.952 28.6735 162.878 28.0841 163.341 27.1999L165.994 27.8735C165.32 29.8103 163.236 30.9893 160.625 30.9893C157.118 30.9893 154.665 28.6525 154.665 25.1788ZM163.215 24.2314C163.144 23.57 162.828 22.959 162.329 22.5187C161.831 22.0785 161.185 21.8407 160.52 21.8524C159.11 21.8524 158.12 22.7998 157.867 24.2314H163.215Z" fill="white"/>
<path d="M168.297 19.8736H171.373V21.3473H171.604C171.842 20.845 172.218 20.4203 172.687 20.1223C173.157 19.8243 173.701 19.6651 174.257 19.6631C174.679 19.6616 175.097 19.7552 175.478 19.9368V22.7368C174.919 22.4917 174.319 22.3559 173.709 22.3368C172.341 22.3368 171.415 23.4736 171.415 25.1368V30.6526H168.297V19.8736Z" fill="white"/>
<path d="M61.5746 16.8421C66.2254 16.8421 69.9957 13.0719 69.9957 8.42105C69.9957 3.77023 66.2254 0 61.5746 0C56.9238 0 53.1536 3.77023 53.1536 8.42105C53.1536 13.0719 56.9238 16.8421 61.5746 16.8421Z" fill="white"/>
<path d="M61.5748 14.737C65.0629 14.737 67.8906 11.9094 67.8906 8.42126C67.8906 4.93314 65.0629 2.10547 61.5748 2.10547C58.0867 2.10547 55.259 4.93314 55.259 8.42126C55.259 11.9094 58.0867 14.737 61.5748 14.737Z" fill="#EC3B00"/>
<path d="M61.5747 10.5264C62.7375 10.5264 63.68 9.58388 63.68 8.42118C63.68 7.25848 62.7375 6.31592 61.5747 6.31592C60.412 6.31592 59.4695 7.25848 59.4695 8.42118C59.4695 9.58388 60.412 10.5264 61.5747 10.5264Z" fill="white"/>
</g>
<defs>
<clipPath id="clip0_74:281">
<rect width="174.956" height="40" fill="white" transform="translate(0.522095)"/>
</clipPath>
</defs>
</svg>
