<svg width="128" height="128" viewBox="0 0 128 128" fill="none" xmlns="http://www.w3.org/2000/svg">
<path d="M51.6311 74.5701C51.7403 74.3915 51.8494 74.2129 51.9685 74.0442C52.2166 73.687 51.6113 74.4213 52.1173 73.8458C52.3654 73.5679 52.6234 73.2901 52.9012 73.0321C53.3577 72.6054 53.7744 72.3176 54.5584 71.9108C54.608 71.881 55.1636 71.633 54.9453 71.7223C54.7667 71.8017 55.1934 71.633 55.2331 71.623C55.63 71.4841 56.0369 71.375 56.4437 71.2857C56.5231 71.2658 57.0589 71.1864 56.6521 71.2361C56.8208 71.2162 56.9894 71.2063 57.1482 71.1964C57.565 71.1765 57.9817 71.1964 58.4084 71.2162C58.5771 71.2261 58.7458 71.2658 58.4779 71.2162C58.6763 71.2559 58.8748 71.2956 59.0832 71.3353C59.4404 71.4246 59.7877 71.5337 60.135 71.6528C60.8494 71.9009 59.9465 71.5536 60.3334 71.7322C60.522 71.8215 60.7006 71.9108 60.8792 72.01C61.2067 72.1886 61.5143 72.3871 61.8119 72.5955C61.9509 72.6947 61.9409 72.6947 61.802 72.5756L61.9906 72.7344C62.1394 72.8733 62.2982 73.0023 62.447 73.1512C62.7149 73.4092 62.963 73.6771 63.2012 73.9549C62.9928 73.6969 63.2607 74.0343 63.3301 74.1335C63.4492 74.3022 63.5584 74.4709 63.6576 74.6495C63.737 74.7884 63.8164 74.9373 63.8957 75.0762C63.8957 75.0861 64.2133 75.7807 64.0545 75.3739C64.5606 76.6142 65.7116 77.4874 67.1108 77.1104C68.2916 76.7829 69.3533 75.3044 68.8473 74.0541C67.1008 69.7476 63.3202 66.741 58.6565 66.2449C53.9927 65.7487 49.6664 68.2493 47.3345 72.0398C46.63 73.1809 47.0865 74.7686 48.2276 75.4334C49.3687 76.0982 50.9167 75.6914 51.6212 74.5404L51.6311 74.5701Z" fill="black"/>
<path d="M99.5616 72.2459C97.7854 68.6836 94.1338 66.3617 90.2043 66.0342C86.2749 65.7068 82.5737 67.7608 80.3311 70.8369C79.7953 71.5712 79.3289 72.4047 79.0312 73.268C78.7534 74.0717 78.8625 74.7763 78.932 75.5899C79.0511 77.1379 79.1503 78.6759 79.2495 80.2239C79.448 83.2801 79.8151 86.3661 79.9044 89.4323C79.9441 90.762 79.9243 92.5977 78.4458 93.1534C76.5406 93.8678 74.4072 92.7862 72.7104 92.0023C71.4998 91.4367 70.0411 91.6649 69.3168 92.8954C68.6916 93.967 68.9893 95.7234 70.2098 96.289C73.7423 97.9262 78.0489 99.5139 81.631 97.053C85.0147 94.7311 85.0048 90.6925 84.6773 87.031C84.4094 84.0343 84.2705 81.0177 84.0621 78.021C84.0125 77.3066 83.9629 76.5921 83.9133 75.8777C83.8934 75.5701 83.8835 75.2625 83.8339 74.9549C83.8339 74.8854 83.8438 74.6572 83.8041 74.5976C83.8041 74.419 83.7843 74.4488 83.7446 74.677C83.6553 74.9747 83.695 74.935 83.8537 74.548C84.6575 73.2581 85.5307 72.2062 86.9496 71.5414C90.1547 70.0331 93.7567 71.7101 95.2749 74.7564C96.7038 77.6142 100.981 75.1037 99.5616 72.2559V72.2459Z" fill="black"/>
<path d="M62.4951 79.3592C62.4951 81.6706 60.4318 83.7935 58.1104 83.853C55.799 83.9126 53.6265 81.8988 53.5075 79.5874C53.1999 73.6353 62.4951 73.3873 62.4951 79.3592Z" fill="black"/>
<path d="M94.5371 79.3592C94.5371 81.6706 92.4737 83.7935 90.1524 83.853C87.841 83.9126 85.6685 81.8988 85.5495 79.5874C85.2419 73.6353 94.5371 73.3873 94.5371 79.3592Z" fill="black"/>
</svg>
