<svg width="128" height="128" viewBox="0 0 128 128" fill="none" xmlns="http://www.w3.org/2000/svg">
<path d="M78.7708 74.2317C79.1776 78.4388 79.2967 82.6657 79.6638 86.8728C79.8226 88.6787 80.3783 91.4074 79.128 92.6576C77.5107 94.2849 74.4645 92.8064 72.6686 91.9729C71.458 91.4074 69.9995 91.6356 69.2751 92.866C68.65 93.9376 68.9477 95.6938 70.1681 96.2594C73.5417 97.8271 77.2626 99.2262 80.8545 97.4501C84.0495 95.8625 84.9723 92.3103 84.8036 88.9962C84.6746 86.5454 84.4166 84.0946 84.2579 81.6437C84.0991 79.1929 83.9701 76.6925 83.732 74.2218C83.603 72.8922 82.6802 71.7412 81.2514 71.7412C80.0111 71.7412 78.6418 72.8823 78.7708 74.2218V74.2317Z" fill="black"/>
<path d="M40.8376 64.9742C36.3725 73.4976 39.0615 88.1926 49.48 90.8915C58.936 92.995 66.983 84.1046 75.8834 82.4575C83.6328 80.5226 90.2312 86.6745 97.3157 88.2521C102.902 89.3833 107 85.3647 108.667 80.1257C111.207 72.4557 109.858 61.7991 101.86 57.9889C98.9926 56.5402 95.4602 56.0044 92.2652 55.8258C84.6349 55.5182 77.0046 56.0739 69.3743 56.2128C59.4619 56.7784 46.5033 55.0023 40.9368 64.8155L40.8475 64.9742H40.8376Z" fill="#FFE4A6"/>
<path d="M38.6944 63.7139C33.6836 73.4676 36.3825 88.7183 47.565 92.8758C54.3023 95.3762 61.2281 91.7645 67.0724 88.6886C69.94 87.1804 72.8373 85.6325 76.0323 84.9379C79.2273 84.2433 82.343 84.8387 85.4884 86.1187C91.6005 88.6191 98.5958 93.4414 105.075 89.1648C110.513 85.5829 112.467 78.3197 112.289 72.1281C112.11 65.9365 109.61 59.616 104.103 56.3615C100.709 54.3571 96.7403 53.6328 92.8607 53.3649C88.3758 53.0573 83.8413 53.2458 79.3563 53.4046C72.2519 53.6427 65.1078 53.613 58.0133 54.0595C52.0202 54.4365 45.6202 55.657 41.2941 60.1816C40.2919 61.2333 39.3989 62.4339 38.7044 63.704C37.1763 66.512 41.4628 69.0125 42.9908 66.2045C45.4516 61.6898 50.0952 59.9335 54.977 59.2886C60.4244 58.5642 66.2489 58.7627 71.8153 58.6138C76.0323 58.4948 80.2592 58.2963 84.4763 58.2169C88.2567 58.1475 92.176 57.9986 95.9069 58.6833C98.7645 59.1993 101.612 60.1716 103.666 62.2553C105.353 63.9719 106.345 66.1846 106.891 68.5461C107.953 73.1402 107.417 79.1631 104.41 83.1122C102.932 85.047 100.789 86.1881 98.3676 85.9004C95.4703 85.5531 92.6325 83.9258 90.0229 82.7252C86.8775 81.2765 83.7023 79.9668 80.2295 79.6393C77.0742 79.3417 73.7998 80.1752 70.8925 81.3559C67.9853 82.5367 65.1376 84.1143 62.2998 85.5829C59.72 86.9125 56.9913 88.2123 54.0741 88.6092C51.5538 88.9565 49.232 88.4703 47.2177 87.2101C45.4615 86.0988 44.1418 84.4616 43.1198 82.4573C41.0956 78.5082 40.7285 73.4379 41.8696 69.1712C42.197 67.9508 42.4848 67.1868 42.9908 66.2144C44.4494 63.3766 40.1629 60.8662 38.7044 63.7139H38.6944Z" fill="black"/>
<path d="M51.4448 74.5296C51.5539 74.351 51.663 74.1724 51.7821 74.0037C52.0302 73.6465 51.4249 74.3807 51.9309 73.8052C52.179 73.5274 52.437 73.2496 52.7148 72.9916C53.1712 72.5649 53.588 72.2772 54.3718 71.8704C54.4215 71.8406 54.9771 71.5925 54.7588 71.6818C54.5802 71.7612 55.0069 71.5925 55.0466 71.5826C55.4435 71.4437 55.8503 71.3346 56.2571 71.2453C56.3365 71.2254 56.8723 71.146 56.4655 71.1957C56.6342 71.1758 56.8028 71.1659 56.9616 71.156C57.3783 71.1361 57.7951 71.156 58.2217 71.1758C58.3904 71.1857 58.5591 71.2254 58.2912 71.1758C58.4896 71.2155 58.6881 71.2552 58.8964 71.2949C59.2536 71.3842 59.6009 71.4933 59.9482 71.6124C60.6626 71.8605 59.7597 71.5132 60.1467 71.6918C60.3352 71.7811 60.5138 71.8704 60.6924 71.9696C61.0198 72.1482 61.3274 72.3466 61.6251 72.555C61.764 72.6542 61.7541 72.6542 61.6152 72.5352L61.8037 72.6939C61.9526 72.8328 62.1113 72.9618 62.2601 73.1107C62.528 73.3687 62.7761 73.6366 63.0143 73.9144C62.8059 73.6564 63.0738 73.9938 63.1432 74.093C63.2623 74.2617 63.3715 74.4303 63.4707 74.6089C63.5501 74.7479 63.6294 74.8967 63.7088 75.0356C63.7088 75.0455 64.0263 75.7401 63.8676 75.3333C64.3736 76.5736 65.5246 77.4467 66.9236 77.0697C68.1044 76.7423 69.1661 75.2638 68.6601 74.0136C66.9137 69.7073 63.1333 66.7008 58.4698 66.2047C53.8063 65.7086 49.4801 68.209 47.1484 71.9994C46.4439 73.1404 46.9003 74.728 48.0414 75.3928C49.1824 76.0576 50.7303 75.6508 51.4348 74.4998L51.4448 74.5296Z" fill="#E8C889"/>
<path d="M99.5184 72.2176C97.6332 68.3678 93.2475 65.7185 88.9412 65.9864C84.3372 66.2741 80.4675 69.2905 78.8601 73.5671C78.4036 74.7875 79.3661 76.3354 80.5965 76.6232C82.0055 76.9407 83.1565 76.1965 83.6526 74.8868C83.9106 74.2021 83.5335 75.1051 83.722 74.728C83.8113 74.5494 83.8907 74.3807 83.9899 74.212C84.0892 74.0434 84.1884 73.8747 84.2975 73.7159C84.3372 73.6465 84.6448 73.2297 84.3868 73.5572C84.625 73.2496 84.8929 72.9618 85.1806 72.6939C85.2898 72.5848 85.4088 72.4855 85.5279 72.3764C86.0438 71.9001 85.1806 72.5749 85.766 72.1879C86.0538 71.9894 86.3515 71.8009 86.6591 71.6322C86.8277 71.5429 87.0063 71.4536 87.1849 71.3742C86.8674 71.5231 87.1949 71.3742 87.3437 71.3147C87.7108 71.1857 88.0879 71.0766 88.4649 70.9972C88.5642 70.9773 89.0801 70.9079 88.6138 70.9575C88.8122 70.9377 89.0007 70.9277 89.1992 70.9178C89.5465 70.9079 89.8937 70.9178 90.2509 70.9476C89.7846 70.9079 90.3006 70.9476 90.3998 70.9774C90.5883 71.017 90.7768 71.0567 90.9654 71.1063C91.1539 71.156 91.3424 71.2155 91.521 71.275C91.6698 71.3246 92.0171 71.4536 91.6897 71.3246C92.0469 71.4735 92.3942 71.662 92.7216 71.8604C92.8903 71.9597 93.0491 72.0688 93.2078 72.178C93.2773 72.2276 93.6642 72.555 93.3567 72.2871C93.6543 72.5451 93.9421 72.8031 94.2001 73.0908C94.3092 73.2099 94.4084 73.319 94.5077 73.4381C94.2398 73.1206 94.5573 73.5175 94.6069 73.5869C94.845 73.9441 95.0534 74.3113 95.2419 74.6982C95.8273 75.8988 97.5439 76.2263 98.6354 75.5913C99.8657 74.8768 100.114 73.4083 99.5284 72.1978L99.5184 72.2176Z" fill="#E8C889"/>
<path d="M28.8715 69.707C30.1019 71.5426 31.8482 72.7432 33.9121 73.4576C35.2516 73.924 36.7102 74.1323 38.1192 74.1621C38.3772 74.1621 38.6352 74.1621 38.8832 74.1621C39.548 74.1125 40.1533 73.914 40.6395 73.4378C41.0661 73.0111 41.3936 72.2967 41.3638 71.6815C41.3043 70.4115 40.2724 69.1017 38.8832 69.2009C38.1787 69.2505 37.4544 69.2009 36.7499 69.1017L37.4048 69.191C36.4721 69.062 35.5493 68.8338 34.6761 68.4766L35.2715 68.7246C34.6761 68.4667 34.1106 68.1492 33.5847 67.7523L34.0907 68.1392C33.6839 67.8118 33.3168 67.4546 32.9893 67.0378L33.3763 67.5439C33.2969 67.4347 33.2175 67.3256 33.1382 67.2164C32.771 66.6806 32.2948 66.254 31.6597 66.0754C31.0644 65.9166 30.2706 65.9861 29.7447 66.3234C28.6731 67.018 28.0777 68.5659 28.8517 69.7169L28.8715 69.707Z" fill="black"/>
</svg>
