<svg width="128" height="128" viewBox="0 0 128 128" fill="none" xmlns="http://www.w3.org/2000/svg">
<path d="M21.9108 93.3111C21.7818 89.2429 21.8414 85.1747 22.1192 81.1164C22.2581 79.0922 22.4566 77.0581 22.6947 75.0439C22.8931 73.3868 23.042 71.6206 23.5976 70.0331C24.0045 68.8821 24.7288 67.9196 26.0286 67.8303C27.4575 67.7311 28.7077 68.6439 29.3824 69.8445C31.1486 72.9403 29.5312 76.3338 28.8267 79.4693C28.3505 81.5927 31.0196 82.6147 32.2302 80.8981C31.6944 81.6522 31.8432 81.295 32.2302 81.0866C32.4584 80.9676 32.6767 80.8386 32.895 80.7096C33.2323 80.5211 33.5399 80.3325 33.8574 80.1143C35.0977 79.2708 36.2983 78.5267 37.8562 78.5564C39.156 78.5763 40.3963 79.1022 41.329 80.0051C42.2617 80.908 42.7678 82.2575 43.4425 83.4085C44.2264 84.748 45.1988 85.7006 46.4986 86.5341C47.6 87.2386 48.4037 87.8934 48.5724 89.2826C48.7213 90.513 48.3144 91.7235 47.6992 92.7753C46.9947 93.9759 45.8537 94.9681 45.8437 96.4664C45.8437 99.1951 49.2868 100.068 51.2912 100.922C52.8291 101.576 54.4068 102.142 56.0242 102.589C57.1752 102.906 59.1795 102.936 60.0725 103.789C60.7373 104.424 60.3603 105.516 59.8245 106.111C58.9811 107.054 57.5324 107.361 56.3417 107.52C53.4146 107.897 50.4973 107.302 47.7091 106.429C41.716 104.543 34.3139 100.296 28.2413 104.127C26.2271 105.407 28.0826 108.621 30.1167 107.341C33.0438 105.496 36.5663 106.538 39.6125 107.53C42.6586 108.522 45.7842 109.882 48.9991 110.656C52.2139 111.429 55.8753 111.757 59.0803 110.735C61.9975 109.802 64.4483 107.361 64.0911 104.087C63.6644 100.128 59.6459 99.7805 56.5699 98.8875C54.8632 98.3914 53.236 97.7464 51.6087 97.032C51.0133 96.774 50.3981 96.5557 49.8226 96.2481C49.8226 96.2481 49.3067 95.9901 49.3464 95.9505C49.5349 96.1687 49.6043 96.397 49.5448 96.645C49.6539 96.4367 49.7929 96.2481 49.9417 96.0695C51.7575 93.5095 52.9879 90.4733 51.9063 87.3378C51.3805 85.8197 50.4081 84.6786 49.0884 83.7955C48.4335 83.349 47.7092 83.0314 47.2031 82.3964C46.6971 81.7614 46.3299 80.9577 45.9429 80.2333C44.1867 76.9192 40.9619 74.4982 37.0425 74.905C34.8993 75.1233 33.3911 76.0758 31.615 77.1871C30.6922 77.7626 29.6404 78.1298 28.9954 79.0426L32.3988 80.4714C32.9148 78.1694 33.7979 75.9568 33.8872 73.5754C33.9567 71.5512 33.4903 69.3782 32.3889 67.6616C30.2358 64.3177 25.3738 62.7698 22.139 65.5977C20.6209 66.9174 19.9065 68.892 19.5493 70.8268C19.1226 73.0991 18.8845 75.4209 18.6662 77.7229C18.1601 82.9025 18.0014 88.1117 18.1701 93.321C18.2494 95.7123 21.9704 95.7222 21.891 93.321L21.9108 93.3111Z" fill="#EBDBB2"/>
</svg>
