<svg width="128" height="128" viewBox="0 0 128 128" fill="none" xmlns="http://www.w3.org/2000/svg">
<path d="M22.5287 93.3046C22.3997 89.2356 22.4592 85.1667 22.7371 81.1076C22.876 79.083 23.0745 77.0485 23.3127 75.0339C23.5112 73.436 23.6303 71.7092 24.196 70.1908C24.5235 69.3075 25.0197 68.5136 26.0221 68.4441C27.2328 68.3548 28.2848 69.1289 28.8406 70.1511C30.4682 73.0986 28.8902 76.324 28.2253 79.3014C27.5603 82.2787 31.143 83.4894 32.7607 81.2168C32.0362 82.239 32.0065 81.9115 32.5424 81.6336C32.7706 81.5145 32.989 81.3855 33.2073 81.2565C33.5447 81.0679 33.8524 80.8793 34.17 80.661C35.3113 79.877 36.4129 79.1525 37.8519 79.1823C40.7399 79.2418 41.6529 81.584 42.9133 83.7276C43.7569 85.1667 44.799 86.1889 46.1983 87.0721C47.1808 87.6974 47.8557 88.2035 47.9847 89.454C48.2824 92.2427 45.2952 93.8108 45.2356 96.4705C45.1662 99.5173 48.7489 100.51 50.9818 101.462C52.5697 102.137 54.1973 102.733 55.8547 103.199C56.5593 103.398 57.264 103.557 57.9686 103.725C58.4053 103.824 59.4573 103.904 59.755 104.341C59.9634 104.638 59.6657 105.363 59.3878 105.69C58.6832 106.524 57.3632 106.772 56.341 106.911C53.4729 107.298 50.5948 106.693 47.8656 105.839C41.6728 103.894 34.1799 99.6463 27.9077 103.606C25.2182 105.303 27.6993 109.6 30.4086 107.893C33.118 106.186 36.5518 107.209 39.4299 108.142C42.566 109.154 45.6028 110.494 48.8183 111.268C52.0338 112.042 55.9242 112.399 59.229 111.347C62.5338 110.295 65.0546 107.655 64.6973 104.102C64.5187 102.296 63.5163 100.788 61.9383 99.8845C60.3604 98.9814 58.435 98.8027 56.7181 98.3065C55.0012 97.8103 53.4828 97.2049 51.9048 96.5102C51.3093 96.2522 50.694 96.0338 50.1184 95.7262L49.8703 95.5872C49.6024 95.4185 49.5627 95.3987 49.7711 95.5178C50.178 95.9743 50.2772 96.4606 50.0688 96.9667C50.1581 96.8079 50.2574 96.6591 50.3665 96.5102C52.3117 93.7612 53.6416 90.5457 52.4903 87.1714C51.9147 85.4942 50.8429 84.2338 49.384 83.2512C48.7687 82.8344 48.0939 82.5466 47.6175 81.9512C47.1411 81.3557 46.8136 80.5915 46.4563 79.9067C44.5906 76.4034 41.1468 73.8727 37.0183 74.2697C34.7654 74.488 33.1478 75.4705 31.282 76.6317C30.2498 77.2768 29.1681 77.6837 28.4337 78.7158L32.9691 80.6312C33.4951 78.2692 34.3982 76.0164 34.4776 73.5651C34.5471 71.4413 34.0509 69.1388 32.8996 67.3425C30.5476 63.6109 25.2877 62.0627 21.7149 65.1393C20.1171 66.5188 19.343 68.6227 18.9658 70.6374C18.5292 72.9597 18.291 75.3415 18.0528 77.7035C17.5466 82.894 17.3978 88.1043 17.5665 93.3046C17.6657 96.4904 22.6279 96.5003 22.5287 93.3046Z" fill="#EBDBB2"/>
</svg>
