<svg width="128" height="128" viewBox="0 0 128 128" fill="none" xmlns="http://www.w3.org/2000/svg">
<path d="M32.0733 66.748C29.9301 63.9995 27.6082 61.122 24.1652 60.0206C20.7221 58.9192 16.5646 60.1893 14.1733 63.0073C9.47002 68.544 11.7026 77.1567 17.398 81.0562C21.2777 83.7154 26.0206 83.4276 30.4659 82.872C31.4581 82.743 32.3313 82.108 32.3313 81.0066C32.3313 80.0937 31.478 79.0221 30.4659 79.1411C27.38 79.5281 23.9369 80.0242 20.9701 78.7839C18.678 77.8314 16.8225 75.8072 15.9593 73.4854C15.096 71.1635 15.0266 68.6928 16.2173 66.5297C17.408 64.3666 20.0771 62.8287 22.647 63.4439C25.6535 64.1583 27.6578 67.0655 29.4439 69.3675C30.0591 70.1613 31.4284 70.0125 32.0733 69.3675C32.8572 68.5837 32.6885 67.5319 32.0733 66.7381V66.748Z" fill="#EBDBB2"/>
<path d="M28.8286 81.0365C28.9874 88.0318 29.1362 95.0271 29.295 102.012C29.3446 104.404 33.0655 104.414 33.0159 102.012C32.8571 95.0172 32.7083 88.0219 32.5495 81.0365C32.4999 78.6452 28.779 78.6352 28.8286 81.0365Z" fill="#EBDBB2"/>
</svg>
