<svg width="128" height="128" viewBox="0 0 128 128" fill="none" xmlns="http://www.w3.org/2000/svg">
<path d="M32.077 66.748C29.9337 63.9995 27.6119 61.122 24.1688 60.0206C20.7257 58.9192 16.5682 60.1893 14.1769 63.0073C9.47369 68.544 11.7062 77.1567 17.4017 81.0562C21.2814 83.7154 26.0243 83.4276 30.4696 82.872C31.4618 82.743 32.335 82.108 32.335 81.0066C32.335 80.0937 31.4816 79.0221 30.4696 79.1411C27.3837 79.5281 23.9406 80.0242 20.9738 78.7839C18.6817 77.8314 16.8262 75.8072 15.9629 73.4854C15.0997 71.1635 15.0302 68.6928 16.2209 66.5297C17.4116 64.3666 20.0808 62.8287 22.6507 63.4439C25.6572 64.1583 27.6615 67.0655 29.4475 69.3675C30.0627 70.1613 31.432 70.0125 32.077 69.3675C32.8609 68.5837 32.6922 67.5319 32.077 66.7381V66.748Z" fill="#EBDBB2"/>
<path d="M28.8323 81.0365C28.991 88.0318 29.1399 95.0271 29.2986 102.012C29.3482 104.404 33.0692 104.414 33.0195 102.012C32.8608 95.0172 32.712 88.0219 32.5532 81.0365C32.5036 78.6452 28.7827 78.6352 28.8323 81.0365Z" fill="#EBDBB2"/>
<path d="M13.6907 78.2185C11.9146 79.8557 11.3093 82.376 11.7657 84.6978C12.2222 87.0197 14.0975 88.8752 16.3201 89.7384C20.9837 91.5245 26.0937 87.9921 26.8379 83.2392C27.3043 80.2327 26.3021 77.2858 24.2779 75.0532C23.623 74.3289 22.3034 74.3388 21.6485 75.0532C20.9341 75.8272 20.9539 76.9087 21.6485 77.6827C21.7279 77.772 21.8172 77.8712 21.8965 77.9605C21.8965 77.9605 22.0851 78.1986 21.9858 78.0696C21.8668 77.9208 22.095 78.2284 22.1148 78.2582C22.1644 78.3375 22.224 78.4169 22.2736 78.4963C22.3927 78.6848 22.5018 78.8733 22.601 79.0619C22.6606 79.171 22.7102 79.2901 22.7697 79.3992C22.9086 79.6771 22.6903 79.1809 22.7995 79.4687C22.9582 79.8755 23.0773 80.2923 23.1666 80.7288C23.1666 80.7685 23.246 81.1555 23.2162 80.9372C23.1865 80.7487 23.2261 81.0464 23.2261 81.0563C23.246 81.3043 23.2559 81.5524 23.2559 81.8005C23.2559 82.0485 23.246 82.2966 23.2063 82.5447C23.246 82.2668 23.1765 82.6637 23.1567 82.753C23.1071 82.9713 23.0475 83.1896 22.9682 83.4079C22.9384 83.4873 22.9086 83.5667 22.8789 83.646C22.7697 83.9338 23.0674 83.2789 22.8293 83.7453C22.6506 84.1025 22.4522 84.4398 22.224 84.7673C22.4026 84.5093 22.1049 84.9062 22.0355 84.9856C21.8866 85.1543 21.7278 85.313 21.5592 85.4619C21.4996 85.5214 21.4302 85.571 21.3707 85.6305C21.6088 85.4222 21.4004 85.6107 21.3508 85.6504C21.192 85.7595 21.0234 85.8687 20.8547 85.9679C20.686 86.0671 20.5074 86.1564 20.3288 86.2358C20.6364 86.1068 20.1006 86.3053 19.9815 86.335C19.793 86.3846 19.6045 86.4243 19.4159 86.464C19.7037 86.464 19.1381 86.5235 19.4159 86.464C19.3366 86.464 19.2473 86.4739 19.1679 86.4739C18.9793 86.4739 18.7809 86.4739 18.5924 86.4739C18.5328 86.4739 18.1856 86.4342 18.4237 86.4739C18.642 86.5037 18.3046 86.4442 18.2649 86.4442C18.0764 86.4045 17.8879 86.3549 17.6993 86.3053C17.5902 86.2755 17.491 86.2358 17.3818 86.1961C17.362 86.1961 17.1139 86.077 17.3025 86.1663C17.4513 86.2358 17.0147 86.0076 16.9353 85.9679C16.7468 85.8587 16.5583 85.7397 16.3896 85.6107C16.6773 85.8389 16.2011 85.4222 16.1514 85.3626C16.0721 85.2832 15.8339 84.9955 16.0125 85.2336C15.8835 85.065 15.7744 84.8863 15.6653 84.6978C15.6256 84.6284 15.5958 84.5589 15.5561 84.4894C15.4271 84.2612 15.6752 84.8764 15.5363 84.42C15.4767 84.2215 15.4073 84.0231 15.3676 83.8147C15.3477 83.7353 15.3378 83.656 15.3279 83.5865C15.2783 83.3682 15.3279 83.8842 15.3279 83.527C15.3279 83.3186 15.318 83.1102 15.3279 82.8919C15.3279 82.7828 15.3477 82.6836 15.3576 82.5744C15.3378 82.7431 15.318 82.8026 15.3576 82.6042C15.3973 82.4057 15.4668 82.1974 15.5263 81.9989C15.6256 81.6715 15.5462 81.9295 15.5065 81.9989C15.5561 81.8798 15.6156 81.7608 15.6851 81.6516C15.7248 81.5822 15.7645 81.5127 15.8042 81.4532C15.8339 81.4135 16.082 81.0662 15.9331 81.2547C15.8042 81.4234 15.9629 81.225 15.9828 81.2051C16.0919 81.0861 16.2011 80.9769 16.3201 80.8678C17.0345 80.203 17.0445 78.8932 16.3201 78.2383C15.5561 77.5338 14.4547 77.5338 13.6907 78.2383V78.2185Z" fill="#EBDBB2"/>
</svg>
