<svg width="128" height="128" viewBox="0 0 128 128" fill="none" xmlns="http://www.w3.org/2000/svg">
<path d="M32.5158 66.3363C30.3032 63.4886 27.8921 60.5815 24.3301 59.4404C20.5696 58.2398 16.2733 59.6091 13.7332 62.5857C8.74241 68.4299 11.0443 77.4788 17.0869 81.6064C21.0558 84.3251 25.9176 84.077 30.4619 83.5115C31.7915 83.3428 32.9425 82.4895 32.9425 81.0309C32.9425 79.8204 31.8014 78.3817 30.4619 78.5504C27.4258 78.9275 24.0026 79.4633 21.1351 78.2131C19.8254 77.6475 19.1507 77.0919 18.228 76.0798C17.6426 75.4349 16.8389 74.1152 16.561 73.3612C16.3427 72.7857 16.1741 72.1903 16.055 71.5851C16.0451 71.5355 15.9558 70.9997 15.9955 71.2676C16.0252 71.4958 15.9756 71.0791 15.9756 71.0791C15.9459 70.6921 15.926 70.2952 15.936 69.9083C15.9558 69.0549 15.9558 69.1542 16.1542 68.3803C16.2336 68.0826 16.3229 67.7948 16.4321 67.5071C16.5313 67.2392 16.4618 67.4376 16.4321 67.4873C16.5214 67.2789 16.6305 67.0804 16.7396 66.882C17.3548 65.7707 18.1089 65.0563 19.2698 64.461C19.6865 64.2427 20.3017 64.0443 20.9565 63.9649C20.8871 63.9649 20.7184 63.9947 21.0062 63.9748C21.1947 63.9748 21.3832 63.9649 21.5717 63.9748C22.0281 63.9847 21.9487 63.9649 22.4647 64.084C23.695 64.3816 24.7269 65.0762 25.7092 66.0188C26.9297 67.1797 27.9616 68.5192 28.9935 69.8487C29.817 70.9104 31.6328 70.7119 32.5059 69.8487C33.5477 68.8069 33.3294 67.398 32.5059 66.3363H32.5158Z" fill="#EBDBB2"/>
<path d="M28.2095 81.0607C28.3682 88.0558 28.517 95.0509 28.6758 102.036C28.7453 105.221 33.7063 105.231 33.6369 102.036C33.4781 95.041 33.3293 88.0459 33.1705 81.0607C33.1011 77.8757 28.14 77.8658 28.2095 81.0607Z" fill="#EBDBB2"/>
<path d="M13.247 77.8063C11.3022 79.6022 10.6672 82.3605 11.1633 84.8907C11.6594 87.4208 13.7331 89.435 16.1541 90.3578C21.1152 92.2628 26.6319 88.4924 27.4356 83.4222C27.9516 80.1876 26.8998 77.0423 24.7169 74.6312C23.8438 73.6688 22.0876 73.6787 21.2045 74.6312C20.2619 75.6631 20.2718 77.1117 21.2045 78.1436C21.2839 78.2329 21.3732 78.3322 21.4526 78.4215C21.4923 78.4612 21.6808 78.7191 21.4922 78.4611C21.2938 78.1932 21.6808 78.7389 21.7304 78.8282C21.8494 79.0168 21.9586 79.2053 22.0578 79.3938C22.1173 79.503 22.167 79.622 22.2265 79.7312C22.3852 80.0288 22.0876 79.3343 22.1967 79.6617C22.3356 80.0785 22.4745 80.4853 22.5638 80.9218C22.6928 81.5568 22.5638 80.6341 22.6035 81.0905C22.6234 81.3385 22.6333 81.5866 22.6333 81.8346C22.6333 81.9239 22.544 82.5292 22.5837 82.5788C22.5638 82.559 22.673 82.1224 22.6035 82.3705C22.5837 82.4498 22.5738 82.5391 22.5539 82.6185C22.5043 82.8368 22.4448 83.0551 22.3654 83.2734C22.3356 83.3527 22.3059 83.4321 22.2761 83.5115C22.1769 83.8092 22.544 82.9757 22.286 83.4619C22.1967 83.6405 22.1074 83.8092 21.9983 83.9878C21.9388 84.0969 21.6808 84.3747 21.6709 84.4839C21.6709 84.4739 21.9784 84.1167 21.7998 84.3152C21.7205 84.4045 21.651 84.4839 21.5815 84.5732C21.4327 84.7418 21.274 84.9006 21.1053 85.0494C21.0656 85.0792 20.9267 85.1685 20.9168 85.2181C20.9763 85.0395 21.2839 84.9601 21.016 85.1387C20.8572 85.2479 20.6886 85.357 20.5199 85.4562C20.4008 85.5257 20.1131 85.744 19.994 85.7241C19.9742 85.7241 20.4802 85.5555 20.1924 85.6348C20.0535 85.6745 19.9246 85.7241 19.7956 85.7638C19.6071 85.8134 19.4185 85.8531 19.23 85.8928C18.9026 85.9623 19.736 85.8631 19.3987 85.8631C19.3193 85.8631 19.23 85.873 19.1506 85.873C18.9621 85.873 18.7637 85.873 18.5751 85.873C18.4759 85.873 18.1088 85.8233 18.4958 85.873C18.8827 85.9226 18.4958 85.873 18.4164 85.8531C18.2279 85.8134 18.0393 85.7638 17.8508 85.7142C17.7715 85.6944 17.1563 85.4761 17.5234 85.6051C17.8905 85.7341 17.3249 85.486 17.2257 85.4364C17.0372 85.3272 16.8685 85.1685 16.68 85.0792C17.1166 85.3074 16.9281 85.2876 16.7991 85.1586C16.7197 85.0792 16.6403 85.0098 16.5609 84.9304C16.5014 84.8708 16.4518 84.8014 16.3923 84.7518C16.2038 84.5831 16.5113 84.9105 16.5213 84.9304C16.4518 84.7518 16.2732 84.5632 16.174 84.3946C16.1343 84.3251 16.1045 84.2557 16.0648 84.1862C15.916 83.9382 16.2534 84.7617 16.1045 84.2656C16.045 84.0671 15.9756 83.8687 15.9359 83.6603C15.916 83.581 15.9061 83.5016 15.8962 83.4321C15.8366 83.1345 15.916 83.9977 15.9259 83.5413C15.9259 83.3329 15.916 83.1245 15.9259 82.9063C15.9259 82.807 15.9557 82.688 15.9557 82.5887C15.9557 82.7078 15.8565 83.1146 15.9458 82.7773C15.9954 82.5689 16.0549 82.3705 16.1145 82.172C16.2335 81.7454 16.0847 82.3208 16.0351 82.3308C16.0748 82.3308 16.1839 82.0232 16.2137 81.9835C16.2534 81.914 16.2931 81.8446 16.3327 81.785C16.3824 81.7057 16.6503 81.3286 16.4121 81.6561C16.3625 81.7156 16.2038 81.9339 16.4121 81.6561C16.5213 81.5469 16.6304 81.4279 16.7495 81.3187C17.702 80.4356 17.7119 78.6893 16.7495 77.8063C15.7275 76.8637 14.259 76.8637 13.237 77.8063H13.247Z" fill="#EBDBB2"/>
</svg>
