<svg width="128" height="128" viewBox="0 0 128 128" fill="none" xmlns="http://www.w3.org/2000/svg">
<path d="M37.2111 108.748C38.3025 104.6 39.384 100.453 40.4755 96.3152C41.567 92.1776 42.9363 88.3277 43.4026 84.2694C43.8095 80.737 42.45 76.9764 38.8284 75.7659C35.2067 74.5554 32.6764 77.1848 31.8231 80.3699C31.2278 82.5726 30.9302 84.8846 30.5134 87.1172C30.057 89.5482 29.6005 91.9791 29.1441 94.4101L32.7956 94.9063C32.9444 90.461 33.0932 86.0158 33.2421 81.5705C33.3215 79.3082 33.3909 77.0458 33.4703 74.7835C33.5397 72.799 33.6489 70.7253 32.9444 68.8301C31.7338 65.5656 27.6061 63.1842 24.5798 65.7938C21.861 68.1454 22.377 72.7991 22.2381 76.004C21.9999 81.1935 21.7717 86.3829 21.5336 91.5723H25.2545C25.2247 86.7203 24.7981 81.8781 23.9646 77.1054C23.27 73.1265 22.6747 68.3737 19.9956 65.1588C17.7134 62.4103 13.3873 62.2515 11.5715 65.6251C9.75565 68.9988 10.8968 73.7318 11.2837 77.413C11.8692 83.0787 12.4645 88.7444 13.0499 94.4002L16.5128 93.4576C14.5482 89.7664 10.7677 82.9994 5.60806 84.3885C2.06575 85.3411 0.666728 89.3596 1.24223 92.6538C1.9368 96.6327 5.25087 99.7087 7.79101 102.616C11.2639 106.615 14.7466 110.613 18.2195 114.612C19.7972 116.418 22.4167 113.779 20.8489 111.983C17.634 108.292 14.4291 104.6 11.2143 100.909C9.73582 99.2126 8.16806 97.5555 6.79877 95.7695C5.65769 94.2712 4.60591 92.4852 4.81428 90.5305C4.93335 89.3993 5.72712 88.0895 6.76897 87.9407C7.40401 87.8514 8.36651 88.536 9.03132 89.181C10.8372 90.9075 12.1172 93.15 13.288 95.3429C14.1215 96.9007 16.9494 96.2656 16.7509 94.4002C16.3144 90.2129 15.8778 86.0257 15.4412 81.8384C15.2229 79.7051 14.9947 77.5718 14.7764 75.4384C14.5879 73.6425 14.2902 71.8167 14.3101 70.0108C14.3101 69.0881 14.3498 67.6394 15.1336 66.9845C15.9175 66.3296 16.8403 67.1135 17.3463 67.7783C18.2393 68.9491 18.6461 70.3879 19.0034 71.7969C19.4895 73.7219 19.9162 75.6567 20.2635 77.6115C21.0871 82.2155 21.484 86.879 21.5038 91.5624C21.5137 93.9636 25.1156 93.9438 25.2247 91.5624C25.443 86.621 25.6712 81.6797 25.8895 76.7383C25.9788 74.724 25.9292 72.6502 26.1971 70.6459C26.3559 69.485 26.8321 67.8081 28.2907 68.6415C29.9478 69.5941 29.7891 72.0053 29.7494 73.6326C29.6898 75.875 29.6005 78.1175 29.531 80.3501C29.3723 85.2021 29.2036 90.0443 29.0448 94.8963C28.9754 96.9503 32.3093 97.4762 32.6963 95.3925C33.5298 90.9472 34.2442 86.4622 35.2067 82.0468C35.4349 81.0049 35.7921 79.0998 37.2011 79.1693C38.6101 79.2388 39.523 80.8263 39.6917 82.0567C39.9695 84.061 39.2551 86.1249 38.759 88.04L37.0324 94.6086C35.8814 98.9844 34.7304 103.37 33.5893 107.746C32.9841 110.068 36.5661 111.05 37.1813 108.738L37.2111 108.748Z" fill="#EBDBB2"/>
</svg>
