<svg width="128" height="128" viewBox="0 0 128 128" fill="none" xmlns="http://www.w3.org/2000/svg">
<path d="M37.7954 108.952C38.8868 104.804 39.9682 100.657 41.0596 96.5196C42.151 92.3822 43.5302 88.4333 44.0163 84.3058C44.4628 80.4959 42.8555 76.4874 38.986 75.1976C35.1165 73.9078 32.1597 76.7256 31.2172 80.2379C30.6219 82.4405 30.3242 84.7523 29.9075 86.9847C29.4511 89.4156 28.9947 91.8464 28.5383 94.2773L33.4099 94.9321C33.5587 90.4872 33.7076 86.0422 33.8564 81.5972C33.9358 79.335 34.0052 77.0728 34.0846 74.8106C34.154 72.7767 34.2632 70.6236 33.5389 68.6889C32.1597 64.988 27.5362 62.4282 24.133 65.375C21.2656 67.8654 21.7617 72.6179 21.6029 76.0211C21.3648 81.2102 21.1366 86.3994 20.8985 91.5885H25.8594C25.8296 86.6871 25.3831 81.7857 24.5497 76.9538C23.8353 72.8461 23.1904 68.044 20.4222 64.74C17.8723 61.694 13.0304 61.6245 11.0262 65.3353C9.02201 69.0461 10.2523 73.6101 10.6492 77.4399C11.2346 83.1053 11.8299 88.7707 12.4153 94.4261L17.0389 93.176C14.9156 89.1874 10.9469 82.3413 5.44023 83.8197C1.55087 84.8813 0.0030625 89.2271 0.63806 92.8585C1.35243 96.9463 4.73578 100.101 7.34522 103.098C10.8179 107.096 14.3004 111.095 17.7731 115.093C18.6561 116.105 20.3825 115.996 21.2854 115.093C22.2875 114.091 22.1685 112.603 21.2854 111.581C18.0707 107.89 14.866 104.199 11.6513 100.508C10.2126 98.8513 8.67475 97.234 7.3353 95.4977C6.26374 94.1185 5.20211 92.3921 5.44023 90.5665C5.51961 89.9613 5.74781 89.4652 6.1546 89.0187C6.36296 88.7905 6.32328 88.8004 6.71023 88.6119C6.20421 88.8699 7.24601 88.5425 6.85905 88.5822C6.42249 88.6219 7.70241 88.6814 6.93843 88.602C7.07733 88.6318 7.22616 88.6814 7.36507 88.731C7.11702 88.6218 7.13687 88.6318 7.39483 88.7608C8.06952 89.1279 8.12905 89.2072 8.6053 89.6537C10.3515 91.3206 11.5719 93.4538 12.7625 95.6862C13.8639 97.7599 17.6441 96.9165 17.3861 94.436C16.9496 90.249 16.513 86.062 16.0764 81.875C15.8582 79.7418 15.63 77.6086 15.4117 75.4754C15.2232 73.6796 14.9255 71.8539 14.9454 70.0482C14.9553 69.0659 15.114 67.905 15.5903 67.4685C15.6498 67.4189 15.8086 67.3593 15.9871 67.4189C16.2054 67.4883 16.6321 67.8554 16.9297 68.2622C17.7334 69.3636 18.1005 70.703 18.4279 72.0028C18.9141 73.9276 19.3407 75.8624 19.688 77.817C20.5016 82.3711 20.8786 86.9748 20.9084 91.5984C20.9282 94.8032 25.7304 94.7734 25.8693 91.5984C26.0876 86.6573 26.3158 81.7162 26.5341 76.7752C26.6234 74.8206 26.5638 72.7866 26.8218 70.8518C26.9508 69.8696 27.0599 68.7186 28.0025 69.2147C29.4312 69.9688 29.1931 72.35 29.1534 73.6696C29.0939 75.912 29.0046 78.1543 28.9351 80.3867C28.7764 85.2385 28.6077 90.0804 28.449 94.9321C28.3597 97.6706 32.7947 98.375 33.3206 95.587C34.154 91.142 34.8684 86.6573 35.8308 82.2421C35.9995 81.4583 36.4261 79.8212 37.0611 79.8013C38.2319 79.7517 38.9761 81.2202 39.115 82.1727C39.3729 84.0876 38.6685 86.0819 38.1922 87.9075L36.4658 94.4757C35.3149 98.8513 34.164 103.237 33.0229 107.612C32.2094 110.708 36.9917 112.018 37.8053 108.932L37.7954 108.952Z" fill="#EBDBB2"/>
</svg>
