<svg width="128" height="128" viewBox="0 0 128 128" fill="none" xmlns="http://www.w3.org/2000/svg">
<path d="M17.9246 67.8308C17.0713 61.5499 16.2279 55.279 15.3746 48.9981C14.5907 43.1836 13.4794 37.2897 13.5985 31.4058C13.6977 26.3255 15.2059 21.543 18.7879 17.8419C22.0622 14.4584 26.3686 12.2259 30.8733 10.9558C37.3724 9.12017 44.1593 9.05072 50.8569 8.97134C54.042 8.92173 54.0519 3.96055 50.847 4.00024C38.8906 4.14907 26.0213 4.71465 16.595 13.0593C12.4177 16.7604 9.75852 21.7414 8.98458 27.2682C8.08165 33.678 9.21279 40.1077 10.076 46.4481C11.098 54.0089 12.12 61.5797 13.142 69.1405C13.3207 70.4701 15.0273 71.1944 16.1981 70.8769C17.6369 70.48 18.1131 69.1603 17.9345 67.8208L17.9246 67.8308Z" fill="#FF5007"/>
<path d="M7.82383 79.9559C5.93859 88.2212 11.6043 97.4689 19.8299 99.5426C28.0555 101.606 37.4222 96.1492 39.6746 87.9732C45.4296 67.037 12.6659 58.8014 7.83376 79.9658L7.82383 79.9559Z" fill="#FF5007"/>
<path d="M5.43245 79.2911C3.26937 88.7669 9.451 99.235 18.8375 101.835C28.2241 104.434 38.593 98.6 41.7582 89.5707C44.0205 83.1013 42.6016 75.7488 37.6702 70.9166C33.344 66.6798 26.9243 64.5366 20.9113 65.251C13.0925 66.1837 7.22839 71.641 5.42252 79.2911C4.68827 82.3968 9.47084 83.7264 10.2051 80.6108C10.3837 79.8368 10.602 79.0629 10.8798 78.3187C11.1576 77.5745 11.1973 77.4753 11.6339 76.6617C12.3979 75.2527 12.7948 74.7169 13.797 73.7048C14.0054 73.4964 14.2137 73.298 14.4221 73.1095C14.5114 73.0301 15.1564 72.5042 14.7495 72.8217C15.2754 72.4149 15.841 72.0478 16.4264 71.7303C16.7042 71.5814 16.9821 71.4326 17.2599 71.2937C17.3889 71.2341 17.508 71.1746 17.6369 71.1151C17.5476 71.1548 17.1805 71.2937 17.6171 71.1151C18.2025 70.8869 18.7979 70.6884 19.4031 70.5297C20.0084 70.3709 20.6236 70.2518 21.2487 70.1625C20.693 70.2419 21.4769 70.1427 21.6257 70.1328C21.973 70.103 22.3203 70.0831 22.6775 70.0732C23.2728 70.0633 23.8682 70.0732 24.4635 70.1228C24.781 70.1427 25.0986 70.1725 25.4061 70.2121C24.8406 70.1427 25.7435 70.2717 25.8923 70.3014C27.1426 70.5396 28.363 70.8968 29.5438 71.3731C29.8911 71.512 29.1866 71.2143 29.5438 71.3731C29.6728 71.4326 29.8018 71.4921 29.9307 71.5517C30.2185 71.6906 30.4963 71.8295 30.7741 71.9783C31.3298 72.276 31.8656 72.6034 32.3915 72.9606C32.5304 73.0499 33.1456 73.5163 32.9868 73.3873C32.8082 73.2484 33.3738 73.7147 33.4631 73.7941C33.9592 74.2307 34.4355 74.6871 34.8721 75.1832C35.0606 75.3916 35.2392 75.6 35.4079 75.8183C35.0804 75.4115 35.6163 76.1259 35.7056 76.2449C36.0628 76.7708 36.3803 77.3066 36.668 77.8722C36.7375 78.0012 37.0947 78.8347 36.8962 78.3485C37.0054 78.6164 37.1046 78.8843 37.1939 79.1522C37.4023 79.7773 37.561 80.4222 37.69 81.0672C37.69 81.0474 37.8091 81.7717 37.7496 81.4046C37.7099 81.097 37.7694 81.5732 37.7694 81.6427C37.7992 81.99 37.8289 82.3373 37.8389 82.6845C37.8587 83.4089 37.8389 84.1431 37.7595 84.8675C37.7099 85.3735 37.7396 85.0758 37.7595 84.9667C37.7396 85.1354 37.7099 85.304 37.6801 85.4727C37.6106 85.8597 37.5313 86.2566 37.442 86.6436C37.2336 87.5167 36.9756 88.38 36.5886 89.1936C35.7949 90.8705 34.6736 92.3192 33.3143 93.5594C30.6551 96.0003 27.0433 97.4788 23.4415 97.4887C15.1564 97.4986 8.36946 88.6578 10.215 80.6108C10.9294 77.5051 6.14686 76.1755 5.43245 79.2911Z" fill="#FF5007"/>
<path d="M29.1469 84.9369C28.4523 87.487 25.5451 89.1936 22.9752 88.5784C20.4053 87.9632 18.6093 85.1056 19.1451 82.5258C20.5541 75.7786 30.9825 78.2294 29.137 84.9369H29.1469Z" fill="#03000D"/>
<path d="M26.7458 84.282C26.716 84.3912 26.5076 84.9071 26.6962 84.5003C26.8847 84.0935 26.6664 84.5499 26.6267 84.6293C26.5572 84.7682 26.4679 84.9071 26.3886 85.0361C26.3489 85.0957 26.3092 85.1453 26.2695 85.2048C26.1107 85.4529 26.6168 84.8079 26.4084 85.0262C26.2 85.2445 26.0016 85.4529 25.7833 85.6513C25.4856 85.9192 26.2397 85.3338 25.7932 85.6315C25.6444 85.7307 25.4856 85.8299 25.3269 85.9093C25.2078 85.9787 25.0788 86.0284 24.9597 86.0879C24.7315 86.207 25.2574 85.9688 25.2376 85.9688C25.1582 85.9787 25.059 86.0284 24.9796 86.0581C24.8506 86.0978 24.7216 86.1375 24.5926 86.1673C24.5033 86.1871 24.414 86.207 24.3247 86.2268C23.9874 86.3062 24.5132 86.197 24.5827 86.197C24.2949 86.197 23.9973 86.2367 23.7095 86.2169C23.1638 86.1772 24.166 86.326 23.7691 86.2169C23.6103 86.1772 23.4615 86.1474 23.3126 86.0978C22.8066 85.9291 23.7195 86.3161 23.3424 86.1276C23.2233 86.068 23.1043 86.0085 22.9852 85.9391C22.8463 85.8597 22.7173 85.7704 22.5883 85.6811C22.37 85.5422 22.8364 85.8795 22.8264 85.8597C22.7669 85.7902 22.6875 85.7406 22.6181 85.6811C22.499 85.5719 22.3899 85.4628 22.2807 85.3437C22.2311 85.2941 22.1914 85.2445 22.1418 85.1949C21.8739 84.9071 22.2609 85.3437 22.2708 85.3735C22.112 85.0957 21.9136 84.8476 21.7747 84.5599C21.7449 84.5003 21.7151 84.4408 21.6854 84.3713C21.5663 84.1431 21.8044 84.669 21.8044 84.6491C21.7747 84.5003 21.6953 84.3515 21.6556 84.2026C21.6159 84.0538 21.5762 83.8951 21.5465 83.7462C21.4572 83.3592 21.5961 84.3416 21.5465 83.8058C21.5266 83.5081 21.5663 83.2203 21.5663 82.9326C21.5663 82.9723 21.4472 83.5775 21.5465 83.1906C21.5465 83.1707 21.5564 83.1211 21.5564 83.141C21.5861 83.0219 21.6159 82.8929 21.6457 82.7738C21.6754 82.6548 21.7151 82.5456 21.7548 82.4265C21.8342 82.1983 22.0525 81.9304 21.6655 82.6051C21.7747 82.4166 21.854 82.2082 21.9731 82.0197C22.0227 81.9403 22.0723 81.8709 22.122 81.7915C22.1319 81.7717 22.2311 81.6427 22.2311 81.6427C22.241 81.6526 21.854 82.0892 21.983 81.9701C22.1319 81.8312 22.2509 81.6625 22.3998 81.5335C22.4395 81.4938 22.6081 81.3946 22.628 81.3351C22.5982 81.4343 22.0525 81.7419 22.3998 81.5236C22.5685 81.4244 22.7272 81.3152 22.9058 81.2259C23.015 81.1664 23.3722 81.0176 22.9058 81.216C22.4395 81.4145 22.7669 81.2755 22.8761 81.2359C23.0745 81.1664 23.2729 81.1069 23.4714 81.0672C23.5508 81.0473 23.6401 81.0374 23.7195 81.0176C24.0568 80.9382 22.9654 81.087 23.4317 81.0573C23.6301 81.0473 23.8187 81.0275 24.0171 81.0275C24.1957 81.0275 24.3842 81.0473 24.5628 81.0573C24.9201 81.0672 23.8782 80.9382 24.2354 81.0076C24.3446 81.0275 24.4537 81.0473 24.5628 81.0672C24.7415 81.1069 24.9201 81.1565 25.0887 81.2061C25.178 81.2359 25.2773 81.2656 25.3666 81.3053C25.7932 81.4542 25.049 81.1565 25.1284 81.1962C25.4757 81.3748 25.8031 81.5732 26.1405 81.7816C26.2199 81.8312 25.6047 81.3351 25.9321 81.6228C26.0115 81.6923 26.1008 81.7717 26.1802 81.8411C26.2596 81.9106 26.339 81.9999 26.4084 82.0793C26.4878 82.1686 26.7259 82.4762 26.4283 82.0793C26.1306 81.6824 26.3886 82.0296 26.458 82.1289C26.5176 82.2182 26.5771 82.3174 26.6366 82.4166C26.6862 82.5059 26.7259 82.5952 26.7755 82.6746C26.9442 82.9822 26.5275 81.9999 26.6862 82.4762C26.7557 82.6845 26.8152 82.8929 26.8648 83.1112C26.8648 83.1509 26.8748 83.2005 26.8946 83.2402C26.9839 83.6073 26.845 82.6647 26.845 82.8929C26.845 83.002 26.8648 83.1112 26.8648 83.2203C26.8648 83.4386 26.7755 83.8057 26.8351 84.0042C26.8351 84.034 26.9343 83.3791 26.8847 83.5974C26.8648 83.6668 26.8648 83.7363 26.845 83.8058C26.8152 83.9645 26.7755 84.1233 26.7358 84.282C26.4084 85.5322 27.1526 87.0305 28.4723 87.3381C29.7919 87.6457 31.1711 86.9511 31.5283 85.6017C32.2229 82.9822 31.6375 80.0749 29.5736 78.2095C27.6289 76.4533 25.049 75.7786 22.4891 76.2052C19.9291 76.6319 17.7958 78.656 16.9425 81.1565C15.7716 84.6095 17.5081 88.8364 20.8221 90.414C23.0249 91.4658 25.3368 91.3765 27.5197 90.3545C29.4447 89.4516 30.933 87.6358 31.5283 85.6116C31.8855 84.3614 31.0918 82.8532 29.7919 82.5555C28.4921 82.2579 27.1327 82.9524 26.7358 84.2919L26.7458 84.282Z" fill="#03000D"/>
<path d="M23.362 101.497C24.7908 104.196 24.5527 107.55 22.975 110.12C21.9629 111.767 17.9345 114.992 16.7736 112.204C16.6545 111.926 16.595 111.638 16.6942 111.519C17.0117 111.162 17.5971 111.182 18.0337 111.281C19.651 111.668 20.7028 113.613 21.447 114.932C23.5108 118.564 24.4138 121.162 24.2352 125.319C24.1062 128.514 29.0674 128.504 29.1963 125.319C29.4047 120.388 28.2339 116.927 25.8327 112.62C23.6696 108.741 19.2641 104.315 14.4716 107.034C10.1057 109.515 11.4056 115.786 15.6325 117.611C20.0876 119.536 24.9496 116.401 27.2516 112.63C29.7619 108.512 29.8909 103.234 27.6385 98.9969C26.1403 96.1789 21.8637 98.6794 23.3521 101.497H23.362Z" fill="#EBDBB2"/>
</svg>
