<svg width="128" height="128" viewBox="0 0 128 128" fill="none" xmlns="http://www.w3.org/2000/svg">
<path d="M17.903 67.1425C17.0894 61.1096 16.2658 55.0669 15.4521 49.034C14.698 43.4477 13.6165 37.7621 13.7356 32.1063C13.8447 27.1054 15.3331 22.4121 18.8555 18.7805C22.0605 15.4664 26.2775 13.2835 30.6831 12.0432C36.9342 10.277 43.4731 10.2175 49.9227 10.1381C52.314 10.1083 52.3239 6.3874 49.9227 6.41717C38.6508 6.55608 26.476 7.04228 17.5656 14.881C13.6463 18.3241 11.0962 22.9777 10.3619 28.1473C9.49868 34.1504 10.5405 40.1634 11.3442 46.1168C12.3365 53.4594 13.3287 60.802 14.321 68.1446C14.4599 69.1369 15.7399 69.6925 16.6131 69.4445C17.6847 69.1468 18.0518 68.1645 17.9129 67.1524L17.903 67.1425Z" fill="#FF5007"/>
<path d="M8.72456 78.6232C6.91868 86.5413 12.3462 95.3921 20.2147 97.3766C28.0832 99.3611 37.063 94.122 39.2162 86.2932C44.7231 66.2499 13.3484 58.3616 8.72456 78.6232Z" fill="#FF5007"/>
<path d="M6.92856 78.127C4.94407 86.8289 10.5503 96.3842 19.0737 98.9839C27.597 101.584 37.6981 96.1957 40.7046 87.7517C42.8478 81.7189 41.5381 74.8327 36.9241 70.3279C32.8758 66.3689 26.8925 64.4042 21.2864 65.0591C14.0132 65.9223 8.60545 71.0324 6.92856 78.127C6.38282 80.4587 9.96488 81.451 10.5205 79.1192C11.7013 74.1183 14.9161 70.3577 19.7285 69.1075C23.9952 68.0061 28.7381 68.9189 32.4888 71.469C36.2394 74.0191 38.3827 78.4246 37.9263 83.2072C37.2516 90.3911 30.7028 95.9874 23.5388 95.9377C15.3131 95.8782 8.69481 87.077 10.5205 79.1192C11.0563 76.7874 7.46437 75.7952 6.92856 78.127Z" fill="#FF5007"/>
<path d="M29.1349 83.3956C28.4701 85.8365 25.6919 87.4737 23.2311 86.8784C20.7704 86.283 19.0439 83.5544 19.5698 81.0837C20.9192 74.6242 30.9011 76.9658 29.1449 83.3956H29.1349Z" fill="#EBDBB2"/>
<path d="M27.349 82.8994C27.3291 82.9688 27.21 83.4451 27.2696 83.1673C27.3291 82.9291 27.22 83.2764 27.1704 83.3558C27.1009 83.4848 27.0216 83.6237 26.9422 83.7428C26.9025 83.7924 26.8628 83.8519 26.833 83.9015C26.704 84.1099 27.0513 83.6535 26.8826 83.8321C26.6842 84.0305 26.4956 84.2389 26.2873 84.4274C26.0491 84.6358 26.5552 84.2488 26.198 84.487C26.0492 84.5862 25.9003 84.6755 25.7515 84.7549C25.6324 84.8144 25.5134 84.8739 25.4042 84.9335C25.2157 85.0228 25.5431 84.864 25.553 84.8739C25.5232 84.8739 25.3546 84.9434 25.3049 84.9632C25.1859 85.0029 25.0569 85.0426 24.9279 85.0724C24.8485 85.0922 24.7592 85.1121 24.6699 85.1319C24.4119 85.1914 24.6898 85.1021 24.7791 85.1319C24.541 85.0724 24.1936 85.1617 23.9356 85.1517C23.4891 85.122 24.1738 85.2212 23.8563 85.1418C23.7075 85.1022 23.5586 85.0724 23.4197 85.0228C23.0129 84.8938 23.6181 85.1418 23.3205 84.993C23.2014 84.9335 23.0923 84.8739 22.9732 84.8144C22.8442 84.735 22.7251 84.6457 22.5961 84.5663C22.4275 84.4572 22.7152 84.6457 22.7152 84.6556C22.7152 84.6159 22.5564 84.5167 22.5167 84.487C22.4076 84.3877 22.2984 84.2786 22.1893 84.1694C22.1496 84.1198 22.1 84.0702 22.0603 84.0206C21.8321 83.7626 22.11 84.0504 22.11 84.0901C22.11 84.0107 21.9313 83.842 21.8916 83.7626C21.8023 83.6138 21.713 83.4649 21.6336 83.3062C21.6039 83.2467 21.5741 83.1871 21.5444 83.1276C21.4551 82.949 21.6039 83.2566 21.6039 83.2764C21.6237 83.197 21.4848 82.9391 21.455 82.8498C21.4153 82.7009 21.3856 82.5521 21.3459 82.4132C21.336 82.3536 21.2665 82.1453 21.3459 82.4132C21.4253 82.6811 21.3459 82.4132 21.3459 82.3437C21.3261 82.0659 21.3955 81.7682 21.3658 81.5003C21.3955 81.7087 21.3162 81.7781 21.3658 81.5598C21.3955 81.4408 21.4153 81.3217 21.455 81.2126C21.4947 81.1034 21.5245 80.9943 21.5642 80.8851C21.584 80.8355 21.594 80.7958 21.6138 80.7462C21.6734 80.5676 21.7428 80.6767 21.5344 80.9248C21.6535 80.776 21.7229 80.5279 21.8321 80.3592C21.8817 80.2798 21.9313 80.2104 21.981 80.1409C22.0107 80.0913 22.0603 80.0516 22.0802 80.002C22.0802 79.9921 21.7924 80.3195 21.9214 80.2104C22.0603 80.0814 22.1794 79.9226 22.3282 79.7837C22.3977 79.7242 22.487 79.6647 22.5465 79.5952C22.4473 79.7044 22.1794 79.8532 22.4275 79.6944C22.5862 79.5952 22.745 79.496 22.9137 79.4067C22.993 79.367 23.3106 79.2281 22.9831 79.367C22.6557 79.5059 22.9434 79.3868 23.0228 79.367C23.2113 79.2975 23.3999 79.2479 23.5983 79.2082C23.6777 79.1884 23.7571 79.1785 23.8364 79.1586C24.1143 79.0991 23.3006 79.2082 23.6975 79.1785C23.886 79.1685 24.0746 79.1487 24.2532 79.1487C24.4318 79.1487 24.6005 79.1685 24.7791 79.1785C25.0768 79.1785 24.3127 79.0991 24.6005 79.1487C24.7096 79.1685 24.8088 79.1884 24.918 79.2082C25.0866 79.2479 25.2553 79.2876 25.424 79.3372C25.5133 79.367 25.6026 79.3967 25.6919 79.4265C26.0392 79.5456 25.5332 79.3471 25.5828 79.3769C25.9102 79.5555 26.2277 79.744 26.5552 79.9326C26.5949 79.9623 26.1881 79.625 26.456 79.8631C26.5354 79.9326 26.6147 80.002 26.6941 80.0715C26.7735 80.1409 26.8429 80.2203 26.9124 80.2997C26.9719 80.3592 27.1803 80.6371 26.9719 80.3592C26.7635 80.0814 26.9918 80.389 27.0414 80.4585C27.1009 80.5478 27.1604 80.6371 27.21 80.7363C27.2596 80.8157 27.2993 80.905 27.339 80.9843C27.468 81.2225 27.1803 80.518 27.3093 80.9149C27.3788 81.1133 27.4383 81.3118 27.478 81.5202C27.478 81.5599 27.4879 81.6094 27.4978 81.6491C27.5673 81.9666 27.478 81.2622 27.468 81.4606C27.468 81.5599 27.4879 81.669 27.4879 81.7682C27.4879 82.0163 27.4482 82.2743 27.4581 82.5124C27.4581 82.5322 27.5375 82.0659 27.4879 82.2643C27.478 82.3338 27.4681 82.3933 27.4482 82.4628C27.4185 82.6116 27.3787 82.7704 27.339 82.9192C27.091 83.8618 27.6565 84.9831 28.6389 85.2113C29.6212 85.4395 30.663 84.9136 30.931 83.9114C31.5561 81.5697 31.0401 78.9999 29.1945 77.3329C27.4779 75.785 25.176 75.1698 22.9137 75.5468C20.6514 75.9239 18.7165 77.6901 17.9624 79.9226C16.9106 83.0284 18.4585 86.789 21.4352 88.2079C23.3602 89.1207 25.4141 89.0414 27.3292 88.1483C29.0557 87.3446 30.3951 85.7372 30.931 83.9114C31.1989 82.9787 30.6035 81.8476 29.6311 81.6194C28.6587 81.3911 27.6367 81.917 27.339 82.9192L27.349 82.8994Z" fill="#EBDBB2"/>
<path d="M24.0449 98.9838C25.5332 101.792 25.2653 105.275 23.5686 107.934C22.7252 109.263 21.4155 110.424 19.8775 110.841C18.5776 111.188 17.0099 110.841 16.7122 109.333C16.4542 108.043 18.0518 107.864 18.9547 108.222C20.4828 108.827 21.4651 110.534 22.239 111.893C24.2434 115.435 25.1265 119.444 24.9677 123.502C24.8685 125.893 28.5894 125.893 28.6886 123.502C28.8771 118.878 27.8055 114.245 25.563 110.196C23.648 106.733 20.0065 102.814 15.6505 104.858C11.7014 106.713 12.5349 112.191 16.0375 114.026C20.0263 116.12 24.6402 113.173 26.7934 109.809C29.2145 106.019 29.3633 101.058 27.2696 97.1085C26.1484 94.995 22.9336 96.8703 24.0548 98.9838H24.0449Z" fill="#EBDBB2"/>
</svg>
