<svg width="128" height="128" viewBox="0 0 128 128" fill="none" xmlns="http://www.w3.org/2000/svg">
<path d="M32.0724 66.748C29.9291 63.9995 27.6073 61.122 24.1642 60.0206C20.7211 58.9192 16.5636 60.1893 14.1723 63.0073C9.46905 68.544 11.7016 77.1567 17.3971 81.0562C21.2767 83.7154 26.0197 83.4276 30.4649 82.872C31.4572 82.743 32.3303 82.108 32.3303 81.0066C32.3303 80.0937 31.477 79.0221 30.4649 79.1411C27.379 79.5281 23.936 80.0242 20.9691 78.7839C18.6771 77.8314 16.8216 75.8072 15.9583 73.4854C15.0951 71.1635 15.0256 68.6928 16.2163 66.5297C17.407 64.3666 20.0761 62.8287 22.646 63.4439C25.6525 64.1583 27.6569 67.0655 29.4429 69.3675C30.0581 70.1613 31.4274 70.0125 32.0724 69.3675C32.8562 68.5837 32.6875 67.5319 32.0724 66.7381V66.748Z" fill="#EBDBB2"/>
<path d="M28.8276 81.0365C28.9864 88.0318 29.1352 95.0271 29.294 102.012C29.3436 104.404 33.0645 104.414 33.0149 102.012C32.8561 95.0172 32.7073 88.0219 32.5486 81.0365C32.4989 78.6452 28.778 78.6352 28.8276 81.0365Z" fill="#EBDBB2"/>
<path d="M12.738 122.857C11.0611 118.918 9.38423 114.969 7.70734 111.03L5.23666 105.225C4.44287 103.37 3.54985 101.524 3.00411 99.5693C2.05156 96.1163 2.72629 91.9985 6.22891 90.272C9.73152 88.5455 12.6289 90.8971 13.9387 94.0624C15.7545 98.4481 17.084 103.082 18.6319 107.567L15.04 108.559C14.2462 104.183 13.4524 99.8075 12.6686 95.4317C12.2816 93.2785 11.8946 91.1353 11.4977 88.9821C11.1008 86.8289 10.6345 84.6956 11.0512 82.5523C11.7259 79.1589 15.5064 76.2218 18.8502 78.2956C21.9361 80.2107 22.0849 84.9337 22.7001 88.099C23.6725 93.1197 24.635 98.1405 25.6074 103.151L22.0155 104.144C20.9935 96.8803 20.8248 89.5775 21.6583 82.2845C21.7674 81.2823 22.4322 80.419 23.5237 80.419C24.4465 80.419 25.4983 81.2724 25.3891 82.2845C24.6053 89.2103 24.635 96.2453 25.6173 103.151C25.7562 104.153 25.3693 105.136 24.3175 105.443C23.4046 105.701 22.2239 105.126 22.0254 104.144C21.1225 99.4502 20.2096 94.7569 19.3067 90.0636C18.88 87.8708 18.5823 85.5985 17.977 83.4354C17.6992 82.4432 17.1138 80.7663 15.804 81.5601C14.1569 82.5523 14.5737 85.023 14.8416 86.5908C15.2385 88.8928 15.6751 91.1849 16.0918 93.4769C16.9451 98.1702 17.7886 102.864 18.6419 107.557C19.0685 109.899 15.8438 110.831 15.05 108.549C13.6211 104.382 12.2419 100.194 10.7436 96.0469C10.3765 95.0348 9.70176 93.09 8.28286 93.4373C6.78457 93.7945 6.2289 95.5309 6.28844 96.8704C6.37774 98.8846 7.38984 100.839 8.16379 102.665L10.7237 108.688C12.4602 112.776 14.2065 116.874 15.9429 120.962C16.3398 121.895 16.2109 122.947 15.2782 123.512C14.5042 123.979 13.125 123.77 12.7281 122.847L12.738 122.857Z" fill="#EBDBB2"/>
</svg>
