<svg width="1003" height="433" viewBox="0 0 1003 433" fill="none" xmlns="http://www.w3.org/2000/svg">
<path d="M708 169.489C590.237 134.953 460.191 146.684 350.091 201.763C334.916 209.353 319.752 218.032 308.776 231.212C297.8 244.392 291.687 263.019 297.041 279.455C303.76 300.069 325.957 311.202 346.942 314.087C361.219 316.05 376.266 315.128 389.155 308.544C402.044 301.96 412.367 288.984 413.393 274.247C414.501 258.254 404.633 243.087 391.709 234.097C378.785 225.106 363.178 221.24 347.828 218.247C230.718 195.382 106.154 214.895 1 272.571" stroke="#3F3F46" stroke-width="3" stroke-miterlimit="10"/>
<g opacity="0.8" filter="url(#filter0_f_390_2003)">
<path d="M601.028 281.289L696.856 227.45C716.443 216.183 740.571 216.183 760.144 227.45L855.972 282.609C870.676 291.081 870.676 312.239 855.972 320.711L760.144 374.55C740.557 385.817 716.429 385.817 696.856 374.55L601.028 319.391C586.324 310.919 586.324 289.761 601.028 281.289Z" fill="url(#paint0_linear_390_2003)"/>
</g>
<path d="M909.176 348.599L704.408 230.326L753.393 202.032L958.161 320.305L909.176 348.599Z" fill="#09090B" stroke="#09090B" stroke-width="3" stroke-linecap="round" stroke-linejoin="round"/>
<path d="M951.965 291.113L747.197 172.841L796.182 144.547L1000.95 262.819L951.965 291.113Z" fill="#09090B" stroke="#09090B" stroke-width="3" stroke-linecap="round" stroke-linejoin="round"/>
<path d="M908.498 149.562L775.432 72.7035L867.289 68.5776L1000.36 145.428L908.498 149.562Z" fill="#18181B" stroke="white" stroke-width="3" stroke-linecap="round" stroke-linejoin="round"/>
<path d="M908.498 310.659V149.562L1000.59 145.298V257.471L908.498 310.659Z" fill="#18181B" stroke="white" stroke-width="3" stroke-linecap="round" stroke-linejoin="round"/>
<path d="M990.119 250.875L918.801 292.068C917.244 292.973 915.973 292.011 915.973 289.932C915.973 287.853 917.236 285.431 918.801 284.534L990.119 243.341C991.676 242.435 992.947 243.398 992.947 245.477C992.947 247.556 991.684 249.978 990.119 250.875Z" fill="white"/>
<path d="M990.119 236.875L918.801 278.068C917.244 278.973 915.973 278.011 915.973 275.932C915.973 273.853 917.236 271.431 918.801 270.534L990.119 229.341C991.676 228.435 992.947 229.398 992.947 231.477C992.947 233.556 991.684 235.978 990.119 236.875Z" fill="white"/>
<path d="M990.119 222.875L918.801 264.068C917.244 264.973 915.973 264.011 915.973 261.932C915.973 259.853 917.236 257.431 918.801 256.534L990.119 215.341C991.676 214.435 992.947 215.398 992.947 217.477C992.947 219.556 991.684 221.978 990.119 222.875Z" fill="white"/>
<path d="M990.119 208.701L918.801 249.895C917.244 250.8 915.973 249.838 915.973 247.759C915.973 245.679 917.236 243.258 918.801 242.361L990.119 201.167C991.676 200.262 992.947 201.224 992.947 203.304C992.947 205.383 991.684 207.805 990.119 208.701Z" fill="white"/>
<path d="M909.175 170.974L704.407 52.7018L753.392 24.4077L958.16 142.68L909.175 170.974Z" fill="#18181B" stroke="white" stroke-width="3" stroke-linecap="round" stroke-linejoin="round"/>
<path d="M909.175 343.592L704.407 225.32V52.7017L909.175 170.974V343.592Z" fill="#18181B" stroke="white" stroke-width="3" stroke-linecap="round" stroke-linejoin="round"/>
<path d="M863.14 291.138C860.41 296.887 854.737 298.648 848.184 294.865L732.469 228.035C723.251 222.711 715.785 208.425 715.785 196.129V95.0288C715.785 85.2115 720.545 79.6261 727.155 80.4904C726.039 82.8305 725.419 85.823 725.419 89.3781V174.171C725.419 186.467 741.044 217.06 750.262 222.385L857.818 289.214C859.676 290.29 861.469 290.918 863.14 291.138Z" fill="#18181B" stroke="white" stroke-width="3" stroke-linecap="round" stroke-linejoin="round"/>
<path d="M864.876 181.142V282.242C864.876 285.797 864.249 288.798 863.14 291.138C861.469 290.918 859.676 290.29 857.818 289.214L742.112 222.384C732.893 217.06 719.714 193.993 719.714 146.553C719.714 99.1138 726.039 82.8304 727.155 80.4902C728.826 80.7022 730.611 81.3301 732.47 82.4064L848.184 149.236C857.402 154.56 864.876 168.846 864.876 181.142Z" fill="#BEF264" stroke="white" stroke-width="3" stroke-linecap="round" stroke-linejoin="round"/>
<path d="M884.361 190.536C884.361 195.051 887.547 200.542 891.478 202.806C895.408 205.07 898.595 203.243 898.595 198.735C898.595 194.227 895.408 188.729 891.478 186.466C887.547 184.202 884.361 186.028 884.361 190.536Z" fill="white" stroke="white" stroke-width="3" stroke-linecap="round" stroke-linejoin="round"/>
<path d="M896.489 203.319L890.651 206.642L892.533 201.525L896.489 203.319Z" fill="white" stroke="white" stroke-width="3" stroke-linecap="round" stroke-linejoin="round"/>
<path d="M886.294 186.053L880.455 189.369H886.052L886.294 186.053Z" fill="white" stroke="white" stroke-width="3" stroke-linecap="round" stroke-linejoin="round"/>
<path d="M878.496 193.865C878.496 198.38 881.683 203.871 885.613 206.135C889.544 208.399 892.73 206.572 892.73 202.064C892.73 197.556 889.544 192.058 885.613 189.795C881.683 187.531 878.496 189.357 878.496 193.865Z" fill="#18181B" stroke="white" stroke-width="3" stroke-linecap="round" stroke-linejoin="round"/>
<path d="M884.361 217.265C884.361 221.78 887.547 227.271 891.478 229.534C895.408 231.798 898.595 229.972 898.595 225.464C898.595 220.955 895.408 215.458 891.478 213.194C887.547 210.93 884.361 212.757 884.361 217.265Z" fill="white" stroke="white" stroke-width="3" stroke-linecap="round" stroke-linejoin="round"/>
<path d="M896.489 230.048L890.651 233.37L892.533 228.253L896.489 230.048Z" fill="white" stroke="white" stroke-width="3" stroke-linecap="round" stroke-linejoin="round"/>
<path d="M886.294 212.782L880.455 216.098H886.052L886.294 212.782Z" fill="white" stroke="white" stroke-width="3" stroke-linecap="round" stroke-linejoin="round"/>
<path d="M878.496 220.594C878.496 225.109 881.683 230.6 885.613 232.863C889.544 235.127 892.73 233.301 892.73 228.793C892.73 224.284 889.544 218.787 885.613 216.523C881.683 214.259 878.496 216.086 878.496 220.594Z" fill="#18181B" stroke="white" stroke-width="3" stroke-linecap="round" stroke-linejoin="round"/>
<path d="M881.057 303.602C881.057 308.348 884.399 314.122 888.521 316.502C892.643 318.882 895.985 316.962 895.985 312.222V259.922C895.985 255.175 892.643 249.402 888.521 247.022C884.399 244.642 881.057 246.562 881.057 251.302V303.602Z" fill="#BEF264" stroke="white" stroke-width="3" stroke-linecap="round" stroke-linejoin="round"/>
<path d="M909.175 343.592V170.974L958.519 142.476V315.086L909.175 343.592Z" fill="#18181B" stroke="white" stroke-width="3" stroke-linecap="round" stroke-linejoin="round"/>
<path d="M922.321 280.334L958.499 259.5V251.966L922.321 272.8C920.756 273.697 919.493 276.118 919.493 278.198C919.493 280.277 920.765 281.239 922.321 280.334Z" fill="white"/>
<path d="M922.321 294.368L958.499 273.534V266L922.321 286.834C920.756 287.731 919.493 290.153 919.493 292.232C919.493 294.311 920.765 295.273 922.321 294.368Z" fill="white"/>
<path d="M922.321 308.402L958.499 287.568V280.034L922.321 300.868C920.756 301.765 919.493 304.187 919.493 306.266C919.493 308.345 920.765 309.308 922.321 308.402Z" fill="white"/>
<path d="M922.321 322.437L958.499 301.603V294.068L922.321 314.902C920.756 315.799 919.493 318.221 919.493 320.3C919.493 322.38 920.765 323.342 922.321 322.437Z" fill="white"/>
<path d="M923.592 218.264C923.592 219.237 922.905 220.417 922.065 220.904C921.224 221.391 920.537 220.997 920.537 220.024C920.537 219.051 921.224 217.871 922.065 217.384C922.905 216.897 923.592 217.291 923.592 218.264Z" fill="white"/>
<path d="M929.582 214.811C929.582 215.784 928.895 216.964 928.055 217.451C927.214 217.938 926.527 217.544 926.527 216.571C926.527 215.598 927.214 214.418 928.055 213.931C928.895 213.444 929.582 213.838 929.582 214.811Z" fill="white"/>
<path d="M935.573 211.351C935.573 212.324 934.886 213.504 934.045 213.991C933.205 214.478 932.518 214.084 932.518 213.111C932.518 212.138 933.205 210.958 934.045 210.471C934.886 209.984 935.573 210.378 935.573 211.351Z" fill="white"/>
<path d="M941.562 207.897C941.562 208.871 940.875 210.051 940.034 210.537C939.194 211.024 938.507 210.631 938.507 209.657C938.507 208.684 939.194 207.504 940.034 207.017C940.875 206.531 941.562 206.924 941.562 207.897Z" fill="white"/>
<path d="M947.552 204.444C947.552 205.417 946.865 206.597 946.025 207.084C945.184 207.571 944.497 207.177 944.497 206.204C944.497 205.231 945.184 204.051 946.025 203.564C946.865 203.077 947.552 203.471 947.552 204.444Z" fill="white"/>
<path d="M923.592 183.711C923.592 184.684 922.905 185.864 922.065 186.351C921.224 186.837 920.537 186.444 920.537 185.471C920.537 184.497 921.224 183.317 922.065 182.831C922.905 182.344 923.592 182.737 923.592 183.711Z" fill="white"/>
<path d="M929.582 180.251C929.582 181.224 928.895 182.404 928.055 182.891C927.214 183.377 926.527 182.984 926.527 182.011C926.527 181.037 927.214 179.857 928.055 179.371C928.895 178.884 929.582 179.277 929.582 180.251Z" fill="white"/>
<path d="M935.573 176.798C935.573 177.771 934.886 178.951 934.045 179.438C933.205 179.924 932.518 179.531 932.518 178.558C932.518 177.584 933.205 176.404 934.045 175.918C934.886 175.431 935.573 175.824 935.573 176.798Z" fill="white"/>
<path d="M941.562 173.337C941.562 174.311 940.875 175.491 940.034 175.977C939.194 176.464 938.507 176.071 938.507 175.097C938.507 174.124 939.194 172.944 940.034 172.457C940.875 171.971 941.562 172.364 941.562 173.337Z" fill="white"/>
<path d="M947.552 169.884C947.552 170.857 946.865 172.037 946.025 172.524C945.184 173.011 944.497 172.617 944.497 171.644C944.497 170.671 945.184 169.491 946.025 169.004C946.865 168.517 947.552 168.911 947.552 169.884Z" fill="white"/>
<path d="M923.592 252.824C923.592 253.797 922.905 254.977 922.065 255.464C921.224 255.951 920.537 255.557 920.537 254.584C920.537 253.611 921.224 252.431 922.065 251.944C922.905 251.457 923.592 251.851 923.592 252.824Z" fill="white"/>
<path d="M929.582 249.371C929.582 250.344 928.895 251.524 928.055 252.011C927.214 252.498 926.527 252.104 926.527 251.131C926.527 250.158 927.214 248.978 928.055 248.491C928.895 248.004 929.582 248.398 929.582 249.371Z" fill="white"/>
<path d="M935.573 245.911C935.573 246.884 934.886 248.064 934.045 248.551C933.205 249.038 932.518 248.644 932.518 247.671C932.518 246.698 933.205 245.518 934.045 245.031C934.886 244.544 935.573 244.938 935.573 245.911Z" fill="white"/>
<path d="M941.562 242.457C941.562 243.431 940.875 244.611 940.034 245.097C939.194 245.584 938.507 245.191 938.507 244.217C938.507 243.244 939.194 242.064 940.034 241.577C940.875 241.091 941.562 241.484 941.562 242.457Z" fill="white"/>
<path d="M947.552 238.997C947.552 239.971 946.865 241.151 946.025 241.637C945.184 242.124 944.497 241.731 944.497 240.757C944.497 239.784 945.184 238.604 946.025 238.117C946.865 237.631 947.552 238.024 947.552 238.997Z" fill="white"/>
<path d="M920.592 246.184C920.592 247.157 919.905 248.337 919.065 248.824C918.224 249.311 917.537 248.917 917.537 247.944C917.537 246.971 918.224 245.791 919.065 245.304C919.905 244.817 920.592 245.211 920.592 246.184Z" fill="white"/>
<path d="M926.582 242.731C926.582 243.704 925.895 244.884 925.055 245.371C924.214 245.857 923.527 245.464 923.527 244.491C923.527 243.517 924.214 242.337 925.055 241.851C925.895 241.364 926.582 241.757 926.582 242.731Z" fill="white"/>
<path d="M932.573 239.271C932.573 240.244 931.886 241.424 931.045 241.911C930.205 242.397 929.518 242.004 929.518 241.031C929.518 240.057 930.205 238.877 931.045 238.391C931.886 237.904 932.573 238.297 932.573 239.271Z" fill="white"/>
<path d="M938.562 235.817C938.562 236.791 937.875 237.971 937.034 238.457C936.194 238.944 935.507 238.551 935.507 237.577C935.507 236.604 936.194 235.424 937.034 234.937C937.875 234.451 938.562 234.844 938.562 235.817Z" fill="white"/>
<path d="M944.552 232.357C944.552 233.331 943.865 234.511 943.025 234.997C942.184 235.484 941.497 235.091 941.497 234.117C941.497 233.144 942.184 231.964 943.025 231.477C943.865 230.991 944.552 231.384 944.552 232.357Z" fill="white"/>
<path d="M951.052 228.857C951.052 229.831 950.365 231.011 949.525 231.497C948.684 231.984 947.997 231.591 947.997 230.617C947.997 229.644 948.684 228.464 949.525 227.977C950.365 227.491 951.052 227.884 951.052 228.857Z" fill="white"/>
<path d="M923.592 235.544C923.592 236.518 922.905 237.698 922.065 238.184C921.224 238.671 920.537 238.278 920.537 237.304C920.537 236.331 921.224 235.151 922.065 234.664C922.905 234.178 923.592 234.571 923.592 235.544Z" fill="white"/>
<path d="M929.582 232.091C929.582 233.064 928.895 234.244 928.055 234.731C927.214 235.217 926.527 234.824 926.527 233.851C926.527 232.877 927.214 231.697 928.055 231.211C928.895 230.724 929.582 231.117 929.582 232.091Z" fill="white"/>
<path d="M935.573 228.631C935.573 229.604 934.886 230.784 934.045 231.271C933.205 231.757 932.518 231.364 932.518 230.391C932.518 229.417 933.205 228.237 934.045 227.751C934.886 227.264 935.573 227.657 935.573 228.631Z" fill="white"/>
<path d="M941.562 225.178C941.562 226.151 940.875 227.331 940.034 227.818C939.194 228.304 938.507 227.911 938.507 226.938C938.507 225.964 939.194 224.784 940.034 224.298C940.875 223.811 941.562 224.204 941.562 225.178Z" fill="white"/>
<path d="M947.552 221.724C947.552 222.697 946.865 223.877 946.025 224.364C945.184 224.851 944.497 224.457 944.497 223.484C944.497 222.511 945.184 221.331 946.025 220.844C946.865 220.357 947.552 220.751 947.552 221.724Z" fill="white"/>
<path d="M920.592 228.904C920.592 229.877 919.905 231.057 919.065 231.544C918.224 232.031 917.537 231.637 917.537 230.664C917.537 229.691 918.224 228.511 919.065 228.024C919.905 227.537 920.592 227.931 920.592 228.904Z" fill="white"/>
<path d="M926.582 225.451C926.582 226.424 925.895 227.604 925.055 228.091C924.214 228.578 923.527 228.184 923.527 227.211C923.527 226.238 924.214 225.058 925.055 224.571C925.895 224.084 926.582 224.478 926.582 225.451Z" fill="white"/>
<path d="M932.573 221.991C932.573 222.964 931.886 224.144 931.045 224.631C930.205 225.117 929.518 224.724 929.518 223.751C929.518 222.777 930.205 221.597 931.045 221.111C931.886 220.624 932.573 221.017 932.573 221.991Z" fill="white"/>
<path d="M938.562 218.537C938.562 219.511 937.875 220.691 937.034 221.177C936.194 221.664 935.507 221.271 935.507 220.297C935.507 219.324 936.194 218.144 937.034 217.657C937.875 217.171 938.562 217.564 938.562 218.537Z" fill="white"/>
<path d="M944.552 215.084C944.552 216.058 943.865 217.238 943.025 217.724C942.184 218.211 941.497 217.818 941.497 216.844C941.497 215.871 942.184 214.691 943.025 214.204C943.865 213.718 944.552 214.111 944.552 215.084Z" fill="white"/>
<path d="M951.052 211.584C951.052 212.558 950.365 213.738 949.525 214.224C948.684 214.711 947.997 214.318 947.997 213.344C947.997 212.371 948.684 211.191 949.525 210.704C950.365 210.218 951.052 210.611 951.052 211.584Z" fill="white"/>
<path d="M920.592 211.624C920.592 212.598 919.905 213.778 919.065 214.264C918.224 214.751 917.537 214.358 917.537 213.384C917.537 212.411 918.224 211.231 919.065 210.744C919.905 210.258 920.592 210.651 920.592 211.624Z" fill="white"/>
<path d="M926.582 208.171C926.582 209.144 925.895 210.324 925.055 210.811C924.214 211.297 923.527 210.904 923.527 209.931C923.527 208.957 924.214 207.777 925.055 207.291C925.895 206.804 926.582 207.197 926.582 208.171Z" fill="white"/>
<path d="M932.573 204.718C932.573 205.691 931.886 206.871 931.045 207.358C930.205 207.844 929.518 207.451 929.518 206.478C929.518 205.504 930.205 204.324 931.045 203.838C931.886 203.351 932.573 203.744 932.573 204.718Z" fill="white"/>
<path d="M938.562 201.258C938.562 202.231 937.875 203.411 937.034 203.898C936.194 204.384 935.507 203.991 935.507 203.018C935.507 202.044 936.194 200.864 937.034 200.378C937.875 199.891 938.562 200.284 938.562 201.258Z" fill="white"/>
<path d="M944.552 197.804C944.552 198.777 943.865 199.957 943.025 200.444C942.184 200.931 941.497 200.537 941.497 199.564C941.497 198.591 942.184 197.411 943.025 196.924C943.865 196.437 944.552 196.831 944.552 197.804Z" fill="white"/>
<path d="M951.052 194.304C951.052 195.277 950.365 196.457 949.525 196.944C948.684 197.431 947.997 197.037 947.997 196.064C947.997 195.091 948.684 193.911 949.525 193.424C950.365 192.937 951.052 193.331 951.052 194.304Z" fill="white"/>
<path d="M923.592 200.984C923.592 201.958 922.905 203.138 922.065 203.624C921.224 204.111 920.537 203.718 920.537 202.744C920.537 201.771 921.224 200.591 922.065 200.104C922.905 199.618 923.592 200.011 923.592 200.984Z" fill="white"/>
<path d="M929.582 197.531C929.582 198.504 928.895 199.684 928.055 200.171C927.214 200.657 926.527 200.264 926.527 199.291C926.527 198.317 927.214 197.137 928.055 196.651C928.895 196.164 929.582 196.557 929.582 197.531Z" fill="white"/>
<path d="M935.573 194.077C935.573 195.051 934.886 196.231 934.045 196.717C933.205 197.204 932.518 196.811 932.518 195.837C932.518 194.864 933.205 193.684 934.045 193.197C934.886 192.711 935.573 193.104 935.573 194.077Z" fill="white"/>
<path d="M941.562 190.618C941.562 191.591 940.875 192.771 940.034 193.258C939.194 193.744 938.507 193.351 938.507 192.378C938.507 191.404 939.194 190.224 940.034 189.738C940.875 189.251 941.562 189.644 941.562 190.618Z" fill="white"/>
<path d="M947.552 187.164C947.552 188.137 946.865 189.317 946.025 189.804C945.184 190.291 944.497 189.897 944.497 188.924C944.497 187.951 945.184 186.771 946.025 186.284C946.865 185.797 947.552 186.191 947.552 187.164Z" fill="white"/>
<path d="M920.592 194.344C920.592 195.317 919.905 196.497 919.065 196.984C918.224 197.471 917.537 197.077 917.537 196.104C917.537 195.131 918.224 193.951 919.065 193.464C919.905 192.977 920.592 193.371 920.592 194.344Z" fill="white"/>
<path d="M926.582 190.891C926.582 191.864 925.895 193.044 925.055 193.531C924.214 194.018 923.527 193.624 923.527 192.651C923.527 191.678 924.214 190.498 925.055 190.011C925.895 189.524 926.582 189.918 926.582 190.891Z" fill="white"/>
<path d="M932.573 187.437C932.573 188.411 931.886 189.591 931.045 190.077C930.205 190.564 929.518 190.171 929.518 189.197C929.518 188.224 930.205 187.044 931.045 186.557C931.886 186.071 932.573 186.464 932.573 187.437Z" fill="white"/>
<path d="M938.562 183.977C938.562 184.951 937.875 186.131 937.034 186.617C936.194 187.104 935.507 186.711 935.507 185.737C935.507 184.764 936.194 183.584 937.034 183.097C937.875 182.611 938.562 183.004 938.562 183.977Z" fill="white"/>
<path d="M944.552 180.524C944.552 181.498 943.865 182.678 943.025 183.164C942.184 183.651 941.497 183.258 941.497 182.284C941.497 181.311 942.184 180.131 943.025 179.644C943.865 179.158 944.552 179.551 944.552 180.524Z" fill="white"/>
<path d="M951.052 177.024C951.052 177.998 950.365 179.178 949.525 179.664C948.684 180.151 947.997 179.758 947.997 178.784C947.997 177.811 948.684 176.631 949.525 176.144C950.365 175.658 951.052 176.051 951.052 177.024Z" fill="white"/>
<path d="M811.58 1.66992L839.73 79.7099" stroke="white" stroke-width="3" stroke-miterlimit="10" stroke-linecap="round"/>
<path d="M873.25 95.8199C873.25 114.81 804.5 114.81 804.5 95.8199C804.5 76.8299 819.89 61.4399 838.88 61.4399C857.87 61.4399 873.26 76.8299 873.26 95.8199H873.25Z" fill="#18181B" stroke="white" stroke-width="3" stroke-miterlimit="10" stroke-linecap="round"/>
<path d="M841.04 80.4702L869.19 34.9302" stroke="white" stroke-width="3" stroke-miterlimit="10" stroke-linecap="round"/>
<defs>
<filter id="filter0_f_390_2003" x="540" y="169" width="377" height="264" filterUnits="userSpaceOnUse" color-interpolation-filters="sRGB">
<feFlood flood-opacity="0" result="BackgroundImageFix"/>
<feBlend mode="normal" in="SourceGraphic" in2="BackgroundImageFix" result="shape"/>
<feGaussianBlur stdDeviation="25" result="effect1_foregroundBlur_390_2003"/>
</filter>
<linearGradient id="paint0_linear_390_2003" x1="777.448" y1="245.595" x2="648.748" y2="338.599" gradientUnits="userSpaceOnUse">
<stop stop-color="#B3FF8C"/>
<stop offset="1" stop-color="#B3FF8C" stop-opacity="0.01"/>
</linearGradient>
</defs>
</svg>
