<svg width="128" height="128" viewBox="0 0 128 128" fill="none" xmlns="http://www.w3.org/2000/svg">
<path d="M54.6386 99.1603C58.042 101.333 61.4554 103.506 64.8588 105.679L66.2876 106.592L65.9106 103.675C65.7617 103.844 65.6029 104.002 65.4442 104.151C65.2656 104.32 65.077 104.479 64.8885 104.638C64.5512 104.925 65.0969 104.499 64.8786 104.647C64.7298 104.747 64.5908 104.856 64.442 104.955C64.1642 105.144 63.8764 105.312 63.5788 105.471C63.4101 105.56 63.2414 105.64 63.0727 105.719C63.4994 105.511 62.9437 105.759 62.785 105.808C62.6163 105.868 62.4377 105.918 62.269 105.957C62.1797 105.977 62.0904 105.997 62.0011 106.017C61.9714 106.017 61.5248 106.096 61.8423 106.047C62.1598 105.997 61.6935 106.047 61.6737 106.056C61.5744 106.056 61.4852 106.066 61.3859 106.066C61.1379 106.066 60.8997 106.056 60.6516 106.037C61.0684 106.066 60.5425 106.007 60.3838 105.977C60.1456 105.918 59.9174 105.848 59.6792 105.769C59.4014 105.679 59.9174 105.888 59.6495 105.769C59.5106 105.709 59.3816 105.64 59.2526 105.57C58.9847 105.431 58.7366 105.263 58.4786 105.094C58.4191 105.054 58.2008 104.876 58.4588 105.094C58.3794 105.025 58.2901 104.955 58.2107 104.886C58.0619 104.747 57.9131 104.608 57.7742 104.459C57.6948 104.37 57.6154 104.26 57.536 104.181C57.3574 104.012 57.6749 104.439 57.5658 104.221C57.4665 104.022 57.3078 103.834 57.1986 103.635C57.1292 103.506 56.9208 102.951 57.0796 103.417C57.02 103.258 56.9605 103.1 56.9109 102.931C56.8514 102.752 56.8117 102.564 56.772 102.385C56.7521 102.286 56.7323 102.187 56.7124 102.078C56.643 101.74 56.7124 102.385 56.7124 102.147C56.7124 101.81 56.6629 101.482 56.6728 101.145C56.6728 100.976 56.6827 100.807 56.7025 100.639C56.7025 100.55 56.772 99.9442 56.7323 100.301C56.6926 100.659 56.772 100.093 56.7918 100.004C56.8216 99.8549 56.8514 99.7061 56.891 99.5473C56.9506 99.2894 57.0201 99.0413 57.0994 98.7932C57.159 98.6245 57.2185 98.4559 57.278 98.2773C57.4169 97.8903 57.1192 98.6345 57.1788 98.5055C57.5757 97.6224 57.4665 96.4615 56.514 95.9554C55.7003 95.5288 54.3906 95.6776 53.9639 96.6202C52.7831 99.2397 52.545 102.365 53.7456 105.015C54.728 107.198 56.8613 108.865 59.1534 109.509C61.4455 110.154 63.6482 109.678 65.6228 108.597C66.6845 108.011 67.7462 107.227 68.5499 106.305C69.3536 105.382 69.2345 104.062 68.1728 103.387C64.7695 101.214 61.3561 99.0413 57.9527 96.8683L56.5239 95.9554C55.7004 95.4295 54.4402 95.757 53.9738 96.6202C53.4876 97.543 53.7655 98.6047 54.6386 99.1703V99.1603Z" fill="#EBDBB2"/>
</svg>
