<svg width="128" height="128" viewBox="0 0 128 128" fill="none" xmlns="http://www.w3.org/2000/svg">
<path d="M54.3278 99.7055C57.729 101.877 61.1401 104.049 64.5413 106.22L65.9692 107.133L65.4635 103.236C65.3147 103.404 65.1561 103.563 64.9974 103.712C64.8189 103.88 64.6305 104.039 64.4421 104.197C64.0356 104.544 64.8288 103.93 64.5611 104.118C64.4124 104.217 64.2735 104.326 64.1248 104.425C63.8472 104.614 63.5596 104.782 63.2621 104.941C63.1035 105.03 62.9051 105.09 62.7564 105.189C62.7762 105.179 63.3613 104.961 62.9944 105.09C62.8655 105.13 62.7465 105.179 62.6176 105.219C62.449 105.278 62.2705 105.328 62.1019 105.368C61.9829 105.397 61.2888 105.516 61.7549 105.447C62.2209 105.377 61.4971 105.447 61.3781 105.457C61.1797 105.457 60.8228 105.358 60.6443 105.427C60.6939 105.407 61.269 105.546 60.8525 105.447C60.7534 105.427 60.6443 105.407 60.5451 105.377C60.3071 105.318 60.0791 105.239 59.8411 105.169C59.5238 105.07 60.2675 105.377 59.9601 105.219C59.8312 105.149 59.6923 105.09 59.5634 105.02C59.2957 104.882 59.0478 104.703 58.79 104.544C58.4627 104.336 58.8891 104.634 58.8991 104.634C58.8792 104.634 58.6512 104.416 58.6512 104.425C58.5024 104.287 58.3537 104.148 58.2148 103.999C58.1355 103.91 58.0562 103.801 57.9769 103.721C57.7587 103.503 58.2446 104.148 58.1058 103.88C57.9967 103.682 57.848 103.493 57.7389 103.295C57.6001 103.037 57.5207 102.551 57.6794 103.226C57.6397 103.057 57.5604 102.898 57.5108 102.74C57.4513 102.561 57.4117 102.373 57.372 102.194C57.3522 102.095 57.3323 101.996 57.3125 101.887C57.2332 101.48 57.3522 102.422 57.3422 102.125C57.3323 101.788 57.2927 101.461 57.3026 101.123C57.3026 100.955 57.3125 100.786 57.3323 100.618C57.3323 100.489 57.4216 99.8244 57.3522 100.36C57.2827 100.895 57.372 100.261 57.4017 100.142C57.4315 99.993 57.4612 99.8443 57.5009 99.6856C57.5604 99.4278 57.6298 99.1799 57.7091 98.932C57.7686 98.7634 57.8281 98.5949 57.8876 98.4164C58.0463 97.9701 57.6496 98.9618 57.729 98.7833C58.2545 97.6033 58.1058 96.0663 56.8365 95.392C55.7557 94.8168 54.0105 95.0152 53.4452 96.2844C52.1661 99.1502 51.9182 102.462 53.2172 105.328C54.2683 107.648 56.5589 109.423 58.9883 110.107C61.4177 110.792 63.8174 110.296 65.9295 109.136C67.0401 108.531 68.1408 107.708 68.9737 106.746C70.0447 105.516 69.886 103.751 68.468 102.849C65.0668 100.677 61.6557 98.5056 58.2545 96.334L56.8266 95.4217C55.7358 94.7276 54.0402 95.154 53.4353 96.3142C52.7908 97.5438 53.1577 98.9618 54.3278 99.7055Z" fill="#EBDBB2"/>
</svg>
