<svg width="128" height="128" viewBox="0 0 128 128" fill="none" xmlns="http://www.w3.org/2000/svg">
<path d="M64.8523 102.744C64.8523 102.903 64.8423 103.061 64.8324 103.22C64.8126 103.577 64.8324 103.26 64.8324 103.19C64.7828 103.438 64.7332 103.696 64.6538 103.935C64.6042 104.083 64.5546 104.222 64.505 104.361C64.5348 104.292 64.6737 104.034 64.505 104.332C64.3562 104.599 64.2073 104.847 64.0486 105.105C63.8104 105.473 64.2272 104.986 64.0188 105.135C63.9295 105.205 63.8502 105.324 63.7708 105.413C63.6815 105.502 63.1258 105.979 63.4731 105.711C63.2746 105.86 63.0662 105.998 62.8479 106.118C62.7586 106.167 62.6694 106.207 62.5801 106.256C62.2725 106.435 62.848 106.197 62.4015 106.336C62.1534 106.415 61.9152 106.485 61.6672 106.544C61.558 106.564 61.2108 106.604 61.6275 106.564C61.4985 106.574 61.3695 106.584 61.2306 106.594C60.9627 106.604 60.7047 106.584 60.4368 106.574C60.1391 106.564 60.8635 106.673 60.3872 106.564C60.2384 106.534 60.0895 106.495 59.9407 106.455C59.7918 106.415 59.6529 106.366 59.5041 106.316C59.4049 106.286 59.2164 106.157 59.5339 106.326C59.3156 106.207 59.0873 106.098 58.879 105.969C58.7698 105.899 58.6805 105.82 58.5714 105.76C58.3332 105.621 58.8691 106.048 58.5416 105.731C58.3333 105.522 58.1249 105.304 57.9165 105.096C58.1547 105.344 57.9959 105.205 57.9364 105.115C57.857 104.986 57.7677 104.867 57.6883 104.738C57.6189 104.629 57.3112 103.964 57.4799 104.371C57.3906 104.133 57.3113 103.895 57.2418 103.647C57.212 103.548 57.2021 103.448 57.1723 103.349C57.093 102.982 57.1723 103.637 57.1525 103.151C57.1326 102.913 57.1326 102.674 57.1525 102.436C57.1525 102.347 57.2418 101.861 57.1525 102.307C57.1723 102.208 57.1922 102.109 57.212 102C57.2715 101.752 57.3509 101.514 57.4303 101.265C57.5792 100.809 57.2418 101.573 57.4799 101.156C57.5593 101.027 57.6188 100.888 57.6982 100.759C57.7577 100.65 57.8371 100.551 57.8967 100.442C57.9562 100.353 58.1745 100.114 57.9165 100.402C58.0852 100.214 58.244 100.035 58.4325 99.8664C58.4325 99.8664 58.7996 99.539 58.5813 99.7275C58.363 99.916 58.7401 99.6184 58.75 99.6084C58.9981 99.4398 59.266 99.3008 59.5339 99.1718C59.4743 99.2016 59.1766 99.3008 59.5041 99.1818C59.6529 99.1322 59.7918 99.0825 59.9407 99.0428C60.0399 99.0131 60.1392 98.9932 60.2384 98.9635C60.2384 98.9635 60.7444 98.8742 60.4467 98.9139C60.1491 98.9535 60.665 98.9039 60.665 98.9039C60.794 98.9039 60.9329 98.9039 61.0619 98.9039C61.1909 98.9039 61.3298 98.9139 61.4588 98.9238C61.8954 98.9436 61.2008 98.8444 61.5779 98.9436C61.8756 99.023 62.1633 99.0925 62.461 99.1917C62.8877 99.3306 62.2923 99.0528 62.5007 99.2115C62.6297 99.3108 62.8182 99.3703 62.9671 99.4596C63.0564 99.5092 63.1357 99.5688 63.2151 99.6184C63.2945 99.6779 63.3739 99.7275 63.4632 99.787C63.2846 99.6481 63.2746 99.6481 63.4334 99.787C63.612 99.9656 63.7807 100.134 63.9593 100.313C64.2967 100.65 63.7707 100.005 64.0386 100.402C64.118 100.531 64.2073 100.65 64.2867 100.779C64.3661 100.908 64.4256 101.047 64.505 101.176C64.6936 101.514 64.4256 100.888 64.5546 101.285C64.6539 101.583 64.7233 101.871 64.8027 102.168C64.8225 102.258 64.8424 102.526 64.8027 102.139C64.8225 102.347 64.8324 102.555 64.8324 102.774C64.8423 103.746 65.6758 104.679 66.6978 104.639C67.7199 104.599 68.5732 103.825 68.5633 102.774C68.5236 99.5588 66.5292 96.7805 63.5326 95.6494C60.536 94.5182 57.1723 95.5005 55.2374 97.8621C53.3026 100.224 52.8064 103.845 54.4734 106.643C56.1404 109.442 59.3453 110.761 62.5007 110.196C66.0231 109.561 68.5137 106.276 68.5633 102.784C68.5732 101.811 67.7 100.879 66.6978 100.918C65.6957 100.958 64.8523 101.732 64.8324 102.784L64.8523 102.744Z" fill="#EBDBB2"/>
</svg>
