<svg width="128" height="128" viewBox="0 0 128 128" fill="none" xmlns="http://www.w3.org/2000/svg">
<path d="M53.0204 99.1871C54.1219 105.448 60.2145 110.072 66.5453 109.447C67.8352 109.318 69.0855 108.396 69.026 106.967C68.9664 105.726 67.9245 104.347 66.5453 104.486C65.94 104.545 65.3248 104.555 64.7195 104.516C64.6302 104.516 64.5409 104.496 64.4416 104.486C64.2531 104.466 64.3226 104.476 64.65 104.516C64.5706 104.466 64.3821 104.476 64.2928 104.456C63.9951 104.397 63.6974 104.327 63.3997 104.248C63.102 104.168 62.8143 104.069 62.5265 103.96C61.9411 103.762 63.0028 104.198 62.4471 103.93C62.338 103.881 62.2288 103.831 62.1197 103.771C61.8518 103.633 61.5838 103.484 61.3259 103.325C61.1671 103.226 61.0182 103.127 60.8694 103.017C60.7999 102.968 60.3633 102.68 60.6908 102.888C61.0182 103.097 60.5717 102.779 60.5419 102.749C60.4328 102.65 60.3236 102.551 60.2244 102.452C60.016 102.253 59.8077 102.035 59.6191 101.817C59.5695 101.757 59.4008 101.499 59.3413 101.479C59.4901 101.519 59.6191 101.856 59.3611 101.489C59.1924 101.251 59.0337 101.003 58.8848 100.755C58.736 100.507 58.5971 100.249 58.4681 99.981C58.4085 99.852 58.3192 99.723 58.2895 99.5841C58.3589 99.852 58.4284 99.9313 58.3093 99.6039C58.1009 99.0284 57.9422 98.433 57.8429 97.8277C57.6147 96.5477 55.9874 95.7141 54.7867 96.0912C53.4074 96.5377 52.8121 97.7682 53.0502 99.1474L53.0204 99.1871Z" fill="#EBDBB2"/>
</svg>
