<svg width="128" height="128" viewBox="0 0 128 128" fill="none" xmlns="http://www.w3.org/2000/svg">
<path d="M53.6349 99.0193C54.6966 105.032 60.4814 109.418 66.5539 108.823C67.5164 108.723 68.459 108.039 68.4194 106.957C68.3797 106.034 67.5958 104.993 66.5539 105.092C65.9487 105.151 65.3334 105.161 64.7282 105.122C64.7083 105.122 64.1328 105.052 64.49 105.102C64.371 105.082 64.2519 105.062 64.1329 105.042C63.8352 104.983 63.5375 104.913 63.2398 104.834C62.9421 104.754 62.6544 104.655 62.3666 104.546C61.8209 104.348 62.6544 104.695 62.1384 104.457C62.0293 104.407 61.9201 104.358 61.811 104.298C61.5431 104.159 61.2752 104.01 61.0172 103.851C60.8584 103.752 60.7096 103.653 60.5607 103.544C60.5211 103.524 60.1539 103.236 60.3127 103.365C60.4615 103.484 60.0845 103.167 60.0944 103.177C59.9853 103.078 59.8761 102.978 59.7769 102.879C59.5685 102.681 59.3602 102.462 59.1716 102.244C59.0724 102.135 58.9831 102.026 58.8938 101.907C59.0625 102.105 58.8838 101.887 58.8144 101.798C58.6457 101.559 58.487 101.311 58.3381 101.063C58.1893 100.815 58.0504 100.557 57.9214 100.289C57.8619 100.16 57.7924 100.031 57.7428 99.8924C57.842 100.141 57.7428 99.8825 57.7031 99.7734C57.4947 99.1979 57.336 98.6025 57.2368 97.9973C57.0681 97.0348 55.8377 96.4097 54.9447 96.6974C53.9127 97.0348 53.4662 97.9576 53.6448 98.9895L53.6349 99.0193Z" fill="#EBDBB2"/>
</svg>
