<svg width="128" height="128" viewBox="0 0 128 128" fill="none" xmlns="http://www.w3.org/2000/svg">
<path d="M54.2013 100.68C57.4438 103.139 60.6764 105.588 63.919 108.047C64.385 108.404 64.8511 108.761 65.3271 109.108C65.803 109.455 66.6855 109.505 67.2408 109.356C67.816 109.197 68.4407 108.751 68.7183 108.216C69.4124 106.907 68.9365 105.667 67.8259 104.824C64.5833 102.365 61.3507 99.916 58.1082 97.4568C57.6421 97.0998 57.1761 96.7429 56.7001 96.3958C56.2241 96.0487 55.3416 95.9992 54.7863 96.1479C54.2112 96.3066 53.5865 96.7528 53.3088 97.2883C52.6147 98.5972 53.0907 99.8367 54.2013 100.68Z" fill="black"/>
</svg>
