<svg width="128" height="128" viewBox="0 0 128 128" fill="none" xmlns="http://www.w3.org/2000/svg">
<path d="M64.1899 102.759C64.1899 102.918 64.1799 103.076 64.17 103.235C64.1502 103.671 64.17 103.076 64.1998 103.037C64.1006 103.136 64.0709 103.622 64.0213 103.78C63.9915 103.88 63.8626 104.108 63.8725 104.207C63.8725 104.147 64.1403 103.671 63.942 104.028C63.7932 104.286 63.6445 104.544 63.4858 104.802C63.2082 105.218 63.8031 104.504 63.5552 104.713C63.466 104.792 63.3867 104.901 63.3073 104.99C63.2379 105.06 63.1685 105.129 63.0991 105.198L62.99 105.298C62.7917 105.466 62.8413 105.426 63.1487 105.188C62.9503 105.248 62.7124 105.496 62.524 105.595C62.4347 105.645 62.3455 105.684 62.2562 105.734C61.8497 105.972 62.8016 105.575 62.2265 105.744C61.9786 105.813 61.7406 105.893 61.4927 105.952C61.106 106.031 61.3439 105.833 61.6117 105.952C61.5324 105.922 61.3142 105.982 61.215 105.982C60.9473 105.992 60.6895 105.982 60.4218 105.962C60.0648 105.942 61.0564 106.091 60.5407 105.972C60.392 105.942 60.2433 105.902 60.0945 105.863C59.9458 105.823 59.807 105.774 59.6582 105.724C59.3508 105.625 59.7276 105.625 59.8367 105.803C59.7574 105.674 59.331 105.536 59.1823 105.446C59.0831 105.377 58.9839 105.298 58.8749 105.238C58.5873 105.079 59.331 105.655 58.974 105.298C58.855 105.188 58.4782 104.693 58.3493 104.663C58.5278 104.703 58.6468 105.079 58.4683 104.812C58.389 104.683 58.2997 104.564 58.2204 104.435C58.1708 104.346 58.1212 104.266 58.0717 104.177L58.0022 104.048C57.8932 103.81 57.913 103.87 58.0717 104.227C58.0816 104.028 57.8833 103.701 57.8337 103.503C57.8039 103.404 57.794 103.304 57.7643 103.205C57.6552 102.719 57.8039 103.81 57.7643 103.166C57.7444 102.928 57.7444 102.69 57.7643 102.452C57.7841 102.214 57.9428 101.886 57.7444 102.491C57.7742 102.402 57.7841 102.283 57.8039 102.184C57.8634 101.936 57.9428 101.698 58.0221 101.45C58.1807 100.944 57.7444 101.946 58.0122 101.49C58.0915 101.361 58.151 101.222 58.2303 101.093C58.2898 100.984 58.3691 100.885 58.4286 100.776C58.6468 100.429 58.5873 100.806 58.3592 100.865C58.4683 100.835 58.7757 100.419 58.8749 100.33C58.9542 100.26 59.3112 100.052 58.9641 100.23C58.5972 100.429 59.0137 100.201 59.0732 100.161C59.2418 100.052 59.7871 99.8636 59.8565 99.7248C59.8367 99.7644 59.2715 99.933 59.6781 99.8041C59.8268 99.7545 59.9656 99.7049 60.1144 99.6653C60.2135 99.6355 60.3127 99.6157 60.4118 99.5859C60.4912 99.5661 60.9771 99.5165 60.5407 99.5463C60.1044 99.576 60.6201 99.5463 60.6796 99.5463C60.8085 99.5463 60.9473 99.5463 61.0762 99.5463C61.2051 99.5463 61.3439 99.5562 61.4729 99.5661C61.9984 99.5859 60.9671 99.4471 61.4332 99.5661C61.7307 99.6454 62.0182 99.7148 62.3157 99.814C62.8016 99.9727 61.9488 99.5859 62.2066 99.7743C62.3455 99.8735 62.524 99.933 62.6727 100.022C62.7619 100.072 62.8413 100.131 62.9206 100.181C62.9999 100.24 63.0793 100.29 63.1685 100.349C62.8611 100.111 62.8115 100.072 63.0098 100.24C63.1883 100.419 63.3569 100.587 63.5354 100.766C63.9023 101.143 63.228 100.29 63.5156 100.726C63.5949 100.855 63.6841 100.974 63.7635 101.103C63.8428 101.232 63.9023 101.371 63.9816 101.5C64.2097 101.906 63.813 100.984 63.9717 101.46C64.0609 101.758 64.1403 102.045 64.2196 102.343C64.2989 102.64 64.1006 102.392 64.1998 102.144C64.1502 102.273 64.2295 102.63 64.2295 102.779C64.2493 104.078 65.3599 105.317 66.7085 105.258C68.0571 105.198 69.2074 104.167 69.1875 102.779C69.1379 99.2686 66.9663 96.2839 63.704 95.0543C60.6597 93.904 56.8817 94.9155 54.8093 97.4242C52.598 100.111 52.132 103.909 53.9565 106.944C55.7811 109.978 59.2517 111.396 62.6826 110.781C66.4705 110.097 69.1479 106.517 69.1974 102.769C69.2173 101.47 68.0472 100.23 66.7184 100.29C65.3897 100.349 64.2593 101.381 64.2394 102.769L64.1899 102.759Z" fill="black"/>
</svg>
