<svg width="128" height="128" viewBox="0 0 128 128" fill="none" xmlns="http://www.w3.org/2000/svg">
<path d="M53.0206 99.1871C54.122 105.448 60.2146 110.072 66.5454 109.447C67.8354 109.318 69.0856 108.396 69.0261 106.967C68.9666 105.726 67.9247 104.347 66.5454 104.486C65.9401 104.545 65.3249 104.555 64.7196 104.516C64.6303 104.516 64.541 104.496 64.4417 104.486C64.2532 104.466 64.3227 104.476 64.6501 104.516C64.5707 104.466 64.3822 104.476 64.2929 104.456C63.9952 104.397 63.6975 104.327 63.3998 104.248C63.1022 104.168 62.8144 104.069 62.5266 103.96C61.9412 103.762 63.0029 104.198 62.4473 103.93C62.3381 103.881 62.229 103.831 62.1198 103.771C61.8519 103.633 61.584 103.484 61.326 103.325C61.1672 103.226 61.0184 103.127 60.8695 103.017C60.8001 102.968 60.3635 102.68 60.6909 102.888C61.0184 103.097 60.5718 102.779 60.5421 102.749C60.4329 102.65 60.3238 102.551 60.2245 102.452C60.0162 102.253 59.8078 102.035 59.6192 101.817C59.5696 101.757 59.4009 101.499 59.3414 101.479C59.4902 101.519 59.6192 101.856 59.3613 101.489C59.1926 101.251 59.0338 101.003 58.885 100.755C58.7361 100.507 58.5972 100.249 58.4682 99.981C58.4087 99.852 58.3194 99.723 58.2896 99.5841C58.359 99.852 58.4285 99.9313 58.3094 99.6039C58.101 99.0284 57.9423 98.433 57.8431 97.8277C57.6148 96.5477 55.9875 95.7141 54.7868 96.0912C53.4075 96.5377 52.8122 97.7682 53.0503 99.1474L53.0206 99.1871Z" fill="black"/>
</svg>
