<svg width="128" height="128" viewBox="0 0 128 128" fill="none" xmlns="http://www.w3.org/2000/svg">
<path d="M32.6271 66.741C32.4287 66.5326 32.2401 66.3242 32.0615 66.096C32.389 66.5028 31.8333 65.7685 31.7837 65.6891C31.4264 65.1533 31.1089 64.5976 30.8112 64.0221C30.2059 62.8314 29.8189 61.8192 29.3724 60.3606C28.4297 57.3242 27.884 54.2183 27.6061 51.1522C27.3283 48.086 27.2787 44.8016 27.5764 41.6461C27.6855 40.505 27.8245 39.5028 28.1718 38.1136C28.3107 37.5579 28.4794 37.032 28.658 36.4862C28.8763 35.8214 28.5984 36.5458 28.7671 36.1985C28.8664 35.9901 28.9755 35.7817 29.0847 35.5832L26.9413 36.8137C36.9634 37.8357 47.0152 32.8644 52.6216 24.5788C54.4177 21.9294 50.1211 19.4388 48.335 22.0783C43.6514 29.0044 35.1872 32.6957 26.9413 31.8622C26.1177 31.7828 25.185 32.3881 24.798 33.0926C22.5653 37.1411 22.357 42.3407 22.4165 46.8556C22.4959 52.3231 23.2004 57.9989 25.0758 63.1588C26.0185 65.7388 27.2291 68.2294 29.1144 70.2537C31.2974 72.5954 34.8002 69.0828 32.6271 66.741Z" fill="black"/>
<path d="M32.6271 66.741C32.4287 66.5326 32.2401 66.3242 32.0615 66.096C32.389 66.5028 31.8333 65.7685 31.7837 65.6891C31.4264 65.1533 31.1089 64.5976 30.8112 64.0221C30.2059 62.8314 29.8189 61.8192 29.3724 60.3606C28.4297 57.3242 27.884 54.2183 27.6061 51.1522C27.3283 48.086 27.2787 44.8016 27.5764 41.6461C27.6855 40.505 27.8245 39.5028 28.1718 38.1136C28.3107 37.5579 28.4794 37.032 28.658 36.4862C28.8763 35.8214 28.5984 36.5458 28.7671 36.1985C28.8664 35.9901 28.9755 35.7817 29.0847 35.5832L26.9413 36.8137C36.9634 37.8357 47.0152 32.8644 52.6216 24.5788C54.4177 21.9294 50.1211 19.4388 48.335 22.0783C43.6514 29.0044 35.1872 32.6957 26.9413 31.8622C26.1177 31.7828 25.185 32.3881 24.798 33.0926C22.5653 37.1411 22.357 42.3407 22.4165 46.8556C22.4959 52.3231 23.2004 57.9989 25.0758 63.1588C26.0185 65.7388 27.2291 68.2294 29.1144 70.2537C31.2974 72.5954 34.8002 69.0828 32.6271 66.741Z" fill="black"/>
<path d="M37.4892 58.4455C37.5587 55.4388 38.8685 52.6208 40.9821 50.4973C42.0637 49.4058 43.3338 48.4929 44.7528 47.8876C46.1717 47.2823 47.6602 47.1533 49.1188 46.7861C56.0053 45.0496 62.0582 40.3065 65.4518 34.0849C66.9799 31.2767 62.7032 28.7762 61.1651 31.5843C59.5378 34.5711 57.2456 37.151 54.4077 39.0463C53.0582 39.9493 51.6095 40.7431 50.0813 41.2988C48.4044 41.914 46.6877 42.1621 44.9711 42.5987C37.906 44.4245 32.6866 51.1919 32.5278 58.4455C32.4584 61.6406 37.4198 61.6406 37.4892 58.4455Z" fill="black"/>
</svg>
