<svg width="128" height="128" viewBox="0 0 128 128" fill="none" xmlns="http://www.w3.org/2000/svg">
<path d="M32.6603 66.5749C31.2712 65.0667 30.2691 63.1518 29.6539 61.207C28.9693 59.0341 28.503 56.8512 27.0444 55.0255C24.4746 51.8207 20.2775 51.1063 17.4299 48.3083C11.2881 42.2756 10.4149 32.8595 14.3342 25.3683C17.9657 18.4129 25.437 13.7197 33.3449 13.9281C40.5186 14.1166 47.3748 19.1372 49.4386 26.0728C51.7306 33.7525 46.9283 42.5832 39.0502 44.4386C35.9445 45.1729 37.2543 49.9553 40.3698 49.2211C49.1112 47.1573 55.4217 38.2472 54.995 29.3471C54.5684 20.4469 47.5336 12.2513 38.8517 9.78065C30.1699 7.31004 19.444 10.882 13.3816 17.9763C6.81318 25.6759 4.86844 37.0169 9.66083 46.1155C10.9309 48.5365 12.7069 50.8384 14.7906 52.6145C16.8742 54.3905 19.325 55.224 21.5475 56.6726C23.7701 58.1213 24.0975 60.0263 24.802 62.3382C25.6751 65.1858 27.1139 67.8846 29.138 70.0774C31.3109 72.429 34.8035 68.9165 32.6504 66.565L32.6603 66.5749Z" fill="black"/>
<path d="M28.1358 38.029C27.4214 37.6618 26.8757 37.3046 26.4689 36.9276C26.1712 36.6597 25.9033 36.3819 25.6354 36.0842C25.3675 35.7866 25.3179 35.7171 25.0004 35.2111C24.6035 34.586 24.3059 33.9807 24.157 33.5442C24.028 33.1671 23.909 32.7901 23.8197 32.4031C23.78 32.2344 23.7502 32.0558 23.7105 31.8872C23.5915 31.3613 23.6907 31.9963 23.651 31.5002C23.6212 31.0636 23.5915 30.627 23.6113 30.1805C23.6113 30.0019 23.7006 29.2379 23.651 29.5356C23.7105 29.1486 23.8098 28.7617 23.9189 28.3747C24.0876 27.7992 24.0677 27.829 24.3158 27.3527C24.9806 26.0529 25.9232 25.021 26.9948 24.3066C28.245 23.4732 29.8226 22.8481 31.0132 22.7985C31.3704 22.7786 31.7276 22.7588 32.0848 22.7786C32.2634 22.7786 32.442 22.7985 32.6206 22.8084C33.4541 22.8779 32.4122 22.7588 32.8984 22.8481C33.7517 23.0168 34.4959 23.2747 35.1011 23.6022C36.3612 24.2967 37.4725 25.3981 37.8793 26.5689C38.2861 27.7397 38.2167 29.0693 37.661 30.0714C37.3039 30.7163 36.907 31.1728 36.3811 31.4605C36.2819 31.5101 35.7957 31.7185 36.1826 31.5796C35.9941 31.649 35.7957 31.6986 35.5972 31.7383C35.2004 31.8276 36.1231 31.778 35.4087 31.7582C35.1607 31.7582 34.9225 31.7582 34.6745 31.7383C34.8134 31.7582 35.0416 31.8375 34.6149 31.7086C34.3768 31.6391 34.1486 31.5895 33.9105 31.5002C34.2677 31.6391 33.8906 31.4903 33.8311 31.4506C33.6227 31.3315 33.4045 31.2124 33.2159 31.0735C33.593 31.3514 32.6404 30.379 32.9282 30.7957C32.8091 30.637 32.7099 30.4683 32.6305 30.2897C32.5511 30.1309 32.5611 30.1508 32.6504 30.3294C32.6008 30.1805 32.5611 30.0218 32.5214 29.863C32.2138 28.5533 30.7255 27.7893 29.4654 28.1267C28.1259 28.4938 27.4313 29.873 27.729 31.1827C28.88 36.1239 35.3492 38.3068 39.3974 35.3996C43.7433 32.2741 44.1005 26.1125 40.8659 22.0742C37.6313 18.0359 32.0947 16.8651 27.4611 18.5717C22.8275 20.2783 19.325 24.1777 18.7197 29.1486C18.0847 34.3677 20.9323 39.9042 25.6255 42.3153C26.8162 42.9305 28.3144 42.6229 29.0189 41.4223C29.6638 40.311 29.3265 38.6441 28.1259 38.029H28.1358Z" fill="black"/>
</svg>
