<svg width="128" height="128" viewBox="0 0 128 128" fill="none" xmlns="http://www.w3.org/2000/svg">
<path d="M37.5347 58.4222C37.6041 55.4158 38.9138 52.5979 41.0273 50.4746C42.1088 49.3831 43.3788 48.4703 44.7977 47.865C46.2165 47.2598 47.7048 47.1308 49.1634 46.7637C56.0494 45.0273 62.1018 40.2845 65.4952 34.0634C67.0232 31.2554 62.7468 28.755 61.2089 31.563C59.5816 34.5496 57.2896 37.1293 54.4519 39.0244C53.1025 39.9274 51.6538 40.7211 50.1258 41.2768C48.449 41.8919 46.7325 42.14 45.0159 42.5765C37.9514 44.4022 32.7324 51.1691 32.5736 58.4222C32.5041 61.6171 37.4652 61.6171 37.5347 58.4222Z" fill="black"/>
<path d="M33.0498 67.2231C28.565 61.3393 24.7946 53.858 26.4615 46.2973C28.1285 38.7367 33.5459 32.446 40.3128 28.7153C44.3511 26.4928 48.7863 25.1632 53.3207 24.419C54.6404 24.2008 55.3845 22.5636 55.0571 21.363C54.6701 19.9541 53.3307 19.4183 52.0011 19.6267C43.1803 21.0554 34.4191 24.9945 28.4857 31.8507C22.5522 38.7069 19.4664 47.9047 22.0561 56.7949C23.4154 61.4683 25.8265 65.8638 28.7635 69.7235C29.5771 70.7851 30.8967 71.3507 32.1568 70.6165C33.2086 70.0013 33.8634 68.2947 33.0498 67.2231Z" fill="black"/>
<path d="M23.4651 40.0462C23.2865 40.0462 22.5126 39.9272 23.098 40.0661C23.0285 40.0462 22.3241 39.8379 22.6316 39.9569C22.9392 40.076 22.2744 39.7486 22.2149 39.7188C21.9867 39.5601 21.9867 39.57 22.2149 39.7486C22.1355 39.6791 22.0562 39.6196 21.9867 39.5501C21.818 39.3715 21.6493 39.2128 21.4807 39.0243C21.8478 39.441 21.3219 38.7663 21.2624 38.6671C21.1532 38.4785 21.054 38.29 20.9647 38.1015C21.2029 38.6075 20.8754 37.7939 20.8457 37.6848C20.7861 37.4764 20.7464 37.268 20.7067 37.0597C20.8159 37.655 20.7067 36.7918 20.7067 36.6529C20.7067 36.5933 20.7663 35.9087 20.6968 36.4346C20.7464 36.1072 20.8258 35.7897 20.9151 35.4721C20.9846 35.234 21.0639 35.0058 21.1532 34.7776C20.9945 35.1645 21.3914 34.341 21.4311 34.2616C21.5501 34.0434 21.6791 33.835 21.818 33.6266C21.9073 33.4877 22.0065 33.3488 22.1058 33.2198C21.9669 33.3885 21.9966 33.3587 22.1851 33.1305C22.5721 32.6741 22.969 32.2474 23.3956 31.8406C23.6139 31.6323 23.8322 31.4338 24.0604 31.2453C24.1299 31.1858 24.7351 30.6996 24.4474 30.9179C24.9534 30.5309 25.4793 30.1638 26.025 29.8364C26.531 29.5288 27.0966 29.2212 27.4439 29.1021C27.7911 28.9831 28.1483 28.8739 28.5055 28.8045C29.1406 28.6755 28.2972 28.7648 28.952 28.7747C29.1009 28.7747 29.2398 28.7747 29.3886 28.7846C29.0909 28.735 29.0909 28.735 29.3886 28.7846C29.6069 28.8442 29.8153 28.8938 30.0236 28.9632C30.2915 29.0624 30.3014 29.0624 30.0435 28.9632C30.1725 29.0327 30.3014 29.1021 30.4205 29.1716C30.867 29.3998 30.2915 28.9632 30.609 29.3006C30.7083 29.3998 30.8075 29.499 30.9067 29.6082C30.738 29.38 30.7281 29.3899 30.8869 29.6181C31.0158 29.8661 31.0258 29.8661 30.9067 29.5982C30.9563 29.7372 30.996 29.8761 31.0258 30.015C31.3433 31.3148 32.8117 32.0986 34.0818 31.7513C35.3518 31.4041 36.1357 30.005 35.8181 28.6953C35.1038 25.8179 32.4347 24.1311 29.6267 23.8335C26.8188 23.5358 24.0307 25.0539 21.8676 26.7109C19.7046 28.3679 17.7003 30.3722 16.6089 32.942C15.5175 35.5118 15.5274 38.1213 16.6982 40.6217C17.869 43.1221 20.5678 45.1561 23.475 45.0371C24.7748 44.9875 26.0151 43.9357 25.9556 42.5565C25.896 41.2567 24.8641 40.0165 23.475 40.076L23.4651 40.0462Z" fill="black"/>
<path d="M34.6969 28.2885C36.9889 24.8853 40.4319 21.7499 43.6268 18.9221C45.006 17.7016 46.4149 16.511 47.8536 15.3501C48.3001 14.983 48.7565 14.6258 49.203 14.2686C49.5999 13.961 49.9571 13.6832 49.2923 14.1892C50.483 13.2764 51.0982 11.4805 49.7984 10.2898C46.4744 7.26356 43.1605 4.23731 39.8365 1.21107C38.8543 0.308153 37.3064 0.218854 36.3241 1.21107C33.5459 4.00911 30.7677 6.80714 27.9995 9.60518L31.8988 10.1112C30.1922 7.31316 28.4757 4.51513 26.7691 1.71709C26.0249 0.496668 24.616 0.248621 23.3757 0.824104C20.4289 2.19336 17.4919 3.55268 14.545 4.92193C13.533 5.38827 13.1758 6.72777 13.404 7.71998C14.2077 11.163 15.0213 14.6059 15.825 18.0489L18.881 14.9929C15.2495 13.9015 11.618 12.81 7.99645 11.7186C6.5875 11.2919 5.45638 12.2345 4.94043 13.455C3.50172 16.8781 2.06301 20.2913 0.624305 23.7144C0.207576 24.6967 0.902125 26.0263 1.76535 26.5125C4.50386 28.0802 7.24236 29.6479 9.98087 31.2156L9.08788 27.8222C6.34937 32.3268 3.61087 36.8315 0.872358 41.3461C0.296875 42.2986 0.50524 43.5686 1.25932 44.3525C4.72214 47.9244 8.17504 51.5162 11.6875 55.0485C12.9575 56.3186 15.4281 55.8026 15.8349 53.9571C16.7378 49.8989 19.0199 46.456 21.9668 43.5885C24.2588 41.356 20.7464 37.8535 18.4544 40.076C14.932 43.4992 12.124 47.7954 11.0525 52.6275L15.1999 51.5361C11.6875 48.0038 8.23458 44.412 4.77175 40.84L5.15872 43.8464C7.89722 39.3418 10.6357 34.8371 13.3742 30.3226C14.0688 29.1815 13.6322 27.5841 12.4812 26.9292C9.74274 25.3615 7.00423 23.7938 4.26573 22.2261L5.40677 25.0242C6.84548 21.601 8.28419 18.1878 9.72289 14.7647L6.66688 16.5011C10.2984 17.5925 13.9299 18.6839 17.5515 19.7754C19.4267 20.3409 21.0242 18.5053 20.6075 16.7193C19.8038 13.2764 18.9902 9.83338 18.1865 6.3904L17.0454 9.18845C19.9923 7.8192 22.9292 6.45986 25.8761 5.09061L22.4827 4.19762C24.1894 6.99566 25.9059 9.79369 27.6125 12.5917C28.436 13.9411 30.3609 14.2487 31.5119 13.0978C34.2901 10.2997 37.0683 7.50168 39.8365 4.70364H36.3241C39.648 7.72989 42.962 10.7562 46.2859 13.7824L46.792 9.883C44.4999 11.6392 42.2774 13.4847 40.1144 15.3997C36.5821 18.5252 33.0498 21.8392 30.4006 25.7683C28.6146 28.4175 32.9109 30.908 34.687 28.2687L34.6969 28.2885Z" fill="black"/>
</svg>
