<svg width="128" height="128" viewBox="0 0 128 128" fill="none" xmlns="http://www.w3.org/2000/svg">
<path d="M37.5896 58.4649C37.659 55.4585 38.9688 52.6406 41.0822 50.5173C42.1637 49.4259 43.4337 48.513 44.8526 47.9078C46.2714 47.3025 47.7598 47.1735 49.2183 46.8064C56.1043 45.07 62.1568 40.3273 65.5501 34.1061C67.0781 31.2981 62.8017 28.7978 61.2638 31.6057C59.6365 34.5923 57.3445 37.172 54.5068 39.0672C53.1574 39.9701 51.7088 40.7638 50.1808 41.3195C48.5039 41.9346 46.7874 42.1827 45.0709 42.6193C38.0063 44.4449 32.7873 51.2118 32.6285 58.4649C32.5591 61.6598 37.5201 61.6598 37.5896 58.4649Z" fill="black"/>
<path d="M32.7277 66.7696C27.7468 61.0048 24.78 53.1564 26.7049 45.5759C28.6298 37.9954 34.0374 32.1612 40.7348 28.5694C44.6739 26.456 48.99 25.1859 53.3855 24.4715C54.7052 24.2533 55.4493 22.6161 55.1219 21.4155C54.7349 20.0066 53.3955 19.4708 52.0659 19.6792C43.2451 21.1079 34.4938 25.057 28.5505 31.9032C22.6071 38.7495 19.6404 47.8977 21.9522 56.8276C23.2421 61.8184 25.8616 66.3925 29.2152 70.2721C30.0884 71.2841 31.8247 71.175 32.7277 70.2721C33.7298 69.2699 33.6107 67.7816 32.7277 66.7596V66.7696Z" fill="black"/>
<path d="M24.2245 52.2238C22.1408 52.2238 20.6624 52.1147 18.8765 51.7376C18.1025 51.569 17.3484 51.3705 16.5944 51.1225C16.2372 51.0034 15.88 50.8744 15.5327 50.7355C14.8481 50.4775 15.9693 50.9439 15.3045 50.6462C15.106 50.5569 14.9076 50.4676 14.7091 50.3684C14.0741 50.0608 13.459 49.7135 12.8636 49.3365C12.5461 49.1281 12.2386 48.9098 11.931 48.6916C11.6035 48.4534 12.3774 49.0587 11.8714 48.6419C11.6928 48.4931 11.5043 48.3443 11.3257 48.1855C10.7998 47.7291 10.3037 47.233 9.8374 46.717C9.61911 46.469 9.41074 46.2209 9.20238 45.963C9.53973 46.3797 9.25198 46.0324 9.1726 45.9134C9.04361 45.7248 8.90471 45.5363 8.77572 45.3478C8.4086 44.8021 8.07125 44.2365 7.75374 43.661C7.59499 43.3733 7.44616 43.0756 7.30725 42.778C7.21795 42.5994 7.13857 42.4208 7.0592 42.2322C7.28741 42.768 7.05919 42.2124 7.00958 42.0834C6.49363 40.6844 6.08682 39.2556 5.82885 37.7772C5.79908 37.6085 5.66018 36.5866 5.72964 37.2017C5.68995 36.8545 5.65026 36.5072 5.62049 36.1599C5.55104 35.386 5.52126 34.612 5.52126 33.8282C5.52126 33.1138 5.54112 32.3895 5.59073 31.6751C5.62049 31.2782 5.65024 30.8813 5.69986 30.4845C5.7197 30.3059 5.73956 30.1273 5.7594 29.9387C5.68995 30.5241 5.78915 29.7304 5.809 29.6212C6.05705 28.0535 6.41426 26.4958 6.87067 24.9777C7.08896 24.2633 7.32709 23.5489 7.58507 22.8543C7.71406 22.5071 7.85297 22.1499 7.99188 21.8026C7.78351 22.2987 8.07125 21.6141 8.09109 21.5645C8.18039 21.3561 8.27961 21.1577 8.36891 20.9493C9.06346 19.451 9.86715 18.0024 10.7701 16.6232C11.7623 15.1151 12.179 14.5694 13.3994 13.2299C15.6815 10.7196 17.5667 9.21142 20.6128 7.70326C20.9502 7.53458 21.2776 7.38574 21.6249 7.22698C22.2797 6.92932 21.3471 7.33612 21.7539 7.17737C21.9325 7.10792 22.1011 7.03847 22.2797 6.96901C23.0537 6.68127 23.8474 6.43322 24.6511 6.22486C26.8042 5.66922 28.8482 5.42117 31.1005 5.47078C35.3571 5.57 39.6831 6.92933 42.6102 9.93574C45.5372 12.9421 46.4302 17.6254 45.4975 22.1995C45.2296 23.5092 45.8745 24.8784 47.2339 25.2555C48.4642 25.5928 50.0121 24.8388 50.2899 23.5191C51.3317 18.4489 50.9944 12.9421 47.9086 8.59624C45.1899 4.77622 41.0722 2.26592 36.5378 1.19433C28.0346 -0.809939 19.055 1.62099 12.4767 7.24683C2.06836 16.147 -3.15067 33.4115 3.38801 45.9828C7.43624 53.7816 15.7807 57.1849 24.2344 57.165C27.4293 57.165 27.4293 52.1941 24.2344 52.204L24.2245 52.2238Z" fill="black"/>
<path d="M25.0778 43.9984C22.4186 42.7978 19.7595 41.6071 17.1004 40.4065L16.5051 44.941C19.184 44.1373 21.099 41.7857 21.5653 39.0373C22.111 35.8225 20.9204 32.9054 19.6404 30.0181L15.741 33.0245C18.5986 35.3562 22.5675 34.9791 25.1472 32.3597C27.727 29.7403 28.1635 25.8309 29.2847 22.378L24.7503 22.9734C26.3974 25.3944 29.2649 27.7459 32.2316 25.821C33.4917 25.0074 34.3847 23.6282 35.3273 22.4872C36.3989 21.1973 37.4606 19.9074 38.5322 18.6076L34.6328 18.1016C36.1112 20.8401 37.5796 23.5786 39.058 26.3171C40.5364 29.0556 44.8625 26.6247 43.3444 23.8167C41.8263 21.0088 40.3975 18.3397 38.9191 15.6012C38.2147 14.2915 36.0318 13.8748 35.0197 15.0952C33.6505 16.7522 32.2713 18.4191 30.9021 20.0761C30.5845 20.4631 30.1579 20.85 29.8999 21.2866C29.5725 21.8323 29.6221 21.3362 29.8404 21.5545C30.2571 21.6835 30.267 21.6537 29.8602 21.4553L29.8007 21.3858C29.5526 21.0584 29.255 20.8004 29.0268 20.4531C27.8163 18.6771 25.177 18.9549 24.4924 21.0485C23.768 23.2611 23.5597 25.7615 22.3889 27.8054C21.9126 28.629 20.3548 30.405 19.2436 29.5021C17.021 27.6864 14.1833 29.8891 15.3441 32.5085C16.0486 34.0862 16.9019 35.892 16.7531 37.668C16.6638 38.6702 16.1975 39.8211 15.1656 40.1386C13.3002 40.6943 12.5263 43.7503 14.5702 44.6731C17.2294 45.8736 19.8885 47.0643 22.5476 48.2649C23.768 48.8106 25.2167 48.6121 25.941 47.3719C26.5661 46.3102 26.2783 44.5342 25.048 43.9785L25.0778 43.9984Z" fill="black"/>
</svg>
