<svg width="64" height="64" viewBox="0 0 64 64" fill="none" xmlns="http://www.w3.org/2000/svg">
<path d="M54.1151 24.1327C57.7018 34.7328 52.9284 47.2662 42.955 52.4529C32.9817 57.6395 19.0216 54.6795 12.6749 44.7861C9.64817 40.0661 8.20817 34.4128 8.80817 28.8127C9.04817 26.5994 9.8615 23.8794 10.6348 22.226C11.5015 20.3727 12.7949 18.2793 13.8082 17.0927C19.0082 10.986 26.5016 8.31928 34.435 8.97262C34.715 8.99929 34.9816 9.02595 35.2616 9.05262C35.4216 9.06595 35.595 9.09262 35.755 9.10595C35.475 9.06595 35.4483 9.06595 35.6883 9.10595C36.2883 9.19929 36.8883 9.31929 37.475 9.45262C38.555 9.69262 39.6217 9.99929 40.6617 10.3726C41.8484 10.7993 42.115 10.906 43.355 11.5593C44.395 12.106 45.3817 12.7193 46.3417 13.3993C46.955 13.8393 47.6751 14.4393 48.5284 15.266C49.3017 16.026 50.3817 17.2393 50.7417 17.7327C52.2484 19.7727 53.3818 21.986 54.1151 24.1327C54.7018 25.8394 56.3951 26.9594 58.2218 26.466C59.8751 26.0127 61.1418 24.0794 60.5551 22.3594C57.0884 12.346 48.7951 4.79927 38.2883 2.82592C28.3816 0.959245 17.7282 3.67926 10.5015 10.8793C1.42149 19.9193 -0.178536 33.9061 5.31483 45.2661C11.7815 58.6129 27.6883 64.8396 41.6617 60.1862C56.8484 55.1329 65.7285 37.6394 60.5551 22.3594C59.1818 18.3193 52.7418 20.0527 54.1284 24.1327H54.1151Z" fill="#FF6D2D"/>
<path d="M23.5681 19.7593C24.1281 24.9193 24.6881 30.0794 25.2481 35.2394C25.4348 36.9727 26.6481 38.6527 28.5814 38.5727C30.2214 38.4927 32.1148 37.0927 31.9148 35.2394C31.3548 30.0794 30.7948 24.9193 30.2348 19.7593C30.0481 18.026 28.8348 16.346 26.9014 16.426C25.2614 16.506 23.3681 17.906 23.5681 19.7593Z" fill="#FF6D2D"/>
<path d="M29.475 38.4528C34.2217 36.9861 38.9817 35.5194 43.7284 34.0661C45.3951 33.5594 46.6217 31.7194 46.0617 29.9594C45.5017 28.1994 43.7417 27.0794 41.9551 27.626C37.2084 29.0927 32.4483 30.5594 27.7017 32.0127C26.035 32.5194 24.8083 34.3594 25.3683 36.1194C25.9283 37.8794 27.6883 38.9994 29.475 38.4528Z" fill="#FF6D2D"/>
</svg>
