<svg width="64" height="64" viewBox="0 0 64 64" fill="none" xmlns="http://www.w3.org/2000/svg">
<path d="M6.24054 48.1927C7.56054 51.0861 10.7872 52.7128 13.8006 53.0994C17.6673 53.5928 21.2539 51.9661 24.654 50.3127L20.0939 49.1127C24.3873 56.3661 33.1607 62.6595 41.9607 61.9128C46.5341 61.5261 50.9341 58.9661 51.8408 54.1394C52.7475 49.3127 49.5474 44.126 44.4541 43.246L43.5741 49.7927C51.1474 49.5794 62.2275 46.2327 63.1342 37.2727C63.5208 33.4593 61.5342 29.5526 58.6941 27.0993C55.4141 24.2593 51.2141 23.0193 47.1074 21.9526L49.4408 26.0593C51.1741 20.7793 52.4274 15.0859 49.5208 9.96587C47.3474 6.15251 43.3074 3.3525 39.054 2.40583C29.1073 0.179148 20.3073 7.43252 17.0673 16.4059L21.1739 14.0726C16.5339 12.3925 11.0672 11.8192 6.64054 14.4459C2.60052 16.8459 0.280505 21.2859 1.20051 25.9393C1.89385 29.4993 4.7472 31.446 7.52054 33.3793C8.24055 33.886 8.02721 33.686 8.65388 34.2993C8.78722 34.4193 9.22722 34.9393 9.14722 34.8327C8.97388 34.5927 9.61389 35.6593 9.36055 35.1927C9.62722 35.6593 9.44055 35.046 9.44055 35.5393C9.44055 36.086 9.60055 35.3127 9.36055 35.8193C9.09388 36.3793 9.53389 35.5927 9.20055 36.1393C9.01388 36.4593 8.81388 36.7793 8.61388 37.0993C6.5072 40.2594 4.25386 43.4594 5.89387 47.4194C6.58721 49.0861 8.10721 50.2727 10.0006 49.7527C11.5739 49.3261 13.0272 47.3261 12.3339 45.6461C12.2672 45.4994 11.9339 44.2594 12.0006 44.7661C11.9739 44.5927 12.0806 43.766 12.0006 44.3527C12.0539 44.1394 12.1072 43.9394 12.1872 43.7394C12.0539 44.0327 12.0806 44.006 12.2539 43.646C12.4139 43.3527 12.5739 43.0727 12.7606 42.7927C13.5872 41.4994 14.6006 40.3527 15.2539 38.9527C17.2406 34.7127 15.2006 30.8326 11.6939 28.2193C10.3472 27.2193 9.34722 26.6326 8.42721 25.7926C7.92055 25.3259 8.32055 25.7793 8.04055 25.3393C7.92055 25.1526 7.81388 24.9526 7.72054 24.7526C7.82721 24.9659 7.84055 24.9526 7.76054 24.7259C7.61388 24.1259 7.54721 23.4726 7.82721 22.6859C9.52055 17.9792 15.8673 19.2459 19.3873 20.5259C21.1739 21.1793 22.9206 19.7793 23.494 18.1926C25.454 12.7659 31.1207 7.47252 37.2807 8.84586C39.934 9.43253 42.4007 10.9525 43.7607 13.3392C45.6941 16.7392 44.1341 20.8859 43.0141 24.2993C42.4541 25.9926 43.6674 27.966 45.3474 28.406C48.1208 29.126 50.9741 29.806 53.3875 31.406C55.0941 32.5393 56.7875 34.6593 56.5208 36.8327C56.2541 39.006 54.0008 40.2727 52.2674 41.126C49.5741 42.446 46.5608 43.0594 43.5874 43.1527C41.9341 43.1927 40.5074 44.3794 40.3074 46.0461C40.134 47.5527 41.0407 49.4194 42.6941 49.6994C44.6141 50.0327 46.2674 51.8328 44.9607 53.7928C43.8007 55.5394 40.9607 55.4861 39.1607 55.1928C33.6007 54.2728 28.7073 50.5661 25.8673 45.7794C24.894 44.1394 22.934 43.7927 21.3073 44.5794C18.9606 45.7127 13.6272 48.3927 12.0139 44.846C11.2672 43.206 8.89388 42.806 7.45388 43.646C5.77387 44.6327 5.5072 46.5661 6.25387 48.2061L6.24054 48.1927Z" fill="#FF6D2D"/>
</svg>
