<svg width="64" height="64" viewBox="0 0 64 64" fill="none" xmlns="http://www.w3.org/2000/svg">
<path d="M19.2635 34.5129C17.1168 29.5795 15.5168 24.2595 14.7568 18.9261C14.5435 17.3661 13.0101 7.48607 16.5968 8.76608C17.6635 9.13941 18.1968 11.9528 18.5835 13.5661C19.2368 16.2595 19.5168 18.9928 19.4635 21.7661C19.4235 24.3128 19.1302 26.9128 18.3835 29.3529C17.9302 30.8729 17.1702 32.3395 15.4901 32.9795C13.8101 33.6195 12.6501 35.2329 13.1568 37.0862C13.5968 38.7129 15.5568 40.0462 17.2635 39.4196C22.5835 37.4329 24.7702 32.8329 25.5969 27.4995C26.5569 21.3128 26.1702 14.9794 24.2235 9.00608C23.4369 6.59273 22.2368 4.29939 19.9435 3.00605C17.3435 1.55271 13.9435 1.77937 11.4901 3.44605C6.62343 6.7394 7.43676 13.9528 8.10343 19.0328C8.95677 25.5928 10.8768 31.8329 13.5035 37.8862C14.2235 39.5396 16.6368 39.9129 18.0635 39.0862C19.7702 38.0862 19.9835 36.1796 19.2635 34.5262V34.5129Z" fill="#FF6D2D"/>
<path d="M21.65 52.0197C21.65 52.2063 21.6367 52.393 21.6234 52.5663C21.61 53.1263 21.6767 52.233 21.6767 52.2197C21.7034 52.473 21.5434 52.8463 21.4767 53.0863C21.4234 53.2463 21.33 53.4197 21.3034 53.5797C21.3034 53.5263 21.6767 52.8197 21.4234 53.2597C21.25 53.5663 21.0767 53.8597 20.89 54.153C20.5567 54.673 21.3567 53.673 21.0367 53.953C20.93 54.0463 20.85 54.1663 20.7434 54.273C20.6634 54.353 20.5834 54.433 20.49 54.513C20.2634 54.7263 19.8634 54.873 20.6367 54.433C20.3834 54.5797 20.17 54.7663 19.9167 54.8997C19.81 54.953 19.7034 55.0063 19.61 55.0597C19.0767 55.3663 20.4234 54.8063 19.6767 55.033C19.3967 55.113 19.1167 55.2063 18.8233 55.273C18.4767 55.3397 18.3033 55.2063 19.09 55.2597C18.9434 55.2597 18.7833 55.2863 18.6367 55.2997C18.33 55.2997 18.0233 55.2997 17.7167 55.273C17.2633 55.2463 18.61 55.4463 17.9833 55.2997C17.81 55.2597 17.6367 55.2197 17.4633 55.1797C17.29 55.1397 17.13 55.073 16.9567 55.0197C16.6633 54.9263 16.7433 54.7663 17.2633 55.153C17.0367 54.993 16.7433 54.8863 16.5033 54.7397C16.3833 54.6597 16.2633 54.5663 16.1433 54.4997C15.7833 54.2863 16.7967 55.073 16.3433 54.6463C16.1167 54.4197 15.8767 54.0997 15.6233 53.8997C16.1033 54.273 15.9967 54.4197 15.8233 54.1663C15.73 54.0197 15.6233 53.8863 15.5433 53.7263C15.49 53.633 15.4233 53.5263 15.37 53.4197C15.21 53.113 15.2233 52.753 15.41 53.5797C15.3433 53.2997 15.21 53.0197 15.1433 52.7397C15.1167 52.6197 15.09 52.513 15.0633 52.393C14.93 51.7663 15.13 53.273 15.0767 52.473C15.0633 52.193 15.05 51.913 15.0767 51.6463C15.09 51.3396 15.2767 50.8863 15.0367 51.8063C15.0633 51.6863 15.0767 51.5663 15.1033 51.4596C15.17 51.1663 15.2633 50.8996 15.3567 50.6063C15.5567 49.9796 14.97 51.3263 15.3033 50.7663C15.3833 50.6196 15.4633 50.4596 15.5567 50.313C15.6367 50.193 15.7167 50.073 15.7967 49.953C15.9833 49.6463 16.1833 49.713 15.6367 50.1396C15.85 49.9663 16.0233 49.6996 16.2233 49.513C16.3167 49.433 16.77 49.0996 16.2767 49.433C15.7833 49.7663 16.2767 49.433 16.3567 49.393C16.6367 49.2063 17.0233 49.0863 17.2633 48.8863C17.2233 48.913 16.45 49.1796 16.9567 49.0196C17.13 48.9663 17.29 48.8996 17.4633 48.8596C17.6367 48.8196 18.53 48.6596 17.89 48.7396C17.25 48.8196 18.2767 48.7396 18.45 48.7396C18.61 48.7396 18.7567 48.753 18.9034 48.7663C19.5567 48.793 18.1433 48.6063 18.73 48.7396C19.0767 48.8196 19.41 48.913 19.7567 49.0196C20.3567 49.2063 19.17 48.6863 19.53 48.9263C19.7033 49.033 19.89 49.113 20.0634 49.2196C20.1567 49.273 20.2634 49.3396 20.3567 49.4063C21.0767 49.8863 19.97 49.0196 20.3567 49.4063C20.5567 49.6063 20.77 49.8063 20.97 50.0196C21.4234 50.4863 20.5167 49.3396 20.8767 49.8863C20.97 50.033 21.0767 50.1663 21.1567 50.3263C21.2367 50.4863 21.3167 50.633 21.41 50.7796C21.7034 51.2996 21.1567 50.0196 21.3567 50.6196C21.4634 50.9663 21.5567 51.2996 21.6367 51.6463C21.7034 51.9263 21.5567 52.0463 21.5967 51.2996C21.5967 51.5396 21.6367 51.793 21.6367 52.033C21.6634 53.7797 23.1567 55.4463 24.97 55.3663C26.7834 55.2863 28.3301 53.8997 28.3034 52.033C28.2501 47.753 25.5834 44.1263 21.61 42.6329C17.93 41.2463 13.3433 42.4729 10.85 45.4996C8.15663 48.7663 7.56995 53.393 9.7833 57.0997C11.9966 60.8064 16.2367 62.513 20.4234 61.753C25.0101 60.9264 28.2501 56.553 28.3167 52.0197C28.3434 50.273 26.7701 48.6063 24.9834 48.6863C23.1967 48.7663 21.6767 50.153 21.65 52.0197Z" fill="#FF6D2D"/>
<path d="M47.5435 34.5129C45.3968 29.5795 43.7968 24.2595 43.0368 18.9261C42.8235 17.3661 41.2902 7.48607 44.8768 8.76608C45.9435 9.13941 46.4768 11.9528 46.8635 13.5661C47.5168 16.2595 47.7969 18.9928 47.7435 21.7661C47.7035 24.3128 47.4102 26.9128 46.6635 29.3529C46.2102 30.8729 45.4502 32.3395 43.7702 32.9795C42.0902 33.6195 40.9301 35.2329 41.4368 37.0862C41.8768 38.7129 43.8368 40.0462 45.5435 39.4196C50.8635 37.4329 53.0502 32.8329 53.8769 27.4995C54.8369 21.3128 54.4502 14.9794 52.5035 9.00608C51.7169 6.59273 50.5169 4.29939 48.2235 3.00605C45.6235 1.55271 42.2235 1.77937 39.7701 3.44605C34.9034 6.7394 35.7168 13.9528 36.3835 19.0328C37.2368 25.5928 39.1568 31.8329 41.7835 37.8862C42.5035 39.5396 44.9168 39.9129 46.3435 39.0862C48.0502 38.0862 48.2635 36.1796 47.5435 34.5262V34.5129Z" fill="#FF6D2D"/>
<path d="M49.9169 52.0197C49.9169 52.2063 49.9035 52.393 49.8902 52.5663C49.8769 53.1263 49.9435 52.233 49.9435 52.2197C49.9702 52.473 49.8102 52.8463 49.7435 53.0863C49.6902 53.2463 49.5969 53.4197 49.5702 53.5797C49.5702 53.5263 49.9435 52.8197 49.6902 53.2597C49.5169 53.5663 49.3435 53.8597 49.1569 54.153C48.8235 54.673 49.6235 53.673 49.3035 53.953C49.1969 54.0463 49.1169 54.1663 49.0102 54.273C48.9302 54.353 48.8502 54.433 48.7569 54.513C48.5302 54.7263 48.1302 54.873 48.9035 54.433C48.6502 54.5797 48.4369 54.7663 48.1835 54.8997C48.0769 54.953 47.9702 55.0063 47.8769 55.0597C47.3435 55.3663 48.6902 54.8063 47.9435 55.033C47.6635 55.113 47.3835 55.2063 47.0902 55.273C46.7435 55.3397 46.5702 55.2063 47.3569 55.2597C47.2102 55.2597 47.0502 55.2863 46.9035 55.2997C46.5969 55.2997 46.2902 55.2997 45.9835 55.273C45.5302 55.2463 46.8769 55.4463 46.2502 55.2997C46.0768 55.2597 45.9035 55.2197 45.7302 55.1797C45.5568 55.1397 45.3968 55.073 45.2235 55.0197C44.9302 54.9263 45.0102 54.7663 45.5302 55.153C45.3035 54.993 45.0102 54.8863 44.7702 54.7397C44.6502 54.6597 44.5302 54.5663 44.4102 54.4997C44.0502 54.2863 45.0635 55.073 44.6102 54.6463C44.3835 54.4197 44.1435 54.0997 43.8902 53.8997C44.3702 54.273 44.2635 54.4197 44.0902 54.1663C43.9968 54.0197 43.8902 53.8863 43.8102 53.7263C43.7568 53.633 43.6902 53.5263 43.6368 53.4197C43.4768 53.113 43.4902 52.753 43.6768 53.5797C43.6102 53.2997 43.4768 53.0197 43.4102 52.7397C43.3835 52.6197 43.3568 52.513 43.3302 52.393C43.1968 51.7663 43.3968 53.273 43.3435 52.473C43.3302 52.193 43.3168 51.913 43.3435 51.6463C43.3568 51.3396 43.5435 50.8863 43.3035 51.8063C43.3302 51.6863 43.3435 51.5663 43.3702 51.4596C43.4368 51.1663 43.5302 50.8996 43.6235 50.6063C43.8235 49.9796 43.2368 51.3263 43.5702 50.7663C43.6502 50.6196 43.7302 50.4596 43.8235 50.313C43.9035 50.193 43.9835 50.073 44.0635 49.953C44.2502 49.6463 44.4502 49.713 43.9035 50.1396C44.1168 49.9663 44.2902 49.6996 44.4902 49.513C44.5835 49.433 45.0368 49.0996 44.5435 49.433C44.0502 49.7663 44.5435 49.433 44.6235 49.393C44.9035 49.2063 45.2902 49.0863 45.5302 48.8863C45.4902 48.913 44.7168 49.1796 45.2235 49.0196C45.3968 48.9663 45.5568 48.8996 45.7302 48.8596C45.9035 48.8196 46.7969 48.6596 46.1568 48.7396C45.5168 48.8196 46.5435 48.7396 46.7169 48.7396C46.8769 48.7396 47.0235 48.753 47.1702 48.7663C47.8235 48.793 46.4102 48.6063 46.9969 48.7396C47.3435 48.8196 47.6769 48.913 48.0235 49.0196C48.6235 49.2063 47.4369 48.6863 47.7969 48.9263C47.9702 49.033 48.1569 49.113 48.3302 49.2196C48.4235 49.273 48.5302 49.3396 48.6235 49.4063C49.3435 49.8863 48.2369 49.0196 48.6235 49.4063C48.8235 49.6063 49.0369 49.8063 49.2369 50.0196C49.6902 50.4863 48.7835 49.3396 49.1435 49.8863C49.2369 50.033 49.3435 50.1663 49.4235 50.3263C49.5035 50.4863 49.5835 50.633 49.6769 50.7796C49.9702 51.2996 49.4235 50.0196 49.6235 50.6196C49.7302 50.9663 49.8235 51.2996 49.9035 51.6463C49.9702 51.9263 49.8235 52.0463 49.8635 51.2996C49.8635 51.5396 49.9035 51.793 49.9035 52.033C49.9302 53.7797 51.4236 55.4463 53.2369 55.3663C55.0502 55.2863 56.5969 53.8997 56.5702 52.033C56.5169 47.753 53.8502 44.1263 49.8769 42.6329C46.1969 41.2463 41.6102 42.4729 39.1168 45.4996C36.4235 48.7663 35.8368 53.393 38.0501 57.0997C40.2635 60.8064 44.5035 62.513 48.6902 61.753C53.2769 60.9264 56.5169 56.553 56.5836 52.0197C56.6102 50.273 55.0369 48.6063 53.2502 48.6863C51.4635 48.7663 49.9435 50.153 49.9169 52.0197Z" fill="#FF6D2D"/>
</svg>
