<svg width="64" height="64" viewBox="0 0 64 64" fill="none" xmlns="http://www.w3.org/2000/svg">
<path d="M2.04677 8.80502C2.51344 25.2718 4.91346 41.6052 5.39346 58.0719C5.4468 59.712 6.88681 61.6186 8.72682 61.4053C21.0869 59.9386 33.4469 58.4719 45.807 57.0053C50.7004 56.4186 56.5137 56.2319 59.8338 52.0052C63.4204 47.4319 61.8338 40.4852 61.5004 35.1518C61.0471 28.1918 60.6071 21.2318 60.1537 14.2717C59.9804 11.645 57.4737 10.2584 55.1404 11.3917C49.3804 14.1784 43.6203 16.9784 37.8603 19.7651L42.8737 22.6451C43.6203 17.0717 44.367 11.485 45.1137 5.91167C45.327 4.27166 43.407 2.37832 41.7803 2.57832C29.7002 4.11166 17.4735 3.95166 5.38012 5.49833C3.59344 5.725 2.04677 6.87167 2.04677 8.83168C2.04677 10.4584 3.58011 12.3917 5.38012 12.165C17.4602 10.6317 29.6869 10.7917 41.7803 9.24502L38.447 5.91167C37.7003 11.485 36.9536 17.0717 36.207 22.6451C35.847 25.3918 39.247 26.4851 41.2203 25.5251C46.9803 22.7384 52.7404 19.9384 58.5004 17.1517L53.487 14.2717C53.847 19.9251 54.2071 25.5784 54.5804 31.2451C54.7671 34.0718 54.9404 36.8985 55.1271 39.7252C55.2737 41.9385 55.8204 44.6452 55.1404 46.8186C54.0471 50.3252 48.047 50.0852 45.1537 50.4319C39.4603 51.1119 33.7803 51.7786 28.0869 52.4586C21.6335 53.2186 15.1802 53.9919 8.72682 54.7519L12.0602 58.0853C11.5935 41.6185 9.19347 25.2851 8.71347 8.81835C8.59347 4.53833 1.92677 4.525 2.04677 8.81835V8.80502Z" fill="#FF6D2D"/>
<path d="M40.1004 8.76499C44.9404 11.8717 50.3138 14.0184 55.1405 17.1384C56.6071 18.085 58.8872 17.485 59.7005 15.9384C60.5805 14.285 60.0738 12.3917 58.5005 11.3783C53.6605 8.27166 48.2871 6.12498 43.4604 3.00496C41.9937 2.05829 39.7137 2.6583 38.9004 4.20497C38.0204 5.85831 38.5271 7.75166 40.1004 8.76499Z" fill="#FF6D2D"/>
<path d="M20.8468 26.2584C23.2068 25.7118 25.5668 25.1651 27.9268 24.6318C28.7268 24.4451 29.5135 23.7918 29.9135 23.0984C30.3135 22.4051 30.5135 21.3251 30.2468 20.5251C29.6735 18.7517 27.9668 17.7784 26.1401 18.1917C23.7801 18.7384 21.4201 19.2851 19.0601 19.8184C18.2601 20.0051 17.4734 20.6584 17.0734 21.3518C16.6734 22.0451 16.4734 23.1251 16.7401 23.9251C17.3134 25.6984 19.0201 26.6718 20.8468 26.2584Z" fill="#FF6D2D"/>
<path d="M20.8469 37.0585C27.7002 36.0719 34.5669 35.0985 41.4203 34.1118C43.1536 33.8585 44.2603 31.5785 43.7536 30.0052C43.1403 28.1118 41.5136 27.4051 39.647 27.6718C32.7936 28.6585 25.9269 29.6318 19.0735 30.6185C17.3402 30.8718 16.2335 33.1518 16.7402 34.7252C17.3535 36.6185 18.9802 37.3252 20.8469 37.0585Z" fill="#FF6D2D"/>
<path d="M20.8468 47.7785C29.6868 46.5519 38.5402 45.3385 47.3802 44.1119C49.1669 43.8719 50.1403 41.5785 49.7136 40.0052C49.1803 38.0852 47.4069 37.4318 45.6069 37.6718C36.7669 38.8985 27.9135 40.1118 19.0734 41.3385C17.2868 41.5785 16.3134 43.8719 16.7401 45.4452C17.2734 47.3652 19.0468 48.0185 20.8468 47.7785Z" fill="#FF6D2D"/>
</svg>
