<svg width="64" height="64" viewBox="0 0 64 64" fill="none" xmlns="http://www.w3.org/2000/svg">
<path d="M20.9459 14.1998C14.7326 17.7731 8.37256 21.6532 3.06587 26.4932C1.83919 27.6132 1.69253 30.1199 3.06587 31.2132C8.11923 35.2266 12.6259 40.0532 17.1059 44.6933C20.0926 47.7866 24.7993 43.0666 21.826 39.9733C17.3593 35.3332 12.8392 30.5065 7.78588 26.4932V31.2132C8.51922 30.5465 9.27922 29.9199 10.0526 29.2932C10.4926 28.9332 9.9859 29.3332 10.2659 29.1199C10.4792 28.9599 10.7059 28.7865 10.9192 28.6265C11.3726 28.2932 11.8259 27.9599 12.2792 27.6399C14.1059 26.3332 15.9726 25.0932 17.8659 23.8932C19.9859 22.5465 22.1326 21.2132 24.306 19.9598C28.026 17.8265 24.666 12.0531 20.9459 14.1998Z" fill="#FF6D2D"/>
<path d="M34.9195 5.31974C32.5195 23.3198 26.6795 40.6533 24.2795 58.6534C24.0395 60.44 25.9861 61.9867 27.6128 61.9867C29.6128 61.9867 30.7062 60.44 30.9462 58.6534C33.3462 40.6533 39.1862 23.3198 41.5862 5.31974C41.8262 3.53306 39.8796 1.98639 38.2529 1.98639C36.2529 1.98639 35.1595 3.53306 34.9195 5.31974Z" fill="#FF6D2D"/>
<path d="M44.0529 22.9598C47.9996 28.9732 51.9329 34.9866 55.8796 40.9866L56.3996 36.9466C50.6796 41.8666 44.9595 46.7733 39.2395 51.6933C37.8795 52.8667 38.0395 55.2 39.2395 56.4133C40.5995 57.7733 42.5862 57.5867 43.9595 56.4133C49.6796 51.4933 55.3996 46.5866 61.1196 41.6666C62.1863 40.7599 62.3996 38.7866 61.6396 37.6266C57.6929 31.6132 53.7596 25.5998 49.8129 19.5998C47.4662 16.0265 41.6929 19.3598 44.0529 22.9598Z" fill="#FF6D2D"/>
</svg>
