<svg width="48" height="48" viewBox="0 0 48 48" fill="none" xmlns="http://www.w3.org/2000/svg">
<g clip-path="url(#clip0_53_5874)">
<path d="M5.40484 35.0193C5.74217 34.8605 6.07951 34.7018 6.42676 34.553C6.6748 34.4438 6.88315 34.3645 6.51606 34.5133C6.7641 34.4141 7.00221 34.3149 7.25025 34.2156C8.10351 33.8684 8.96668 33.5311 9.82986 33.1937C11.5761 32.5091 13.3421 31.8345 15.0288 31.0209L11.3875 28.223C9.9886 33.3128 7.5479 38.0553 6.13904 43.145C5.87115 44.1074 6.24817 45.1492 7.03198 45.7544C7.88523 46.4092 8.84762 46.3596 9.79017 45.9528C13.352 44.3852 16.7253 42.4108 20.2872 40.8432C21.4778 40.3174 21.8449 38.4819 21.1801 37.4501C20.3864 36.2198 19.0668 36.0015 17.7869 36.5571C14.2251 38.1247 10.8518 40.0991 7.28994 41.6667L10.9312 44.4646C12.3301 39.3749 14.7708 34.6323 16.1797 29.5426C16.4475 28.5802 16.0705 27.5384 15.2867 26.9332C14.4632 26.2982 13.4512 26.2982 12.5285 26.7348C12.1912 26.8935 11.8539 27.0523 11.5066 27.2011C11.2586 27.3102 11.0502 27.3896 11.4173 27.2408C11.1693 27.34 10.9312 27.4392 10.6831 27.5384C9.82986 27.8857 8.96668 28.223 8.10351 28.5604C6.35731 29.2449 4.59127 29.9196 2.90461 30.7332C1.73386 31.2987 1.32708 33.0647 2.01167 34.1263C2.78555 35.3269 4.15472 35.6245 5.40484 35.0193Z" fill="#FF6D2D"/>
<path d="M12.5984 11.2078C16.3091 9.5112 20.0892 7.96344 23.7999 6.25693L20.4067 2.86376C17.6187 7.86422 15.565 13.2715 14.3843 18.8772C14.1958 19.7602 14.3645 20.6333 15.0193 21.2881C15.5848 21.8536 16.6464 22.2604 17.4302 21.9231C20.744 20.5241 24.0677 19.1252 27.3815 17.7263C28.5721 17.2203 29.5643 16.0694 29.1178 14.6704C28.7507 13.5294 27.3518 12.3984 26.062 12.9341C22.7482 14.3331 19.4244 15.732 16.1106 17.131L19.1665 20.1868C20.2975 14.8192 22.0735 10.047 24.6928 5.35407C25.2087 4.42144 25.1194 3.10187 24.3059 2.34784C23.4328 1.54419 22.3513 1.48466 21.2996 1.9609C17.589 3.65748 13.8088 5.20525 10.0982 6.91175C8.91751 7.45744 8.53057 9.25324 9.20524 10.3049C9.98904 11.5253 11.3285 11.7733 12.5984 11.1979V11.2078Z" fill="#FF6D2D"/>
<path d="M33.731 27.1714C33.8897 27.102 34.0485 27.0226 34.2171 26.9531C34.3858 26.8837 34.8819 26.5761 34.2965 26.9135C34.5842 26.7448 34.9414 26.6456 35.2589 26.5166C35.9931 26.2189 36.7372 25.9312 37.4813 25.6336C39.0192 25.0284 40.557 24.4231 42.0552 23.7485L38.662 20.3553C36.5884 24.0957 34.5148 27.8262 32.4412 31.5667C31.9253 32.4993 32.0145 33.8189 32.8281 34.5729C33.7111 35.3865 34.7727 35.4162 35.8344 34.9598C38.92 33.6403 42.0155 32.3207 45.1011 31.0011C45.6269 30.7729 46.0932 30.0487 46.2421 29.5228C46.4008 28.9275 46.3314 28.1338 45.994 27.608C45.1904 26.3678 43.8807 26.1693 42.6009 26.715C39.5152 28.0346 36.4197 29.3542 33.3341 30.6737L36.7273 34.0669C38.8009 30.3265 40.8745 26.596 42.9481 22.8555C43.464 21.9229 43.3747 20.6033 42.5612 19.8493C41.6881 19.0457 40.6066 18.9861 39.5549 19.4624C39.3962 19.5318 39.2374 19.6112 39.0688 19.6806C38.9001 19.7501 38.404 20.0577 38.9894 19.7203C38.7017 19.889 38.3445 19.9882 38.027 20.1172C37.2928 20.4148 36.5487 20.7026 35.8046 21.0002C34.2667 21.6054 32.7289 22.2106 31.2307 22.8853C30.0402 23.4211 29.6631 25.2367 30.3378 26.2785C31.1315 27.5087 32.461 27.7369 33.731 27.1714Z" fill="#FF6D2D"/>
</g>
<defs>
<clipPath id="clip0_53_5874">
<rect width="44.6371" height="44.5808" fill="white" transform="translate(1.67432 1.67139)"/>
</clipPath>
</defs>
</svg>
