<svg width="128" height="128" viewBox="0 0 128 128" fill="none" xmlns="http://www.w3.org/2000/svg">
<path d="M51.631 74.5701C51.7401 74.3915 51.8493 74.2129 51.9684 74.0442C52.2164 73.687 51.6111 74.4213 52.1172 73.8458C52.3653 73.5679 52.6233 73.2901 52.9011 73.0321C53.3576 72.6054 53.7743 72.3176 54.5582 71.9108C54.6078 71.881 55.1635 71.633 54.9452 71.7223C54.7666 71.8017 55.1933 71.633 55.233 71.623C55.6299 71.4841 56.0367 71.375 56.4436 71.2857C56.523 71.2658 57.0588 71.1864 56.6519 71.2361C56.8206 71.2162 56.9893 71.2063 57.1481 71.1964C57.5648 71.1765 57.9816 71.1964 58.4083 71.2162C58.577 71.2261 58.7457 71.2658 58.4778 71.2162C58.6762 71.2559 58.8747 71.2956 59.083 71.3353C59.4403 71.4246 59.7876 71.5337 60.1349 71.6528C60.8493 71.9009 59.9463 71.5536 60.3333 71.7322C60.5219 71.8215 60.7005 71.9108 60.8791 72.01C61.2065 72.1886 61.5141 72.3871 61.8118 72.5955C61.9507 72.6947 61.9408 72.6947 61.8019 72.5756L61.9904 72.7344C62.1393 72.8733 62.298 73.0023 62.4469 73.1512C62.7148 73.4092 62.9629 73.6771 63.201 73.9549C62.9926 73.6969 63.2606 74.0343 63.33 74.1335C63.4491 74.3022 63.5582 74.4709 63.6575 74.6495C63.7369 74.7884 63.8162 74.9373 63.8956 75.0762C63.8956 75.0861 64.2132 75.7807 64.0544 75.3739C64.5605 76.6142 65.7115 77.4874 67.1106 77.1104C68.2914 76.7829 69.3532 75.3044 68.8471 74.0541C67.1007 69.7476 63.3201 66.741 58.6564 66.2449C53.9926 65.7487 49.6663 68.2493 47.3344 72.0398C46.6299 73.1809 47.0863 74.7686 48.2275 75.4334C49.3686 76.0982 50.9165 75.6914 51.6211 74.5404L51.631 74.5701Z" fill="#EBDBB2"/>
<path d="M99.5615 72.2459C97.7853 68.6836 94.1337 66.3617 90.2042 66.0342C86.2748 65.7068 82.5736 67.7608 80.331 70.8369C79.7952 71.5712 79.3288 72.4047 79.0311 73.268C78.7533 74.0717 78.8624 74.7763 78.9319 75.5899C79.0509 77.1379 79.1502 78.6759 79.2494 80.2239C79.4479 83.2801 79.815 86.3661 79.9043 89.4323C79.944 90.762 79.9241 92.5977 78.4456 93.1534C76.5405 93.8678 74.4071 92.7862 72.7102 92.0023C71.4997 91.4367 70.041 91.6649 69.3166 92.8954C68.6915 93.967 68.9892 95.7234 70.2097 96.289C73.7422 97.9262 78.0487 99.5139 81.6309 97.053C85.0146 94.7311 85.0047 90.6925 84.6772 87.031C84.4093 84.0343 84.2704 81.0177 84.062 78.021C84.0124 77.3066 83.9627 76.5921 83.9131 75.8777C83.8933 75.5701 83.8834 75.2625 83.8338 74.9549C83.8338 74.8854 83.8437 74.6572 83.804 74.5976C83.804 74.419 83.7841 74.4488 83.7444 74.677C83.6551 74.9747 83.6948 74.935 83.8536 74.548C84.6574 73.2581 85.5306 72.2062 86.9495 71.5414C90.1546 70.0331 93.7566 71.7101 95.2748 74.7564C96.7037 77.6142 100.98 75.1037 99.5615 72.2559V72.2459Z" fill="#EBDBB2"/>
</svg>
