<svg width="128" height="128" viewBox="0 0 128 128" fill="none" xmlns="http://www.w3.org/2000/svg">
<path d="M51.0205 74.2453C52.5485 71.7746 55.4459 70.3061 58.3432 70.574C60.9727 70.8221 63.5922 72.7371 64.5944 75.2177C64.9714 76.1504 65.8347 76.8053 66.8865 76.5176C67.7695 76.2794 68.5633 75.1681 68.1863 74.2255C66.5491 70.1871 62.9572 67.3393 58.5913 66.873C54.2254 66.4066 50.0382 68.7483 47.8056 72.3601C46.5455 74.4041 49.7603 76.2794 51.0205 74.2354V74.2453Z" fill="#EBDBB2"/>
<path d="M99.1046 72.5584C97.4277 69.1947 94.0045 66.9622 90.2836 66.6546C86.5626 66.347 83.07 68.2521 80.9466 71.1494C80.4405 71.8341 79.9841 72.6179 79.7162 73.4316C79.4681 74.1758 79.5773 74.8207 79.6368 75.5848C79.7559 77.1327 79.8551 78.6706 79.9543 80.2185C80.1528 83.2746 80.5199 86.3605 80.6092 89.4266C80.6588 91.0836 80.4901 93.0879 78.6942 93.7527C76.6204 94.5267 74.3382 93.3955 72.4827 92.5323C70.3295 91.5301 68.4344 94.735 70.6074 95.7471C73.9413 97.295 78.0095 98.8429 81.403 96.5112C84.5682 94.3382 84.4492 90.4287 84.1416 87.0253C83.8737 84.0287 83.7348 81.0123 83.5264 78.0158C83.4569 76.9243 83.0303 75.0192 83.4073 74.2254C84.092 72.8164 85.3224 71.6753 86.7313 71.0006C90.2141 69.3138 94.2327 71.0998 95.8997 74.4437C96.9713 76.5869 100.176 74.7017 99.1145 72.5683L99.1046 72.5584Z" fill="#EBDBB2"/>
</svg>
