<svg width="128" height="128" viewBox="0 0 128 128" fill="none" xmlns="http://www.w3.org/2000/svg">
<path d="M64.3123 71.3291C64.2031 71.5076 64.094 71.6763 63.975 71.8548C63.727 72.2119 64.3321 71.4679 63.8361 72.0433C63.5881 72.3211 63.3401 72.5889 63.0623 72.8468C62.9135 72.9857 62.7548 73.1246 62.5961 73.2536C62.8044 73.0948 62.5961 73.2536 62.4969 73.3131C62.1497 73.5412 61.8025 73.7595 61.4255 73.948C61.3759 73.9777 60.8204 74.2257 61.0485 74.1365C61.237 74.0571 60.8104 74.2257 60.7708 74.2357C60.3839 74.3745 59.9772 74.4837 59.5803 74.563C59.501 74.5829 58.9554 74.6622 59.3819 74.6126C59.2133 74.6325 59.0546 74.6424 58.8859 74.6523C58.4693 74.6721 58.0626 74.6523 57.6459 74.6325C57.4674 74.6225 57.3186 74.5829 57.5864 74.6325C57.388 74.5928 57.1896 74.5531 56.9912 74.5134C56.6341 74.4241 56.2968 74.315 55.9496 74.196C55.2452 73.948 56.148 74.3051 55.7611 74.1166C55.5825 74.0273 55.394 73.9381 55.2254 73.8389C54.908 73.6603 54.6004 73.4619 54.3028 73.2536C54.1044 73.1147 54.4417 73.3924 54.1342 73.1246C53.9854 72.9857 53.8267 72.8568 53.6878 72.7179C53.4298 72.4699 53.1818 72.202 52.9438 71.9243C53.162 72.1822 52.8942 71.8548 52.8247 71.7457C52.7057 71.5771 52.5966 71.4084 52.4974 71.2398C52.418 71.1009 52.3386 70.962 52.2593 70.8132C52.2593 70.7934 51.9418 70.1089 52.1105 70.5255C51.6045 69.2855 50.4538 68.4125 49.0551 68.7895C47.8547 69.1169 46.7933 70.595 47.2992 71.8449C49.0253 76.1106 52.7751 79.0866 57.388 79.5727C62.0009 80.0588 66.2765 77.5788 68.5879 73.8389C69.2922 72.698 68.8359 71.1108 67.695 70.4462C66.5542 69.7815 65.0067 70.1882 64.3023 71.339L64.3123 71.3291Z" fill="#EBDBB2"/>
<path d="M95.045 71.3288C94.9358 71.5074 94.8267 71.676 94.7077 71.8546C94.4597 72.2117 95.0648 71.4677 94.5688 72.0431C94.3208 72.3208 94.0728 72.5887 93.795 72.8466C93.6462 72.9855 93.4875 73.1244 93.3288 73.2533C93.5371 73.0946 93.3288 73.2533 93.2296 73.3128C92.8824 73.541 92.5352 73.7592 92.1582 73.9477C92.1086 73.9775 91.5531 74.2255 91.7812 74.1362C91.9697 74.0569 91.5432 74.2255 91.5035 74.2354C91.1166 74.3743 90.7099 74.4834 90.3131 74.5628C90.2337 74.5826 89.6881 74.662 90.1147 74.6124C89.946 74.6322 89.7873 74.6421 89.6186 74.6521C89.202 74.6719 88.7953 74.6521 88.3786 74.6322C88.2001 74.6223 88.0513 74.5826 88.3191 74.6322C88.1207 74.5925 87.9223 74.5529 87.7239 74.5132C87.3668 74.4239 87.0295 74.3148 86.6823 74.1957C85.9779 73.9477 86.8807 74.3049 86.4938 74.1164C86.3152 74.0271 86.1267 73.9378 85.9581 73.8386C85.6407 73.66 85.3331 73.4616 85.0355 73.2533C84.8371 73.1144 85.1744 73.3922 84.8669 73.1244C84.7181 72.9855 84.5594 72.8565 84.4205 72.7176C84.1626 72.4696 83.9145 72.2018 83.6765 71.924C83.8947 72.1819 83.6269 71.8546 83.5574 71.7455C83.4384 71.5768 83.3293 71.4082 83.2301 71.2395C83.1507 71.1006 83.0713 70.9618 82.992 70.813C82.992 70.7931 82.6745 70.1086 82.8432 70.5253C82.3372 69.2853 81.1865 68.4123 79.7878 68.7892C78.6073 69.1166 77.5458 70.5947 78.0517 71.8447C79.7778 76.1103 83.5277 79.0864 88.1405 79.5725C92.7534 80.0586 97.029 77.5785 99.3404 73.8386C100.045 72.6978 99.5884 71.1106 98.4476 70.4459C97.3068 69.7813 95.7592 70.188 95.0549 71.3387L95.045 71.3288Z" fill="#EBDBB2"/>
<path d="M77.9424 71.18C78.3988 75.7631 78.9245 80.3462 79.4106 84.9194C79.6289 87.0225 80.2042 89.4628 79.6884 91.5362C78.8848 94.7701 74.7283 92.925 72.784 92.0222C71.5737 91.4568 70.1154 91.685 69.3913 92.9151C68.7663 93.9864 69.0639 95.7423 70.2841 96.3078C74.0637 98.0636 78.8154 99.6608 82.3668 96.4566C85.1246 93.9666 84.9163 90.1176 84.5691 86.7546C84.0334 81.5565 83.4283 76.3682 82.9124 71.18C82.7835 69.8507 81.8708 68.7 80.4324 68.7C79.1924 68.7 77.8234 69.8408 77.9524 71.18H77.9424Z" fill="#EBDBB2"/>
</svg>
