<svg width="128" height="128" viewBox="0 0 128 128" fill="none" xmlns="http://www.w3.org/2000/svg">
<path d="M64.8285 71.6394C63.3203 74.0803 60.4627 75.519 57.6149 75.2511C55.045 75.013 52.4553 73.1277 51.463 70.6769C51.086 69.7442 50.2227 69.0893 49.1709 69.3771C48.2878 69.6152 47.494 70.7265 47.8711 71.6691C49.4884 75.658 53.0506 78.4858 57.3669 78.9522C61.6831 79.4186 65.8307 77.0967 68.0335 73.5246C69.2936 71.4806 66.0788 69.6052 64.8186 71.6493L64.8285 71.6394Z" fill="#EBDBB2"/>
<path d="M95.5783 71.6394C94.0701 74.0803 91.2124 75.519 88.3647 75.2511C85.7948 75.013 83.205 73.1277 82.2128 70.6769C81.8357 69.7442 80.9725 69.0893 79.9207 69.3771C79.0376 69.6152 78.2438 70.7265 78.6208 71.6691C80.2382 75.658 83.8004 78.4858 88.1166 78.9522C92.4329 79.4186 96.5805 77.0967 98.7832 73.5246C100.043 71.4806 96.8285 69.6052 95.5683 71.6493L95.5783 71.6394Z" fill="#EBDBB2"/>
<path d="M78.5613 71.173C79.0178 75.7572 79.5436 80.3414 80.0298 84.9156C80.2581 87.0886 80.8137 89.5593 80.2779 91.7026C79.3353 95.4532 74.7908 93.6374 72.459 92.5559C70.3059 91.5537 68.4107 94.7587 70.5837 95.7708C74.0962 97.408 78.5911 98.9956 81.925 96.0188C84.5545 93.6672 84.2767 89.9363 83.9492 86.7512C83.4134 81.5519 82.8081 76.3625 82.2922 71.173C82.1929 70.1709 81.5083 69.3076 80.4268 69.3076C79.4941 69.3076 78.4621 70.161 78.5613 71.173Z" fill="#EBDBB2"/>
</svg>
