<svg width="128" height="128" viewBox="0 0 128 128" fill="none" xmlns="http://www.w3.org/2000/svg">
<path d="M51.0253 74.2551C52.5534 71.7844 55.4508 70.3159 58.3481 70.5838C60.9776 70.8319 63.5971 72.7469 64.5992 75.2275C64.9763 76.1602 65.8395 76.8151 66.8913 76.5274C67.7744 76.2892 68.5682 75.1779 68.1911 74.2353C66.5539 70.1968 62.962 67.3491 58.5962 66.8827C54.2303 66.4164 50.043 68.7581 47.8105 72.3699C46.5503 74.4139 49.7652 76.2892 51.0253 74.2452V74.2551Z" fill="#EBDBB2"/>
<path d="M99.0995 72.5584C97.4226 69.1947 93.9994 66.9622 90.2785 66.6546C86.5575 66.347 83.0649 68.2521 80.9415 71.1494C80.4354 71.8341 79.9789 72.6179 79.711 73.4316C79.463 74.1758 79.5722 74.8207 79.6317 75.5848C79.7508 77.1327 79.85 78.6706 79.9492 80.2185C80.1477 83.2747 80.5148 86.3605 80.6041 89.4266C80.6537 91.0836 80.485 93.0879 78.6891 93.7527C76.6153 94.5267 74.3331 93.3955 72.4776 92.5323C70.3244 91.5301 68.4292 94.7351 70.6022 95.7472C73.9362 97.2951 78.0044 98.8429 81.3979 96.5112C84.5631 94.3382 84.4441 90.4287 84.1365 87.0253C83.8686 84.0287 83.7296 81.0123 83.5213 78.0158C83.4518 76.9243 83.0252 75.0192 83.4022 74.2254C84.0869 72.8164 85.3172 71.6753 86.7262 71.0006C90.209 69.3138 94.2276 71.0998 95.8945 74.4437C96.9661 76.5869 100.171 74.7016 99.1094 72.5683L99.0995 72.5584Z" fill="#EBDBB2"/>
<path d="M60.3979 78.6566C60.3979 80.2229 59.0216 81.6614 57.4732 81.7018C55.9314 81.7421 54.4823 80.3775 54.4029 78.8112C54.1978 74.7778 60.3979 74.6098 60.3979 78.6566Z" fill="#EBDBB2"/>
<path d="M92.9473 78.6566C92.9473 80.2229 91.5709 81.6614 90.0225 81.7018C88.4807 81.7421 87.0316 80.3775 86.9522 78.8112C86.7471 74.7778 92.9473 74.6098 92.9473 78.6566Z" fill="#EBDBB2"/>
</svg>
