<svg width="128" height="128" viewBox="0 0 128 128" fill="none" xmlns="http://www.w3.org/2000/svg">
<path d="M47.6696 60.8549C44.0778 63.2064 41.2599 66.7486 40.228 70.9655C39.1961 75.1824 39.8113 80.0343 41.756 84.0725C45.4569 91.7622 54.7242 95.9691 62.9099 93.4192C70.3316 91.1172 75.9971 83.4971 76.0567 75.6884C76.1063 69.5466 72.316 64.1093 67.1367 61.0732C61.2628 57.6302 53.5335 57.0944 47.6596 60.845C44.9807 62.5615 47.4612 66.8577 50.16 65.1313C53.9502 62.7004 58.316 62.6508 62.6519 64.3574C62.9694 64.4864 62.7214 64.3673 63.1381 64.5657C63.406 64.6947 63.6838 64.8336 63.9517 64.9725C64.4875 65.2504 65.0034 65.5679 65.5095 65.8953C66.0155 66.2227 66.2536 66.4112 66.5513 66.6593C67.0375 67.076 67.5038 67.5027 67.9503 67.969C69.3493 69.4474 70.3911 71.283 70.8674 73.3468C71.0857 74.3092 71.1651 75.2022 71.0758 76.4921C71.0063 77.4545 70.669 78.8932 70.2026 80.0839C69.141 82.8124 67.226 85.5013 64.7455 87.1286C59.3082 90.6707 52.2536 89.4404 48.0168 84.6282C45.4768 81.7409 44.4151 77.7323 44.7227 73.952C45.0303 70.1717 47.1635 67.1058 50.1699 65.1412C52.8291 63.3949 50.3485 59.0987 47.6696 60.8549Z" fill="black"/>
<path d="M85.83 61.9858C79.1425 66.7087 77.2573 75.3906 80.3133 82.8321C83.3693 90.2737 90.8704 94.818 98.6096 92.7046C105.625 90.7896 110.447 83.4671 110.705 76.3728C110.923 70.6379 107.718 65.3692 102.985 62.3033C97.9051 59.0092 90.9398 58.4536 85.83 61.9759C84.7286 62.7399 84.2325 64.1488 84.937 65.3692C85.572 66.4607 87.219 67.0262 88.3303 66.2622C91.4657 64.0992 95.3353 64.0298 98.5699 65.5379C102.261 67.2644 104.87 70.1815 105.615 74.1503C105.962 75.9859 105.664 78.258 104.88 80.3218C103.958 82.7329 102.37 85.1638 100.187 86.5926C95.5238 89.6585 89.511 88.1404 86.3459 83.6556C82.6549 78.4267 82.7839 70.1914 88.3303 66.2722C89.4218 65.4982 89.9377 64.1091 89.2233 62.8788C88.5883 61.7973 86.9313 61.2119 85.83 61.9858Z" fill="black"/>
<path d="M45.318 62.5908C45.8042 62.2832 45.1097 62.7694 45.318 62.5908C45.1295 62.7098 44.9311 62.8388 44.7326 62.948C44.3159 63.1861 43.8694 63.3746 43.4428 63.5929C43.1252 63.7517 43.8198 63.454 43.4725 63.583C43.3038 63.6425 43.1352 63.712 42.9764 63.7814C42.6986 63.8906 42.4109 63.9898 42.1231 64.089C41.4583 64.3172 40.7936 64.5157 40.1189 64.7042C36.9835 65.5575 34.2053 65.9643 31.0005 66.0536C29.6907 66.0734 28.4406 67.1549 28.5001 68.5143C28.5596 69.8736 29.5915 71.0345 30.9806 70.9948C34.5724 70.8956 38.2039 70.3697 41.6667 69.4072C44.1671 68.7127 46.8262 67.8197 48.8205 66.1032C49.8326 65.2301 49.7135 63.4937 48.8205 62.5908C47.8184 61.5886 46.3301 61.7176 45.3081 62.5908H45.318Z" fill="black"/>
<path d="M80.095 71.8381C79.9462 71.9175 79.7875 71.9969 79.6287 72.0663L80.224 71.8183C79.4501 72.1457 78.6365 72.3342 77.813 72.4434L78.4678 72.3541C77.5649 72.4632 76.662 72.4731 75.7591 72.3541L76.4139 72.4434C75.7889 72.3541 75.1836 72.2052 74.5883 71.9671L75.1836 72.2152C75.0447 72.1556 74.8959 72.0862 74.757 72.0266C73.5961 71.4512 72.0185 71.6794 71.3636 72.9196C70.7683 74.0408 71.0163 75.6978 72.2566 76.313C73.9433 77.1464 75.8285 77.5036 77.7137 77.3945C79.4104 77.2953 81.0872 76.9282 82.5954 76.1344C83.7464 75.5291 84.1929 73.8325 83.4884 72.741C82.7343 71.5702 81.3254 71.2031 80.095 71.8481V71.8381Z" fill="black"/>
</svg>
