<svg width="128" height="128" viewBox="0 0 128 128" fill="none" xmlns="http://www.w3.org/2000/svg">
<path d="M40.2236 80.0081C41.1266 89.0385 49.2143 95.846 58.2546 95.4789C66.4614 95.1415 73.8544 89.2965 75.5117 81.1493C75.7796 79.8394 75.1346 78.4699 73.7751 78.0928C72.5545 77.7554 70.9865 78.5096 70.7186 79.8294C69.5476 85.6149 64.6156 90.1102 58.6516 90.4973C52.6875 90.8843 45.8403 86.6072 45.1853 80.018C45.0563 78.6882 44.1434 77.5371 42.7045 77.5371C41.464 77.5371 40.0846 78.6783 40.2236 80.018V80.0081Z" fill="black"/>
<path d="M81.1385 93.1769C86.5866 96.0547 92.9972 96.1639 98.4353 93.1968C102.98 90.7159 106.374 86.2304 107.396 81.1397C107.664 79.8297 107.019 78.4603 105.66 78.0832C104.439 77.7458 102.871 78.5 102.603 79.8198C100.876 88.3541 91.3995 92.9983 83.6294 88.8899C80.8111 87.4014 78.3004 91.6785 81.1286 93.1769H81.1385Z" fill="black"/>
<path d="M45.0961 79.3535C44.7785 77.1405 44.4411 74.9772 43.4388 72.9429C42.2778 70.591 40.1343 68.8445 37.7626 67.8124C35.7878 66.9491 33.7435 66.4033 31.6199 66.046C30.3398 65.8277 28.881 66.3834 28.5634 67.7727C28.2856 68.9735 28.9306 70.591 30.3001 70.8292C31.9771 71.1169 33.6443 71.494 35.242 72.0994C35.3313 72.1391 35.4305 72.1788 35.5198 72.2085C35.7779 72.2978 35.242 72.0895 35.2618 72.0994C35.4008 72.1788 35.5595 72.2284 35.7084 72.2978C36.0061 72.4368 36.3038 72.5856 36.5916 72.7543C36.8397 72.8933 37.0778 73.052 37.316 73.2108C37.4152 73.2803 37.5045 73.3497 37.6038 73.4093C37.9114 73.6177 37.3755 73.2406 37.3755 73.2307C37.4152 73.2803 37.4946 73.3299 37.5442 73.3696C37.9313 73.707 38.2687 74.0742 38.6061 74.4513C38.7053 74.5604 38.219 73.9055 38.487 74.3024C38.5564 74.4016 38.616 74.4909 38.6854 74.5902C38.8145 74.7986 38.9435 75.007 39.0526 75.2154C39.1618 75.4138 39.2412 75.6222 39.3404 75.8207C39.2709 75.6818 39.1022 75.2054 39.2412 75.5825C39.2908 75.7016 39.3305 75.8207 39.3702 75.9497C39.5289 76.3963 39.648 76.8627 39.7572 77.3192C40.0053 78.4207 40.1541 79.5321 40.3129 80.6435C40.4915 81.9336 42.1984 82.7473 43.3694 82.3802C44.7785 81.9237 45.2945 80.713 45.106 79.3237L45.0961 79.3535Z" fill="black"/>
<path d="M79.9176 78.1025C79.7985 78.162 79.6695 78.2216 79.5504 78.2811L80.1459 78.033C79.4016 78.3407 78.6176 78.5193 77.8237 78.6284L78.4787 78.5391C77.4268 78.6781 76.3551 78.6781 75.3032 78.5391L75.9581 78.6284C75.2139 78.5292 74.4795 78.3506 73.7749 78.0926C73.1994 77.8842 72.3757 78.043 71.8597 78.3407C71.3437 78.6384 70.8574 79.2338 70.7185 79.8193C70.4009 81.2284 71.1452 82.3895 72.4551 82.8757C74.0925 83.4811 75.9482 83.6894 77.6947 83.5704C79.3321 83.4612 80.9596 83.1536 82.4283 82.3895C83.5794 81.7841 84.016 80.0872 83.3214 78.9956C82.5672 77.8246 81.1581 77.4575 79.9275 78.1025H79.9176Z" fill="black"/>
</svg>
