<svg width="128" height="128" viewBox="0 0 128 128" fill="none" xmlns="http://www.w3.org/2000/svg">
<path d="M48.1714 61.104C44.5794 63.4556 41.7614 66.998 40.7295 71.215C39.6976 75.4321 40.3127 80.2842 42.2576 84.3226C45.9586 92.0125 55.2262 96.2197 63.4123 93.6696C70.8343 91.3676 76.5 83.7471 76.5596 75.9381C76.6092 69.7961 72.8188 64.3586 67.6393 61.3223C61.7652 57.8792 54.0355 57.3434 48.1614 61.0941C45.4824 62.8107 47.963 67.1071 50.6619 65.3806C54.4523 62.9496 58.8182 62.9 63.1543 64.6066C63.4718 64.7356 63.2238 64.6166 63.6405 64.815C63.9084 64.944 64.1862 65.0829 64.4541 65.2218C64.99 65.4997 65.5059 65.8172 66.012 66.1446C66.518 66.4721 66.7562 66.6606 67.0538 66.9087C67.54 67.3254 68.0064 67.7521 68.4529 68.2184C69.852 69.6969 70.8938 71.5325 71.3701 73.5964C71.5884 74.5589 71.6678 75.4519 71.5785 76.7418C71.509 77.7043 71.1717 79.1431 70.7053 80.3338C69.6436 83.0624 67.7286 85.7514 65.2479 87.3787C59.8104 90.9211 52.7555 89.6907 48.5186 84.8783C45.9785 81.9908 44.9168 77.9821 45.2244 74.2017C45.532 70.4212 47.6653 67.3552 50.6718 65.3905C53.331 63.6442 50.8504 59.3477 48.1714 61.104Z" fill="black"/>
<path d="M79.9733 84.4314C82.5432 91.0695 90.2827 94.1356 97.0201 93.0342C103.757 91.9328 109.195 85.8602 110.743 79.2519C112.003 73.864 110.396 68.3471 106.536 64.3979C103.003 60.7861 97.8238 58.5933 92.7534 58.7917C85.7779 59.0596 79.8641 63.882 78.4055 70.7682C78.1277 72.0779 78.7925 73.4472 80.142 73.8243C81.3724 74.1616 82.9203 73.4075 83.1981 72.0878C83.7339 69.5477 85.004 67.2258 87.048 65.7275C88.5959 64.5964 89.9156 64.0705 91.91 63.8026C91.4933 63.8621 92.0291 63.8026 92.1283 63.7926C92.3367 63.7827 92.5451 63.7629 92.7634 63.753C93.2694 63.7331 93.7755 63.743 94.2815 63.7728C94.5395 63.7926 94.7875 63.8125 95.0455 63.8423C94.6586 63.7926 95.0852 63.8423 95.1448 63.8621C95.7302 63.9613 96.3156 64.0903 96.8911 64.259C98.5283 64.7254 100.304 65.6184 101.505 66.5313C103.152 67.7914 104.164 69.002 105.067 70.6888C105.871 72.197 106.288 73.9433 106.248 75.7492C106.208 77.7734 105.474 80.0159 104.343 81.9806C102.964 84.3719 101.078 86.3961 98.4986 87.4875C94.1227 89.3331 86.6908 88.0333 84.7857 83.1018C84.2995 81.8516 83.1187 80.9883 81.7296 81.3654C80.5389 81.6928 79.5069 83.1613 79.9931 84.4215L79.9733 84.4314Z" fill="black"/>
<path d="M45.8197 62.8403C46.3059 62.5327 45.6113 63.0189 45.8197 62.8403C45.6311 62.9594 45.4327 63.0884 45.2342 63.1975C44.8175 63.4357 44.371 63.6242 43.9443 63.8425C43.6268 64.0012 44.3214 63.7036 43.9741 63.8326C43.8054 63.8921 43.6367 63.9616 43.478 64.031C43.2001 64.1402 42.9124 64.2394 42.6246 64.3386C41.9598 64.5668 41.295 64.7653 40.6203 64.9538C37.4848 65.8071 34.7065 66.214 31.5015 66.3033C30.1918 66.3231 28.9415 67.4047 29.0011 68.764C29.0606 70.1234 30.0925 71.2843 31.4817 71.2447C35.0736 71.1454 38.7053 70.6195 42.1682 69.6571C44.6687 68.9625 47.3279 68.0695 49.3223 66.3529C50.3344 65.4797 50.2153 63.7433 49.3223 62.8403C48.3201 61.8381 46.8318 61.9671 45.8098 62.8403H45.8197Z" fill="black"/>
<path d="M79.5367 69.29C79.4375 69.3396 79.3482 69.3793 79.2489 69.419L79.8443 69.1709C79.1696 69.4587 78.4452 69.6174 77.7209 69.7167L78.3758 69.6274C77.4827 69.7365 76.5798 69.7464 75.6868 69.6274L76.3416 69.7167C75.657 69.6174 74.9922 69.4587 74.3572 69.1908L74.9525 69.4388C74.8136 69.3793 74.6747 69.3198 74.5457 69.2503C73.3848 68.6748 71.8071 68.903 71.1522 70.1433C70.5568 71.2646 70.8049 72.9216 72.0452 73.5368C75.0914 75.055 78.981 75.0847 82.0372 73.5666C83.1981 72.9911 83.6148 71.2447 82.9302 70.1731C82.1562 68.9824 80.7869 68.6649 79.5367 69.2801V69.29Z" fill="black"/>
</svg>
