<svg width="128" height="128" viewBox="0 0 128 128" fill="none" xmlns="http://www.w3.org/2000/svg">
<path d="M32.1918 67.1811C30.5447 65.4149 29.5128 62.9046 28.7785 60.5331C27.8359 57.4869 27.2703 54.3316 26.9925 51.1663C26.7146 48.0011 26.665 44.8159 26.9627 41.6606C27.1711 39.4678 27.6374 36.9574 28.5503 35.2904L26.9429 36.2132C36.7462 37.2054 46.5992 32.403 52.0863 24.2864C53.4358 22.302 50.211 20.4365 48.8714 22.4111C44.069 29.5056 35.4166 33.3556 26.9429 32.5022C26.3178 32.4427 25.6232 32.8991 25.3354 33.425C23.1525 37.3741 22.9739 42.4743 23.0334 46.8699C23.1128 52.2875 23.8173 57.9037 25.6728 63.0137C26.5757 65.4844 27.7367 67.8955 29.5525 69.8304C31.1897 71.5867 33.8191 68.9473 32.1819 67.201L32.1918 67.1811Z" fill="#EBDBB2"/>
<path d="M36.8652 58.4498C36.9347 55.2845 38.3139 52.2979 40.5365 50.0554C41.6577 48.9242 42.9774 47.9915 44.436 47.3565C45.8946 46.7215 47.4326 46.5726 48.9507 46.1956C55.698 44.4889 61.5919 39.875 64.9159 33.7826C66.0669 31.679 62.8521 29.8037 61.7011 31.9073C60.0242 34.9832 57.6527 37.6424 54.7256 39.5872C53.3265 40.5199 51.8282 41.3236 50.2506 41.9091C48.5737 42.5243 46.8571 42.7723 45.1405 43.2089C38.3436 44.9652 33.303 51.4743 33.1443 58.4597C33.0947 60.851 36.8156 60.851 36.8652 58.4597V58.4498Z" fill="#EBDBB2"/>
</svg>
