<svg width="128" height="128" viewBox="0 0 128 128" fill="none" xmlns="http://www.w3.org/2000/svg">
<path d="M32.6274 66.741C32.4289 66.5326 32.2404 66.3242 32.0618 66.096C32.3892 66.5028 31.8335 65.7685 31.7839 65.6891C31.4267 65.1533 31.1092 64.5976 30.8115 64.0221C30.2062 62.8314 29.8192 61.8192 29.3727 60.3606C28.43 57.3242 27.8842 54.2183 27.6064 51.1522C27.3286 48.086 27.2789 44.8016 27.5766 41.6461C27.6858 40.505 27.8247 39.5028 28.172 38.1136C28.3109 37.5579 28.4796 37.032 28.6582 36.4862C28.8765 35.8214 28.5987 36.5458 28.7674 36.1985C28.8666 35.9901 28.9757 35.7817 29.0849 35.5832L26.9416 36.8137C36.9636 37.8357 47.0155 32.8644 52.6219 24.5788C54.4179 21.9294 50.1213 19.4388 48.3352 22.0783C43.6516 29.0044 35.1874 32.6957 26.9416 31.8622C26.118 31.7828 25.1852 32.3881 24.7982 33.0926C22.5656 37.1411 22.3572 42.3407 22.4167 46.8556C22.4961 52.3231 23.2007 57.9989 25.0761 63.1588C26.0187 65.7388 27.2293 68.2294 29.1147 70.2537C31.2977 72.5954 34.8005 69.0828 32.6274 66.741Z" fill="#EBDBB2"/>
<path d="M32.6274 66.741C32.4289 66.5326 32.2404 66.3242 32.0618 66.096C32.3892 66.5028 31.8335 65.7685 31.7839 65.6891C31.4267 65.1533 31.1092 64.5976 30.8115 64.0221C30.2062 62.8314 29.8192 61.8192 29.3727 60.3606C28.43 57.3242 27.8842 54.2183 27.6064 51.1522C27.3286 48.086 27.2789 44.8016 27.5766 41.6461C27.6858 40.505 27.8247 39.5028 28.172 38.1136C28.3109 37.5579 28.4796 37.032 28.6582 36.4862C28.8765 35.8214 28.5987 36.5458 28.7674 36.1985C28.8666 35.9901 28.9757 35.7817 29.0849 35.5832L26.9416 36.8137C36.9636 37.8357 47.0155 32.8644 52.6219 24.5788C54.4179 21.9294 50.1213 19.4388 48.3352 22.0783C43.6516 29.0044 35.1874 32.6957 26.9416 31.8622C26.118 31.7828 25.1852 32.3881 24.7982 33.0926C22.5656 37.1411 22.3572 42.3407 22.4167 46.8556C22.4961 52.3231 23.2007 57.9989 25.0761 63.1588C26.0187 65.7388 27.2293 68.2294 29.1147 70.2537C31.2977 72.5954 34.8005 69.0828 32.6274 66.741Z" fill="#EBDBB2"/>
<path d="M37.4895 58.4455C37.5589 55.4388 38.8688 52.6208 40.9823 50.4973C42.0639 49.4058 43.334 48.4929 44.753 47.8876C46.172 47.2823 47.6604 47.1533 49.1191 46.7861C56.0055 45.0496 62.0584 40.3065 65.4521 34.0849C66.9802 31.2767 62.7034 28.7762 61.1654 31.5843C59.538 34.5711 57.2459 37.151 54.4079 39.0463C53.0584 39.9493 51.6097 40.7431 50.0816 41.2988C48.4046 41.914 46.688 42.1621 44.9713 42.5987C37.9062 44.4245 32.6868 51.1919 32.5281 58.4455C32.4586 61.6406 37.42 61.6406 37.4895 58.4455Z" fill="#EBDBB2"/>
</svg>
