<svg width="128" height="128" viewBox="0 0 128 128" fill="none" xmlns="http://www.w3.org/2000/svg">
<path d="M32.2226 67.0487C30.7541 65.4612 29.7023 63.4568 29.0574 61.4029C28.4124 59.3489 27.9857 57.2355 26.6065 55.4891C24.0664 52.2842 19.8394 51.5697 16.9917 48.7716C10.6512 42.5403 9.7483 32.8163 13.8066 25.0768C17.5374 17.9426 25.2372 13.1104 33.3538 13.3287C40.8055 13.5271 47.9001 18.7265 50.0433 25.9302C52.4247 33.9177 47.4238 43.1258 39.2179 45.0606C36.8862 45.6064 37.8784 49.1983 40.2102 48.6525C48.6939 46.6482 54.7962 38.0058 54.3794 29.3733C53.9627 20.7407 47.0963 12.8028 38.692 10.4016C29.8015 7.86142 19.7501 11.5129 13.8264 18.4387C7.43637 25.9202 5.54118 36.9838 10.2047 45.8346C11.455 48.206 13.1815 50.4684 15.2354 52.2048C17.2894 53.9412 19.6906 54.7449 21.8636 56.1638C24.1656 57.6621 24.6518 59.726 25.4059 62.2066C26.2493 64.9551 27.6384 67.5647 29.5832 69.6782C31.2105 71.4444 33.84 68.805 32.2127 67.0487H32.2226Z" fill="#EBDBB2"/>
<path d="M27.8169 38.5916C25.1478 37.2223 23.332 34.5234 23.0145 31.5368C22.6969 28.5501 24.096 25.5238 26.6659 23.8072C29.2358 22.0906 32.5995 21.5647 35.3877 23.1027C37.9973 24.5315 39.6841 27.5678 38.1759 30.4155C37.4714 31.7551 36.1716 32.5985 34.6634 32.3901C33.3735 32.2016 32.2126 31.3483 31.9149 30.0583C31.3691 27.7266 27.7872 28.7188 28.323 31.0506C29.3847 35.605 35.3679 37.5994 39.0888 34.9005C43.0875 32.0031 43.4051 26.2878 40.4283 22.557C37.4516 18.8261 32.0637 17.5759 27.6185 19.2131C23.1732 20.8503 19.9087 24.5216 19.3332 29.1951C18.718 34.2158 21.4269 39.5045 25.9317 41.8263C28.0551 42.9178 29.9403 39.7129 27.807 38.6115L27.8169 38.5916Z" fill="#EBDBB2"/>
</svg>
