<svg width="128" height="128" viewBox="0 0 128 128" fill="none" xmlns="http://www.w3.org/2000/svg">
<path d="M36.9035 58.4244C36.973 55.2591 38.3522 52.2725 40.5748 50.03C41.6961 48.8988 43.0158 47.9661 44.4743 47.3311C45.9329 46.6961 47.4709 46.5472 48.9891 46.1702C55.7363 44.4635 61.6302 39.8496 64.9543 33.7572C66.1053 31.6537 62.8904 29.7783 61.7394 31.8819C60.0625 34.9578 57.691 37.617 54.7639 39.5618C53.3649 40.4945 51.8666 41.2983 50.2889 41.8837C48.612 42.4989 46.8954 42.7469 45.1788 43.1835C38.382 44.9398 33.3414 51.4489 33.1826 58.4343C33.133 60.8256 36.8539 60.8256 36.9035 58.4343V58.4244Z" fill="#EBDBB2"/>
<path d="M32.5077 67.5332C27.9136 61.5003 24.153 53.87 25.8597 46.1305C27.5763 38.3215 33.0931 31.9811 39.9991 28.1808C44.0773 25.9284 48.5721 24.569 53.1563 23.8248C54.1485 23.6661 54.7042 22.4258 54.4561 21.5328C54.1585 20.481 53.1662 20.0742 52.1641 20.2329C43.4422 21.6518 34.7899 25.5216 28.9257 32.2986C23.0616 39.0756 20.1344 47.9661 22.6547 56.6383C23.9943 61.2622 26.3955 65.5983 29.3028 69.4184C29.918 70.2222 30.9003 70.629 31.8528 70.0832C32.6466 69.6367 33.1328 68.3369 32.5176 67.5332H32.5077Z" fill="#EBDBB2"/>
<path d="M23.4585 40.6629C22.6746 40.6927 22.109 40.5141 21.5434 39.9783C20.8985 39.373 20.4817 38.6785 20.2436 37.835C20.0055 36.9916 20.0352 36.2276 20.3131 35.285C20.5909 34.3423 21.1168 33.4394 21.7419 32.6555C23.131 30.929 25.185 29.2323 27.2786 28.4583C28.3205 28.0714 29.2432 27.9622 30.1859 28.3095C30.9102 28.5774 31.4361 29.0735 31.6147 29.8078C32.1902 32.1296 35.7821 31.1473 35.2066 28.8156C34.5716 26.2357 32.1406 24.668 29.6104 24.41C26.8817 24.1322 24.2523 25.6007 22.1586 27.1982C18.14 30.2642 14.8359 35.156 17.2173 40.2561C18.3385 42.6574 20.7596 44.4732 23.4684 44.364C25.8597 44.2747 25.8696 40.5439 23.4684 40.6431L23.4585 40.6629Z" fill="#EBDBB2"/>
<path d="M34.1549 27.9724C36.5859 24.3705 39.9496 21.3442 43.1843 18.4766C44.5635 17.2561 45.9725 16.0654 47.4113 14.9045C47.8578 14.5374 48.3142 14.1802 48.7607 13.823C49.0286 13.6146 49.5545 13.2078 48.979 13.6444C49.872 12.9597 50.3384 11.6202 49.3561 10.7272C46.0321 7.70081 42.718 4.67447 39.394 1.64813C38.6498 0.973406 37.4988 0.903949 36.7645 1.64813C33.9862 4.44626 31.2079 7.24439 28.4396 10.0425L31.3568 10.4196C29.6501 7.62143 27.9335 4.82332 26.2269 2.02519C25.6712 1.11232 24.6095 0.9238 23.6768 1.36039C20.7298 2.72968 17.7928 4.08905 14.8458 5.45834C14.0917 5.80563 13.8139 6.80781 13.9925 7.56191C14.7962 11.005 15.6099 14.4481 16.4136 17.8912L18.7057 15.5991C15.0741 14.5076 11.4425 13.4161 7.82076 12.3247C6.76898 12.0071 5.91565 12.7117 5.52868 13.6245C4.08993 17.0478 2.65117 20.4611 1.21242 23.8843C0.904824 24.6285 1.42079 25.6108 2.06575 25.9879C4.80434 27.5556 7.54293 29.1234 10.2815 30.6911L9.61672 28.141C6.87813 32.6458 4.13954 37.1506 1.40095 41.6653C0.964358 42.3797 1.12312 43.3323 1.6887 43.9177C5.15163 47.4898 8.60463 51.0817 12.1172 54.6141C13.0697 55.5667 14.9153 55.1797 15.2229 53.7905C16.1457 49.643 18.4874 46.0907 21.5137 43.1537C23.2303 41.4768 20.6009 38.8474 18.8843 40.5242C15.4313 43.878 12.6927 48.0653 11.6409 52.8082L14.7466 51.9846C11.2341 48.4523 7.78107 44.8603 4.31814 41.2883L4.60589 43.5407C7.34448 39.0359 10.0831 34.5311 12.8217 30.0164C13.3376 29.163 13.0201 27.9624 12.1569 27.4663C9.41827 25.8986 6.67968 24.3308 3.94109 22.7631L4.79442 24.8666C6.23317 21.4434 7.67192 18.0301 9.11068 14.6068L6.81859 15.9067C10.4502 16.9981 14.0818 18.0896 17.7035 19.1811C19.1125 19.6077 20.3032 18.2285 19.9956 16.889C19.1919 13.4459 18.3782 10.0028 17.5745 6.55973L16.7212 8.6633C19.6681 7.29401 22.6052 5.93463 25.5522 4.56533L23.0021 3.90053C24.7087 6.69866 26.4253 9.49677 28.132 12.2949C28.7571 13.307 30.1959 13.5352 31.0492 12.672C33.8275 9.87383 36.6057 7.0757 39.3741 4.27757H36.7447C40.0687 7.30391 43.3828 10.3303 46.7068 13.3566L47.0838 10.4394C44.8414 12.1659 42.6584 13.9817 40.535 15.8571C37.0423 18.9429 33.5397 22.2173 30.9202 26.097C29.5807 28.0914 32.7955 29.9469 34.1351 27.9724H34.1549Z" fill="#EBDBB2"/>
</svg>
