<svg width="128" height="128" viewBox="0 0 128 128" fill="none" xmlns="http://www.w3.org/2000/svg">
<path d="M36.9709 58.4317C37.0404 55.2665 38.4196 52.2798 40.6422 50.0373C41.7635 48.9062 43.0831 47.9735 44.5417 47.3384C46.0003 46.7034 47.5383 46.5545 49.0565 46.1775C55.8037 44.4708 61.6976 39.8569 65.0216 33.7645C66.1727 31.661 62.9578 29.7856 61.8068 31.8892C60.1299 34.9651 57.7584 37.6244 54.8313 39.5692C53.4322 40.5019 51.934 41.3056 50.3563 41.891C48.6794 42.5062 46.9628 42.7543 45.2462 43.1908C38.4494 44.9471 33.4088 51.4562 33.25 58.4416C33.2004 60.8329 36.9213 60.8329 36.9709 58.4416V58.4317Z" fill="#EBDBB2"/>
<path d="M32.2876 67.1631C27.1577 61.2295 24.1313 53.1626 26.1059 45.3635C28.0408 37.7431 33.5874 31.6507 40.4239 27.9794C44.4028 25.8461 48.7687 24.5462 53.2239 23.8219C54.2161 23.6631 54.7718 22.4228 54.5237 21.5298C54.2261 20.478 53.2338 20.0712 52.2317 20.23C43.5098 21.6489 34.8674 25.5186 28.9933 32.2957C23.1192 39.0727 20.3013 47.9136 22.5536 56.6156C23.8138 61.4974 26.3738 65.9823 29.6581 69.7826C31.2259 71.5984 33.8454 68.9591 32.2876 67.1532V67.1631Z" fill="#EBDBB2"/>
<path d="M24.2304 52.8154C20.8767 52.8154 17.3344 52.2994 14.4072 50.8805C11.8671 49.6402 9.72384 47.8442 8.23548 45.6415C5.0603 40.9581 4.36572 34.9352 5.21905 29.458C7.24322 16.4397 17.1359 4.52289 31.1166 4.84041C35.4626 4.93964 39.9773 6.30892 43.0632 9.4841C46.417 12.9272 47.0421 17.7892 46.1094 22.3436C45.6331 24.6853 49.2151 25.6775 49.7013 23.3358C50.7134 18.4143 50.3661 13.0959 47.3795 8.88877C44.76 5.19762 40.7414 2.8063 36.3755 1.77437C28.1101 -0.180353 19.3188 2.19111 12.9089 7.6683C2.71859 16.3802 -2.49068 33.3178 3.91921 45.6514C7.86834 53.2619 15.9849 56.5462 24.2304 56.5264C26.6217 56.5264 26.6317 52.7955 24.2304 52.8055V52.8154Z" fill="#EBDBB2"/>
<path d="M24.7761 44.4902C22.1169 43.2895 19.4576 42.0989 16.7984 40.8982L16.3519 44.3016C18.8424 43.5574 20.5392 41.3646 20.9857 38.8344C21.5116 35.818 20.3209 33 19.1203 30.3011L16.2031 32.5535C18.7928 34.6669 22.4145 34.2502 24.7265 31.8887C27.3162 29.2592 27.6139 25.5185 28.7053 22.1845L25.302 22.631C26.7804 24.7941 29.261 26.9572 31.9401 25.2605C33.1506 24.4965 34.0139 23.1073 34.9069 22.0258C35.9785 20.7358 37.0402 19.4459 38.1118 18.1461L35.1946 17.769C36.6731 20.5076 38.1416 23.2462 39.62 25.9848C40.7611 28.0983 43.9661 26.213 42.8349 24.1095C41.3565 21.3709 39.8879 18.6323 38.4095 15.8937C37.8836 14.9114 36.2464 14.6038 35.4923 15.5166C34.123 17.1737 32.7438 18.8407 31.3745 20.4977C31.1463 20.7755 30.3227 22.1548 29.8762 22.1647C29.4297 22.1746 28.745 21.0732 28.5268 20.7557C27.6139 19.4261 25.6393 19.6245 25.1233 21.2022C24.3792 23.4744 24.1609 26.0146 22.9603 28.1082C22.2657 29.3287 20.3407 31.1544 18.8424 29.9339C17.1755 28.5746 15.0521 30.2316 15.9253 32.1863C16.9076 34.3891 19.0211 39.6282 15.3795 40.7296C13.9805 41.1463 13.395 43.4384 14.933 44.1329C17.5922 45.3336 20.2514 46.5243 22.9106 47.7249C23.8334 48.1416 24.9051 47.9829 25.4607 47.0601C25.937 46.2663 25.7088 44.9267 24.7959 44.51L24.7761 44.4902Z" fill="#EBDBB2"/>
</svg>
