<svg width="128" height="128" viewBox="0 0 128 128" fill="none" xmlns="http://www.w3.org/2000/svg">
<path d="M37.5895 58.4649C37.6589 55.4585 38.9686 52.6406 41.082 50.5173C42.1636 49.4259 43.4336 48.513 44.8525 47.9078C46.2713 47.3025 47.7596 47.1735 49.2182 46.8064C56.1041 45.07 62.1566 40.3273 65.55 34.1061C67.078 31.2981 62.8016 28.7978 61.2636 31.6057C59.6364 34.5923 57.3444 37.172 54.5067 39.0672C53.1573 39.9701 51.7086 40.7638 50.1806 41.3195C48.5038 41.9346 46.7873 42.1827 45.0707 42.6193C38.0062 44.4449 32.7872 51.2118 32.6284 58.4649C32.559 61.6598 37.52 61.6598 37.5895 58.4649Z" fill="#EBDBB2"/>
<path d="M32.7277 66.7696C27.7468 61.0048 24.78 53.1564 26.7049 45.5759C28.6298 37.9954 34.0374 32.1612 40.7348 28.5694C44.6739 26.456 48.99 25.1859 53.3855 24.4715C54.7052 24.2533 55.4493 22.6161 55.1219 21.4155C54.7349 20.0066 53.3955 19.4708 52.0659 19.6792C43.2451 21.1079 34.4938 25.057 28.5505 31.9032C22.6071 38.7495 19.6404 47.8977 21.9522 56.8276C23.2421 61.8184 25.8616 66.3925 29.2152 70.2721C30.0884 71.2841 31.8247 71.175 32.7277 70.2721C33.7298 69.2699 33.6107 67.7816 32.7277 66.7596V66.7696Z" fill="#EBDBB2"/>
<path d="M24.2245 52.2238C22.1408 52.2238 20.6624 52.1147 18.8765 51.7376C18.1025 51.569 17.3484 51.3705 16.5944 51.1225C16.2372 51.0034 15.88 50.8744 15.5327 50.7355C14.8481 50.4775 15.9693 50.9439 15.3045 50.6462C15.106 50.5569 14.9076 50.4676 14.7091 50.3684C14.0741 50.0608 13.459 49.7135 12.8636 49.3365C12.5461 49.1281 12.2386 48.9098 11.931 48.6916C11.6035 48.4534 12.3774 49.0587 11.8714 48.6419C11.6928 48.4931 11.5043 48.3443 11.3257 48.1855C10.7998 47.7291 10.3037 47.233 9.8374 46.717C9.61911 46.469 9.41074 46.2209 9.20238 45.963C9.53973 46.3797 9.25198 46.0324 9.1726 45.9134C9.04361 45.7248 8.90471 45.5363 8.77572 45.3478C8.4086 44.8021 8.07125 44.2365 7.75374 43.661C7.59499 43.3733 7.44616 43.0756 7.30725 42.778C7.21795 42.5994 7.13857 42.4208 7.0592 42.2322C7.28741 42.768 7.05919 42.2124 7.00958 42.0834C6.49363 40.6844 6.08682 39.2556 5.82885 37.7772C5.79908 37.6085 5.66018 36.5866 5.72964 37.2017C5.68995 36.8545 5.65026 36.5072 5.62049 36.1599C5.55104 35.386 5.52126 34.612 5.52126 33.8282C5.52126 33.1138 5.54112 32.3895 5.59073 31.6751C5.62049 31.2782 5.65024 30.8813 5.69986 30.4845C5.7197 30.3059 5.73956 30.1273 5.7594 29.9387C5.68995 30.5241 5.78915 29.7304 5.809 29.6212C6.05705 28.0535 6.41426 26.4958 6.87067 24.9777C7.08896 24.2633 7.32709 23.5489 7.58507 22.8543C7.71406 22.5071 7.85297 22.1499 7.99188 21.8026C7.78351 22.2987 8.07125 21.6141 8.09109 21.5645C8.18039 21.3561 8.27961 21.1577 8.36891 20.9493C9.06346 19.451 9.86715 18.0024 10.7701 16.6232C11.7623 15.1151 12.179 14.5694 13.3994 13.2299C15.6815 10.7196 17.5667 9.21142 20.6128 7.70326C20.9502 7.53458 21.2776 7.38574 21.6249 7.22698C22.2797 6.92932 21.3471 7.33612 21.7539 7.17737C21.9325 7.10792 22.1011 7.03847 22.2797 6.96901C23.0537 6.68127 23.8474 6.43322 24.6511 6.22486C26.8042 5.66922 28.8482 5.42117 31.1005 5.47078C35.3571 5.57 39.6831 6.92933 42.6102 9.93574C45.5372 12.9421 46.4302 17.6254 45.4975 22.1995C45.2296 23.5092 45.8745 24.8784 47.2339 25.2555C48.4642 25.5928 50.0121 24.8388 50.2899 23.5191C51.3317 18.4489 50.9944 12.9421 47.9086 8.59624C45.1899 4.77622 41.0722 2.26592 36.5378 1.19433C28.0346 -0.809939 19.055 1.62099 12.4767 7.24683C2.06836 16.147 -3.15067 33.4115 3.38801 45.9828C7.43624 53.7816 15.7807 57.1849 24.2344 57.165C27.4293 57.165 27.4293 52.1941 24.2344 52.204L24.2245 52.2238Z" fill="#EBDBB2"/>
<path d="M25.0779 43.9984C22.4188 42.7978 19.7596 41.6071 17.1005 40.4065L16.5052 44.941C19.1841 44.1373 21.0991 41.7857 21.5654 39.0373C22.1112 35.8225 20.9205 32.9054 19.6406 30.0181L15.7412 33.0245C18.5987 35.3562 22.5676 34.9791 25.1473 32.3597C27.7271 29.7403 28.1637 25.8309 29.2849 22.378L24.7505 22.9734C26.3975 25.3944 29.265 27.7459 32.2317 25.821C33.4918 25.0074 34.3848 23.6282 35.3274 22.4872C36.399 21.1973 37.4607 19.9074 38.5323 18.6076L34.6329 18.1016C36.1113 20.8401 37.5798 23.5786 39.0582 26.3171C40.5366 29.0556 44.8626 26.6247 43.3445 23.8167C41.8264 21.0088 40.3976 18.3397 38.9193 15.6012C38.2148 14.2915 36.0319 13.8748 35.0198 15.0952C33.6506 16.7522 32.2714 18.4191 30.9022 20.0761C30.5847 20.4631 30.158 20.85 29.9 21.2866C29.5726 21.8323 29.6222 21.3362 29.8405 21.5545C30.2572 21.6835 30.2672 21.6537 29.8603 21.4553L29.8008 21.3858C29.5528 21.0584 29.2551 20.8004 29.0269 20.4531C27.8164 18.6771 25.1771 18.9549 24.4925 21.0485C23.7682 23.2611 23.5598 25.7615 22.389 27.8054C21.9127 28.629 20.355 30.405 19.2437 29.5021C17.0211 27.6864 14.1834 29.8891 15.3443 32.5085C16.0487 34.0862 16.9021 35.892 16.7532 37.668C16.6639 38.6702 16.1976 39.8211 15.1657 40.1386C13.3003 40.6943 12.5264 43.7503 14.5703 44.6731C17.2295 45.8736 19.8886 47.0643 22.5477 48.2649C23.7682 48.8106 25.2168 48.6121 25.9411 47.3719C26.5662 46.3102 26.2785 44.5342 25.0481 43.9785L25.0779 43.9984Z" fill="#EBDBB2"/>
</svg>
