<svg width="128" height="128" viewBox="0 0 128 128" fill="none" xmlns="http://www.w3.org/2000/svg">
<path d="M54.353 20.8405C44.7778 18.6179 34.3493 21.8923 27.5326 28.9174C20.7159 35.9425 18.5231 46.3611 21.2418 55.7576C22.7699 61.0363 25.7863 65.9182 30.0331 69.4307C31.8687 70.9488 34.5081 68.3293 32.6625 66.8013C26.1137 61.3737 22.8095 52.5328 24.0201 44.1186C25.2405 35.5555 31.3726 28.5007 39.4197 25.4942C43.8749 23.8272 48.717 23.3509 53.3706 24.4325C55.7024 24.9683 56.6947 21.3863 54.3629 20.8405H54.353Z" fill="#EBDBB2"/>
<path d="M56.3772 31.0013C49.7491 29.6122 42.6644 31.1799 37.2964 35.3275C31.9284 39.4751 29.0112 46.1727 29.805 52.9497C30.2614 56.8988 31.7994 60.4809 34.3197 63.5469C34.9646 64.3308 36.2843 64.2018 36.9491 63.5469C37.7231 62.7829 37.5841 61.6914 36.9491 60.9175C32.4146 55.3807 32.1764 46.897 36.582 41.2016C40.8586 35.6748 48.6278 33.1644 55.3949 34.5833C57.7267 35.0695 58.7289 31.4875 56.3872 30.9914L56.3772 31.0013Z" fill="#EBDBB2"/>
<path d="M60.4653 42.8786C55.0477 40.0011 48.3004 39.9912 43.488 44.0693C39.0428 47.8299 38.3284 54.6565 42.3469 58.9926C43.9742 60.7489 46.6037 58.1194 44.9764 56.3632C42.208 53.3765 43.2896 48.8717 46.3159 46.54C49.8582 43.8014 54.7897 44.0693 58.59 46.0935C60.7034 47.2147 62.5887 44.0097 60.4653 42.8786Z" fill="#EBDBB2"/>
</svg>
