<svg width="128" height="128" viewBox="0 0 128 128" fill="none" xmlns="http://www.w3.org/2000/svg">
<path d="M54.5357 20.2082C44.7525 17.9361 34.0862 21.25 27.111 28.4436C20.1357 35.6371 17.8735 46.2736 20.6616 55.8882C22.2194 61.266 25.2853 66.2568 29.6114 69.8387C30.6433 70.692 32.1117 70.8507 33.1238 69.8387C34.0069 68.9556 34.1656 67.1895 33.1238 66.3263C26.7339 61.0378 23.4894 52.4551 24.6404 44.2396C25.8013 35.8951 31.7645 28.9695 39.6029 26.0424C43.9588 24.4152 48.6718 23.9191 53.226 24.9808C56.3316 25.7051 57.6612 20.9226 54.5457 20.1983L54.5357 20.2082Z" fill="#EBDBB2"/>
<path d="M56.5599 30.3586C49.7434 28.9298 42.4704 30.5273 36.9438 34.7938C31.4172 39.0603 28.4009 45.9364 29.2046 52.9017C29.6808 57.0293 31.2684 60.7303 33.8977 63.9351C34.751 64.9769 36.5271 64.8182 37.4102 63.9351C38.4321 62.9131 38.2635 61.4645 37.4102 60.4227C33.0543 55.1044 32.8956 46.8889 37.1423 41.4615C41.3889 36.0341 48.771 33.7718 55.2501 35.1312C56.5599 35.409 57.9291 34.7442 58.3062 33.3948C58.6435 32.1645 57.8894 30.6166 56.5698 30.3388L56.5599 30.3586Z" fill="#EBDBB2"/>
<path d="M60.7966 42.2948C55.1211 39.2785 48.1062 39.3181 43.0657 43.5847C38.3527 47.5734 37.6879 54.8165 41.9247 59.3906C42.8375 60.3729 44.5143 60.3134 45.4371 59.3906C46.4194 58.4083 46.3499 56.8704 45.4371 55.8782C45.4272 55.8683 44.941 55.2828 45.1692 55.5904C44.9906 55.3523 44.8418 55.0943 44.6929 54.8463C44.6433 54.7471 44.3754 54.2113 44.435 54.3502C44.4747 54.4494 44.2663 53.8243 44.2266 53.6953C44.1571 53.4473 44.1075 53.2091 44.0579 52.9611C43.9587 52.465 44.0381 53.1794 44.0282 52.6237C44.0282 52.1177 43.9984 51.6117 44.0678 51.1155C44.0083 51.562 44.1373 50.8675 44.1571 50.7782C44.2167 50.5301 44.2961 50.292 44.3655 50.0539C44.5143 49.5578 44.2861 50.1333 44.5044 49.7165C44.6334 49.4585 44.7723 49.2006 44.9211 48.9625C45.3081 48.3374 45.9233 47.613 46.7667 46.9582C46.469 47.1963 47.0842 46.7399 47.0842 46.7498C47.2925 46.6109 47.5108 46.472 47.739 46.343C47.9672 46.214 48.1955 46.1049 48.4137 45.9858C48.8702 45.7378 48.3145 45.9858 48.761 45.8271C49.8624 45.4103 50.8546 45.192 51.8766 45.1424C54.1289 45.0333 56.3118 45.5592 58.2863 46.6109C59.467 47.236 60.9851 46.9086 61.6796 45.7179C62.3345 44.5967 61.9773 42.9497 60.7866 42.3246L60.7966 42.2948Z" fill="#EBDBB2"/>
</svg>
