<svg width="128" height="128" viewBox="0 0 128 128" fill="none" xmlns="http://www.w3.org/2000/svg">
<path d="M71.582 38.665C78.2896 39.5878 85.3941 35.9859 88.093 29.6256C88.4899 28.7029 88.3708 27.6312 87.4282 27.0756C86.6443 26.6191 85.275 26.8176 84.8781 27.7404C83.8065 30.2706 82.08 32.1658 79.7879 33.4954C78.6071 34.18 77.6446 34.5571 76.2456 34.8746C75.9181 34.9441 75.5808 35.0135 75.2434 35.0631C75.5213 35.0234 74.916 35.0929 74.9259 35.0929C74.7572 35.1028 74.5885 35.1127 74.4199 35.1227C74.0825 35.1425 73.7451 35.1425 73.3978 35.1227C73.2292 35.1227 73.0605 35.1028 72.8918 35.0929C72.8422 35.0929 72.2965 35.0334 72.5743 35.0731C71.582 34.9341 70.5799 35.3112 70.2822 36.3729C70.0441 37.2461 70.5799 38.5261 71.582 38.665Z" fill="#EBDBB2"/>
<path d="M93.4213 23.0171C94.5822 22.8881 95.624 22.6004 96.6857 22.0944C97.549 21.6776 98.3626 21.0823 99.0572 20.4175C100.466 19.0779 101.528 17.2324 101.816 15.2975C101.895 14.7815 101.905 14.335 101.627 13.8687C101.399 13.4817 100.962 13.1145 100.516 13.0153C100.04 12.9062 99.5037 12.926 99.087 13.2038C98.7099 13.4519 98.3031 13.8488 98.2336 14.3152C98.1741 14.7021 98.0848 15.0792 97.9657 15.4562C97.936 15.5555 97.8963 15.6646 97.8566 15.7638C97.807 15.9028 97.6383 16.1707 97.9062 15.6646C97.8169 15.8333 97.7474 16.002 97.6581 16.1707C97.4795 16.4981 97.2811 16.8156 97.0628 17.1232C96.8643 17.401 97.3307 16.7958 97.1223 17.0438C97.0628 17.1133 97.0033 17.1927 96.9437 17.2621C96.8147 17.411 96.6758 17.5598 96.527 17.7086C96.398 17.8376 96.2591 17.9666 96.1102 18.0857C96.0408 18.1452 95.9614 18.2048 95.8919 18.2643C95.7828 18.3536 95.8423 18.304 96.0805 18.1155C96.0309 18.1551 95.9813 18.1849 95.9316 18.2246C95.624 18.4429 95.3065 18.6413 94.9692 18.81C94.8005 18.8993 94.2151 19.0978 94.8203 18.8993C94.6417 18.9589 94.473 19.0382 94.2944 19.0879C93.9075 19.2069 93.5106 19.2962 93.1137 19.3558L93.6098 19.2863C93.5503 19.2863 93.4808 19.3061 93.4213 19.3061C92.9152 19.3657 92.4786 19.4748 92.1016 19.8519C91.7741 20.1793 91.536 20.7052 91.5558 21.1716C91.5757 21.6379 91.7344 22.1539 92.1016 22.4912C92.4389 22.7988 92.9351 23.0866 93.4213 23.037V23.0171Z" fill="#EBDBB2"/>
<path d="M102.252 34.8448C103.413 34.7158 104.455 34.428 105.517 33.922C106.38 33.5052 107.194 32.9099 107.888 32.2451C109.297 30.9056 110.359 29.06 110.647 27.1251C110.726 26.6092 110.736 26.1626 110.458 25.6963C110.23 25.3093 109.793 24.9422 109.347 24.843C108.871 24.7338 108.335 24.7537 107.918 25.0315C107.541 25.2795 107.134 25.6764 107.065 26.1428C107.005 26.5298 106.916 26.9068 106.797 27.2839C106.767 27.3831 106.727 27.4922 106.688 27.5915C106.638 27.7304 106.469 27.9983 106.737 27.4922C106.648 27.6609 106.578 27.8296 106.489 27.9983C106.311 28.3257 106.112 28.6433 105.894 28.9508C105.695 29.2287 106.162 28.6234 105.953 28.8715C105.894 28.9409 105.834 29.0203 105.775 29.0898C105.646 29.2386 105.507 29.3874 105.358 29.5363C105.229 29.6653 105.09 29.7943 104.941 29.9133C104.872 29.9729 104.792 30.0324 104.723 30.0919C104.614 30.1812 104.673 30.1316 104.912 29.9431C104.862 29.9828 104.812 30.0125 104.763 30.0522C104.455 30.2705 104.138 30.469 103.8 30.6377C103.632 30.727 103.046 30.9254 103.651 30.727C103.473 30.7865 103.304 30.8659 103.125 30.9155C102.739 31.0346 102.342 31.1239 101.945 31.1834L102.441 31.1139C102.381 31.1139 102.312 31.1338 102.252 31.1338C101.746 31.1933 101.31 31.3025 100.933 31.6795C100.605 32.007 100.367 32.5328 100.387 32.9992C100.407 33.4656 100.566 33.9815 100.933 34.3189C101.27 34.6265 101.766 34.9142 102.252 34.8646V34.8448Z" fill="#EBDBB2"/>
<path d="M100.238 45.6407C100.109 44.4798 99.8213 43.4379 99.3153 42.3762C98.8986 41.5129 98.3032 40.6993 97.6384 40.0047C96.2989 38.5958 94.4533 37.5341 92.5184 37.2463C92.0025 37.1669 91.556 37.157 91.0896 37.4348C90.7026 37.663 90.3355 38.0996 90.2363 38.5461C90.1271 39.0224 90.147 39.5582 90.4248 39.975C90.6729 40.352 91.0698 40.7588 91.5361 40.8283C91.9231 40.8878 92.3001 40.9771 92.6772 41.0962C92.7764 41.126 92.8856 41.1657 92.9848 41.2054C93.1237 41.255 93.3916 41.4236 92.8856 41.1557C93.0542 41.245 93.2229 41.3145 93.3916 41.4038C93.719 41.5824 94.0366 41.7809 94.3442 41.9991C94.622 42.1976 94.0167 41.7312 94.2648 41.9396C94.3342 41.9991 94.4136 42.0587 94.4831 42.1182C94.6319 42.2472 94.7807 42.3861 94.9296 42.535C95.0586 42.6639 95.1876 42.8029 95.3066 42.9517C95.3662 43.0212 95.4257 43.1005 95.4852 43.17C95.5745 43.2791 95.5249 43.2196 95.3364 42.9815C95.3761 43.0311 95.4059 43.0807 95.4455 43.1303C95.6638 43.4379 95.8623 43.7554 96.031 44.0928C96.1203 44.2615 96.3187 44.8469 96.1203 44.2416C96.1798 44.4202 96.2592 44.5889 96.3088 44.7675C96.4279 45.1545 96.5172 45.5514 96.5767 45.9483L96.5073 45.4522C96.5073 45.5117 96.5271 45.5811 96.5271 45.6407C96.5866 46.1467 96.6958 46.5833 97.0728 46.9604C97.4003 47.2878 97.9262 47.5259 98.3925 47.5061C98.8589 47.4863 99.3748 47.3275 99.7122 46.9604C100.02 46.623 100.308 46.1269 100.258 45.6407H100.238Z" fill="#EBDBB2"/>
<path d="M58.9409 22.5015C62.4534 19.8919 65.063 16.2999 66.3529 12.1027C66.6407 11.17 66.0156 10.029 65.0531 9.81066C64.0906 9.59236 63.0686 10.1183 62.761 11.1105C62.6221 11.557 62.4732 12.0035 62.3046 12.4401C62.2649 12.5492 62.2252 12.6782 62.1656 12.7874C62.2351 12.6485 62.2649 12.5592 62.1756 12.7477C62.0863 12.9461 61.987 13.1545 61.8977 13.353C61.481 14.1964 61.0047 15.01 60.4689 15.774C60.3399 15.9526 60.2109 16.1312 60.072 16.3099C60.1613 16.1809 60.2208 16.1312 60.0919 16.2801C60.0125 16.3793 59.9331 16.4686 59.8537 16.5678C59.556 16.925 59.2385 17.2823 58.9111 17.6196C58.6035 17.9371 58.2761 18.2447 57.9486 18.5424C57.7601 18.7111 57.5716 18.8698 57.383 19.0187C57.3037 19.0782 57.2243 19.1377 57.1548 19.2072C57.5021 18.9294 57.1052 19.237 57.0556 19.2767C56.2717 19.8522 55.8054 20.9139 56.3908 21.8267C56.8869 22.6007 58.0974 23.1166 58.9409 22.4915V22.5015Z" fill="#EBDBB2"/>
<path d="M74.797 25.3192C77.992 23.563 80.3932 20.3283 81.0779 16.7463C81.2565 15.7937 80.81 14.6923 79.778 14.4542C78.8652 14.2458 77.6844 14.732 77.4859 15.754C77.4165 16.1211 77.3272 16.4883 77.218 16.8455C77.1585 17.0439 77.089 17.2325 77.0196 17.4309C76.9898 17.5202 76.9501 17.6095 76.9204 17.6889C76.8013 17.9965 77.0494 17.3912 76.9601 17.6095C76.6425 18.3041 76.2754 18.9788 75.819 19.6039C75.7793 19.6635 75.5709 19.9214 75.7594 19.6833C75.948 19.4452 75.7198 19.7329 75.6999 19.7627C75.5808 19.9115 75.4618 20.0504 75.3328 20.1893C75.0847 20.4672 74.8168 20.7351 74.539 20.9831C74.4001 21.1121 74.2612 21.2312 74.1123 21.3503C73.8047 21.6082 74.4596 21.1022 74.1322 21.3304C74.0528 21.38 73.9833 21.4396 73.9039 21.4991C73.5864 21.7273 73.2491 21.9258 72.9018 22.1143C72.0485 22.5806 71.7012 23.8309 72.237 24.6644C72.7728 25.4978 73.8643 25.8352 74.787 25.3292L74.797 25.3192Z" fill="#EBDBB2"/>
</svg>
