<svg width="128" height="128" viewBox="0 0 128 128" fill="none" xmlns="http://www.w3.org/2000/svg">
<path d="M71.4156 39.2594C75.0374 39.7555 78.5898 39.1403 81.7949 37.3542C84.7519 35.707 87.2921 33.0675 88.6218 29.9418C89.1279 28.7511 89.0187 27.223 87.7287 26.5482C86.667 25.9826 84.8809 26.1612 84.3351 27.4413C84.0672 28.0664 83.7596 28.6717 83.4024 29.2572C83.2932 29.4259 83.1841 29.6045 83.065 29.7632C83.0253 29.8128 82.6979 30.2792 82.8963 30.0014C83.0948 29.7235 82.7078 30.2296 82.7078 30.2296C82.5986 30.3586 82.4895 30.4876 82.3704 30.6166C81.9139 31.1227 81.4178 31.589 80.8919 32.0256C80.7133 32.1745 80.5545 32.2737 80.8324 32.0753C80.6637 32.1943 80.5049 32.3134 80.3263 32.4325C80.0484 32.621 79.7508 32.7996 79.463 32.9782C79.1752 33.1568 78.8676 33.3057 78.56 33.4545C78.4112 33.5339 78.2524 33.5935 78.0936 33.6728C77.8257 33.8018 78.4707 33.5438 78.0242 33.6927C77.3792 33.9209 76.7441 34.1392 76.0694 34.2881C75.7419 34.3674 75.4046 34.417 75.0672 34.4766C75.6824 34.3774 75.0076 34.4766 74.9183 34.4766C74.7497 34.4865 74.581 34.4964 74.4123 34.5064C74.0749 34.5262 73.7375 34.5262 73.3902 34.5064C73.2215 34.5064 73.0528 34.4865 72.8842 34.4766C72.7452 34.4667 72.13 34.3873 72.7254 34.4766C71.4453 34.298 69.9966 34.7842 69.6692 36.2131C69.4012 37.384 70.0264 39.0808 71.4057 39.2693L71.4156 39.2594Z" fill="#EBDBB2"/>
<path d="M93.4146 23.6309C94.7046 23.4821 95.816 23.1844 96.9869 22.6188C97.8998 22.1822 98.7531 21.5471 99.4775 20.8426C100.956 19.4336 102.087 17.4788 102.395 15.4446C102.494 14.7599 102.504 14.1546 102.147 13.5295C101.849 13.0135 101.254 12.5273 100.668 12.3884C100.033 12.2395 99.3187 12.2792 98.7531 12.6364C98.2471 12.9639 97.7112 13.4997 97.612 14.1149C97.5227 14.7004 97.3639 15.2759 97.1357 15.8217L97.3838 15.2263C97.1258 15.8316 96.7884 16.3972 96.3915 16.9132L96.7785 16.4071C96.3518 16.9529 95.8656 17.4391 95.3198 17.8558L95.8259 17.4689C95.3 17.8658 94.7344 18.1932 94.139 18.4611L94.7344 18.2131C94.1588 18.4512 93.5536 18.6199 92.9383 18.7092L93.5932 18.6199C93.5337 18.6199 93.4642 18.6397 93.4047 18.6397C92.73 18.7191 92.1544 18.868 91.6484 19.3641C91.2217 19.7908 90.8942 20.5052 90.924 21.1205C90.9538 21.7357 91.1622 22.4303 91.6484 22.8768C92.1048 23.2936 92.7597 23.6806 93.4047 23.6012L93.4146 23.6309Z" fill="#EBDBB2"/>
<path d="M102.256 35.4591C103.546 35.3102 104.657 35.0125 105.828 34.4469C106.741 34.0103 107.594 33.3753 108.319 32.6707C109.797 31.2617 110.929 29.3069 111.236 27.2727C111.335 26.588 111.345 25.9827 110.988 25.3576C110.69 24.8416 110.095 24.3554 109.51 24.2165C108.874 24.0676 108.16 24.1073 107.594 24.4646C107.088 24.792 106.553 25.3278 106.453 25.9431C106.364 26.5285 106.205 27.104 105.977 27.6498L106.225 27.0544C105.967 27.6597 105.63 28.2253 105.233 28.7413L105.62 28.2352C105.193 28.781 104.707 29.2672 104.161 29.684L104.667 29.297C104.141 29.6939 103.576 30.0213 102.98 30.2893L103.576 30.0412C103 30.2793 102.395 30.448 101.78 30.5373L102.435 30.448C102.375 30.448 102.306 30.4679 102.246 30.4679C101.571 30.5473 100.996 30.6961 100.49 31.1922C100.063 31.6189 99.7355 32.3334 99.7653 32.9486C99.7951 33.5638 100.003 34.2584 100.49 34.7049C100.946 35.1217 101.601 35.5087 102.246 35.4293L102.256 35.4591Z" fill="#EBDBB2"/>
<path d="M100.857 45.6398C100.708 44.3498 100.41 43.2384 99.8446 42.0675C99.408 41.1546 98.773 40.3013 98.0685 39.5769C96.6594 38.0984 94.7046 36.9672 92.6704 36.6596C91.9857 36.5604 91.3805 36.5504 90.7553 36.9077C90.2393 37.2053 89.7531 37.8007 89.6142 38.3862C89.4653 39.0212 89.505 39.7357 89.8623 40.3013C90.1897 40.8073 90.7256 41.3432 91.3408 41.4424C91.9262 41.5317 92.5017 41.6905 93.0475 41.9187L92.4521 41.6706C93.0574 41.9286 93.623 42.266 94.139 42.6629L93.6329 42.2759C94.1787 42.7026 94.6649 43.1888 95.0817 43.7346L94.6947 43.2285C95.0916 43.7544 95.4191 44.32 95.687 44.9154L95.4389 44.32C95.677 44.8955 95.8457 45.5008 95.935 46.1161L95.8457 45.4611C95.8457 45.5207 95.8656 45.5901 95.8656 45.6497C95.945 46.3244 96.0938 46.9 96.5899 47.406C97.0166 47.8327 97.7311 48.1602 98.3463 48.1304C98.9615 48.1006 99.6561 47.8922 100.103 47.406C100.519 46.9496 100.906 46.2947 100.827 45.6497L100.857 45.6398Z" fill="#EBDBB2"/>
<path d="M59.2602 23.0355C62.9118 20.3266 65.6207 16.6254 66.9504 12.2593C67.3275 11.019 66.5039 9.50079 65.2139 9.2031C63.9239 8.90542 62.5645 9.60994 62.1577 10.9396C62.0187 11.3861 61.8699 11.8327 61.7012 12.2693C61.6516 12.3883 61.602 12.4975 61.5623 12.6166C61.5921 12.5273 61.7806 12.1303 61.6417 12.428C61.5524 12.6265 61.4531 12.8349 61.3638 13.0333C60.9471 13.8768 60.4708 14.6904 59.9349 15.4545C59.8159 15.6232 59.6174 15.8117 59.538 15.9903C59.5777 15.901 59.8655 15.5736 59.6571 15.8415C59.5777 15.9407 59.4983 16.03 59.419 16.1292C59.1213 16.4865 58.8037 16.8437 58.4763 17.1811C58.1687 17.4986 57.8412 17.8062 57.5138 18.1039C57.3252 18.2726 57.1367 18.4313 56.9482 18.5802C56.8688 18.6397 56.7894 18.6993 56.7199 18.7687C57.2458 18.3024 56.8787 18.6397 56.7497 18.739C56.2139 19.1359 55.7971 19.5526 55.6086 20.2175C55.4498 20.8128 55.5193 21.6067 55.8567 22.1326C56.5215 23.1645 58.1389 23.8492 59.2503 23.0256L59.2602 23.0355Z" fill="#EBDBB2"/>
<path d="M75.1069 25.8436C78.4212 24.0178 80.9614 20.6341 81.6759 16.9031C81.8049 16.2383 81.7751 15.5933 81.4278 14.988C81.1301 14.472 80.5347 13.9858 79.9493 13.8469C78.7288 13.569 77.161 14.214 76.893 15.5834C76.7541 16.3177 76.5358 17.0321 76.2481 17.7267L76.4961 17.1313C76.129 17.9946 75.6527 18.7984 75.0871 19.5525L75.4741 19.0465C74.8986 19.7907 74.2436 20.4555 73.5094 21.031L74.0154 20.644C73.5689 20.9814 73.1025 21.289 72.6064 21.5669C71.4652 22.192 70.9989 23.859 71.7133 24.9605C72.4278 26.0619 73.8864 26.5184 75.1069 25.8535V25.8436Z" fill="#EBDBB2"/>
</svg>
