<svg width="128" height="128" viewBox="0 0 128 128" fill="none" xmlns="http://www.w3.org/2000/svg">
<path d="M58.9573 47.718C72.7987 41.9731 88.8824 42.4395 102.257 49.3056C105.095 50.7641 107.605 46.4778 104.758 45.0192C90.2814 37.5875 72.6994 36.6846 57.6377 42.9356C56.3974 43.4515 55.5143 44.5826 55.9013 45.9916C56.2188 47.1624 57.7071 48.2439 58.9573 47.728V47.718Z" fill="#EBDBB2"/>
<path d="M64.8611 32.9737C76.3509 27.9035 90.1823 29.0445 100.829 35.6031C103.557 37.2799 106.048 32.9936 103.329 31.3167C91.0555 23.7561 75.4877 22.8928 62.3508 28.6874C61.1204 29.2331 60.8426 31.0191 61.4578 32.0807C62.192 33.3408 63.6208 33.5095 64.8511 32.9737H64.8611Z" fill="#EBDBB2"/>
<path d="M64.3948 20.442C74.2375 16.5029 85.5388 16.6319 95.1633 21.1862C96.3738 21.7617 97.8422 21.5235 98.5566 20.2932C99.1916 19.2117 98.8841 17.4753 97.6636 16.8998C86.8783 11.7999 74.1879 11.2045 63.0652 15.6596C61.8249 16.1557 60.9518 17.3166 61.3288 18.7156C61.6562 19.8963 63.1247 20.9481 64.3848 20.452L64.3948 20.442Z" fill="#EBDBB2"/>
</svg>
