<svg width="128" height="128" viewBox="0 0 128 128" fill="none" xmlns="http://www.w3.org/2000/svg">
<path d="M58.7964 47.1181C72.7969 41.3134 89.0697 41.8294 102.574 48.7652C104.698 49.8567 106.583 46.6517 104.45 45.5503C90.1116 38.1879 72.7176 37.3445 57.8041 43.5261C56.8813 43.9131 56.2066 44.7565 56.5043 45.8182C56.7524 46.6914 57.8537 47.505 58.7964 47.1181Z" fill="#EBDBB2"/>
<path d="M64.5513 32.4425C76.2498 27.2828 90.29 28.3942 101.145 35.072C103.189 36.3321 105.065 33.1172 103.021 31.8571C90.9549 24.4252 75.5949 23.5222 62.6759 29.2276C61.7531 29.6345 61.5547 30.974 62.0111 31.7777C62.5569 32.7303 63.6384 32.8493 64.5612 32.4425H64.5513Z" fill="#EBDBB2"/>
<path d="M64.2338 19.8413C74.2357 15.8326 85.706 16.0211 95.4895 20.645C97.6427 21.667 99.5379 18.4521 97.3648 17.4301C86.728 12.3995 74.2059 11.8636 63.2416 16.2494C62.3089 16.6165 61.654 17.4897 61.9417 18.5414C62.1898 19.4245 63.2912 20.2183 64.2338 19.8413Z" fill="#EBDBB2"/>
</svg>
