<svg width="128" height="128" viewBox="0 0 128 128" fill="none" xmlns="http://www.w3.org/2000/svg">
<path d="M72.7018 38.1222C76.3234 38.6183 79.8755 38.0032 83.0804 36.2172C86.0372 34.5701 88.5772 31.9308 89.9068 28.8053C90.4128 27.6147 90.3037 26.0867 89.0138 25.412C87.9521 24.8464 86.1661 25.025 85.6204 26.305C85.3525 26.9301 85.0449 27.5353 84.6877 28.1207C84.5786 28.2894 84.4695 28.468 84.3504 28.6268C84.3107 28.6764 83.9833 29.1427 84.1817 28.8649C84.3802 28.5871 83.9932 29.0931 83.9932 29.0931C83.8841 29.2221 83.7749 29.3511 83.6559 29.4801C83.1994 29.9861 82.7033 30.4524 82.1775 30.889C81.9989 31.0378 81.8401 31.137 82.1179 30.9386C81.9492 31.0577 81.7905 31.1767 81.6119 31.2958C81.3341 31.4843 81.0364 31.6629 80.7487 31.8415C80.4609 32.0201 80.1533 32.1689 79.8458 32.3178C79.6969 32.3972 79.5382 32.4567 79.3794 32.5361C79.1115 32.665 79.7565 32.4071 79.31 32.5559C78.665 32.7841 78.03 33.0024 77.3553 33.1512C77.0279 33.2306 76.6905 33.2802 76.3532 33.3398C76.9683 33.2405 76.2936 33.3398 76.2043 33.3398C76.0357 33.3497 75.867 33.3596 75.6983 33.3695C75.361 33.3894 75.0236 33.3894 74.6763 33.3695C74.5077 33.3695 74.339 33.3497 74.1703 33.3398C74.0314 33.3298 73.4162 33.2505 74.0115 33.3398C72.7316 33.1612 71.283 33.6474 70.9555 35.0761C70.6876 36.2469 71.3127 37.9436 72.6919 38.1321L72.7018 38.1222Z" fill="#EBDBB2"/>
<path d="M98.8169 47.8558C99.0352 46.5759 99.0352 45.4348 98.8169 44.1549C98.6482 43.1428 98.2613 42.1506 97.785 41.2378C96.8424 39.4319 95.2549 37.8146 93.3895 36.9514C92.7644 36.6637 92.1592 36.5148 91.4745 36.7034C90.8991 36.8621 90.274 37.3086 89.9961 37.8444C89.4207 38.9358 89.629 40.6623 90.8891 41.2378C91.3059 41.4263 91.6928 41.6644 92.0699 41.9224C92.4072 42.1506 91.5936 41.5255 91.931 41.8133C92.0004 41.8728 92.0798 41.9323 92.1492 42.0018C92.3179 42.1506 92.4866 42.3094 92.6354 42.478C92.7743 42.6269 92.9033 42.7955 93.0422 42.9543C92.4668 42.3292 92.9827 42.8848 93.1216 43.1031C93.3697 43.4901 93.578 43.8969 93.7665 44.3136L93.5185 43.7183C93.7864 44.3533 93.965 45.0181 94.0642 45.6928L93.9749 45.0379C94.0543 45.6829 94.0543 46.3278 93.9749 46.9728L94.0642 46.3179C94.0543 46.3973 94.0444 46.4667 94.0245 46.5461C93.9154 47.2208 93.9154 47.8459 94.2726 48.4611C94.5702 48.977 95.1656 49.4632 95.751 49.6021C96.9516 49.88 98.5689 49.235 98.807 47.8658L98.8169 47.8558Z" fill="#EBDBB2"/>
<path d="M63.2759 22.9117C68.5942 17.3652 76.8692 15.0832 84.2314 17.4545C87.7042 18.5658 90.79 20.6792 93.2209 23.3781C94.4612 24.7473 95.4831 26.2952 96.3166 27.9522C97.1501 29.6092 97.5668 31.3753 98.2613 33.062C99.2039 35.3342 100.742 37.3484 103.232 37.9933C105.723 38.6383 107.995 37.8644 109.354 35.7906C111.12 33.1216 106.824 30.6311 105.068 33.2903C105.217 33.072 105.445 33.3498 104.989 33.2704C105.227 33.3101 104.701 33.2506 104.691 33.2506C104.086 33.1513 103.768 32.8735 103.391 32.308C102.389 30.7998 102.071 28.8551 101.377 27.1981C99.839 23.5071 97.4378 20.1831 94.3619 17.6133C88.0515 12.3248 79.7268 10.3305 71.7296 12.4141C67.1952 13.5948 62.9981 16.0357 59.7536 19.4191C57.5409 21.7211 61.0434 25.2335 63.266 22.9316L63.2759 22.9117Z" fill="#EBDBB2"/>
</svg>
