<svg width="128" height="128" viewBox="0 0 128 128" fill="none" xmlns="http://www.w3.org/2000/svg">
<path d="M72.8594 37.541C79.567 38.4637 86.6714 34.8619 89.3703 28.5016C89.7672 27.5788 89.6481 26.5072 88.7055 25.9515C87.9216 25.4951 86.5523 25.6936 86.1555 26.6164C85.0838 29.1466 83.3573 31.0418 81.0652 32.3714C79.8845 33.056 78.922 33.4331 77.5229 33.7506C77.1955 33.82 76.8581 33.8895 76.5208 33.9391C76.7986 33.8994 76.1933 33.9689 76.2032 33.9689C76.0346 33.9788 75.8659 33.9887 75.6972 33.9986C75.3598 34.0185 75.0225 34.0185 74.6752 33.9986C74.5065 33.9986 74.3378 33.9788 74.1691 33.9689C74.1195 33.9689 73.5738 33.9093 73.8516 33.949C72.8594 33.8101 71.8572 34.1872 71.5595 35.2489C71.3214 36.1221 71.8572 37.402 72.8594 37.541Z" fill="#EBDBB2"/>
<path d="M98.2208 47.7116C98.5781 45.5783 98.2605 43.4945 97.2584 41.5696C96.3653 39.8431 94.8571 38.325 93.0909 37.5113C92.2079 37.1045 91.0469 37.2335 90.5409 38.1761C90.1043 38.9997 90.2631 40.2896 91.2057 40.7262C91.553 40.8849 91.8903 41.0735 92.1979 41.2818C92.2872 41.3414 92.3865 41.4307 92.4758 41.4803C92.4063 41.4406 92.1781 41.2421 92.3666 41.4009C92.5154 41.52 92.6544 41.649 92.7933 41.778C92.9322 41.907 93.0612 42.0459 93.1902 42.1848C93.2696 42.2741 93.339 42.3535 93.4184 42.4428C93.5771 42.6313 93.3787 42.4031 93.339 42.3336C93.5375 42.6809 93.7954 42.9885 93.984 43.3457C94.0733 43.5144 94.1527 43.6831 94.232 43.8617C94.3313 44.07 94.0633 43.4152 94.2023 43.7823C94.232 43.8716 94.2717 43.9609 94.3015 44.0502C94.4305 44.4074 94.5297 44.7745 94.5992 45.1516C94.619 45.2409 94.619 45.3401 94.6488 45.4294C94.6091 45.2806 94.5992 45.0226 94.6289 45.3302C94.6488 45.5187 94.6587 45.7072 94.6587 45.8958C94.6587 46.0843 94.6587 46.2728 94.6488 46.4613C94.6488 46.5606 94.6289 46.6499 94.6289 46.7491C94.5992 47.1162 94.6984 46.3224 94.6289 46.7094C94.4702 47.662 94.877 48.7634 95.9288 49.0015C96.8317 49.2099 98.0422 48.7237 98.2208 47.7016V47.7116Z" fill="#EBDBB2"/>
<path d="M62.8276 22.4886C68.2949 16.7931 76.8182 14.4415 84.389 16.8725C87.9611 18.0235 91.1462 20.1866 93.6566 22.955C94.9366 24.364 95.9983 25.9515 96.8516 27.6582C97.705 29.3649 98.1316 31.1807 98.8659 32.9171C99.7291 34.981 101.138 36.8265 103.4 37.412C105.494 37.9577 107.617 37.3326 108.828 35.4969C110.148 33.4926 106.933 31.6272 105.613 33.6216C104.919 34.6734 103.262 33.2346 102.865 32.6294C101.843 31.0616 101.505 29.087 100.791 27.3705C99.2826 23.7785 96.9211 20.5537 93.9344 18.0533C87.7924 12.9035 79.6759 10.9885 71.9066 13.0127C67.4713 14.1736 63.3832 16.5451 60.2081 19.8592C58.551 21.5857 61.1805 24.225 62.8375 22.4886H62.8276Z" fill="#EBDBB2"/>
</svg>
