<svg width="128" height="128" viewBox="0 0 128 128" fill="none" xmlns="http://www.w3.org/2000/svg">
<path d="M62.8276 23.3856C68.2949 17.6901 76.8182 15.3385 84.3891 17.7695C87.9611 18.9205 91.1462 21.0836 93.6566 23.8519C94.9366 25.2609 95.9983 26.8485 96.8516 28.5552C97.705 30.2618 98.1316 32.0776 98.8659 33.8141C99.7291 35.8779 101.138 37.7235 103.4 38.3089C105.494 38.8547 107.617 38.2296 108.828 36.3939C110.148 34.3896 106.933 32.5242 105.613 34.5186C104.919 35.5703 103.262 34.1316 102.865 33.5263C101.843 31.9586 101.505 29.984 100.791 28.2674C99.2826 24.6755 96.9211 21.4507 93.9344 18.9503C87.7924 13.8005 79.6759 11.8855 71.9066 13.9097C67.4713 15.0706 63.3832 17.442 60.2081 20.7561C58.551 22.4826 61.1805 25.122 62.8375 23.3856H62.8276Z" fill="#EBDBB2"/>
<path d="M69.2771 36.5233C73.633 42.9332 80.9855 47.0609 88.7846 47.1502C96.5836 47.2395 104.254 43.1019 108.719 36.6225C110.078 34.6479 106.853 32.7825 105.504 34.7472C101.793 40.145 95.3433 43.5186 88.7846 43.4392C82.2258 43.3598 76.1037 39.9564 72.4919 34.6479C71.1524 32.6833 67.9276 34.5388 69.2771 36.5233Z" fill="#EBDBB2"/>
</svg>
