<svg width="128" height="128" viewBox="0 0 128 128" fill="none" xmlns="http://www.w3.org/2000/svg">
<path d="M70.0512 46.7372C80.5489 41.8456 94.2414 43.5423 103.062 51.103C104.074 51.9761 105.572 52.1051 106.575 51.103C107.468 50.21 107.597 48.4736 106.575 47.5905C95.9281 38.4721 80.2016 36.5571 67.5509 42.4509C66.3404 43.0164 66.0328 44.7627 66.6579 45.8442C67.3822 47.0944 68.8308 47.3028 70.0512 46.7372Z" fill="#EBDBB2"/>
<path d="M67.1539 36.7359C78.8224 31.1101 93.2392 30.991 105.037 36.3291C106.257 36.8847 107.706 36.6763 108.43 35.4361C109.055 34.3744 108.767 32.5984 107.537 32.0427C94.0032 25.9109 78.0584 25.9704 64.6436 32.4495C63.4331 33.0349 63.1156 34.7515 63.7507 35.8429C64.475 37.0732 65.9335 37.3213 67.144 36.7359H67.1539Z" fill="#EBDBB2"/>
<path d="M64.2964 27.4288C74.7047 18.9454 90.0244 16.8816 102.268 22.4677C103.489 23.0234 104.937 22.815 105.662 21.5747C106.287 20.5131 105.999 18.737 104.769 18.1814C90.3221 11.5931 73.0775 13.905 60.7939 23.9263C59.752 24.7697 59.9108 26.5556 60.7939 27.4387C61.8258 28.4706 63.2645 28.292 64.3063 27.4387L64.2964 27.4288Z" fill="#EBDBB2"/>
</svg>
