<svg width="128" height="128" viewBox="0 0 128 128" fill="none" xmlns="http://www.w3.org/2000/svg">
<path d="M69.7353 46.2291C80.5012 41.2182 94.4521 42.9348 103.501 50.6942C105.307 52.2421 107.957 49.6226 106.131 48.0647C95.7123 39.1445 80.2432 37.2493 67.8501 43.0142C65.677 44.0263 67.5722 47.2312 69.7254 46.2291H69.7353Z" fill="#EBDBB2"/>
<path d="M66.8379 36.2274C78.725 30.4922 93.3407 30.3831 105.347 35.8206C106.27 36.2373 107.341 36.0786 107.897 35.1558C108.373 34.362 108.145 33.0224 107.232 32.6057C93.9162 26.5729 78.1594 26.6423 64.9626 33.0125C62.8094 34.0544 64.6946 37.2593 66.8379 36.2274Z" fill="#EBDBB2"/>
<path d="M63.8512 27.0192C74.498 18.347 90.0564 16.2534 102.569 21.9588C103.491 22.3755 104.563 22.2168 105.119 21.294C105.595 20.5002 105.367 19.1607 104.454 18.7439C90.2846 12.2844 73.2874 14.5666 61.2218 24.3898C60.4379 25.0248 60.5669 26.3544 61.2218 27.0192C61.9858 27.7932 63.0773 27.6543 63.8512 27.0192Z" fill="#EBDBB2"/>
</svg>
