<svg width="128" height="128" viewBox="0 0 128 128" fill="none" xmlns="http://www.w3.org/2000/svg">
<path d="M62.1309 23.5142C77.1034 29.2988 94.606 27.6716 108.338 19.3965C111.067 17.7495 108.576 13.4631 105.838 15.1102C93.1375 22.7601 77.2721 24.0599 63.4506 18.7218C62.2004 18.2356 60.7319 19.2576 60.3945 20.4582C60.0076 21.8572 60.8708 23.028 62.1309 23.5142Z" fill="#EBDBB2"/>
<path d="M73.829 36.8794C84.6342 39.9453 96.2927 38.7943 106.334 33.8035C109.191 32.3847 106.681 28.0983 103.833 29.5172C94.9829 33.9127 84.6441 34.7858 75.1585 32.0969C72.0827 31.2238 70.773 36.0062 73.8389 36.8794H73.829Z" fill="#EBDBB2"/>
<path d="M68.8779 46.0473C76.5675 51.5839 86.9858 53.0424 95.9057 49.8872C97.1659 49.4407 98.0092 48.1905 97.6421 46.8312C97.3048 45.6107 95.8561 44.6483 94.5861 45.0948C86.7675 47.8631 78.1055 46.6029 71.3783 41.7609C70.2868 40.9771 68.6199 41.5724 67.9849 42.6539C67.2506 43.9041 67.7864 45.2635 68.8779 46.0473Z" fill="#EBDBB2"/>
</svg>
