<svg width="128" height="128" viewBox="0 0 128 128" fill="none" xmlns="http://www.w3.org/2000/svg">
<path d="M62.2877 22.9075C77.1218 28.6327 94.4166 27.0551 108.02 18.8591C110.064 17.6287 108.199 14.4039 106.145 15.6442C93.3152 23.3738 77.2408 24.7034 63.28 19.3155C62.3373 18.9484 61.2459 19.7224 60.9879 20.6154C60.6902 21.6672 61.355 22.5403 62.2877 22.9075Z" fill="#EBDBB2"/>
<path d="M73.9863 36.2828C84.6231 39.3091 96.1133 38.1879 106.006 33.2663C108.149 32.2046 106.264 28.9898 104.131 30.0515C95.131 34.5265 84.6231 35.4294 74.9686 32.6908C72.6567 32.036 71.6744 35.6279 73.9764 36.2828H73.9863Z" fill="#EBDBB2"/>
<path d="M69.1838 45.5108C76.7546 50.9582 86.9549 52.397 95.7362 49.2814C97.9787 48.4876 97.0162 44.8857 94.744 45.6894C86.7862 48.5074 77.9056 47.2274 71.0591 42.296C70.2356 41.7006 68.9953 42.157 68.5091 42.9607C67.9534 43.8935 68.3701 44.9254 69.1739 45.5108H69.1838Z" fill="#EBDBB2"/>
</svg>
