<?xml version="1.0" encoding="utf-8"?>
<!-- Generator: Adobe Illustrator 26.0.2, SVG Export Plug-In . SVG Version: 6.00 Build 0)  -->
<svg version="1.1" xmlns="http://www.w3.org/2000/svg" xmlns:xlink="http://www.w3.org/1999/xlink" x="0px" y="0px"
	 viewBox="0 0 70.48 80.56" style="enable-background:new 0 0 70.48 80.56;" xml:space="preserve">
<style type="text/css">
	.st0{fill:#010101;}
	.st1{fill:#FFFFFF;}


	@keyframes bob {
		0% { transform: translateY(0) }
		100% { transform: translateY(-3%) }
	}
	#body {
		animation: 2s bob ease-out infinite alternate;
	}
	@keyframes mouth {
		0% { opacity: 1; transform: translateY(0) scale(.7);}
		50% { opacity: 1; transform: translateY(-2%) scale(1.2);}
		100% { opacity:1; transform: translateY(0) scale(.7);}
	}
	#mouth {
		transform-origin: 50% 60% 0;
		animation: 4s mouth ease-out infinite;
	}
	@keyframes zzz {
		0% {opacity: 0}
		50% {opacity: 0; transform: translate(0,-2%)}
		65% {opacity: 1}
		85% {opacity: 1}
		100% {opacity: 0; transform: translate(10%,-30%)}
	}
	#z1, #z2, #z3 {
		opacity: 0;
		animation: 4s zzz ease-in infinite;
	}
	#z2 {
		animation-delay: .5s;
	}
	#z3 {
		animation-delay: 1.25s;
	}
</style>
<g id="legs">
	<path class="st0" d="M40.68,76.47h-1.33c-0.22,0-0.41-0.18-0.41-0.41V72.1c1.01-0.95,1.72-3.19,1.72-5.8
		c0-1.29-0.77-2.09-1.73-2.43c-0.05-0.59-2.28-0.55-2.29,0.08c-0.41,0.17-0.79,0.43-1.06,0.79c-0.27-0.36-0.65-0.62-1.06-0.79
		c-0.01-0.63-2.24-0.67-2.29-0.08c-0.97,0.33-1.73,1.14-1.73,2.43c0,2.61,0.71,4.85,1.72,5.8v3.96c0,0.22-0.18,0.41-0.41,0.41h-1.33
		c-0.64,0-1.15,0.52-1.15,1.15v0.02c0,0.64,0.52,1.15,1.15,1.15h1.74h0.52c0.99,0,1.79-0.8,1.79-1.79v-0.54v-4.54
		c0.42-0.47,0.79-1.18,1.06-2.05c0.27,0.87,0.63,1.57,1.06,2.05v4.54v0.54c0,0.99,0.8,1.79,1.79,1.79h0.52h1.74
		c0.64,0,1.15-0.52,1.15-1.15v-0.02C41.84,76.98,41.32,76.47,40.68,76.47z"/>
</g>
<g id="body">
	<path class="st1" d="M35.54,58.73c0,0-26.99-6.64-26.99-25.45c0-8.31,6.37-13.98,13.49-13.98c8.82,0,13.5,6.26,13.5,6.26h0
		c0,0,4.68-6.26,13.5-6.26c7.12,0,13.49,5.68,13.49,13.98C62.53,52.09,35.54,58.73,35.54,58.73z"/>
	<g>
		<path class="st0" d="M27.89,33.15c-0.83,0-1.5,0.67-1.5,1.5c0,1.21-0.98,2.19-2.19,2.19c-1.21,0-2.19-0.98-2.19-2.19
			c0-0.83-0.67-1.5-1.5-1.5s-1.5,0.67-1.5,1.5c0,2.86,2.33,5.19,5.19,5.19c2.86,0,5.19-2.33,5.19-5.19
			C29.39,33.82,28.72,33.15,27.89,33.15z"/>
		<path class="st0" d="M50.65,33.15c-0.83,0-1.5,0.67-1.5,1.5c0,1.21-0.98,2.19-2.19,2.19c-1.21,0-2.19-0.98-2.19-2.19
			c0-0.83-0.67-1.5-1.5-1.5s-1.5,0.67-1.5,1.5c0,2.86,2.33,5.19,5.19,5.19c2.86,0,5.19-2.33,5.19-5.19
			C52.15,33.82,51.47,33.15,50.65,33.15z"/>
		<path class="st0" d="M69.42,35.95c0-0.71-0.02-1.41-0.07-2.11l0.01-0.03c-0.04-0.6-0.1-1.18-0.17-1.77
			c-0.01-0.07-0.01-0.13-0.02-0.2c-0.07-0.58-0.16-1.15-0.26-1.72c-0.02-0.11-0.04-0.23-0.06-0.34c-0.1-0.57-0.23-1.13-0.36-1.68
			c-0.01-0.06-0.02-0.12-0.04-0.18l0,0.01c-0.99-4.09-2.71-7.9-5.04-11.25c-0.45,0.36-1.02,0.75-1.6,1.02
			c-1.3,0.61-2.83,0.72-2.83,0.72l-0.3-0.23c0,0,0.97-0.23,2.21-1.08c0.03-0.02,0.05-0.04,0.08-0.06c0.07-0.05,0.15-0.11,0.23-0.16
			c0.09-0.07,0.17-0.14,0.26-0.21c0.03-0.03,0.06-0.05,0.09-0.08c0.15-0.13,0.28-0.26,0.41-0.4c0.2-0.21,0.4-0.44,0.57-0.68
			c2.05-2.86,1.74-6.14,0.75-9c-1.24,1.63-2.98,3.09-5.32,2.7c-1.5-0.25-3.37-1.5-5.99-2.88c-3.83-2.12-8.13-3.51-12.69-4.01
			c-0.21-0.03-0.43-0.05-0.65-0.07c-0.23-0.02-0.45-0.04-0.68-0.06c-0.51-0.04-1.03-0.06-1.57-0.07c-0.09,0-0.17-0.01-0.26-0.01
			c-0.17,0-0.31-0.01-0.41-0.01v0h-0.1h-0.09v0c-0.08,0-0.19,0-0.33,0.01c-6.15,0.07-11.9,1.78-16.85,4.71
			c-2.15,1.18-3.76,2.17-5.08,2.39C10.93,9.6,9.2,8.13,7.96,6.51c-0.98,2.84-1.29,6.08,0.7,8.93l-0.01,0.02
			C9,15.96,9.45,16.46,10,16.87c1.37,1.03,2.51,1.3,2.51,1.3l-0.3,0.23c0,0-1.53-0.11-2.83-0.72c-0.58-0.27-1.15-0.67-1.61-1.03
			c-2.65,3.82-4.52,8.21-5.42,12.95l-0.01-0.04c-0.03,0.18-0.06,0.36-0.09,0.54c-0.01,0.06-0.02,0.13-0.03,0.19
			c-0.16,0.93-0.28,1.87-0.36,2.82c-0.02,0.23-0.05,0.45-0.07,0.69l0.01,0.05c-0.04,0.69-0.07,1.39-0.07,2.09c0,0,0,0,0,0v0V78.8
			c0,0,1.25-0.05,3.15-0.28c1.44-0.17,2.55-1.34,2.66-2.78l0.28-3.89l0.97,3.11c0.49,1.58,2.17,2.48,3.75,2
			c0.02-0.01,0.04-0.01,0.06-0.02c1.47-0.45,2.38-1.94,2.09-3.45l-0.63-3.34c0,0,1.04,1.17,2.17,2.44s3.98,1.07,5.85-0.56
			c1.06-0.93,1.6-1.99,1.68-3.04c-3.08-1.42-5.85-3.38-8.21-5.74c2.71,1.99,5.72,3.59,8.96,4.71c0,0,1.43,0.49,2,0.62
			c0.27,0.07,0.54,0.13,0.81,0.2l0.17,0.02c1.97,0.48,4.01,0.79,6.1,0.91l0.21,0.03c0.13,0.01,0.25,0.02,0.38,0.03c0,0,0,0,0,0
			c0.03,0,0.07,0,0.1,0c0.39,0.02,0.77,0.03,1.13,0.03c0.01,0,0.02,0,0.03,0c0.04,0,0.08,0,0.12,0c0.01,0,0.01,0,0.02,0
			c0.01,0,0.02,0,0.02,0c0.06,0,0.13-0.01,0.19-0.01c0.28,0,0.57-0.01,0.87-0.02c0.08,0,0.15-0.01,0.23-0.01l0.38-0.04
			c1.58-0.08,3.14-0.25,4.66-0.54l0.18-0.02c0.02,0,0.82-0.18,1.71-0.4c0.06-0.02,0.12-0.03,0.19-0.05c0.59-0.14,1.19-0.3,1.62-0.43
			c0.19-0.05,0.38-0.09,0.57-0.14l0.09-0.07c3.43-1.14,6.59-2.83,9.43-4.94c-0.02,0.02-0.04,0.04-0.06,0.06
			c-0.06,0.06-0.12,0.12-0.18,0.17c-0.35,0.34-0.7,0.68-1.07,1.01c-0.03,0.03-0.07,0.06-0.1,0.09c-2.07,1.84-4.4,3.38-6.94,4.55
			c0.09,1.03,0.63,2.09,1.68,3c1.86,1.63,4.72,1.84,5.85,0.56s2.17-2.44,2.17-2.44l-0.63,3.34c-0.29,1.52,0.62,3,2.09,3.45
			c0.02,0.01,0.04,0.01,0.06,0.02c1.58,0.48,3.26-0.42,3.75-2l0.97-3.11l0.28,3.89c0.1,1.44,1.22,2.61,2.66,2.78
			c1.9,0.23,3.15,0.28,3.15,0.28V37.68C69.39,37.11,69.42,36.53,69.42,35.95z M35.54,57.71c0,0-25.59-6.3-25.59-24.13
			c0-7.87,6.04-13.26,12.79-13.26c8.36,0,12.8,5.94,12.8,5.94h0c0,0,4.44-5.94,12.8-5.94c6.75,0,12.79,5.38,12.79,13.26
			C61.13,51.41,35.54,57.71,35.54,57.71z"/>
	</g>
</g>
<g id="mouth">
	<path class="st0" d="M37.69,46.75h-4.22c-0.95,0-1.56,1.03-1.08,1.85c0.64,1.1,1.83,1.84,3.2,1.84s2.56-0.74,3.2-1.84
		C39.25,47.78,38.63,46.75,37.69,46.75z"/>
</g>
<g id="z1">
	<g>
		<path d="M36.82,50.88h-2.57c-0.26,0-0.51-0.15-0.62-0.39c-0.11-0.24-0.08-0.52,0.09-0.73l1.67-2.07h-1.13
			c-0.38,0-0.69-0.31-0.69-0.69s0.31-0.69,0.69-0.69h2.57c0.26,0,0.51,0.15,0.62,0.39c0.11,0.24,0.08,0.52-0.09,0.73l-1.67,2.07
			h1.13c0.38,0,0.69,0.31,0.69,0.69C37.51,50.57,37.2,50.88,36.82,50.88z"/>
	</g>
</g>
<g id="z2">
	<g>
		<path d="M36.82,50.88h-2.57c-0.26,0-0.51-0.15-0.62-0.39c-0.11-0.24-0.08-0.52,0.09-0.73l1.67-2.07h-1.13
			c-0.38,0-0.69-0.31-0.69-0.69s0.31-0.69,0.69-0.69h2.57c0.26,0,0.51,0.15,0.62,0.39c0.11,0.24,0.08,0.52-0.09,0.73l-1.67,2.07
			h1.13c0.38,0,0.69,0.31,0.69,0.69C37.51,50.57,37.2,50.88,36.82,50.88z"/>
	</g>
</g>
<g id="z3">
	<g>
		<path d="M36.82,50.88h-2.57c-0.26,0-0.51-0.15-0.62-0.39c-0.11-0.24-0.08-0.52,0.09-0.73l1.67-2.07h-1.13
			c-0.38,0-0.69-0.31-0.69-0.69s0.31-0.69,0.69-0.69h2.57c0.26,0,0.51,0.15,0.62,0.39c0.11,0.24,0.08,0.52-0.09,0.73l-1.67,2.07
			h1.13c0.38,0,0.69,0.31,0.69,0.69C37.51,50.57,37.2,50.88,36.82,50.88z"/>
	</g>
</g>
</svg>
