<svg width="128" height="129" viewBox="0 0 128 129" fill="none" xmlns="http://www.w3.org/2000/svg">
<path d="M117.554 102.174C119.23 98.2361 120.907 94.2878 122.584 90.3494C123.407 88.415 124.23 86.4805 125.054 84.546C125.877 82.6116 126.79 80.7466 127.345 78.7427C128.367 75.0325 127.583 70.608 123.833 68.743C122.137 67.8998 120.163 67.8204 118.477 68.743C116.79 69.6656 115.897 71.233 115.213 72.8897C113.407 77.2745 112.068 81.9072 110.52 86.3912L115.302 87.7106C116.096 83.3358 116.889 78.9609 117.673 74.5861C118.06 72.4334 118.447 70.2906 118.844 68.1379C119.24 65.9852 119.736 63.644 119.29 61.3821C118.526 57.6025 114.27 54.5272 110.58 56.7791C107.296 58.7929 107.098 63.5944 106.453 66.9573C105.481 71.977 104.509 76.9868 103.546 82.0064L108.328 83.3258C109.36 76.0047 109.548 68.6537 108.715 61.3028C108.566 59.9734 107.683 58.8227 106.235 58.8227C105.005 58.8326 103.596 59.9734 103.745 61.3127C104.519 68.1775 104.509 75.1614 103.537 82.0164C103.348 83.3457 103.864 84.6849 105.273 85.0718C106.483 85.4091 108.07 84.6651 108.328 83.3358C109.231 78.6435 110.143 73.9512 111.046 69.2589C111.473 67.0665 111.77 64.7947 112.376 62.6321C112.604 61.8186 112.872 60.6679 113.635 61.1242C114.975 61.9277 114.528 64.2094 114.32 65.4495C113.923 67.751 113.487 70.0426 113.07 72.3341C112.217 77.0265 111.374 81.7188 110.52 86.4111C109.955 89.536 114.25 90.776 115.302 87.7305C116.731 83.5639 118.109 79.3776 119.607 75.2309C119.875 74.4968 120.421 72.8698 121.304 73.0484C122.504 73.2964 122.901 74.844 122.841 75.8856C122.732 77.7903 121.79 79.6355 121.056 81.3715L118.496 87.3932C116.76 91.4803 115.014 95.5774 113.278 99.6646C112.753 100.895 112.911 102.323 114.171 103.057C115.213 103.662 117.038 103.405 117.564 102.165L117.554 102.174Z" fill="black"/>
</svg>
