<svg width="128" height="128" viewBox="0 0 128 128" fill="none" xmlns="http://www.w3.org/2000/svg">
<path d="M117.554 102.159C119.23 98.221 120.907 94.2727 122.583 90.3344C123.407 88.3999 124.23 86.4654 125.054 84.531C125.877 82.5965 126.79 80.7315 127.345 78.7276C128.367 75.0174 127.583 70.5929 123.833 68.7279C122.137 67.8847 120.163 67.8053 118.476 68.7279C116.79 69.6505 115.897 71.2179 115.213 72.8746C113.407 77.2594 112.068 81.8922 110.52 86.3761L115.302 87.6955C116.096 83.3207 116.889 78.9458 117.673 74.571C118.06 72.4183 118.447 70.2755 118.843 68.1228C119.24 65.9701 119.736 63.6289 119.29 61.3671C118.526 57.5874 114.27 54.5121 110.58 56.764C107.296 58.7779 107.098 63.5793 106.453 66.9423C105.481 71.9619 104.509 76.9717 103.546 81.9914L108.328 83.3108C109.36 75.9896 109.548 68.6386 108.715 61.2877C108.566 59.9584 107.683 58.8076 106.235 58.8076C105.005 58.8175 103.596 59.9584 103.745 61.2976C104.519 68.1625 104.509 75.1464 103.536 82.0013C103.348 83.3306 103.864 84.6699 105.272 85.0567C106.483 85.394 108.07 84.65 108.328 83.3207C109.231 78.6284 110.143 73.9361 111.046 69.2438C111.473 67.0514 111.77 64.7796 112.375 62.617C112.604 61.8035 112.871 60.6528 113.635 61.1091C114.975 61.9127 114.528 64.1943 114.32 65.4344C113.923 67.7359 113.486 70.0275 113.07 72.3191C112.217 77.0114 111.373 81.7037 110.52 86.396C109.955 89.5209 114.25 90.7609 115.302 87.7154C116.73 83.5489 118.109 79.3625 119.607 75.2158C119.875 74.4817 120.421 72.8548 121.304 73.0333C122.504 73.2813 122.901 74.8289 122.841 75.8705C122.732 77.7752 121.79 79.6204 121.056 81.3565L118.496 87.3781C116.76 91.4653 115.014 95.5624 113.278 99.6495C112.752 100.88 112.911 102.308 114.171 103.042C115.213 103.647 117.038 103.389 117.564 102.149L117.554 102.159Z" fill="black"/>
</svg>
