<svg width="350" height="242" viewBox="0 0 350 242" fill="none" xmlns="http://www.w3.org/2000/svg">
<g clip-path="url(#clip0_110_937)">
<g clip-path="url(#clip1_110_937)">
<path d="M59.1484 71.5366L93.3447 84.615L127.632 71.5366L121.042 99.0214L148.568 118.355L110.478 122.309L93.3447 147.442L75.9982 122.471L38 118.487L65.2719 98.7173L59.1484 71.5366Z" fill="#3A86FF" fill-opacity="0.3"/>
<path d="M121.042 93.9521L127.632 66.4673V19L121.042 46.4848V93.9521Z" fill="#3A86FF"/>
<path d="M65.2719 93.6479L59.1484 66.4673V19L65.2719 46.1806V93.6479Z" fill="#6BA4FF"/>
<path d="M110.478 117.24L93.3447 142.372V94.9052L110.478 69.7725V117.24Z" fill="#6BA4FF"/>
<path d="M75.998 117.402L93.3446 142.372V94.905L75.998 69.9243V117.402Z" fill="#3A86FF"/>
<path d="M75.9982 117.402L38 113.417V65.9502L75.9982 69.9244V117.402Z" fill="#6BA4FF"/>
<path d="M110.479 117.24L148.568 113.286V65.8184L110.479 69.7723V117.24Z" fill="#3A86FF"/>
<path d="M59.1484 19L93.3447 32.0783L127.632 19L121.042 46.4848L148.568 65.8184L110.478 69.7723L93.3447 94.9051L75.9982 69.9244L38 65.9502L65.2719 46.1806L59.1484 19Z" fill="white"/>
<path d="M141.359 119.004L175.556 132.082L209.853 119.004L203.263 146.489L230.789 165.812L192.689 169.776L175.556 194.909L158.209 169.928L120.211 165.944L147.493 146.185L141.359 119.004Z" fill="#F9A54B" fill-opacity="0.3"/>
<path d="M203.264 141.42L209.854 113.935V90.2012L203.264 117.686V141.42Z" fill="#F9A54B"/>
<path d="M147.493 141.115L141.359 113.935V90.2012L147.493 117.382V141.115Z" fill="#FABB78"/>
<path d="M192.689 164.707L175.556 189.84V166.106L192.689 140.973V164.707Z" fill="#FABB78"/>
<path d="M158.209 164.859L175.556 189.84V166.106L158.209 141.125V164.859Z" fill="#F9A54B"/>
<path d="M158.209 164.859L120.211 160.875V137.141L158.209 141.125V164.859Z" fill="#FABB78"/>
<path d="M192.689 164.707L230.789 160.743V137.02L192.689 140.973V164.707Z" fill="#F9A54B"/>
<path d="M141.359 90.2012L175.556 103.28L209.853 90.2012L203.263 117.686L230.789 137.02L192.689 140.974L175.556 166.106L158.209 141.126L120.211 137.141L147.493 117.382L141.359 90.2012Z" fill="white"/>
<path d="M141.359 90.2012L175.556 103.28L209.853 90.2012L203.263 117.686L230.789 137.02L192.689 140.974L175.556 166.106L158.209 141.126L120.211 137.141L147.493 117.382L141.359 90.2012Z" fill="white"/>
<path d="M223.571 166.471L257.777 179.55L292.065 166.471L285.475 193.956L313 213.279L274.901 217.244L257.777 242.376L240.431 217.396L202.433 213.411L229.704 193.652L223.571 166.471Z" fill="#F85E60" fill-opacity="0.3"/>
<path d="M285.475 188.886L292.064 161.402V151.882L285.475 179.377V188.886Z" fill="#F85E60"/>
<path d="M229.704 188.582L223.57 161.402V151.882L229.704 179.062V188.582Z" fill="#FA8688"/>
<path d="M274.901 212.174L257.777 237.307V227.787L274.901 202.665V212.174Z" fill="#FA8688"/>
<path d="M240.431 212.326L257.777 237.307V227.787L240.431 202.816V212.326Z" fill="#F85E60"/>
<path d="M240.431 212.326L202.433 208.342V198.832L240.431 202.816V212.326Z" fill="#FA8688"/>
<path d="M274.9 212.174L313 208.21V198.701L274.9 202.665V212.174Z" fill="#F85E60"/>
<path d="M223.571 151.882L257.777 164.97L292.065 151.882L285.475 179.377L313 198.7L274.901 202.664L257.777 227.787L240.431 202.816L202.433 198.832L229.704 179.062L223.571 151.882Z" fill="white"/>
<path d="M67.6744 169.522L84.7776 176.062L101.921 169.522L98.6265 183.26L112.394 192.932L93.3445 194.909L84.7776 207.47L76.1094 194.98L57.1104 192.992L70.7463 183.108L67.6744 169.522Z" fill="#F9A54B" fill-opacity="0.3"/>
<path d="M98.627 178.191L101.922 164.453V159.688L98.627 173.436V178.191Z" fill="#F9A54B"/>
<path d="M70.7467 178.039L67.6748 164.453V159.688L70.7467 173.284V178.039Z" fill="#FABB78"/>
<path d="M93.3451 189.84L84.7783 202.401V197.646L93.3451 185.085V189.84Z" fill="#FABB78"/>
<path d="M76.1094 189.911L84.7776 202.401V197.646L76.1094 185.156V189.911Z" fill="#F9A54B"/>
<path d="M76.1094 189.91L57.1104 187.923V183.168L76.1094 185.156V189.91Z" fill="#FABB78"/>
<path d="M93.3447 189.84L112.394 187.863V183.098L93.3447 185.085V189.84Z" fill="#F9A54B"/>
<path d="M67.6744 159.688L84.7776 166.238L101.921 159.688L98.6265 173.436L112.394 183.098L93.3445 185.085L84.7776 197.646L76.1094 185.156L57.1104 183.169L70.7463 173.284L67.6744 159.688Z" fill="white"/>
<path d="M249.24 115.405L257.787 118.679L266.364 115.405L264.711 122.279L271.595 127.114L262.075 128.098L257.787 134.384L253.448 128.138L243.948 127.145L250.771 122.208L249.24 115.405Z" fill="#F9A54B" fill-opacity="0.3"/>
<path d="M264.712 117.209L266.364 110.335V107.963L264.712 114.837V117.209Z" fill="#F9A54B"/>
<path d="M250.771 117.138L249.24 110.335V107.963L250.771 114.756V117.138Z" fill="#FABB78"/>
<path d="M262.076 123.029L257.787 129.314V126.942L262.076 120.656V123.029Z" fill="#FABB78"/>
<path d="M253.448 123.069L257.787 129.314V126.942L253.448 120.697V123.069Z" fill="#F9A54B"/>
<path d="M253.448 123.069L243.948 122.075V119.693L253.448 120.697V123.069Z" fill="#FABB78"/>
<path d="M262.075 123.028L271.595 122.045V119.663L262.075 120.656V123.028Z" fill="#F9A54B"/>
<path d="M249.24 107.963L257.787 111.227L266.364 107.963L264.711 114.837L271.595 119.662L262.075 120.656L257.787 126.942L253.448 120.697L243.948 119.693L250.771 114.756L249.24 107.963Z" fill="white"/>
<path d="M123.242 188.491L131.789 191.766L140.366 188.491L138.713 195.365L145.597 200.201L136.077 201.194L131.789 207.47L127.46 201.225L117.95 200.231L124.773 195.294L123.242 188.491Z" fill="#F9A54B" fill-opacity="0.3"/>
<path d="M138.713 190.296L140.365 183.422V181.05L138.713 187.924V190.296Z" fill="#F9A54B"/>
<path d="M124.773 190.225L123.242 183.422V181.05L124.773 187.842V190.225Z" fill="#FABB78"/>
<path d="M136.078 196.125L131.789 202.401V200.028L136.078 193.743V196.125Z" fill="#FABB78"/>
<path d="M127.46 196.156L131.789 202.401V200.028L127.46 193.783V196.156Z" fill="#F9A54B"/>
<path d="M127.46 196.156L117.95 195.162V192.78L127.46 193.783V196.156Z" fill="#FABB78"/>
<path d="M136.077 196.126L145.597 195.132V192.75L136.077 193.743V196.126Z" fill="#F9A54B"/>
<path d="M123.242 181.05L131.789 184.314L140.366 181.05L138.713 187.924L145.597 192.749L136.077 193.743L131.789 200.029L127.46 193.783L117.95 192.78L124.773 187.842L123.242 181.05Z" fill="white"/>
</g>
</g>
<defs>
<clipPath id="clip0_110_937">
<rect width="350" height="241" fill="white" transform="translate(0 0.888672)"/>
</clipPath>
<clipPath id="clip1_110_937">
<rect width="275" height="223.376" fill="white" transform="translate(38 19)"/>
</clipPath>
</defs>
</svg>
