<svg width="40" height="40" fill="none" xmlns="http://www.w3.org/2000/svg">
  <style>
		path {
			fill: #273747;
		}
		@media ( prefers-color-scheme: dark ) {
			path {
				fill: #26D7A0;
			}
		}
	</style>
  <path fill-rule="evenodd" clip-rule="evenodd" d="m39.905 21.961-1.99-.194a18.255 18.255 0 0 0 0-3.534l1.99-.194a20.24 20.24 0 0 1 0 3.922Zm-.761-7.769-1.914.58a17.88 17.88 0 0 0-1.351-3.257l1.763-.945a19.875 19.875 0 0 1 1.502 3.622Zm-3.683-6.88-1.545 1.27a18.121 18.121 0 0 0-2.498-2.497l1.27-1.546a20.123 20.123 0 0 1 2.773 2.773ZM29.43 2.358l-.945 1.763a17.878 17.878 0 0 0-3.257-1.35l.58-1.915c1.265.383 2.476.889 3.622 1.502ZM21.96.095l-.194 1.99a18.246 18.246 0 0 0-3.534 0l-.194-1.99a20.242 20.242 0 0 1 3.922 0Zm-7.769.761.58 1.914a17.88 17.88 0 0 0-3.257 1.351l-.945-1.763A19.877 19.877 0 0 1 14.192.856ZM7.312 4.54l1.27 1.546a18.122 18.122 0 0 0-2.497 2.497l-1.546-1.27a20.121 20.121 0 0 1 2.773-2.773ZM2.358 10.57l1.763.945a17.878 17.878 0 0 0-1.35 3.257l-1.915-.58a19.877 19.877 0 0 1 1.502-3.622ZM.095 18.04a20.242 20.242 0 0 0 0 3.922l1.99-.194a18.246 18.246 0 0 1 0-3.534l-1.99-.194Zm.761 7.769 1.914-.58a17.88 17.88 0 0 0 1.351 3.257l-1.763.945a19.877 19.877 0 0 1-1.502-3.622Zm3.683 6.88 1.546-1.27a18.121 18.121 0 0 0 2.497 2.498l-1.27 1.545a20.123 20.123 0 0 1-2.773-2.773Zm6.031 4.954.945-1.763c1.03.552 2.12 1.006 3.257 1.35l-.58 1.915a19.875 19.875 0 0 1-3.622-1.502Zm7.469 2.263.194-1.99a18.255 18.255 0 0 0 3.534 0l.194 1.99a20.24 20.24 0 0 1-3.922 0Zm7.769-.761-.58-1.914a17.88 17.88 0 0 0 3.257-1.351l.945 1.763a19.875 19.875 0 0 1-3.622 1.502Zm6.88-3.683-1.27-1.545a18.12 18.12 0 0 0 2.498-2.498l1.545 1.27a20.126 20.126 0 0 1-2.773 2.773Zm4.954-6.031-1.763-.945a17.878 17.878 0 0 0 1.35-3.257l1.915.58a19.875 19.875 0 0 1-1.502 3.622Z" fill="#273747"/>
  <path d="M12 16.116c0 4.555 3.13 7.71 7.54 7.71.664 0 1.292-.115 1.874-.265L15.642 32h5.062l5.516-8.116c2.048-3.029 3.037-5.375 3.06-7.872C29.292 10.925 25.289 8 20.553 8 15.584 8 12 11.249 12 16.116Zm4.84-.174c0-2.347 1.537-4.034 3.736-4.034 2.21 0 3.77 1.687 3.77 4.057 0 2.347-1.56 4.012-3.77 4.012-2.2 0-3.735-1.665-3.735-4.035Z" fill="#273747"/>
</svg>
