<svg width="706" height="658" viewBox="0 0 706 658" fill="none" xmlns="http://www.w3.org/2000/svg">
<g clip-path="url(#clip0_218_550)">
<g clip-path="url(#clip1_218_550)">
<path d="M266.985 24.4565C185.03 71.7735 156.95 176.569 204.267 258.525C251.584 340.48 356.38 368.56 438.335 321.243C520.291 273.926 548.371 169.13 501.054 87.1749C453.736 5.21945 348.94 -22.8605 266.985 24.4565Z" fill="#1151B5" fill-opacity="0.3" stroke="#1151B5" stroke-width="3" stroke-miterlimit="10"/>
<path d="M278.184 43.8557C206.943 84.9871 182.534 176.083 223.665 247.325C264.796 318.567 355.893 342.976 427.134 301.845C498.376 260.713 522.785 169.617 481.654 98.3751C440.522 27.1334 349.426 2.72427 278.184 43.8557Z" fill="#1151B5" fill-opacity="0.3" stroke="#1151B5" stroke-width="3" stroke-miterlimit="10"/>
<path d="M422.89 294.492L413.205 277.717" stroke="white" stroke-width="3" stroke-miterlimit="10" stroke-linecap="round"/>
<path d="M352.659 313.309L352.657 293.945" stroke="white" stroke-width="3" stroke-miterlimit="10" stroke-linecap="round"/>
<path d="M282.431 294.491L292.114 277.723" stroke="white" stroke-width="3" stroke-miterlimit="10" stroke-linecap="round"/>
<path d="M231.017 243.08L247.792 233.395" stroke="white" stroke-width="3" stroke-miterlimit="10" stroke-linecap="round"/>
<path d="M212.206 172.858L231.569 172.856" stroke="white" stroke-width="3" stroke-miterlimit="10" stroke-linecap="round"/>
<path d="M231.019 102.622L247.792 112.314" stroke="white" stroke-width="3" stroke-miterlimit="10" stroke-linecap="round"/>
<path d="M282.434 51.217L292.114 67.9832" stroke="white" stroke-width="3" stroke-miterlimit="10" stroke-linecap="round"/>
<path d="M352.661 32.3917L352.659 51.7686" stroke="white" stroke-width="3" stroke-miterlimit="10" stroke-linecap="round"/>
<path d="M422.893 51.2177L413.21 67.9858" stroke="white" stroke-width="3" stroke-miterlimit="10" stroke-linecap="round"/>
<path d="M474.301 102.62L457.526 112.305" stroke="white" stroke-width="3" stroke-miterlimit="10" stroke-linecap="round"/>
<path d="M493.118 172.851L473.755 172.853" stroke="white" stroke-width="3" stroke-miterlimit="10" stroke-linecap="round"/>
<path d="M474.301 243.078L457.524 233.4" stroke="white" stroke-width="3" stroke-miterlimit="10" stroke-linecap="round"/>
<path d="M352.644 302.324C354.309 302.321 355.905 301.658 357.083 300.481C358.26 299.303 358.922 297.707 358.924 296.042L358.923 196.3L388.568 247.646C389.401 249.089 390.773 250.141 392.381 250.572C393.99 251.003 395.704 250.778 397.147 249.945C398.589 249.112 399.641 247.741 400.073 246.132C400.504 244.523 400.278 242.809 399.445 241.367L361.755 176.085C362.227 174.769 362.406 173.365 362.28 171.972C362.154 170.579 361.726 169.231 361.025 168.02C360.39 166.92 359.543 165.955 358.535 165.182C357.527 164.409 356.376 163.842 355.148 163.513C353.921 163.185 352.64 163.102 351.381 163.269C350.121 163.436 348.906 163.849 347.807 164.485C345.586 165.768 343.965 167.88 343.301 170.357C342.637 172.835 342.985 175.474 344.267 177.695C344.818 178.648 345.529 179.5 346.367 180.212L346.362 296.043C346.365 297.709 347.027 299.305 348.205 300.482C349.382 301.659 350.979 302.322 352.644 302.324Z" fill="white" fill-opacity="0.3" stroke="white" stroke-width="3" stroke-miterlimit="10"/>
<path d="M87.1948 633.043C169.15 680.36 273.946 652.28 321.263 570.325C368.58 488.37 340.5 383.574 258.545 336.257C176.589 288.94 71.7934 317.02 24.4764 398.975C-22.8406 480.93 5.23936 585.726 87.1948 633.043Z" fill="#1151B5" fill-opacity="0.3" stroke="#1151B5" stroke-width="3" stroke-miterlimit="10"/>
<path d="M98.3951 613.645C169.637 654.776 260.733 630.367 301.865 559.125C342.996 487.883 318.587 396.787 247.345 355.656C176.103 314.524 85.007 338.933 43.8756 410.175C2.74419 481.417 27.1534 572.513 98.3951 613.645Z" fill="#1151B5" fill-opacity="0.3" stroke="#1151B5" stroke-width="3" stroke-miterlimit="10"/>
<path d="M294.511 414.422L277.743 424.105" stroke="white" stroke-width="3" stroke-miterlimit="10" stroke-linecap="round"/>
<path d="M313.329 484.649L293.966 484.647" stroke="white" stroke-width="3" stroke-miterlimit="10" stroke-linecap="round"/>
<path d="M294.512 554.88L277.737 545.195" stroke="white" stroke-width="3" stroke-miterlimit="10" stroke-linecap="round"/>
<path d="M243.098 606.291L233.42 589.514" stroke="white" stroke-width="3" stroke-miterlimit="10" stroke-linecap="round"/>
<path d="M172.871 625.108L172.873 605.745" stroke="white" stroke-width="3" stroke-miterlimit="10" stroke-linecap="round"/>
<path d="M102.64 606.292L112.325 589.517" stroke="white" stroke-width="3" stroke-miterlimit="10" stroke-linecap="round"/>
<path d="M51.2381 554.884L68.0062 545.2" stroke="white" stroke-width="3" stroke-miterlimit="10" stroke-linecap="round"/>
<path d="M32.4118 484.651L51.7887 484.65" stroke="white" stroke-width="3" stroke-miterlimit="10" stroke-linecap="round"/>
<path d="M51.2363 414.425L68.0026 424.105" stroke="white" stroke-width="3" stroke-miterlimit="10" stroke-linecap="round"/>
<path d="M102.642 363.009L112.334 379.783" stroke="white" stroke-width="3" stroke-miterlimit="10" stroke-linecap="round"/>
<path d="M172.878 344.197L172.876 363.56" stroke="white" stroke-width="3" stroke-miterlimit="10" stroke-linecap="round"/>
<path d="M243.1 363.008L233.415 379.783" stroke="white" stroke-width="3" stroke-miterlimit="10" stroke-linecap="round"/>
<path d="M302.334 484.652C302.331 482.987 301.669 481.391 300.492 480.213C299.314 479.036 297.718 478.373 296.053 478.37L196.297 478.373L247.655 448.718C248.369 448.307 248.994 447.76 249.496 447.106C249.999 446.453 250.367 445.708 250.581 444.912C250.795 444.117 250.849 443.287 250.742 442.47C250.635 441.653 250.368 440.866 249.957 440.152C249.546 439.436 248.998 438.809 248.345 438.306C247.691 437.802 246.944 437.433 246.147 437.219C245.351 437.004 244.52 436.949 243.702 437.057C242.884 437.164 242.095 437.432 241.381 437.845L176.096 475.543C174.78 475.069 173.377 474.889 171.984 475.014C170.591 475.14 169.243 475.567 168.033 476.268C165.812 477.554 164.192 479.667 163.528 482.145C162.863 484.623 163.209 487.264 164.488 489.487C165.772 491.71 167.885 493.331 170.364 493.996C172.843 494.661 175.484 494.314 177.707 493.031C178.655 492.479 179.502 491.77 180.212 490.933L296.051 490.933C297.717 490.931 299.313 490.268 300.491 489.091C301.669 487.914 302.331 486.318 302.334 484.652V484.652Z" fill="white" fill-opacity="0.3" stroke="white" stroke-width="3" stroke-miterlimit="10"/>
<path d="M618.124 633.044C700.08 585.727 728.16 480.931 680.843 398.975C633.526 317.02 528.73 288.94 446.774 336.257C364.819 383.574 336.739 488.37 384.056 570.325C431.373 652.281 536.169 680.361 618.124 633.044Z" fill="#1151B5" fill-opacity="0.3" stroke="#1151B5" stroke-width="3" stroke-miterlimit="10"/>
<path d="M606.925 613.644C678.167 572.513 702.576 481.417 661.444 410.175C620.313 338.933 529.217 314.524 457.975 355.655C386.733 396.787 362.324 487.883 403.455 559.125C444.587 630.367 535.683 654.776 606.925 613.644Z" fill="#1151B5" fill-opacity="0.3" stroke="#1151B5" stroke-width="3" stroke-miterlimit="10"/>
<path d="M602.679 363.009L592.995 379.777" stroke="white" stroke-width="3" stroke-miterlimit="10" stroke-linecap="round"/>
<path d="M654.092 414.42L637.317 424.105" stroke="white" stroke-width="3" stroke-miterlimit="10" stroke-linecap="round"/>
<path d="M672.908 484.651L653.54 484.644" stroke="white" stroke-width="3" stroke-miterlimit="10" stroke-linecap="round"/>
<path d="M654.091 554.878L637.314 545.2" stroke="white" stroke-width="3" stroke-miterlimit="10" stroke-linecap="round"/>
<path d="M602.68 606.292L592.995 589.517" stroke="white" stroke-width="3" stroke-miterlimit="10" stroke-linecap="round"/>
<path d="M532.448 625.108L532.447 605.745" stroke="white" stroke-width="3" stroke-miterlimit="10" stroke-linecap="round"/>
<path d="M462.221 606.291L471.899 589.514" stroke="white" stroke-width="3" stroke-miterlimit="10" stroke-linecap="round"/>
<path d="M410.809 554.88L427.584 545.195" stroke="white" stroke-width="3" stroke-miterlimit="10" stroke-linecap="round"/>
<path d="M391.991 484.649L411.354 484.647" stroke="white" stroke-width="3" stroke-miterlimit="10" stroke-linecap="round"/>
<path d="M410.809 414.422L427.577 424.105" stroke="white" stroke-width="3" stroke-miterlimit="10" stroke-linecap="round"/>
<path d="M462.22 363.008L471.905 379.783" stroke="white" stroke-width="3" stroke-miterlimit="10" stroke-linecap="round"/>
<path d="M532.451 344.191L532.445 363.56" stroke="white" stroke-width="3" stroke-miterlimit="10" stroke-linecap="round"/>
<path d="M644.566 419.92C643.733 418.478 642.361 417.425 640.752 416.994C639.144 416.563 637.43 416.788 635.987 417.621L549.601 467.496L579.246 416.144C580.077 414.703 580.303 412.991 579.873 411.384C579.443 409.777 578.393 408.406 576.953 407.572C576.24 407.158 575.451 406.889 574.633 406.781C573.815 406.672 572.983 406.726 572.186 406.939C571.389 407.153 570.641 407.522 569.987 408.025C569.333 408.527 568.784 409.155 568.373 409.87L530.684 475.151C529.309 475.403 528.006 475.95 526.864 476.755C525.722 477.56 524.768 478.603 524.069 479.813C523.433 480.913 523.019 482.129 522.853 483.389C522.687 484.649 522.771 485.93 523.1 487.157C523.429 488.385 523.997 489.536 524.771 490.544C525.546 491.552 526.511 492.397 527.613 493.032C528.713 493.667 529.927 494.079 531.186 494.245C532.445 494.41 533.724 494.327 534.951 493.998C536.178 493.67 537.327 493.103 538.335 492.329C539.343 491.556 540.188 490.592 540.823 489.492C541.372 488.54 541.752 487.501 541.947 486.419L642.267 428.499C643.71 427.666 644.762 426.294 645.193 424.685C645.624 423.077 645.399 421.363 644.566 419.92V419.92Z" fill="white" fill-opacity="0.3" stroke="white" stroke-width="3" stroke-miterlimit="10"/>
</g>
</g>
<defs>
<clipPath id="clip0_218_550">
<rect width="705.32" height="658" fill="white"/>
</clipPath>
<clipPath id="clip1_218_550">
<rect width="705.32" height="657.52" fill="white"/>
</clipPath>
</defs>
</svg>
