<svg width="351" height="242" viewBox="0 0 351 242" fill="none" xmlns="http://www.w3.org/2000/svg">
<g clip-path="url(#clip0_110_1476)">
<g clip-path="url(#clip1_110_1476)">
<path d="M161.337 150.395L125.258 129.565C124.771 129.284 124.191 129.207 123.647 129.352C123.103 129.497 122.639 129.852 122.356 130.339L104.321 161.589C104.119 161.939 104.022 162.34 104.041 162.744C104.061 163.148 104.195 163.537 104.43 163.867C104.664 164.196 104.989 164.451 105.364 164.601C105.739 164.752 106.149 164.791 106.546 164.714L160.669 154.304C161.092 154.222 161.48 154.013 161.781 153.705C162.082 153.398 162.283 153.005 162.355 152.581C162.428 152.156 162.369 151.72 162.187 151.329C162.005 150.939 161.709 150.613 161.337 150.395V150.395Z" fill="#F85E60" fill-opacity="0.1" stroke="#F85E60" stroke-opacity="0.3" stroke-width="3" stroke-miterlimit="10"/>
<path d="M161.337 145.122L125.259 124.291C125.018 124.15 124.751 124.057 124.474 124.019C124.197 123.982 123.915 123.999 123.645 124.071C123.375 124.143 123.122 124.268 122.901 124.439C122.679 124.61 122.494 124.822 122.356 125.065L104.321 156.307C104.121 156.657 104.025 157.058 104.045 157.462C104.064 157.866 104.199 158.255 104.433 158.585C104.667 158.914 104.991 159.17 105.365 159.322C105.739 159.473 106.149 159.515 106.546 159.442L160.669 149.021C161.093 148.942 161.482 148.735 161.784 148.428C162.087 148.121 162.288 147.729 162.36 147.304C162.433 146.879 162.374 146.443 162.191 146.053C162.008 145.663 161.71 145.338 161.337 145.122V145.122Z" fill="#F85E60" fill-opacity="0.3" stroke="#F85E60" stroke-width="3" stroke-miterlimit="10"/>
<path d="M349.301 161.382C351.56 142.849 326.839 124.588 294.086 120.596C261.333 116.603 232.949 128.39 230.69 146.923C228.431 165.456 253.151 183.717 285.905 187.709C318.658 191.702 347.042 179.915 349.301 161.382Z" fill="#3A86FF" fill-opacity="0.1" stroke="#3A86FF" stroke-opacity="0.3" stroke-width="3" stroke-miterlimit="10"/>
<path d="M349.305 151.707C351.564 133.174 326.843 114.913 294.09 110.921C261.336 106.928 232.953 118.715 230.694 137.248C228.435 155.781 253.155 174.041 285.909 178.034C318.662 182.027 347.046 170.239 349.305 151.707Z" fill="#3A86FF" fill-opacity="0.3" stroke="#3A86FF" stroke-width="3" stroke-miterlimit="10"/>
<path d="M317.16 147.788C318.194 139.302 306.873 130.939 291.872 129.111C276.872 127.282 263.874 132.68 262.839 141.167C261.804 149.653 273.126 158.015 288.126 159.844C303.126 161.673 316.125 156.275 317.16 147.788Z" fill="white" fill-opacity="0.3" stroke="white" stroke-width="3" stroke-miterlimit="10"/>
<path d="M192.426 70.7705C194.685 52.2376 169.964 33.9772 137.211 29.9846C104.458 25.992 76.0743 37.7791 73.8151 56.312C71.556 74.8449 96.2765 93.1053 129.03 97.0979C161.783 101.091 190.167 89.3033 192.426 70.7705Z" fill="#3A86FF" fill-opacity="0.1" stroke="#3A86FF" stroke-opacity="0.3" stroke-width="3" stroke-miterlimit="10"/>
<path d="M192.43 61.0952C194.689 42.5623 169.968 24.3019 137.215 20.3093C104.461 16.3167 76.0782 28.1038 73.819 46.6367C71.5599 65.1696 96.2804 83.43 129.034 87.4226C161.787 91.4152 190.17 79.6281 192.43 61.0952Z" fill="#3A86FF" fill-opacity="0.3" stroke="#3A86FF" stroke-width="3" stroke-miterlimit="10"/>
<path d="M160.285 57.177C161.319 48.6902 149.998 40.3281 134.997 38.4996C119.997 36.671 106.999 42.0686 105.964 50.5553C104.929 59.042 116.251 67.4042 131.251 69.2327C146.251 71.0612 159.25 65.6637 160.285 57.177Z" fill="white" fill-opacity="0.3" stroke="white" stroke-width="3" stroke-miterlimit="10"/>
<path d="M152.33 133.328L188.612 112.401C190.948 111.05 192.888 109.108 194.237 106.77C195.585 104.433 196.296 101.781 196.296 99.0827C196.296 96.3839 195.585 93.7326 194.237 91.395C192.888 89.0573 190.948 87.1159 188.612 85.7651" stroke="white" stroke-width="3" stroke-miterlimit="10" stroke-linecap="round"/>
<path d="M152.33 133.328L186.87 113.407C194.413 109.053 202.968 106.76 211.678 106.76C220.387 106.76 228.943 109.053 236.485 113.407V113.407" stroke="white" stroke-width="3" stroke-miterlimit="10" stroke-linecap="round"/>
<path d="M93.9882 167.027C90.0046 169.316 86.6951 172.615 84.3938 176.592C82.0925 180.569 80.8809 185.082 80.8809 189.677C80.8809 194.271 82.0925 198.784 84.3938 202.761C86.6951 206.737 90.0046 210.037 93.9882 212.326C105.914 219.214 119.444 222.84 133.216 222.84C146.988 222.84 160.518 219.214 172.445 212.326" stroke="white" stroke-width="3" stroke-miterlimit="10" stroke-linecap="round"/>
<path d="M93.9882 167.027C82.0603 173.915 68.5294 177.541 54.7555 177.541C40.9817 177.541 27.4504 173.915 15.5224 167.027V167.027C11.5387 164.738 8.22973 161.439 5.92844 157.462C3.62714 153.485 2.41504 148.972 2.41504 144.377C2.41504 139.783 3.62714 135.27 5.92844 131.293C8.22973 127.316 11.5387 124.017 15.5224 121.728V121.728" stroke="white" stroke-width="3" stroke-miterlimit="10" stroke-linecap="round"/>
<path d="M34.6603 123.469L52.3369 113.262C52.4835 113.177 52.6052 113.054 52.6898 112.908C52.7744 112.761 52.8188 112.594 52.8188 112.425C52.8188 112.255 52.7744 112.089 52.6898 111.942C52.6052 111.795 52.4835 111.673 52.3369 111.588L34.6603 101.38C34.5132 101.296 34.3464 101.251 34.1766 101.251C34.0067 101.251 33.8399 101.296 33.6928 101.38L16.0063 111.588C15.8597 111.673 15.738 111.795 15.6534 111.942C15.5688 112.089 15.5244 112.255 15.5244 112.425C15.5244 112.594 15.5688 112.761 15.6534 112.908C15.738 113.054 15.8597 113.177 16.0063 113.262L33.6928 123.469C33.8399 123.554 34.0067 123.599 34.1766 123.599C34.3464 123.599 34.5132 123.554 34.6603 123.469Z" fill="#F9A54B" fill-opacity="0.1" stroke="#F9A54B" stroke-opacity="0.3" stroke-width="3" stroke-miterlimit="10"/>
<path d="M34.6603 121.05L52.3369 110.843C52.4835 110.758 52.6052 110.636 52.6898 110.489C52.7744 110.342 52.8188 110.176 52.8188 110.006C52.8188 109.837 52.7744 109.67 52.6898 109.523C52.6052 109.377 52.4835 109.255 52.3369 109.17L34.6603 98.962C34.5132 98.877 34.3464 98.8325 34.1766 98.8325C34.0067 98.8325 33.8399 98.877 33.6928 98.962L16.0063 109.17C15.8597 109.255 15.738 109.377 15.6534 109.523C15.5688 109.67 15.5244 109.837 15.5244 110.006C15.5244 110.176 15.5688 110.342 15.6534 110.489C15.738 110.636 15.8597 110.758 16.0063 110.843L33.6928 121.05C33.8399 121.135 34.0067 121.18 34.1766 121.18C34.3464 121.18 34.5132 121.135 34.6603 121.05Z" fill="#F9A54B" fill-opacity="0.3" stroke="#F9A54B" stroke-width="3" stroke-miterlimit="10"/>
<path d="M191.785 213.729L209.462 203.522C209.611 203.437 209.734 203.315 209.821 203.167C209.907 203.019 209.952 202.851 209.952 202.68C209.952 202.509 209.907 202.341 209.821 202.193C209.734 202.045 209.611 201.922 209.462 201.838L191.785 191.631C191.638 191.546 191.471 191.501 191.301 191.501C191.131 191.501 190.965 191.546 190.818 191.631L173.131 201.838C172.983 201.922 172.859 202.045 172.772 202.193C172.686 202.341 172.641 202.509 172.641 202.68C172.641 202.851 172.686 203.019 172.772 203.167C172.859 203.315 172.983 203.437 173.131 203.522L190.818 213.729C190.965 213.814 191.131 213.858 191.301 213.858C191.471 213.858 191.638 213.814 191.785 213.729Z" fill="#F9A54B" fill-opacity="0.1" stroke="#F9A54B" stroke-opacity="0.3" stroke-width="3" stroke-miterlimit="10"/>
<path d="M191.785 211.31L209.462 201.103C209.611 201.019 209.734 200.896 209.821 200.748C209.907 200.601 209.952 200.433 209.952 200.261C209.952 200.09 209.907 199.922 209.821 199.774C209.734 199.626 209.611 199.504 209.462 199.42L191.785 189.212C191.638 189.128 191.471 189.083 191.301 189.083C191.131 189.083 190.965 189.128 190.818 189.212L173.131 199.42C172.983 199.504 172.859 199.626 172.772 199.774C172.686 199.922 172.641 200.09 172.641 200.261C172.641 200.433 172.686 200.601 172.772 200.748C172.859 200.896 172.983 201.019 173.131 201.103L190.818 211.31C190.965 211.395 191.131 211.44 191.301 211.44C191.471 211.44 191.638 211.395 191.785 211.31Z" fill="#F9A54B" fill-opacity="0.3" stroke="#F9A54B" stroke-width="3" stroke-miterlimit="10"/>
</g>
</g>
<defs>
<clipPath id="clip0_110_1476">
<rect width="350" height="241" fill="white" transform="translate(0.666016 0.888672)"/>
</clipPath>
<clipPath id="clip1_110_1476">
<rect width="350" height="206.285" fill="white" transform="translate(1 18)"/>
</clipPath>
</defs>
</svg>
