<svg fill="none" height="24" viewBox="0 0 24 24" width="24" xmlns="http://www.w3.org/2000/svg"><path d="m23.953 4.57009c-.8985.3956-1.8504.65674-2.825.775 1.0261-.61675 1.7944-1.58396 2.163-2.723-.951.555-2.005.959-3.127 1.184-.7402-.79157-1.7211-1.31658-2.7904-1.4935-1.0692-.17692-2.1669.00415-3.1227.51509-.9557.51094-1.716 1.32316-2.1628 2.31053-.4469.98737-.5551 2.09465-.3081 3.14988-4.09-.193-7.713-2.158-10.14-5.126-.44121.74981-.671336 1.60502-.666 2.475 0 1.71.87 3.213 2.188 4.096-.78114-.02487-1.54503-.23607-2.228-.616v.06c-.000443 1.13641.39227 2.23791 1.11151 3.11771.71923.8799 1.7207 1.4838 2.83449 1.7093-.7217.1934-1.47759.2224-2.212.085.31612.978.92966 1.8329 1.75501 2.4455.82536.6125 1.82134.9522 2.84899.9715-1.74047 1.3659-3.88952 2.1073-6.102 2.105-.39 0-.779-.023-1.17-.067 2.25571 1.4443 4.87851 2.211 7.557 2.209 9.053 0 13.998-7.496 13.998-13.98501 0-.21 0-.42-.015-.63.966-.69514 1.7992-1.55818 2.46-2.548z" fill="#26d7a0"/></svg>