<svg fill="none" height="32" viewBox="0 0 166 32" width="166" xmlns="http://www.w3.org/2000/svg"><g fill="#5d6975"><path d="m58.6162 26.5944-2.1175-3.6575c.99-1.8975.99-4.0975.99-7.0125 0-3.6575 0-6.32498-2.1175-8.55248-1.4575-1.5675-3.3275-2.3375-5.775-2.3375s-4.345.88-5.775 2.3375c-2.1175 2.1175-2.1175 4.78498-2.1175 8.55248 0 3.6575-.11 6.325 2.1175 8.5525 1.5675 1.5675 3.3275 2.3375 5.775 2.3375.66 0 1.21-.11 1.7875-.22zm-11.7975-4.675c-.77-.88-.99-1.8975-.99-5.995s.22-5.115.99-5.99498c.55-.66 1.5675-1.1 2.6675-1.1s2.1175.44 2.6675 1.1c.77.87998.99 1.89748.99 5.99498s-.22 5.115-.99 5.995c-.55.66-1.5675 1.1-2.6675 1.1s-2.09-.44-2.6675-1.1z"/><path d="m107.374 5.25442h4.097v21.33998h-4.097z"/><path d="m8.04373 26.8144c-3.2175 0-5.665-.66-7.7825-2.7775l2.6675-2.6675c1.32 1.32 3.2175 1.7875 5.115 1.7875 2.44747 0 3.76747-.88 3.76747-2.6675 0-.77-.22-1.32-.66-1.7875-.44-.44-.88-.55-1.89747-.77l-2.5575-.33c-1.7875-.22-3.2175-.88-4.0975-1.7875-.99-.99-1.5675-2.4475-1.5675-4.235 0-3.76748 2.7775-6.43498 7.4525-6.43498 2.88747 0 5.11497.66 6.90247 2.4475l-2.6675 2.55748c-1.32-1.31998-2.99747-1.45748-4.34497-1.45748-2.2275 0-3.3275 1.21-3.3275 2.66748 0 .55.22 1.1.66 1.5675.44.44 1.1.66 2.0075.88l2.55747.33c2.0075.22 3.2175.77 4.0975 1.6775 1.1 1.1 1.6775 2.6675 1.6775 4.565 0 4.0975-3.5475 6.435-8.00247 6.435z"/><path d="m22.0412 26.5944v-21.33998h14.1075v3.6575h-9.9v5.00498h8.4425v3.795h-8.4425v5.225h9.9v3.6575z"/><path d="m71.5962 26.8144c-4.345 0-7.8925-2.9975-7.8925-7.5625v-13.99748h4.2351v13.88748c0 2.4475 1.4574 3.8775 3.6574 3.8775s3.6575-1.4575 3.6575-3.8775v-13.88748h4.0975v13.99748c.0275 4.565-3.41 7.5625-7.755 7.5625z"/><path d="m99.1512 24.4769c-1.4575 1.5675-3.3275 2.3375-5.775 2.3375s-4.345-.88-5.775-2.3375c-2.1175-2.1175-2.1175-4.785-2.1175-8.5525 0-3.6575-.11-6.32498 2.1175-8.55248 1.4575-1.5675 3.3275-2.3375 5.775-2.3375s4.235.88 5.775 2.3375c2.1178 2.1175 2.1178 4.78498 2.1178 8.55248 0 3.6575 0 6.325-2.1178 8.5525zm-3.1075-14.54748c-.5499-.66-1.5675-1.1-2.6675-1.1s-2.1174.44-2.6675 1.1c-.7699.87998-.9899 1.89748-.9899 5.99498s.22 5.115.9899 5.995c.5501.66 1.5675 1.1 2.6675 1.1s2.1176-.44 2.6675-1.1c.7701-.88.9901-1.8975.9901-5.995.0274-4.0975-.1926-5.115-.9901-5.99498z"/><path d="m131.161 26.5944-1.21-3.7675h-7.562l-1.32 3.7675h-4.345l7.782-21.33998h3.218l7.782 21.33998zm-5.005-15.125-2.667 7.7825h5.335z"/><path d="m159.954 5.25442h5.335v5.33498h-5.335z"/><path d="m146.616 22.0294v-16.77498h-2.667v19.44248z"/><path d="m148.486 23.9269-2.667 2.6675h19.442v-2.6675z"/><path d="m151.951 16.6944v-11.43998h-2.667v14.10748z"/><path d="m153.821 18.5919-2.667 2.6675h14.107v-2.6675z"/><path d="m157.286 11.3594v-6.10498h-2.667v8.77248z"/><path d="m159.156 13.2569-2.667 2.6675h8.772v-2.6675z"/></g></svg>