<svg fill="none" height="32" viewBox="0 0 158 32" width="158" xmlns="http://www.w3.org/2000/svg"><g fill="#5d6975"><path d="m141.796.00073242-5.33 5.33324758 10.66 10.66632-10.66 10.6666 5.33 5.3334 15.989-16z"/><path d="m109.819 10.6671-5.33 5.3331 5.33 5.3333 5.33-5.3333z"/><path d="m120.478.00073242-5.329 5.33324758 10.659 10.66632-10.659 10.6666 5.329 5.3334 15.988-16z"/><path d="m28.4839 26.807c-4.4148 0-8.0245-2.9854-8.0245-7.6421v-13.79213h5.2202v13.67263c0 1.9702 1.0744 3.1044 2.8043 3.1044 1.7302 0 2.8639-1.1342 2.8639-3.1044v-13.67263h5.2203v13.79213c0 4.6567-3.669 7.6421-8.0842 7.6421z"/><path d="m49.8696 10.0599h-2.9532v4.2987h2.9532c1.4319 0 2.2673-1.0449 2.2673-2.1492 0-1.1048-.8354-2.1495-2.2673-2.1495zm2.5653 16.5682-3.7583-7.911h-1.7602v7.911h-5.2208v-21.25521h8.4124c4.7134 0 7.2489 3.34399 7.2489 6.83651 0 2.8957-1.7895 4.7167-3.4603 5.5525l4.5942 8.8662z"/><path d="m75.7977 24.4187c-1.8194 1.8806-3.8482 2.3883-6.1747 2.3883-2.4759 0-4.3557-.8358-5.9064-2.3883-2.2375-2.2389-2.1481-5.224-2.1481-8.4185 0-3.1939-.0894-6.17909 2.1481-8.41813 1.5507-1.55224 3.3411-2.38833 5.9064-2.38833 5.4589 0 7.7858 3.55245 8.2929 7.04546h-5.2503c-.4177-1.612-1.2531-2.38809-3.0426-2.38809-.9546 0-1.6708.41769-2.0586.92519-.4773.6269-.7758 1.3434-.7758 5.2239 0 3.8812.2985 4.6274.7758 5.2539.3878.5076 1.104.8957 2.0586.8957 1.1036 0 1.8492-.3284 2.3265-.8356.5969-.5972.8055-1.4627.8055-2.2688v-.2987h-3.132v-4.3585h8.3227v2.9554c0 3.433-.5369 5.4333-2.148 7.0751z"/><path d="m83.0846 26.654v-21.28114h14.0074v4.66264h-8.7803v3.5571h7.436v4.6627h-7.436v3.7361h8.7803v4.6626z"/><path d="m14.47 15.4153c-.9826-.9171-2.2649-1.4434-4.1568-1.7057l-2.36816-.3384c-.6915-.0954-1.87541-.5459-1.92673-1.6286-.02209-.4758.12872-.8978.43605-1.2207.43347-.4547 1.16336-.70522 2.05533-.70522.78774 0 2.76101.15333 4.06911 1.57342l.045.0487 3.3404-3.30353-.0459-.04574c-2.0371-2.02974-4.219-2.89579-7.2958-2.89579-4.5392 0-7.5884 2.68969-7.5884 6.69256 0 1.8555.52937 3.2881 1.61979 4.3805.98769.9565 2.36915 1.5541 4.22369 1.8268l2.41454.3376c1.24198.1781 1.85608.7255 1.87828 1.6733.0122.5231-.1391.9502-.4502 1.2687-.4534.4648-1.26201.7103-2.33788.7106l-.17273-.002c-1.82285-.0425-3.25808-.392-4.77791-1.9994l-.04622-.049-3.38546 3.5141.0395489.0445c1.9976511 2.2233 4.5053111 3.215 8.1321711 3.215 4.80818 0 8.03888-2.6895 8.03888-6.6931 0-2.0223-.5855-3.6028-1.7406-4.6986z"/></g></svg>