<svg width="351" height="242" viewBox="0 0 351 242" fill="none" xmlns="http://www.w3.org/2000/svg">
<g clip-path="url(#clip0_110_994)">
<g clip-path="url(#clip1_110_994)">
<path d="M261.697 240.914L348.396 190.858L88.303 40.6909L1.60352 90.7467L261.697 240.914Z" fill="#3A86FF" fill-opacity="0.1" stroke="#3A86FF" stroke-opacity="0.3" stroke-width="3" stroke-miterlimit="10"/>
<path d="M261.697 235.568L348.396 185.512L88.303 35.3452L1.60352 85.401L261.697 235.568Z" fill="#3A86FF" fill-opacity="0.3" stroke="#3A86FF" stroke-width="3" stroke-miterlimit="10"/>
<path d="M88.3036 115.929L131.651 90.9014L88.3036 65.8735L44.9512 90.9014L88.3036 115.929Z" fill="#3A86FF" fill-opacity="0.3"/>
<path d="M88.3036 60.3731L131.651 35.3453L88.3036 10.3174L44.9512 35.3453L88.3036 60.3731Z" fill="#FCD2A5"/>
<path d="M88.3027 60.3731L131.65 35.3453L88.3027 10.3174V60.3731Z" fill="#FABB78"/>
<path d="M66.0715 11.8623V47.1912C65.9567 48.8786 66.3696 50.5599 67.2529 52.0022C71.2246 58.8766 83.7331 63.3773 95.1993 62.057C104.046 61.036 109.675 56.8399 109.964 51.8151V15.043L66.0715 11.8623Z" fill="url(#paint0_linear_110_994)"/>
<path d="M109.86 16.3973C110.694 9.55148 101.561 2.80618 89.4609 1.33117C77.3605 -0.143852 66.8748 4.20997 66.0403 11.0558C65.2058 17.9016 74.3386 24.6469 86.4389 26.1219C98.5393 27.5969 109.025 23.2431 109.86 16.3973Z" fill="white"/>
<path d="M85.7743 5.92838C93.0977 5.92838 100.378 8.51029 102.88 12.2201C105.729 16.4217 101.373 20.4897 93.1513 21.3075C92.1838 21.4038 91.2055 21.4519 90.2327 21.4519C82.9039 21.4519 75.6233 18.87 73.1269 15.1602C70.2831 10.9532 74.6342 6.89058 82.8556 6.07272C83.8232 5.9765 84.8015 5.93386 85.7798 5.93386L85.7743 5.92838ZM85.7798 4.86475C84.7588 4.86475 83.7377 4.91287 82.7541 5.00909C77.1627 5.54364 73.0146 7.61226 71.6569 10.5042C71.2749 11.3515 71.128 12.286 71.2314 13.2096C71.3349 14.1332 71.6848 15.0119 72.2447 15.7537C74.9174 19.7361 82.3425 22.5158 90.2486 22.5158C91.259 22.5174 92.2689 22.4673 93.2742 22.3659C98.8657 21.8314 103.014 19.7627 104.366 16.8761C104.749 16.0294 104.898 15.0954 104.795 14.1717C104.693 13.248 104.343 12.3688 103.783 11.6268C101.111 7.64438 93.6858 4.86475 85.7798 4.86475Z" fill="#E6E6E6"/>
<path d="M88.3036 110.429V60.5279L44.9512 35.5V85.4007L88.3036 110.429Z" fill="#F9A54B"/>
<path d="M88.3027 110.429L131.65 85.401V35.3452L88.3027 60.3731V110.429Z" fill="#FABB78"/>
<path d="M73.309 84.2944L88.3033 60.3731L44.9508 35.3452L29.9619 59.2719L73.309 84.2944Z" fill="#FABB78"/>
<path d="M144.869 60.2929L131.65 35.3452L88.3027 60.3731L101.522 85.3208L144.869 60.2929Z" fill="#FCD2A5"/>
<path d="M218.349 85.4009L233.338 61.4795L189.991 36.4517L174.997 60.373L218.349 85.4009Z" fill="#F85E60"/>
<path d="M174.997 60.373L161.778 35.4307L118.431 60.4532L131.65 85.4009L174.997 60.373Z" fill="#FA8688"/>
<path d="M174.997 165.985L218.35 140.957L174.997 115.929L131.65 140.957L174.997 165.985Z" fill="#3A86FF" fill-opacity="0.3"/>
<path d="M174.997 110.429L218.35 85.4009L174.997 60.373L131.65 85.4009L174.997 110.429Z" fill="#FBAEAF"/>
<path d="M174.997 110.429L218.349 85.4009L174.997 60.373V110.429Z" fill="#FA8688"/>
<path d="M151.472 96.1562V131.485C151.358 133.173 151.773 134.855 152.658 136.296C156.625 143.176 169.139 147.677 180.6 146.351C189.446 145.33 195.081 141.134 195.364 136.114V99.3422L151.472 96.1562Z" fill="url(#paint1_linear_110_994)"/>
<path d="M195.256 100.694C196.09 93.8478 186.958 87.1023 174.857 85.6273C162.757 84.1523 152.271 88.5064 151.437 95.3522C150.602 102.198 159.735 108.943 171.835 110.418C183.936 111.893 194.421 107.539 195.256 100.694Z" fill="white"/>
<path d="M171.175 90.2174C178.504 90.2174 185.785 92.7993 188.281 96.5091C191.125 100.716 186.768 104.779 178.552 105.597C177.584 105.693 176.606 105.735 175.628 105.735C168.305 105.735 161.024 103.159 158.522 99.444C155.673 95.2423 160.03 91.1744 168.246 90.3565C169.213 90.2603 170.191 90.2122 171.17 90.2122L171.175 90.2174ZM171.17 89.1431C170.149 89.1431 169.128 89.1964 168.144 89.2926C162.553 89.8272 158.405 91.8959 157.052 94.7825C156.669 95.6301 156.521 96.5652 156.623 97.4897C156.726 98.4143 157.075 99.2942 157.635 100.037C160.308 104.014 167.732 106.794 175.638 106.794C176.659 106.794 177.681 106.746 178.664 106.65C184.256 106.115 188.404 104.046 189.756 101.16C190.139 100.312 190.287 99.3771 190.185 98.4526C190.082 97.5281 189.733 96.6482 189.174 95.9051C186.501 91.9227 179.076 89.1431 171.17 89.1431Z" fill="#E6E6E6"/>
<path d="M174.997 160.484V110.584L131.65 85.5557V135.456L174.997 160.484Z" fill="#F85E60"/>
<path d="M174.997 160.485L218.349 135.457V85.4009L174.997 110.429V160.485Z" fill="#FA8688"/>
<path d="M144.87 110.349L174.997 110.429L131.65 85.401L101.522 85.3208L144.87 110.349Z" fill="#FA8688"/>
<path d="M205.125 110.349L174.997 110.429L218.35 85.401L248.477 85.3208L205.125 110.349Z" fill="#FBAEAF"/>
<path d="M261.697 216.035L305.044 191.013L261.697 165.985L218.35 191.013L261.697 216.035Z" fill="#3A86FF" fill-opacity="0.3"/>
<path d="M261.697 160.484L305.044 135.457L261.697 110.429L218.35 135.457L261.697 160.484Z" fill="#FCD2A5"/>
<path d="M261.697 210.54V160.484L218.35 135.457V185.512L261.697 210.54Z" fill="#F9A54B"/>
<path d="M261.697 210.54L305.044 185.512V135.457L261.697 160.484V210.54Z" fill="#FABB78"/>
<path d="M283.373 122.943L261.697 110.429L218.35 135.457L240.02 147.971L283.373 122.943Z" fill="#FABB78"/>
</g>
</g>
<defs>
<linearGradient id="paint0_linear_110_994" x1="66.0448" y1="37.0719" x2="109.964" y2="37.0719" gradientUnits="userSpaceOnUse">
<stop stop-color="white" stop-opacity="0.5"/>
<stop offset="1" stop-color="white" stop-opacity="0.3"/>
</linearGradient>
<linearGradient id="paint1_linear_110_994" x1="-232203" y1="271340" x2="-228595" y2="271340" gradientUnits="userSpaceOnUse">
<stop stop-color="white" stop-opacity="0.5"/>
<stop offset="1" stop-color="white" stop-opacity="0.3"/>
</linearGradient>
<clipPath id="clip0_110_994">
<rect width="350" height="241" fill="white" transform="translate(0.333008 0.888672)"/>
</clipPath>
<clipPath id="clip1_110_994">
<rect width="350" height="240.838" fill="white" transform="translate(0 1)"/>
</clipPath>
</defs>
</svg>
