<svg width="1420" height="698" viewBox="0 0 1420 698" fill="none" xmlns="http://www.w3.org/2000/svg">
<path d="M332.341 191.591L448.431 124.564C449.394 124.005 450.193 123.204 450.748 122.239C451.304 121.275 451.596 120.181 451.596 119.068C451.596 117.955 451.304 116.861 450.748 115.897C450.193 114.932 449.394 114.131 448.431 113.573L332.341 46.5456C331.375 45.988 330.28 45.6948 329.164 45.6948C328.049 45.6948 326.954 45.988 325.988 46.5456L209.898 113.573C208.936 114.131 208.137 114.932 207.581 115.897C207.026 116.861 206.733 117.955 206.733 119.068C206.733 120.181 207.026 121.275 207.581 122.239C208.137 123.204 208.936 124.005 209.898 124.564L325.988 191.591C326.954 192.148 328.049 192.441 329.164 192.441C330.28 192.441 331.375 192.148 332.341 191.591Z" fill="#26D7A0" fill-opacity="0.1" stroke="#26D7A0" stroke-opacity="0.3" stroke-width="3" stroke-miterlimit="10"/>
<path d="M1169.56 228.772L1285.65 161.746C1286.61 161.188 1287.41 160.386 1287.96 159.422C1288.52 158.457 1288.81 157.364 1288.81 156.251C1288.81 155.138 1288.52 154.044 1287.96 153.079C1287.41 152.115 1286.61 151.314 1285.65 150.755L1169.56 83.7127C1168.59 83.155 1167.49 82.8611 1166.38 82.8611C1165.26 82.8611 1164.17 83.155 1163.2 83.7127L1047.11 150.755C1046.15 151.314 1045.35 152.115 1044.79 153.079C1044.24 154.044 1043.95 155.138 1043.95 156.251C1043.95 157.364 1044.24 158.457 1044.79 159.422C1045.35 160.386 1046.15 161.188 1047.11 161.746L1163.2 228.772C1164.17 229.33 1165.26 229.624 1166.38 229.624C1167.49 229.624 1168.59 229.33 1169.56 228.772Z" fill="#A776D5" fill-opacity="0.1" stroke="#A776D5" stroke-opacity="0.3" stroke-width="3" stroke-miterlimit="10"/>
<path d="M332.341 489.049L448.431 422.023C449.398 421.465 450.2 420.663 450.758 419.697C451.316 418.731 451.61 417.634 451.61 416.519C451.61 415.403 451.316 414.307 450.758 413.341C450.2 412.375 449.398 411.573 448.431 411.015L332.341 343.988C331.375 343.431 330.28 343.138 329.165 343.138C328.049 343.138 326.954 343.431 325.988 343.988L209.899 411.015C208.932 411.573 208.129 412.375 207.571 413.341C207.013 414.307 206.72 415.403 206.72 416.519C206.72 417.634 207.013 418.731 207.571 419.697C208.129 420.663 208.932 421.465 209.899 422.023L325.988 489.049C326.954 489.607 328.049 489.9 329.165 489.9C330.28 489.9 331.375 489.607 332.341 489.049Z" fill="#A776D5" fill-opacity="0.1" stroke="#A776D5" stroke-opacity="0.3" stroke-width="3" stroke-miterlimit="10"/>
<path d="M525.543 377.502L770.445 236.142C771.411 235.585 772.214 234.783 772.772 233.816C773.33 232.85 773.624 231.755 773.624 230.639C773.624 229.523 773.33 228.427 772.772 227.461C772.214 226.495 771.411 225.693 770.445 225.136L654.339 158.109C653.373 157.551 652.278 157.257 651.163 157.257C650.047 157.257 648.952 157.551 647.986 158.109L403.101 299.468C402.134 300.026 401.331 300.828 400.773 301.794C400.215 302.76 399.922 303.856 399.922 304.972C399.922 306.087 400.215 307.184 400.773 308.15C401.331 309.116 402.134 309.918 403.101 310.476L519.19 377.502C520.156 378.06 521.252 378.353 522.367 378.353C523.482 378.353 524.578 378.06 525.543 377.502V377.502Z" fill="#F9A54B" fill-opacity="0.1" stroke="#F9A54B" stroke-opacity="0.3" stroke-width="3" stroke-miterlimit="10"/>
<path d="M1169.55 600.596L1414.46 459.236C1415.42 458.679 1416.23 457.877 1416.78 456.911C1417.34 455.945 1417.64 454.849 1417.64 453.733C1417.64 452.617 1417.34 451.521 1416.78 450.555C1416.23 449.589 1415.42 448.787 1414.46 448.23L1298.35 381.203C1297.38 380.645 1296.29 380.352 1295.17 380.352C1294.06 380.352 1292.96 380.645 1292 381.203L1047.11 522.562C1046.15 523.12 1045.34 523.922 1044.78 524.888C1044.23 525.854 1043.93 526.95 1043.93 528.066C1043.93 529.181 1044.23 530.278 1044.78 531.244C1045.34 532.21 1046.15 533.012 1047.11 533.57L1163.2 600.596C1164.17 601.154 1165.26 601.447 1166.38 601.447C1167.49 601.447 1168.59 601.154 1169.55 600.596V600.596Z" fill="#F9A54B" fill-opacity="0.1" stroke="#F9A54B" stroke-opacity="0.3" stroke-width="3" stroke-miterlimit="10"/>
<path d="M730.324 127.581L838.868 190.256C839.592 190.674 840.391 190.946 841.219 191.055C842.048 191.164 842.89 191.109 843.697 190.892C844.504 190.675 845.26 190.301 845.923 189.791C846.585 189.282 847.14 188.646 847.557 187.922L901.813 93.9251C902.423 92.8704 902.717 91.663 902.66 90.446C902.602 89.229 902.196 88.0542 901.49 87.0616C900.783 86.0689 899.806 85.3003 898.675 84.8474C897.544 84.3944 896.307 84.2763 895.111 84.5069L732.309 115.844C731.037 116.088 729.87 116.715 728.965 117.641C728.059 118.567 727.458 119.747 727.242 121.024C727.026 122.301 727.206 123.613 727.756 124.785C728.307 125.957 729.203 126.932 730.324 127.581Z" fill="#3A86FF" fill-opacity="0.1" stroke="#3A86FF" stroke-opacity="0.3" stroke-width="3" stroke-miterlimit="10"/>
<path d="M574.797 633.601L466.252 570.927C465.528 570.508 464.73 570.237 463.901 570.128C463.073 570.019 462.23 570.075 461.423 570.292C460.616 570.508 459.861 570.882 459.198 571.392C458.536 571.902 457.981 572.537 457.564 573.261L403.307 667.258C402.697 668.312 402.404 669.52 402.461 670.737C402.519 671.954 402.924 673.128 403.631 674.121C404.337 675.114 405.314 675.882 406.445 676.335C407.576 676.788 408.814 676.906 410.01 676.676L572.812 645.338C574.084 645.094 575.25 644.468 576.155 643.542C577.061 642.617 577.662 641.436 577.878 640.159C578.094 638.883 577.915 637.57 577.364 636.398C576.814 635.226 575.918 634.25 574.797 633.601Z" fill="#3A86FF" fill-opacity="0.1" stroke="#3A86FF" stroke-opacity="0.3" stroke-width="3" stroke-miterlimit="10"/>
<path d="M748.35 540.142C752.059 509.718 711.477 479.74 657.708 473.186C603.939 466.631 557.344 485.982 553.635 516.407C549.926 546.831 590.508 576.808 644.277 583.362C698.046 589.916 744.641 570.566 748.35 540.142Z" fill="#F85E60" fill-opacity="0.1" stroke="#F85E60" stroke-opacity="0.3" stroke-width="3" stroke-miterlimit="10"/>
<path d="M1084.91 632.077L976.321 569.449C974.863 568.608 973.131 568.38 971.505 568.815C969.879 569.25 968.493 570.312 967.649 571.768L913.377 665.765C912.767 666.819 912.473 668.027 912.53 669.244C912.588 670.461 912.994 671.636 913.7 672.628C914.406 673.621 915.383 674.39 916.514 674.842C917.645 675.295 918.883 675.414 920.079 675.183L1082.88 643.846C1084.16 643.616 1085.35 642.996 1086.27 642.07C1087.19 641.145 1087.8 639.959 1088.02 638.674C1088.24 637.388 1088.06 636.065 1087.51 634.885C1086.95 633.705 1086.05 632.724 1084.91 632.077Z" fill="#3A86FF" fill-opacity="0.1" stroke="#3A86FF" stroke-opacity="0.3" stroke-width="3" stroke-miterlimit="10"/>
<path d="M332.341 175.707L448.431 108.68C449.394 108.122 450.193 107.321 450.748 106.356C451.304 105.392 451.596 104.298 451.596 103.185C451.596 102.072 451.304 100.978 450.748 100.014C450.193 99.0493 449.394 98.248 448.431 97.6895L332.341 30.6625C331.375 30.1049 330.28 29.8117 329.164 29.8117C328.049 29.8117 326.954 30.1049 325.988 30.6625L209.898 97.6895C208.936 98.248 208.137 99.0493 207.581 100.014C207.026 100.978 206.733 102.072 206.733 103.185C206.733 104.298 207.026 105.392 207.581 106.356C208.137 107.321 208.936 108.122 209.898 108.68L325.988 175.707C326.954 176.265 328.049 176.558 329.164 176.558C330.28 176.558 331.375 176.265 332.341 175.707Z" fill="#26D7A0" fill-opacity="0.3" stroke="#26D7A0" stroke-width="3" stroke-miterlimit="10"/>
<path d="M1169.56 212.889L1285.65 145.863C1286.61 145.305 1287.41 144.503 1287.96 143.539C1288.52 142.574 1288.81 141.481 1288.81 140.368C1288.81 139.255 1288.52 138.161 1287.96 137.196C1287.41 136.232 1286.61 135.431 1285.65 134.872L1169.56 67.8296C1168.59 67.2719 1167.49 66.978 1166.38 66.978C1165.26 66.978 1164.17 67.2719 1163.2 67.8296L1047.11 134.872C1046.15 135.431 1045.35 136.232 1044.79 137.196C1044.24 138.161 1043.95 139.255 1043.95 140.368C1043.95 141.481 1044.24 142.574 1044.79 143.539C1045.35 144.503 1046.15 145.305 1047.11 145.863L1163.2 212.889C1164.17 213.447 1165.26 213.741 1166.38 213.741C1167.49 213.741 1168.59 213.447 1169.56 212.889Z" fill="#A776D5" fill-opacity="0.3" stroke="#A776D5" stroke-width="3" stroke-miterlimit="10"/>
<path d="M332.341 473.166L448.431 406.14C449.398 405.582 450.2 404.78 450.758 403.814C451.316 402.848 451.61 401.751 451.61 400.636C451.61 399.52 451.316 398.424 450.758 397.458C450.2 396.492 449.398 395.69 448.431 395.132L332.341 328.105C331.375 327.548 330.28 327.255 329.165 327.255C328.049 327.255 326.954 327.548 325.988 328.105L209.899 395.132C208.932 395.69 208.129 396.492 207.571 397.458C207.013 398.424 206.72 399.52 206.72 400.636C206.72 401.751 207.013 402.848 207.571 403.814C208.129 404.78 208.932 405.582 209.899 406.14L325.988 473.166C326.954 473.723 328.049 474.017 329.165 474.017C330.28 474.017 331.375 473.723 332.341 473.166Z" fill="#A776D5" fill-opacity="0.3" stroke="#A776D5" stroke-width="3" stroke-miterlimit="10"/>
<path d="M525.543 361.619L770.445 220.259C771.411 219.702 772.214 218.899 772.772 217.933C773.33 216.967 773.624 215.872 773.624 214.756C773.624 213.64 773.33 212.544 772.772 211.578C772.214 210.612 771.411 209.81 770.445 209.253L654.339 142.226C653.373 141.668 652.278 141.374 651.163 141.374C650.047 141.374 648.952 141.668 647.986 142.226L403.101 283.585C402.134 284.143 401.331 284.945 400.773 285.911C400.215 286.877 399.922 287.973 399.922 289.089C399.922 290.204 400.215 291.301 400.773 292.267C401.331 293.233 402.134 294.035 403.101 294.593L519.19 361.619C520.156 362.176 521.252 362.47 522.367 362.47C523.482 362.47 524.578 362.176 525.543 361.619V361.619Z" fill="#F9A54B" fill-opacity="0.3" stroke="#F9A54B" stroke-width="3" stroke-miterlimit="10"/>
<path d="M1169.55 584.713L1414.46 443.353C1415.42 442.796 1416.23 441.994 1416.78 441.028C1417.34 440.062 1417.64 438.966 1417.64 437.85C1417.64 436.734 1417.34 435.638 1416.78 434.672C1416.23 433.706 1415.42 432.904 1414.46 432.347L1298.35 365.32C1297.38 364.762 1296.29 364.469 1295.17 364.469C1294.06 364.469 1292.96 364.762 1292 365.32L1047.11 506.679C1046.15 507.237 1045.34 508.039 1044.78 509.005C1044.23 509.971 1043.93 511.067 1043.93 512.183C1043.93 513.298 1044.23 514.395 1044.78 515.361C1045.34 516.327 1046.15 517.129 1047.11 517.687L1163.2 584.713C1164.17 585.27 1165.26 585.564 1166.38 585.564C1167.49 585.564 1168.59 585.27 1169.55 584.713V584.713Z" fill="#F9A54B" fill-opacity="0.3" stroke="#F9A54B" stroke-width="3" stroke-miterlimit="10"/>
<path d="M407.469 148.404L506.961 205.837" stroke="white" stroke-width="3" stroke-miterlimit="10" stroke-linecap="round"/>
<path d="M433.202 88.8822C430.746 87.47 427.637 87.9685 425.745 90.0779L423.192 92.9243C422.952 93.1932 422.659 93.4099 422.331 93.5602C422.003 93.7105 421.647 93.7909 421.286 93.7975L411.661 93.9092C411.212 93.9175 410.773 94.0416 410.386 94.2698C409.999 94.498 409.678 94.8223 409.453 95.2113L404.689 103.534C404.51 103.847 404.268 104.119 403.978 104.332C403.688 104.546 403.357 104.696 403.005 104.773L394.015 106.727C393.479 106.842 392.995 107.126 392.633 107.537L386.899 113.89C386.562 114.277 386.117 114.553 385.622 114.683C385.323 114.761 385.014 114.785 384.709 114.753C384.309 114.712 383.919 114.593 383.52 114.537L374.195 113.238C373.824 113.186 373.46 113.079 373.087 113.038C372.737 113 372.381 113.032 372.041 113.136C371.519 113.296 371.061 113.615 370.731 114.048L367.013 118.925C366.774 119.247 366.463 119.509 366.105 119.689C365.746 119.869 365.35 119.963 364.949 119.963C364.548 119.963 364.152 119.869 363.793 119.689V119.689C363.087 119.334 362.529 118.723 361.842 118.333L290.728 77.8959C289.923 77.4383 289.286 76.6857 288.444 76.302C288.286 76.2302 288.121 76.1742 287.949 76.1353C287.314 75.9913 286.648 76.0951 286.086 76.4254C285.525 76.7556 285.111 77.287 284.929 77.9121C284.862 78.1411 284.828 78.3764 284.826 78.6111C284.821 79.4173 285.423 80.056 286.04 80.5743L344.932 129.997C345.542 130.509 346.124 131.151 346.096 131.946V131.946C346.081 132.351 345.971 132.746 345.774 133.1C345.578 133.453 345.299 133.756 344.963 133.981C344.627 134.206 344.242 134.347 343.84 134.395L337.201 135.237C336.793 135.284 336.403 135.428 336.063 135.657C335.723 135.887 335.443 136.195 335.247 136.555L330.197 145.815C330.022 146.13 329.783 146.406 329.497 146.625L321.715 152.66C321.53 152.79 321.334 152.902 321.128 152.994L311.868 156.917C311.661 156.997 311.467 157.11 311.295 157.251L310.778 157.703C307.682 160.41 308.166 165.36 311.728 167.416L326.227 175.786C328.084 176.858 330.371 176.858 332.227 175.786L449.006 108.36C453.01 106.048 453.004 100.267 448.996 97.9624L433.202 88.8822Z" fill="#26D7A0" fill-opacity="0.3" stroke="#26D7A0" stroke-width="3" stroke-miterlimit="10"/>
<path d="M730.324 111.698L838.868 174.373C839.592 174.791 840.391 175.063 841.219 175.172C842.048 175.281 842.89 175.226 843.697 175.009C844.504 174.792 845.26 174.418 845.923 173.908C846.585 173.399 847.14 172.763 847.557 172.038L901.813 78.042C902.423 76.9873 902.717 75.7799 902.66 74.5629C902.602 73.3459 902.196 72.1711 901.49 71.1785C900.783 70.1858 899.806 69.4172 898.675 68.9643C897.544 68.5113 896.307 68.3932 895.111 68.6238L732.309 99.9612C731.037 100.205 729.87 100.832 728.965 101.758C728.059 102.684 727.458 103.864 727.242 105.141C727.026 106.418 727.206 107.73 727.756 108.902C728.307 110.074 729.203 111.049 730.324 111.698Z" fill="#3A86FF" fill-opacity="0.3" stroke="#3A86FF" stroke-width="3" stroke-miterlimit="10"/>
<path d="M574.797 617.718L466.252 555.044C465.528 554.625 464.73 554.354 463.901 554.245C463.073 554.136 462.23 554.192 461.423 554.408C460.616 554.625 459.861 554.999 459.198 555.509C458.536 556.019 457.981 556.653 457.564 557.378L403.307 651.374C402.697 652.429 402.404 653.637 402.461 654.854C402.519 656.071 402.924 657.245 403.631 658.238C404.337 659.231 405.314 659.999 406.445 660.452C407.576 660.905 408.814 661.023 410.01 660.793L572.812 629.455C574.084 629.211 575.25 628.585 576.155 627.659C577.061 626.733 577.662 625.553 577.878 624.276C578.094 622.999 577.915 621.687 577.364 620.515C576.814 619.343 575.918 618.367 574.797 617.718Z" fill="#3A86FF" fill-opacity="0.3" stroke="#3A86FF" stroke-width="3" stroke-miterlimit="10"/>
<path d="M748.34 524.259C752.049 493.835 711.467 463.857 657.698 457.303C603.929 450.748 557.334 470.099 553.625 500.523C549.917 530.948 590.499 560.924 644.268 567.479C698.037 574.033 744.632 554.683 748.34 524.259Z" fill="#F85E60" fill-opacity="0.3" stroke="#F85E60" stroke-width="3" stroke-miterlimit="10"/>
<path d="M371.162 50.0397C372.769 36.8565 355.182 23.8666 331.881 21.0262C308.579 18.1858 288.387 26.5704 286.78 39.7537C285.173 52.9369 302.76 65.9261 326.061 68.7665C349.363 71.6069 369.555 63.2229 371.162 50.0397Z" fill="#EC3B00" fill-opacity="0.1" stroke="#EC3B00" stroke-opacity="0.3" stroke-width="3" stroke-miterlimit="10"/>
<path d="M371.156 42.0903C372.763 28.9071 355.176 15.9172 331.875 13.0768C308.574 10.2364 288.381 18.621 286.774 31.8042C285.167 44.9874 302.754 57.9767 326.056 60.8171C349.357 63.6575 369.549 55.2735 371.156 42.0903Z" fill="#EC3B00" fill-opacity="0.1" stroke="#EC3B00" stroke-opacity="0.3" stroke-width="3" stroke-miterlimit="10"/>
<path d="M371.166 34.1566C372.773 20.9734 355.187 7.98347 331.886 5.14306C308.584 2.30265 288.392 10.6873 286.785 23.8705C285.178 37.0537 302.765 50.043 326.066 52.8834C349.368 55.7238 369.559 47.3398 371.166 34.1566Z" fill="#EC3B00" fill-opacity="0.3" stroke="#EC3B00" stroke-width="3" stroke-miterlimit="10"/>
<path d="M343.639 30.8009C344.198 26.2208 338.086 21.7072 329.988 20.7201C321.89 19.7329 314.872 22.646 314.314 27.2262C313.755 31.8063 319.868 36.3192 327.966 37.3063C336.064 38.2935 343.081 35.3811 343.639 30.8009Z" fill="white" fill-opacity="0.3" stroke="white" stroke-width="3" stroke-miterlimit="10"/>
<path d="M920.477 59.2521L947.764 43.4961C955.491 39.0352 964.255 36.6869 973.177 36.6869C982.099 36.6869 990.863 39.0352 998.59 43.4961L1082.01 91.6542" stroke="white" stroke-width="3" stroke-miterlimit="10" stroke-linecap="round"/>
<path d="M733.31 464.748L768.126 444.656C775.854 440.196 782.272 433.779 786.734 426.052C791.196 418.324 793.545 409.559 793.545 400.636C793.545 391.713 791.196 382.947 786.734 375.22C782.272 367.492 775.854 361.076 768.126 356.616L668.841 299.309" stroke="white" stroke-width="3" stroke-miterlimit="10" stroke-linecap="round"/>
<path d="M727.147 170.72L770.207 145.847" stroke="white" stroke-width="3" stroke-miterlimit="10" stroke-linecap="round"/>
<path d="M1084.91 616.194L976.321 553.566C974.863 552.725 973.131 552.497 971.505 552.932C969.879 553.367 968.493 554.429 967.649 555.885L913.377 649.882C912.767 650.936 912.473 652.144 912.53 653.361C912.588 654.578 912.994 655.753 913.7 656.745C914.406 657.738 915.383 658.506 916.514 658.959C917.645 659.412 918.883 659.53 920.079 659.3L1082.88 627.963C1084.16 627.733 1085.35 627.113 1086.27 626.187C1087.19 625.262 1087.8 624.076 1088.02 622.79C1088.24 621.505 1088.06 620.182 1087.51 619.002C1086.95 617.822 1086.05 616.841 1084.91 616.194Z" fill="#3A86FF" fill-opacity="0.3" stroke="#3A86FF" stroke-width="3" stroke-miterlimit="10"/>
<path d="M897.081 667.67L855.103 691.892C851.842 693.78 848.141 694.775 844.373 694.775C840.605 694.775 836.905 693.78 833.644 691.892L747.764 642.321C744.503 640.435 741.794 637.725 739.911 634.462C738.028 631.198 737.037 627.497 737.037 623.73C737.037 619.962 738.028 616.261 739.911 612.998C741.794 609.734 744.503 607.025 747.764 605.139V605.139C751.03 603.257 753.743 600.547 755.628 597.284C757.514 594.02 758.507 590.317 758.507 586.548C758.507 582.778 757.514 579.076 755.628 575.812C753.743 572.548 751.03 569.839 747.764 567.956L737.806 562.207" stroke="white" stroke-width="3" stroke-miterlimit="10" stroke-linecap="round"/>
<path d="M1088.09 557.188L1045.03 582.045" stroke="white" stroke-width="3" stroke-miterlimit="10" stroke-linecap="round"/>
<path d="M404.229 357.299L447.288 332.426" stroke="white" stroke-width="3" stroke-miterlimit="10" stroke-linecap="round"/>
<path d="M532.262 580.981L575.321 556.123" stroke="white" stroke-width="3" stroke-miterlimit="10" stroke-linecap="round"/>
<path d="M731.197 260.936L947.764 385.968C955.49 390.429 964.255 392.777 973.176 392.777C982.098 392.777 990.863 390.429 998.589 385.968L1012.17 378.122C1019.9 373.661 1028.66 371.312 1037.58 371.312C1046.5 371.312 1055.27 373.661 1063 378.122L1146.41 426.295" stroke="white" stroke-width="3" stroke-miterlimit="10" stroke-linecap="round"/>
<path d="M1084.98 187.365L1005.37 233.315C1002.11 235.201 999.402 237.912 997.519 241.175C995.636 244.438 994.645 248.139 994.645 251.907C994.645 255.674 995.636 259.375 997.519 262.639C999.402 265.902 1002.11 268.612 1005.37 270.497L1069.78 307.68C1073.04 309.565 1075.75 312.276 1077.63 315.539C1079.51 318.802 1080.5 322.504 1080.5 326.271C1080.5 330.039 1079.51 333.74 1077.63 337.003C1075.75 340.266 1073.04 342.977 1069.78 344.862V344.862C1066.52 346.748 1063.81 349.459 1061.93 352.722C1060.04 355.985 1059.05 359.686 1059.05 363.454C1059.05 367.221 1060.04 370.922 1061.93 374.186C1063.81 377.449 1066.52 380.159 1069.78 382.044L1101.97 400.644" stroke="white" stroke-width="3" stroke-miterlimit="10" stroke-linecap="round"/>
<path d="M380.546 668.433L354.577 683.426C346.851 687.887 338.086 690.236 329.164 690.236C320.243 690.236 311.478 687.887 303.751 683.426L147.795 593.385C140.067 588.924 133.65 582.508 129.188 574.781C124.726 567.054 122.377 558.288 122.377 549.365C122.377 540.442 124.726 531.676 129.188 523.949C133.65 516.222 140.067 509.806 147.795 505.345L247.033 448.055" stroke="white" stroke-width="3" stroke-miterlimit="10" stroke-linecap="round"/>
<path d="M616.521 198.198L648.717 179.599L616.521 161.015L584.311 179.599L616.521 198.198Z" fill="white"/>
<path d="M616.522 168.592L635.582 179.598L616.522 190.606L597.463 179.598L616.522 168.592ZM616.522 164.923L614.934 165.844L595.874 176.851L591.109 179.598L595.874 182.346L614.934 193.353L616.522 194.275L618.111 193.353L637.17 182.346L641.935 179.598L637.17 176.851L618.111 165.844L616.522 164.923Z" fill="#E6E6E6"/>
<path d="M616.521 198.198L648.717 179.599V207.871L616.521 226.47V198.198Z" fill="white" fill-opacity="0.3"/>
<path d="M616.521 198.198L584.311 179.599V207.871L616.521 226.47V198.198Z" fill="white" fill-opacity="0.5"/>
<path d="M680.912 198.198L713.123 179.599L680.912 161.015L648.717 179.599L680.912 198.198Z" fill="white"/>
<path d="M680.895 168.592L699.955 179.598L680.895 190.606L661.836 179.598L680.895 168.592ZM680.895 164.923L679.307 165.844L660.247 176.851L655.482 179.598L660.247 182.346L679.307 193.353L680.895 194.275L682.484 193.353L701.543 182.346L706.308 179.598L701.543 176.851L682.484 165.844L680.895 164.923Z" fill="#E6E6E6"/>
<path d="M680.912 198.198L713.123 179.599V207.871L680.912 226.47V198.198Z" fill="white" fill-opacity="0.3"/>
<path d="M680.912 198.198L648.717 179.599V207.871L680.912 226.47V198.198Z" fill="white" fill-opacity="0.5"/>
<path d="M648.717 151.327L680.912 132.728L648.717 114.144L616.521 132.728L648.717 151.327Z" fill="white"/>
<path d="M648.732 121.737L667.792 132.728L648.732 143.735L629.673 132.728L648.732 121.737ZM648.732 118.068L647.144 118.973L628.084 129.98L623.319 132.728L628.084 135.491L647.144 146.498L648.732 147.403L650.321 146.498L669.38 135.491L674.145 132.728L669.38 129.98L650.321 118.973L648.732 118.068Z" fill="#E6E6E6"/>
<path d="M648.717 151.327L680.912 132.728V161.015L648.717 179.599V151.327Z" fill="white" fill-opacity="0.3"/>
<path d="M648.717 151.327L616.521 132.728V161.015L648.717 179.599V151.327Z" fill="white" fill-opacity="0.5"/>
<path d="M490.298 236.301V261.921C490.168 264.151 490.722 266.367 491.886 268.274C497.144 277.391 513.757 283.379 528.974 281.615C540.711 280.265 548.192 274.691 548.573 268.02V240.51L490.298 236.301Z" fill="url(#paint0_linear_218_477)"/>
<path d="M548.265 242.455C549.373 233.365 537.248 224.407 521.182 222.449C505.117 220.49 491.195 226.273 490.087 235.363C488.978 244.454 501.104 253.411 517.169 255.369C533.235 257.328 547.157 251.546 548.265 242.455Z" fill="white"/>
<path d="M516.396 228.423C526.132 228.423 535.789 231.854 539.124 236.778C542.905 242.353 537.122 247.753 526.211 248.833C524.924 248.96 523.622 249.023 522.335 249.023C512.599 249.023 502.942 245.593 499.607 240.669C495.826 235.078 501.608 229.694 512.52 228.614C513.807 228.487 515.109 228.423 516.396 228.423ZM516.396 225.247C514.995 225.244 513.595 225.312 512.202 225.453C504.054 226.263 498.161 229.281 496.065 233.744C495.422 235.143 495.167 236.689 495.326 238.22C495.486 239.751 496.054 241.212 496.971 242.448C500.862 248.182 511.265 252.2 522.383 252.2C523.797 252.2 525.21 252.121 526.576 251.994C534.74 251.184 540.617 248.166 542.714 243.703C543.356 242.304 543.611 240.758 543.452 239.227C543.293 237.696 542.725 236.236 541.808 234.999C537.917 229.266 527.514 225.247 516.396 225.247Z" fill="#E6E6E6"/>
<path d="M1288.82 420.974L1321.02 402.375L1288.82 383.792L1256.61 402.375L1288.82 420.974Z" fill="white"/>
<path d="M1288.82 391.384L1307.88 402.391L1288.82 413.382L1269.76 402.391L1288.82 391.384ZM1288.82 387.715L1287.23 388.62L1268.17 399.627L1263.41 402.391L1268.17 405.138L1287.23 416.146L1288.82 417.051L1290.41 416.146L1309.47 405.138L1314.23 402.391L1309.47 399.627L1290.41 388.62L1288.82 387.715Z" fill="#E6E6E6"/>
<path d="M1288.82 420.974L1321.02 402.375V430.663L1288.82 449.246V420.974Z" fill="white" fill-opacity="0.3"/>
<path d="M1288.82 420.974L1256.61 402.375V430.663L1288.82 449.246V420.974Z" fill="white" fill-opacity="0.5"/>
<path d="M625.194 466.559V492.162C625.053 494.393 625.608 496.613 626.783 498.515C632.056 507.648 648.653 513.621 663.869 511.858C675.623 510.508 683.088 504.932 683.469 498.277V470.752L625.194 466.559Z" fill="url(#paint1_linear_218_477)"/>
<path d="M683.215 472.722C684.323 463.632 672.198 454.674 656.133 452.716C640.067 450.757 626.145 456.54 625.037 465.631C623.929 474.721 636.054 483.678 652.12 485.637C668.185 487.595 682.106 481.813 683.215 472.722Z" fill="white"/>
<path d="M651.353 458.68C661.074 458.68 670.731 462.095 674.066 467.019C677.847 472.61 672.065 478.011 661.153 479.075C659.882 479.202 658.58 479.265 657.277 479.265C647.557 479.265 637.884 475.834 634.549 470.911C630.768 465.336 636.55 459.936 647.478 458.855C648.748 458.728 650.051 458.68 651.353 458.68ZM651.353 455.504C649.94 455.504 648.526 455.504 647.16 455.694C638.996 456.504 633.104 459.523 631.023 463.986C630.377 465.384 630.12 466.93 630.279 468.462C630.439 469.994 631.008 471.454 631.928 472.69C635.804 478.439 646.223 482.442 657.341 482.442C658.741 482.446 660.141 482.376 661.534 482.235C669.698 481.441 675.575 478.408 677.672 473.944C678.318 472.546 678.574 471 678.415 469.468C678.256 467.936 677.686 466.476 676.766 465.241C672.875 459.507 662.471 455.504 651.353 455.504Z" fill="#E6E6E6"/>
<path d="M592.618 491.4V517.035C592.475 519.266 593.03 521.487 594.206 523.388C599.463 532.521 616.077 538.493 631.293 536.746C643.031 535.38 650.512 529.821 650.893 523.15V495.625L592.618 491.4Z" fill="url(#paint2_linear_218_477)"/>
<path d="M650.629 497.55C651.737 488.46 639.611 479.503 623.546 477.544C607.48 475.586 593.559 481.368 592.451 490.458C591.343 499.549 603.467 508.506 619.533 510.464C635.598 512.423 649.52 506.641 650.629 497.55Z" fill="white"/>
<path d="M618.761 483.522C628.497 483.522 638.154 486.953 641.49 491.877C645.27 497.452 639.489 502.852 628.577 503.932C627.29 504.059 625.988 504.123 624.702 504.123C614.981 504.123 605.308 500.691 601.973 495.768C598.193 490.177 603.974 484.777 614.886 483.713C616.172 483.586 617.474 483.522 618.761 483.522ZM618.761 480.345C617.366 480.341 615.972 480.41 614.584 480.551C606.42 481.346 600.527 484.38 598.431 488.843C597.788 490.242 597.533 491.787 597.693 493.318C597.852 494.85 598.419 496.31 599.336 497.547C603.227 503.28 613.631 507.299 624.749 507.299C626.163 507.299 627.576 507.22 628.942 507.093C637.106 506.283 642.983 503.265 645.08 498.802C645.726 497.403 645.982 495.857 645.823 494.325C645.663 492.793 645.094 491.333 644.174 490.098C640.283 484.348 629.879 480.345 618.761 480.345Z" fill="#E6E6E6"/>
<path d="M650.909 498.611V524.214C650.781 526.444 651.335 528.66 652.497 530.568C657.77 539.7 674.384 545.673 689.6 543.925C701.337 542.56 708.818 537 709.199 530.329V502.804L650.909 498.611Z" fill="url(#paint3_linear_218_477)"/>
<path d="M708.933 504.76C710.042 495.669 697.916 486.712 681.85 484.754C665.785 482.795 651.864 488.577 650.755 497.668C649.647 506.759 661.772 515.715 677.838 517.674C693.903 519.632 707.825 513.85 708.933 504.76Z" fill="white"/>
<path d="M677.069 490.733C686.805 490.733 696.462 494.164 699.797 499.088C703.578 504.663 697.796 510.063 686.885 511.143C685.598 511.27 684.296 511.317 683.009 511.317C673.289 511.317 663.616 507.902 660.28 502.979C656.5 497.388 662.282 491.988 673.193 490.924C674.48 490.797 675.782 490.733 677.069 490.733ZM677.069 487.556C675.674 487.552 674.279 487.621 672.892 487.762C664.712 488.557 658.835 491.591 656.739 496.054C656.096 497.453 655.841 498.998 656 500.529C656.159 502.061 656.727 503.521 657.644 504.758C661.535 510.492 671.938 514.494 683.057 514.494C684.47 514.494 685.884 514.494 687.25 514.303C695.414 513.493 701.291 510.476 703.387 506.013C704.03 504.614 704.285 503.068 704.126 501.537C703.966 500.006 703.398 498.545 702.482 497.309C698.59 491.559 688.187 487.556 677.069 487.556Z" fill="#E6E6E6"/>
<path d="M1337.12 449.405L1347.84 418.433V446.705L1337.12 477.693V449.405Z" fill="white" fill-opacity="0.3"/>
<path d="M1337.12 449.405L1294.19 424.627V452.899L1337.12 477.693V449.405Z" fill="white" fill-opacity="0.5"/>
<path d="M1294.19 424.627L1337.12 449.405L1347.84 418.433L1294.19 424.627Z" fill="white"/>
<path d="M1337.87 425.755L1333.1 439.605L1313.92 428.487L1337.88 425.707L1337.87 425.755ZM1342.54 421.975L1337.52 422.562L1313.55 425.326L1304.02 426.422L1312.34 431.187L1331.53 442.305L1334.85 444.227L1336.11 440.59L1340.87 426.756L1342.46 421.991L1342.54 421.975Z" fill="#E6E6E6"/>
<path d="M869.587 94.084L880.324 63.0961V91.368L869.587 122.356V94.084Z" fill="white" fill-opacity="0.3"/>
<path d="M869.587 94.0841L826.655 69.2906V97.5625L869.587 122.356V94.0841Z" fill="white" fill-opacity="0.5"/>
<path d="M826.655 69.2905L869.587 94.084L880.324 63.0961L826.655 69.2905Z" fill="white"/>
<path d="M870.349 70.4338L865.584 84.2679L846.414 73.1498L870.381 70.3865L870.349 70.4338ZM875.035 66.6538L870.016 67.2254L846.048 69.9894L836.519 71.1016L844.842 75.8665L864.012 86.9847L867.348 88.9065L868.603 85.2847L873.368 71.4351L874.956 66.6701L875.035 66.6538Z" fill="#E6E6E6"/>
<defs>
<linearGradient id="paint0_linear_218_477" x1="490.203" y1="259.125" x2="548.509" y2="259.125" gradientUnits="userSpaceOnUse">
<stop stop-color="white" stop-opacity="0.5"/>
<stop offset="1" stop-color="white" stop-opacity="0.3"/>
</linearGradient>
<linearGradient id="paint1_linear_218_477" x1="-311033" y1="335979" x2="-308893" y2="335979" gradientUnits="userSpaceOnUse">
<stop stop-color="white" stop-opacity="0.5"/>
<stop offset="1" stop-color="white" stop-opacity="0.3"/>
</linearGradient>
<linearGradient id="paint2_linear_218_477" x1="-312265" y1="337035" x2="-310125" y2="337035" gradientUnits="userSpaceOnUse">
<stop stop-color="white" stop-opacity="0.5"/>
<stop offset="1" stop-color="white" stop-opacity="0.3"/>
</linearGradient>
<linearGradient id="paint3_linear_218_477" x1="-310127" y1="337015" x2="-307987" y2="337015" gradientUnits="userSpaceOnUse">
<stop stop-color="white" stop-opacity="0.5"/>
<stop offset="1" stop-color="white" stop-opacity="0.3"/>
</linearGradient>
</defs>
</svg>
