<svg width="576" height="374" viewBox="0 0 576 374" fill="none" xmlns="http://www.w3.org/2000/svg">
<g clip-path="url(#clip0_210_262)">
<rect x="53.5" width="522" height="348" rx="16" fill="#0E1924"/>
<rect width="522" height="48" transform="translate(53.5)" fill="#091017"/>
<circle cx="77.5" cy="24" r="8" fill="#EC3B00" fill-opacity="0.3" stroke="#EC3B00" stroke-width="3" stroke-miterlimit="10"/>
<circle cx="103.5" cy="24" r="8" fill="#F9A54B" fill-opacity="0.3" stroke="#F9A54B" stroke-width="3" stroke-miterlimit="10"/>
<circle cx="129.5" cy="24" r="8" fill="#26D7A0" fill-opacity="0.3" stroke="#26D7A0" stroke-width="3" stroke-miterlimit="10"/>
<path d="M89.7614 100.227C89.7614 98.1392 91.0824 96.946 92.8977 96.946C94.6534 96.946 95.7017 98.0625 95.7017 99.9801V108H98.25V99.6733C98.25 96.4091 96.4602 94.7386 93.767 94.7386C91.7301 94.7386 90.5028 95.625 89.8892 97.0398H89.7273V90.5455H87.2131V108H89.7614V100.227ZM107.071 94.9091H104.387V91.7727H101.838V94.9091H99.9208V96.9545H101.838V104.685C101.83 107.062 103.645 108.213 105.657 108.17C106.466 108.162 107.012 108.009 107.31 107.898L106.85 105.793C106.679 105.827 106.364 105.903 105.955 105.903C105.128 105.903 104.387 105.631 104.387 104.156V96.9545H107.071V94.9091ZM115.311 94.9091H112.626V91.7727H110.078V94.9091H108.16V96.9545H110.078V104.685C110.07 107.062 111.885 108.213 113.896 108.17C114.706 108.162 115.251 108.009 115.55 107.898L115.089 105.793C114.919 105.827 114.604 105.903 114.195 105.903C113.368 105.903 112.626 105.631 112.626 104.156V96.9545H115.311V94.9091ZM117.44 112.909H119.988V105.963H120.142C120.602 106.798 121.539 108.256 123.926 108.256C127.096 108.256 129.397 105.716 129.397 101.48C129.397 97.2358 127.062 94.7386 123.9 94.7386C121.471 94.7386 120.593 96.2216 120.142 97.0312H119.929V94.9091H117.44V112.909ZM119.937 101.455C119.937 98.7188 121.13 96.9034 123.355 96.9034C125.664 96.9034 126.823 98.8551 126.823 101.455C126.823 104.08 125.63 106.082 123.355 106.082C121.164 106.082 119.937 104.207 119.937 101.455ZM141.372 98.1051C140.844 96.0682 139.25 94.7386 136.42 94.7386C133.463 94.7386 131.366 96.2983 131.366 98.6165C131.366 100.474 132.491 101.71 134.946 102.256L137.162 102.741C138.423 103.023 139.011 103.585 139.011 104.403C139.011 105.418 137.929 106.21 136.258 106.21C134.733 106.21 133.753 105.554 133.446 104.267L130.983 104.642C131.409 106.96 133.335 108.264 136.276 108.264C139.437 108.264 141.628 106.585 141.628 104.216C141.628 102.366 140.452 101.224 138.048 100.67L135.969 100.193C134.528 99.8523 133.906 99.3665 133.915 98.4801C133.906 97.4744 134.997 96.7585 136.446 96.7585C138.031 96.7585 138.764 97.6364 139.062 98.5142L141.372 98.1051ZM145.419 97.0909C146.348 97.0909 147.123 96.3324 147.123 95.3864C147.123 94.4574 146.348 93.6903 145.419 93.6903C144.481 93.6903 143.714 94.4574 143.714 95.3864C143.714 96.3324 144.481 97.0909 145.419 97.0909ZM145.419 105.835C146.348 105.835 147.123 105.077 147.123 104.131C147.123 103.202 146.348 102.435 145.419 102.435C144.481 102.435 143.714 103.202 143.714 104.131C143.714 105.077 144.481 105.835 145.419 105.835ZM156.494 89.7273H154.219L148.594 110.625H150.869L156.494 89.7273ZM164.617 89.7273H162.341L156.716 110.625H158.992L164.617 89.7273ZM166.81 108.162C167.739 108.162 168.514 107.403 168.514 106.457C168.514 105.528 167.739 104.761 166.81 104.761C165.872 104.761 165.105 105.528 165.105 106.457C165.105 107.403 165.872 108.162 166.81 108.162ZM172.916 108.162C173.845 108.162 174.621 107.403 174.621 106.457C174.621 105.528 173.845 104.761 172.916 104.761C171.979 104.761 171.212 105.528 171.212 106.457C171.212 107.403 171.979 108.162 172.916 108.162ZM179.023 108.162C179.952 108.162 180.728 107.403 180.728 106.457C180.728 105.528 179.952 104.761 179.023 104.761C178.086 104.761 177.319 105.528 177.319 106.457C177.319 107.403 178.086 108.162 179.023 108.162ZM185.13 108.162C186.059 108.162 186.835 107.403 186.835 106.457C186.835 105.528 186.059 104.761 185.13 104.761C184.193 104.761 183.426 105.528 183.426 106.457C183.426 107.403 184.193 108.162 185.13 108.162ZM191.237 108.162C192.166 108.162 192.942 107.403 192.942 106.457C192.942 105.528 192.166 104.761 191.237 104.761C190.3 104.761 189.533 105.528 189.533 106.457C189.533 107.403 190.3 108.162 191.237 108.162ZM197.344 108.162C198.273 108.162 199.048 107.403 199.048 106.457C199.048 105.528 198.273 104.761 197.344 104.761C196.406 104.761 195.639 105.528 195.639 106.457C195.639 107.403 196.406 108.162 197.344 108.162ZM208.42 89.7273H206.144L200.519 110.625H202.795L208.42 89.7273ZM209.894 108H212.443V99.929C212.443 98.1648 213.678 96.9375 215.127 96.9375C216.542 96.9375 217.522 97.875 217.522 99.2983V108H220.062V99.6562C220.062 98.0795 221.025 96.9375 222.687 96.9375C224.034 96.9375 225.141 97.6875 225.141 99.4602V108H227.69V99.2216C227.69 96.2301 226.019 94.7386 223.65 94.7386C221.766 94.7386 220.352 95.642 219.721 97.0398H219.585C219.014 95.608 217.812 94.7386 216.065 94.7386C214.335 94.7386 213.048 95.5994 212.502 97.0398H212.34V94.9091H209.894V108ZM236.057 108.264C238.912 108.264 240.932 106.858 241.512 104.727L239.1 104.293C238.64 105.528 237.532 106.159 236.083 106.159C233.901 106.159 232.435 104.744 232.367 102.222H241.674V101.318C241.674 96.5881 238.844 94.7386 235.878 94.7386C232.231 94.7386 229.827 97.517 229.827 101.54C229.827 105.605 232.197 108.264 236.057 108.264ZM232.375 100.312C232.478 98.4545 233.824 96.8438 235.895 96.8438C237.873 96.8438 239.168 98.3097 239.177 100.312H232.375ZM249.922 94.9091H247.237V91.7727H244.689V94.9091H242.771V96.9545H244.689V104.685C244.681 107.062 246.496 108.213 248.507 108.17C249.317 108.162 249.862 108.009 250.161 107.898L249.7 105.793C249.53 105.827 249.215 105.903 248.806 105.903C247.979 105.903 247.237 105.631 247.237 104.156V96.9545H249.922V94.9091ZM252.051 108H254.599V100.006C254.599 98.2926 255.92 97.0568 257.727 97.0568C258.255 97.0568 258.852 97.1506 259.057 97.2102V94.7727C258.801 94.7386 258.298 94.7131 257.974 94.7131C256.44 94.7131 255.128 95.5824 254.65 96.9886H254.514V94.9091H252.051V108ZM260.572 108H263.12V94.9091H260.572V108ZM261.859 92.8892C262.737 92.8892 263.47 92.2074 263.47 91.3722C263.47 90.5369 262.737 89.8466 261.859 89.8466C260.972 89.8466 260.248 90.5369 260.248 91.3722C260.248 92.2074 260.972 92.8892 261.859 92.8892ZM271.373 108.264C274.466 108.264 276.469 106.406 276.75 103.858H274.27C273.946 105.273 272.847 106.108 271.39 106.108C269.233 106.108 267.844 104.31 267.844 101.455C267.844 98.6506 269.259 96.8864 271.39 96.8864C273.009 96.8864 273.998 97.9091 274.27 99.1364H276.75C276.478 96.4943 274.321 94.7386 271.347 94.7386C267.657 94.7386 265.27 97.517 265.27 101.514C265.27 105.46 267.571 108.264 271.373 108.264ZM288.595 98.1051C288.067 96.0682 286.473 94.7386 283.644 94.7386C280.686 94.7386 278.59 96.2983 278.59 98.6165C278.59 100.474 279.715 101.71 282.169 102.256L284.385 102.741C285.646 103.023 286.234 103.585 286.234 104.403C286.234 105.418 285.152 106.21 283.482 106.21C281.956 106.21 280.976 105.554 280.669 104.267L278.206 104.642C278.632 106.96 280.558 108.264 283.499 108.264C286.661 108.264 288.851 106.585 288.851 104.216C288.851 102.366 287.675 101.224 285.271 100.67L283.192 100.193C281.751 99.8523 281.129 99.3665 281.138 98.4801C281.129 97.4744 282.22 96.7585 283.669 96.7585C285.254 96.7585 285.987 97.6364 286.286 98.5142L288.595 98.1051ZM297.61 89.7273H295.335L289.71 110.625H291.985L297.61 89.7273ZM299.803 108.162C300.732 108.162 301.508 107.403 301.508 106.457C301.508 105.528 300.732 104.761 299.803 104.761C298.866 104.761 298.099 105.528 298.099 106.457C298.099 107.403 298.866 108.162 299.803 108.162ZM305.91 108.162C306.839 108.162 307.615 107.403 307.615 106.457C307.615 105.528 306.839 104.761 305.91 104.761C304.973 104.761 304.206 105.528 304.206 106.457C304.206 107.403 304.973 108.162 305.91 108.162ZM312.017 108.162C312.946 108.162 313.722 107.403 313.722 106.457C313.722 105.528 312.946 104.761 312.017 104.761C311.08 104.761 310.312 105.528 310.312 106.457C310.312 107.403 311.08 108.162 312.017 108.162ZM318.124 108.162C319.053 108.162 319.828 107.403 319.828 106.457C319.828 105.528 319.053 104.761 318.124 104.761C317.186 104.761 316.419 105.528 316.419 106.457C316.419 107.403 317.186 108.162 318.124 108.162ZM324.231 108.162C325.16 108.162 325.935 107.403 325.935 106.457C325.935 105.528 325.16 104.761 324.231 104.761C323.293 104.761 322.526 105.528 322.526 106.457C322.526 107.403 323.293 108.162 324.231 108.162ZM330.338 108.162C331.267 108.162 332.042 107.403 332.042 106.457C332.042 105.528 331.267 104.761 330.338 104.761C329.4 104.761 328.633 105.528 328.633 106.457C328.633 107.403 329.4 108.162 330.338 108.162ZM341.413 89.7273H339.138L333.513 110.625H335.788L341.413 89.7273ZM345.726 108H348.317L350.976 98.5483H351.172L353.831 108H356.431L360.274 94.9091H357.641L355.093 104.48H354.965L352.408 94.9091H349.774L347.201 104.523H347.073L344.507 94.9091H341.874L345.726 108ZM362.003 108H364.551V100.006C364.551 98.2926 365.872 97.0568 367.679 97.0568C368.207 97.0568 368.804 97.1506 369.008 97.2102V94.7727C368.753 94.7386 368.25 94.7131 367.926 94.7131C366.392 94.7131 365.079 95.5824 364.602 96.9886H364.466V94.9091H362.003V108ZM370.524 108H373.072V94.9091H370.524V108ZM371.811 92.8892C372.688 92.8892 373.421 92.2074 373.421 91.3722C373.421 90.5369 372.688 89.8466 371.811 89.8466C370.924 89.8466 370.2 90.5369 370.2 91.3722C370.2 92.2074 370.924 92.8892 371.811 92.8892ZM381.921 94.9091H379.236V91.7727H376.688V94.9091H374.77V96.9545H376.688V104.685C376.68 107.062 378.495 108.213 380.506 108.17C381.316 108.162 381.861 108.009 382.16 107.898L381.699 105.793C381.529 105.827 381.214 105.903 380.805 105.903C379.978 105.903 379.236 105.631 379.236 104.156V96.9545H381.921V94.9091ZM389.551 108.264C392.406 108.264 394.426 106.858 395.006 104.727L392.594 104.293C392.134 105.528 391.026 106.159 389.577 106.159C387.395 106.159 385.929 104.744 385.861 102.222H395.168V101.318C395.168 96.5881 392.338 94.7386 389.372 94.7386C385.725 94.7386 383.321 97.517 383.321 101.54C383.321 105.605 385.691 108.264 389.551 108.264ZM385.87 100.312C385.972 98.4545 387.318 96.8438 389.389 96.8438C391.367 96.8438 392.662 98.3097 392.671 100.312H385.87Z" fill="#939BA3"/>
<rect width="522" height="56" transform="translate(53.5 292)" fill="#172330"/>
<g clip-path="url(#clip1_210_262)">
<path d="M558.356 318.508H542.571C542.112 318.508 541.739 318.88 541.739 319.34V330.856C541.739 331.316 542.112 331.688 542.571 331.688H558.356C558.815 331.688 559.188 331.316 559.188 330.856V319.34C559.188 318.88 558.815 318.508 558.356 318.508Z" fill="#F9A54B"/>
<path d="M557.123 318.518H553.795V314.982C553.795 314.1 553.444 313.253 552.82 312.629C552.196 312.005 551.35 311.654 550.467 311.654C549.585 311.654 548.738 312.005 548.114 312.629C547.49 313.253 547.139 314.1 547.139 314.982V318.518H543.812V314.982C543.812 313.217 544.513 311.524 545.761 310.276C547.009 309.028 548.702 308.327 550.467 308.327C552.232 308.327 553.925 309.028 555.174 310.276C556.422 311.524 557.123 313.217 557.123 314.982V318.518Z" fill="#F9A54B"/>
</g>
</g>
<rect x="2" y="192.941" width="178.947" height="178.947" rx="89.4737" fill="#EC3B00" fill-opacity="0.6"/>
<path d="M91.1674 356.381C78.1263 356.381 67.5469 347.589 67.5469 336.907H114.803C114.803 347.663 104.223 356.381 91.1674 356.381Z" fill="white" fill-opacity="0.5" stroke="white" stroke-width="3" stroke-linejoin="round"/>
<path d="M130.189 330.46H52.1475V316.32H130.189V330.46Z" fill="white" fill-opacity="0.5" stroke="white" stroke-width="3" stroke-linejoin="round"/>
<path d="M129.91 309.023H52.3671L51.6052 308.144C43.6047 298.443 41.7291 293.374 39.8828 288.216C39.8828 288.04 49.5684 290.194 56.4699 291.747C56.4699 291.747 60.016 292.568 65.2617 293.52C60.2345 287.732 57.4207 280.35 57.3198 272.684C57.3198 256.038 70.0825 241.488 65.4815 229.736C69.9653 230.102 74.7568 239.202 75.0792 253.415C79.8414 246.836 81.8488 234.806 81.8488 227.435C81.8488 219.801 86.8748 210.936 91.9007 210.628C87.4169 217.955 93.073 224.358 98.0843 240.081C99.9745 245.942 99.7254 255.921 101.176 262.221C101.66 249.136 103.916 229.985 112.224 223.435C108.561 231.743 112.767 242.132 115.638 247.129C120.283 255.188 123.097 261.298 123.097 272.845C123.072 280.45 120.345 287.798 115.404 293.579C120.899 292.538 124.679 291.615 124.679 291.615L142.483 288.142C140.065 296.027 135.748 303.197 129.91 309.023V309.023Z" fill="white" fill-opacity="0.5" stroke="white" stroke-width="3" stroke-linejoin="round"/>
<rect x="2" y="192.941" width="178.947" height="178.947" rx="89.4737" stroke="#EC3B00" stroke-width="3" stroke-miterlimit="10"/>
<defs>
<clipPath id="clip0_210_262">
<rect x="53.5" width="522" height="348" rx="16" fill="white"/>
</clipPath>
<clipPath id="clip1_210_262">
<rect width="18.0723" height="24" fill="white" transform="translate(541.428 308)"/>
</clipPath>
</defs>
</svg>
