<svg width="574" height="465" viewBox="0 0 574 465" fill="none" xmlns="http://www.w3.org/2000/svg">
<g clip-path="url(#clip0_210_283)">
<rect x="0.5" y="0.88855" width="573" height="464" rx="16" fill="#0E1924"/>
<rect width="573" height="48" transform="translate(0.5 0.88855)" fill="#091017"/>
<circle cx="24.5" cy="24.8885" r="8" fill="#EC3B00" fill-opacity="0.3" stroke="#EC3B00" stroke-width="3" stroke-miterlimit="10"/>
<circle cx="50.5" cy="24.8885" r="8" fill="#F9A54B" fill-opacity="0.3" stroke="#F9A54B" stroke-width="3" stroke-miterlimit="10"/>
<circle cx="76.5" cy="24.8885" r="8" fill="#26D7A0" fill-opacity="0.3" stroke="#26D7A0" stroke-width="3" stroke-miterlimit="10"/>
<path d="M27.6108 94.8885L28.4744 92.2351H32.6733L33.5369 94.8885H36.1733L32.1619 83.2522H28.9915L24.9744 94.8885H27.6108ZM29.0994 90.3147L30.5312 85.9113H30.6222L32.054 90.3147H29.0994ZM42.6864 94.8885C46.2318 94.8885 48.3795 92.6954 48.3795 89.059C48.3795 85.434 46.2318 83.2522 42.7205 83.2522H38.5614V94.8885H42.6864ZM41.0216 92.7806V85.3601H42.5898C44.7716 85.3601 45.925 86.4738 45.925 89.059C45.925 91.6556 44.7716 92.7806 42.5841 92.7806H41.0216ZM55.3145 94.8885C58.8599 94.8885 61.0077 92.6954 61.0077 89.059C61.0077 85.434 58.8599 83.2522 55.3486 83.2522H51.1895V94.8885H55.3145ZM53.6497 92.7806V85.3601H55.2179C57.3997 85.3601 58.5531 86.4738 58.5531 89.059C58.5531 91.6556 57.3997 92.7806 55.2122 92.7806H53.6497ZM68.3207 94.8885H76.1844V92.8601H70.781V90.0817H75.7582V88.0533H70.781V85.2806H76.1616V83.2522H68.3207V94.8885ZM81.4119 83.2522H78.6222L82.196 89.0704L78.554 94.8885H81.3722L83.7585 90.917H83.8494L86.2358 94.8885H89.0653L85.4347 89.0704L88.9858 83.2522H86.2074L83.8494 87.2181H83.7585L81.4119 83.2522ZM91.5301 94.8885H93.9903V91.1158H96.0585C98.7347 91.1158 100.291 89.5192 100.291 87.1954C100.291 84.8829 98.7631 83.2522 96.121 83.2522H91.5301V94.8885ZM93.9903 89.1442V85.2635H95.6494C97.0699 85.2635 97.7574 86.0363 97.7574 87.1954C97.7574 88.3488 97.0699 89.1442 95.6608 89.1442H93.9903ZM102.877 94.8885H105.337V90.7635H107.133L109.337 94.8885H112.053L109.582 90.3658C110.905 89.7976 111.638 88.6442 111.638 87.0533C111.638 84.7408 110.11 83.2522 107.468 83.2522H102.877V94.8885ZM105.337 88.7863V85.2635H106.996C108.417 85.2635 109.104 85.8942 109.104 87.0533C109.104 88.2067 108.417 88.7863 107.008 88.7863H105.337ZM114.364 94.8885H122.228V92.8601H116.825V90.0817H121.802V88.0533H116.825V85.2806H122.205V83.2522H114.364V94.8885ZM131.461 86.5988H133.819C133.785 84.5249 132.081 83.0931 129.49 83.0931C126.939 83.0931 125.069 84.5022 125.081 86.6158C125.075 88.3317 126.285 89.3147 128.251 89.7863L129.518 90.1045C130.785 90.4113 131.49 90.7749 131.495 91.559C131.49 92.4113 130.683 92.9908 129.433 92.9908C128.155 92.9908 127.234 92.3999 127.155 91.2351H124.774C124.836 93.7522 126.637 95.0533 129.461 95.0533C132.302 95.0533 133.973 93.6954 133.978 91.5647C133.973 89.6272 132.512 88.5988 130.49 88.1442L129.444 87.8942C128.433 87.6613 127.586 87.2863 127.603 86.451C127.603 85.701 128.268 85.1499 129.473 85.1499C130.649 85.1499 131.37 85.684 131.461 86.5988ZM142.933 86.5988H145.291C145.257 84.5249 143.553 83.0931 140.962 83.0931C138.411 83.0931 136.541 84.5022 136.553 86.6158C136.547 88.3317 137.757 89.3147 139.723 89.7863L140.99 90.1045C142.257 90.4113 142.962 90.7749 142.967 91.559C142.962 92.4113 142.155 92.9908 140.905 92.9908C139.626 92.9908 138.706 92.3999 138.626 91.2351H136.246C136.308 93.7522 138.109 95.0533 140.933 95.0533C143.774 95.0533 145.445 93.6954 145.45 91.5647C145.445 89.6272 143.984 88.5988 141.962 88.1442L140.916 87.8942C139.905 87.6613 139.058 87.2863 139.075 86.451C139.075 85.701 139.74 85.1499 140.945 85.1499C142.121 85.1499 142.842 85.684 142.933 86.5988ZM147.649 85.2806H149.689V92.8601H147.649V94.8885H154.189V92.8601H152.149V85.2806H154.189V83.2522H147.649V85.2806ZM167.445 89.0704C167.445 85.2635 165.082 83.0931 161.996 83.0931C158.894 83.0931 156.547 85.2635 156.547 89.0704C156.547 92.8601 158.894 95.0476 161.996 95.0476C165.082 95.0476 167.445 92.8772 167.445 89.0704ZM164.951 89.0704C164.951 91.5363 163.78 92.8715 161.996 92.8715C160.207 92.8715 159.042 91.5363 159.042 89.0704C159.042 86.6045 160.207 85.2692 161.996 85.2692C163.78 85.2692 164.951 86.6045 164.951 89.0704ZM179.988 83.2522H177.539V90.5704H177.437L172.414 83.2522H170.255V94.8885H172.715V87.5647H172.801L177.863 94.8885H179.988V83.2522Z" fill="#939BA3"/>
<rect x="24.5" y="112.889" width="420" height="54" rx="8" fill="#172330"/>
<path d="M44.2244 135.798H41.429L45.4517 142.343L41.3778 148.889H44.1733L47.1136 143.997L50.0625 148.889H52.8494L48.733 142.343L52.8153 135.798H50.0284L47.1136 140.894L44.2244 135.798ZM65.5341 145.957H67.8267V141.337H72.446V139.045H67.8267V134.434H65.5341V139.045H60.9233V141.337H65.5341V145.957ZM82.9701 153.798C85.0752 153.798 86.4048 152.698 87.1633 150.636L92.5752 135.823L89.8224 135.798L86.507 145.957H86.3707L83.0553 135.798H80.3281L85.1178 149.059L84.8025 149.928C84.1548 151.667 83.2428 151.812 81.8451 151.428L81.2315 153.516C81.5383 153.653 82.2031 153.798 82.9701 153.798ZM106.596 130.616H104.32L98.6952 151.514H100.971L106.596 130.616ZM119.459 149.127C122.971 149.127 125.476 146.647 125.468 143.247C125.476 139.872 123.124 137.417 119.945 137.417C118.65 137.417 117.448 137.911 116.766 138.576H116.664L117.218 133.693H124.624V131.434H115.028L114.047 140.229L116.459 140.587C117.116 139.999 118.292 139.599 119.349 139.599C121.42 139.616 122.92 141.167 122.92 143.298C122.92 145.394 121.462 146.911 119.459 146.911C117.772 146.911 116.434 145.837 116.297 144.337H113.741C113.843 147.116 116.255 149.127 119.459 149.127ZM133.968 149.178C137.999 149.178 140.36 145.889 140.36 140.17C140.36 134.494 137.965 131.195 133.968 131.195C129.962 131.195 127.576 134.485 127.567 140.17C127.567 145.88 129.928 149.17 133.968 149.178ZM133.968 146.903C131.607 146.903 130.183 144.533 130.183 140.17C130.192 135.823 131.615 133.428 133.968 133.428C136.311 133.428 137.743 135.823 137.743 140.17C137.743 144.533 136.32 146.903 133.968 146.903ZM153.519 145.957H155.812V141.337H160.431V139.045H155.812V134.434H153.519V139.045H148.909V141.337H153.519V145.957ZM175.933 131.434H173.367L169.012 134.281V136.803L173.188 134.076H173.291V148.889H175.933V131.434Z" fill="#939BA3"/>
<rect x="456" y="114.389" width="92" height="51" rx="6.5" fill="#26D7A0" fill-opacity="0.3"/>
<path d="M483.166 148.889L484.462 144.908H490.76L492.055 148.889H496.01L489.993 131.434H485.237L479.212 148.889H483.166ZM485.399 142.028L487.547 135.423H487.683L489.831 142.028H485.399ZM501.708 149.102C503.821 149.102 504.921 147.883 505.424 146.792H505.577V148.889H509.157V131.434H505.534V137.997H505.424C504.938 136.931 503.89 135.627 501.699 135.627C498.827 135.627 496.398 137.86 496.398 142.36C496.398 146.741 498.725 149.102 501.708 149.102ZM502.858 146.212C501.077 146.212 500.105 144.627 500.105 142.343C500.105 140.076 501.06 138.516 502.858 138.516C504.622 138.516 505.611 140.008 505.611 142.343C505.611 144.678 504.605 146.212 502.858 146.212ZM516.276 149.102C518.389 149.102 519.489 147.883 519.991 146.792H520.145V148.889H523.724V131.434H520.102V137.997H519.991C519.506 136.931 518.457 135.627 516.267 135.627C513.395 135.627 510.966 137.86 510.966 142.36C510.966 146.741 513.293 149.102 516.276 149.102ZM517.426 146.212C515.645 146.212 514.673 144.627 514.673 142.343C514.673 140.076 515.628 138.516 517.426 138.516C519.19 138.516 520.179 140.008 520.179 142.343C520.179 144.678 519.173 146.212 517.426 146.212Z" fill="#26D7A0"/>
<rect x="456" y="114.389" width="92" height="51" rx="6.5" stroke="#26D7A0" stroke-width="3" stroke-miterlimit="10"/>
<rect x="26" y="184.389" width="83" height="45" rx="6.5" fill="#F9A54B" fill-opacity="0.3"/>
<path d="M44.983 202.798H41.233L44.983 209.343L41.0966 215.889H44.8466L47.3864 211.363L49.9688 215.889H53.6761L49.7812 209.343L53.5739 202.798H49.8494L47.3864 207.374L44.983 202.798Z" fill="#F9A54B"/>
<rect x="70.5" y="190.889" width="32" height="32" rx="16" fill="#F9A54B"/>
<path d="M90.1278 213.468L92.3693 211.227L88.3977 207.264L92.3693 203.3L90.1278 201.042L86.1562 205.014L82.1761 201.042L79.9432 203.3L83.9062 207.264L79.9432 211.227L82.1761 213.468L86.1562 209.497L90.1278 213.468Z" fill="white"/>
<rect x="26" y="184.389" width="83" height="45" rx="6.5" stroke="#F9A54B" stroke-width="3" stroke-miterlimit="10"/>
<rect x="122" y="184.389" width="116" height="45" rx="6.5" fill="#A776D5" fill-opacity="0.3"/>
<path d="M140.19 220.798C142.892 220.798 144.324 219.417 145.065 217.303L150.153 202.815L146.31 202.798L143.574 212.411H143.438L140.727 202.798H136.909L141.605 216.264L141.392 216.818C140.915 218.045 140.003 218.104 138.724 217.712L137.906 220.423C138.426 220.644 139.27 220.798 140.19 220.798ZM163.788 197.616H160.66L155.035 218.514H158.163L163.788 197.616ZM169.678 215.889H182.121V212.872H174.792V212.752L177.34 210.255C180.928 206.982 181.891 205.346 181.891 203.36C181.891 200.335 179.42 198.195 175.678 198.195C172.013 198.195 169.499 200.386 169.508 203.812H173.011C173.002 202.141 174.059 201.119 175.653 201.119C177.187 201.119 178.329 202.073 178.329 203.607C178.329 204.997 177.477 205.951 175.891 207.477L169.678 213.229V215.889Z" fill="#A776D5"/>
<rect x="199.5" y="190.889" width="32" height="32" rx="16" fill="#A776D5"/>
<path d="M219.128 213.468L221.369 211.227L217.398 207.264L221.369 203.3L219.128 201.042L215.156 205.014L211.176 201.042L208.943 203.3L212.906 207.264L208.943 211.227L211.176 213.468L215.156 209.497L219.128 213.468Z" fill="white"/>
<rect x="122" y="184.389" width="116" height="45" rx="6.5" stroke="#A776D5" stroke-width="3" stroke-miterlimit="10"/>
<rect width="573" height="202" transform="translate(0.5 262.889)" fill="#172330"/>
<g clip-path="url(#clip1_210_283)">
<rect x="259" y="246.947" width="127" height="225" fill="#EC3B00" fill-opacity="0.3"/>
<path d="M-34 464.947L-8.83195 379.721C-4.42389 364.797 7.17094 358.689 16.5544 366.371C25.71 373.881 37.0574 368.23 41.6739 353.871L51.6928 322.722C58.2879 302.21 77.016 301.507 84.2561 321.472L95.4096 352.268C98.9156 361.944 105.724 367.594 112.867 366.757L125.771 365.244C131.644 364.557 137.376 368.258 141.192 375.198L160.662 410.601C165.711 419.774 173.935 423.051 181.214 418.786L199.559 408.038C201.776 406.714 204.256 406.084 206.751 406.212L233.296 407.709C235.781 407.838 238.253 407.215 240.463 405.9L265.04 391.574C268.876 389.34 272.12 385.186 274.254 379.776L302.574 308.217C303.97 304.551 306.081 301.303 308.742 298.726L321.176 287.08C330.613 278.23 342.925 284.126 347.493 299.681L371.124 380.15C372.182 383.872 373.877 387.313 376.109 390.267L391.971 410.713C400.06 421.136 412.135 418.97 418.473 405.961L431.901 378.403C437.094 367.734 446.376 364.082 454.208 369.604L467.737 379.095C469.837 380.637 472.253 381.512 474.742 381.634C477.23 381.755 479.702 381.118 481.907 379.788L497.391 370.67C504.253 366.628 512.007 369.28 517.133 377.415L533.305 403.097C538.877 411.941 547.49 414.224 554.643 408.758L564.608 401.149C571.761 395.683 580.373 397.966 585.945 406.81L608 464.93" fill="#A776D5" fill-opacity="0.3"/>
<path d="M-34 464.947L-8.83195 379.721C-4.42389 364.797 7.17094 358.689 16.5544 366.371C25.71 373.881 37.0574 368.23 41.6739 353.871L51.6928 322.722C58.2879 302.21 77.016 301.507 84.2561 321.472L95.4096 352.268C98.9156 361.944 105.724 367.594 112.867 366.757L125.771 365.244C131.644 364.557 137.376 368.258 141.192 375.198L160.662 410.601C165.711 419.774 173.935 423.051 181.214 418.786L199.559 408.038C201.776 406.714 204.256 406.084 206.751 406.212L233.296 407.709C235.781 407.838 238.253 407.215 240.463 405.9L265.04 391.574C268.876 389.34 272.12 385.186 274.254 379.776L302.574 308.217C303.97 304.551 306.081 301.303 308.742 298.726L321.176 287.08C330.613 278.23 342.925 284.126 347.493 299.681L371.124 380.15C372.182 383.872 373.877 387.313 376.109 390.267L391.971 410.713C400.06 421.136 412.135 418.97 418.473 405.961L431.901 378.403C437.094 367.734 446.376 364.082 454.208 369.604L467.737 379.095C469.837 380.637 472.253 381.512 474.742 381.634C477.23 381.755 479.702 381.118 481.907 379.788L497.391 370.67C504.253 366.628 512.007 369.28 517.133 377.415L533.305 403.097C538.877 411.941 547.49 414.224 554.643 408.758L564.608 401.149C571.761 395.683 580.373 397.966 585.945 406.81L608 464.93" stroke="#A776D5" stroke-width="3" stroke-miterlimit="10"/>
<path d="M-34 464.947L-8.78474 355.592C-7.80493 351.339 -6.27057 347.503 -4.2927 344.36C-2.31482 341.218 0.0570401 338.848 2.65135 337.423C5.24566 335.998 7.99759 335.553 10.7078 336.119C13.4179 336.686 16.0185 338.251 18.3216 340.7L20.2613 342.771C23.9059 346.648 28.2516 348.265 32.5384 347.338C36.8251 346.411 40.78 342.999 43.7114 337.699L56.0524 315.382C59.1233 309.829 63.3125 306.357 67.8205 305.629C72.3284 304.9 76.8393 306.967 80.4918 311.435L95.7811 330.136C99.2665 334.396 103.538 336.478 107.85 336.017L129.361 333.736C133.12 333.332 136.862 334.862 140.082 338.12L162.204 360.47C164.377 362.662 166.799 364.081 169.316 364.638C171.834 365.194 174.393 364.877 176.834 363.705L195.066 354.977C197.576 353.775 200.21 353.477 202.794 354.102C205.378 354.727 207.853 356.26 210.055 358.601L223.264 372.652C227.056 376.686 231.602 378.268 236.044 377.098C240.487 375.928 244.52 372.088 247.383 366.302L261.31 338.161C264.029 332.664 267.809 328.915 272.003 327.555C276.196 326.195 280.543 327.307 284.299 330.703L293.115 338.67C296.545 341.77 300.476 342.975 304.342 342.11C308.209 341.245 311.811 338.355 314.63 333.857L328.692 311.451C331.623 306.784 335.394 303.859 339.422 303.128C343.45 302.396 347.51 303.9 350.974 307.406L372.31 328.979C372.664 329.335 373.008 329.716 373.343 330.104L396.458 357.145C399.504 360.714 403.127 362.661 406.849 362.729C410.571 362.797 414.218 360.983 417.31 357.526L431.784 341.348C434.51 338.304 437.673 336.529 440.947 336.206C444.221 335.884 447.488 337.025 450.409 339.511L473.627 359.265C474.362 359.89 475.122 360.431 475.901 360.882L502.872 376.664C506.649 378.872 510.755 378.969 514.568 376.939L539.051 363.916C541.425 362.654 543.927 362.208 546.407 362.605L573.319 366.901C575.492 367.25 577.612 368.235 579.58 369.813L608 464.939" fill="url(#paint0_linear_210_283)" fill-opacity="0.3"/>
<path d="M-34 464.947L-8.78474 355.592C-7.80493 351.339 -6.27057 347.503 -4.2927 344.36C-2.31482 341.218 0.0570401 338.848 2.65135 337.423C5.24566 335.998 7.99759 335.553 10.7078 336.119C13.4179 336.686 16.0185 338.251 18.3216 340.7L20.2613 342.771C23.9059 346.648 28.2516 348.265 32.5384 347.338C36.8251 346.411 40.78 342.999 43.7114 337.699L56.0524 315.382C59.1233 309.829 63.3125 306.357 67.8205 305.629C72.3284 304.9 76.8393 306.967 80.4918 311.435L95.7811 330.136C99.2665 334.396 103.538 336.478 107.85 336.017L129.361 333.736C133.12 333.332 136.862 334.862 140.082 338.12L162.204 360.47C164.377 362.662 166.799 364.081 169.316 364.638C171.834 365.194 174.393 364.877 176.834 363.705L195.066 354.977C197.576 353.775 200.21 353.477 202.794 354.102C205.378 354.727 207.853 356.26 210.055 358.601L223.264 372.652C227.056 376.686 231.602 378.268 236.044 377.098C240.487 375.928 244.52 372.088 247.383 366.302L261.31 338.161C264.029 332.664 267.809 328.915 272.003 327.555C276.196 326.195 280.543 327.307 284.299 330.703L293.115 338.67C296.545 341.77 300.476 342.975 304.342 342.11C308.209 341.245 311.811 338.355 314.63 333.857L328.692 311.451C331.623 306.784 335.394 303.859 339.422 303.128C343.45 302.396 347.51 303.9 350.974 307.406L372.31 328.979C372.664 329.335 373.008 329.716 373.343 330.104L396.458 357.145C399.504 360.714 403.127 362.661 406.849 362.729C410.571 362.797 414.218 360.983 417.31 357.526L431.784 341.348C434.51 338.304 437.673 336.529 440.947 336.206C444.221 335.884 447.488 337.025 450.409 339.511L473.627 359.265C474.362 359.89 475.122 360.431 475.901 360.882L502.872 376.664C506.649 378.872 510.755 378.969 514.568 376.939L539.051 363.916C541.425 362.654 543.927 362.208 546.407 362.605L573.319 366.901C575.492 367.25 577.612 368.235 579.58 369.813L608 464.939" stroke="#F9A54B" stroke-width="3" stroke-miterlimit="10"/>
</g>
</g>
<defs>
<linearGradient id="paint0_linear_210_283" x1="287" y1="302.947" x2="287" y2="464.947" gradientUnits="userSpaceOnUse">
<stop stop-color="#F9A54B"/>
<stop offset="1" stop-color="#F9A54B" stop-opacity="0"/>
</linearGradient>
<clipPath id="clip0_210_283">
<rect x="0.5" y="0.88855" width="573" height="464" rx="16" fill="white"/>
</clipPath>
<clipPath id="clip1_210_283">
<rect width="573" height="202" fill="white" transform="translate(0.5 262.889)"/>
</clipPath>
</defs>
</svg>
