<svg width="574" height="455" viewBox="0 0 574 455" fill="none" xmlns="http://www.w3.org/2000/svg">
<g clip-path="url(#clip0_210_318)">
<rect x="0.5" y="0.888672" width="573" height="454" rx="16" fill="#0E1924"/>
<rect width="573" height="48" transform="translate(0.5 0.888672)" fill="#091017"/>
<circle cx="24.5" cy="24.8887" r="8" fill="#EC3B00" fill-opacity="0.3" stroke="#EC3B00" stroke-width="3" stroke-miterlimit="10"/>
<circle cx="50.5" cy="24.8887" r="8" fill="#F9A54B" fill-opacity="0.3" stroke="#F9A54B" stroke-width="3" stroke-miterlimit="10"/>
<circle cx="76.5" cy="24.8887" r="8" fill="#26D7A0" fill-opacity="0.3" stroke="#26D7A0" stroke-width="3" stroke-miterlimit="10"/>
<path d="M25.1619 85.2807H28.7244V94.8887H31.1562V85.2807H34.7188V83.2523H25.1619V85.2807ZM37.8483 94.8887L38.7119 92.2353H42.9108L43.7744 94.8887H46.4108L42.3994 83.2523H39.229L35.2119 94.8887H37.8483ZM39.3369 90.3148L40.7688 85.9114H40.8597L42.2915 90.3148H39.3369ZM48.7989 94.8887H51.2591V90.7637H53.0545L55.2591 94.8887H57.975L55.5034 90.3659C56.8273 89.7978 57.5602 88.6444 57.5602 87.0534C57.5602 84.7409 56.0318 83.2523 53.3898 83.2523H48.7989V94.8887ZM51.2591 88.7864V85.2637H52.9182C54.3386 85.2637 55.0261 85.8944 55.0261 87.0534C55.0261 88.2069 54.3386 88.7864 52.9295 88.7864H51.2591ZM68.0023 87.0137H70.5023C70.1841 84.7125 68.1557 83.0932 65.525 83.0932C62.4511 83.0932 60.0818 85.3091 60.0818 89.0819C60.0818 92.7637 62.2977 95.0478 65.5761 95.0478C68.5136 95.0478 70.6102 93.1898 70.6102 90.1273V88.6614H65.7409V90.5137H68.2409C68.2068 91.9569 67.2239 92.8716 65.5875 92.8716C63.7409 92.8716 62.5761 91.4909 62.5761 89.0591C62.5761 86.6387 63.7864 85.2694 65.5648 85.2694C66.8318 85.2694 67.6898 85.9228 68.0023 87.0137ZM73.4457 94.8887H81.3094V92.8603H75.906V90.0819H80.8832V88.0534H75.906V85.2807H81.2866V83.2523H73.4457V94.8887ZM83.7869 85.2807H87.3494V94.8887H89.7812V85.2807H93.3438V83.2523H83.7869V85.2807Z" fill="#939BA3"/>
<rect x="24.5" y="112.889" width="254.5" height="54" rx="8" fill="#172330"/>
<path d="M41.8125 136.914C41.8125 140.195 44.1392 142.565 47.3352 142.565C47.7869 142.565 48.2386 142.463 48.6562 142.335L44.1733 148.889H46.9602L50.9148 143.034C52.6875 140.4 53.3182 138.713 53.3438 137.008C53.3693 133.531 50.8466 131.195 47.5568 131.195C44.233 131.195 41.8125 133.565 41.8125 136.914ZM44.3352 136.872C44.3352 134.843 45.6648 133.386 47.5653 133.386C49.4659 133.386 50.804 134.843 50.804 136.906C50.804 138.934 49.4659 140.366 47.5653 140.366C45.6648 140.366 44.3352 138.934 44.3352 136.872ZM55.3491 136.914C55.3491 140.195 57.6758 142.565 60.8718 142.565C61.3235 142.565 61.7752 142.463 62.1928 142.335L57.7099 148.889H60.4968L64.4513 143.034C66.2241 140.4 66.8547 138.713 66.8803 137.008C66.9059 133.531 64.3832 131.195 61.0934 131.195C57.7695 131.195 55.3491 133.565 55.3491 136.914ZM57.8718 136.872C57.8718 134.843 59.2013 133.386 61.1019 133.386C63.0025 133.386 64.3405 134.843 64.3405 136.906C64.3405 138.934 63.0025 140.366 61.1019 140.366C59.2013 140.366 57.8718 138.934 57.8718 136.872ZM68.5745 149.051C69.5035 149.051 70.2791 148.292 70.2791 147.346C70.2791 146.417 69.5035 145.65 68.5745 145.65C67.637 145.65 66.87 146.417 66.87 147.346C66.87 148.292 67.637 149.051 68.5745 149.051ZM71.3831 136.914C71.3831 140.195 73.7098 142.565 76.9059 142.565C77.3576 142.565 77.8093 142.463 78.2269 142.335L73.7439 148.889H76.5309L80.4854 143.034C82.2581 140.4 82.8888 138.713 82.9144 137.008C82.9399 133.531 80.4172 131.195 77.1274 131.195C73.8036 131.195 71.3831 133.565 71.3831 136.914ZM73.9059 136.872C73.9059 134.843 75.2354 133.386 77.136 133.386C79.0365 133.386 80.3746 134.843 80.3746 136.906C80.3746 138.934 79.0365 140.366 77.136 140.366C75.2354 140.366 73.9059 138.934 73.9059 136.872ZM84.9197 136.914C84.9197 140.195 87.2464 142.565 90.4424 142.565C90.8941 142.565 91.3458 142.463 91.7634 142.335L87.2805 148.889H90.0674L94.022 143.034C95.7947 140.4 96.4254 138.713 96.4509 137.008C96.4765 133.531 93.9538 131.195 90.664 131.195C87.3401 131.195 84.9197 133.565 84.9197 136.914ZM87.4424 136.872C87.4424 134.843 88.772 133.386 90.6725 133.386C92.5731 133.386 93.9112 134.843 93.9112 136.906C93.9112 138.934 92.5731 140.366 90.6725 140.366C88.772 140.366 87.4424 138.934 87.4424 136.872ZM98.4562 136.914C98.4562 140.195 100.783 142.565 103.979 142.565C104.431 142.565 104.882 142.463 105.3 142.335L100.817 148.889H103.604L107.559 143.034C109.331 140.4 109.962 138.713 109.987 137.008C110.013 133.531 107.49 131.195 104.201 131.195C100.877 131.195 98.4562 133.565 98.4562 136.914ZM100.979 136.872C100.979 134.843 102.309 133.386 104.209 133.386C106.11 133.386 107.448 134.843 107.448 136.906C107.448 138.934 106.11 140.366 104.209 140.366C102.309 140.366 100.979 138.934 100.979 136.872ZM121.47 145.616C121.479 147.585 122.714 149.247 125.024 149.247C127.308 149.247 128.561 147.585 128.561 145.616V144.695C128.561 142.718 127.342 141.065 125.024 141.065C122.748 141.065 121.479 142.727 121.47 144.695V145.616ZM112.692 135.627C112.692 137.596 113.936 139.258 116.246 139.258C118.521 139.258 119.783 137.605 119.774 135.627V134.707C119.783 132.73 118.555 131.076 116.246 131.076C113.979 131.076 112.692 132.73 112.692 134.707V135.627ZM113.408 148.889H115.445L127.445 131.434H125.408L113.408 148.889ZM123.456 144.695C123.464 143.715 123.891 142.769 125.024 142.769C126.2 142.769 126.567 143.715 126.567 144.695V145.616C126.567 146.596 126.166 147.542 125.024 147.542C123.865 147.542 123.464 146.588 123.456 145.616V144.695ZM114.686 134.707C114.686 133.735 115.112 132.781 116.246 132.781C117.422 132.781 117.788 133.727 117.788 134.707V135.627C117.788 136.607 117.388 137.553 116.246 137.553C115.087 137.553 114.686 136.607 114.686 135.627V134.707Z" fill="#939BA3"/>
<rect x="24.5" y="176.889" width="254.5" height="54" rx="8" fill="#F9A54B" fill-opacity="0.3"/>
<path d="M41.6335 201.178C41.6335 204.536 43.9261 206.863 47.1562 206.863C47.642 206.863 48.1023 206.778 48.5284 206.667L44.3011 212.889H48.0085L52.0483 206.906C53.5483 204.673 54.2727 202.943 54.2898 201.102C54.2983 197.352 51.3665 195.195 47.8977 195.195C44.2585 195.195 41.6335 197.59 41.6335 201.178ZM45.179 201.051C45.179 199.32 46.304 198.076 47.9148 198.076C49.5341 198.076 50.6761 199.32 50.6761 201.068C50.6761 202.798 49.5341 204.025 47.9148 204.025C46.304 204.025 45.179 202.798 45.179 201.051ZM56.1076 201.178C56.1076 204.536 58.4002 206.863 61.6303 206.863C62.1161 206.863 62.5763 206.778 63.0025 206.667L58.7752 212.889H62.4826L66.5224 206.906C68.0224 204.673 68.7468 202.943 68.7638 201.102C68.7724 197.352 65.8405 195.195 62.3718 195.195C58.7326 195.195 56.1076 197.59 56.1076 201.178ZM59.653 201.051C59.653 199.32 60.778 198.076 62.3888 198.076C64.0082 198.076 65.1502 199.32 65.1502 201.068C65.1502 202.798 64.0082 204.025 62.3888 204.025C60.778 204.025 59.653 202.798 59.653 201.051ZM70.6285 213.11C71.7194 213.11 72.6655 212.198 72.674 211.065C72.6655 209.948 71.7194 209.036 70.6285 209.036C69.5035 209.036 68.5745 209.948 68.5831 211.065C68.5745 212.198 69.5035 213.11 70.6285 213.11ZM73.4307 201.178C73.4307 204.536 75.7233 206.863 78.9534 206.863C79.4392 206.863 79.8995 206.778 80.3256 206.667L76.0983 212.889H79.8057L83.8455 206.906C85.3455 204.673 86.0699 202.943 86.087 201.102C86.0955 197.352 83.1637 195.195 79.6949 195.195C76.0557 195.195 73.4307 197.59 73.4307 201.178ZM76.9762 201.051C76.9762 199.32 78.1012 198.076 79.712 198.076C81.3313 198.076 82.4733 199.32 82.4733 201.068C82.4733 202.798 81.3313 204.025 79.712 204.025C78.1012 204.025 76.9762 202.798 76.9762 201.051ZM87.9048 201.178C87.9048 204.536 90.1974 206.863 93.4275 206.863C93.9133 206.863 94.3735 206.778 94.7997 206.667L90.5724 212.889H94.2798L98.3195 206.906C99.8195 204.673 100.544 202.943 100.561 201.102C100.57 197.352 97.6377 195.195 94.169 195.195C90.5298 195.195 87.9048 197.59 87.9048 201.178ZM91.4502 201.051C91.4502 199.32 92.5752 198.076 94.186 198.076C95.8053 198.076 96.9474 199.32 96.9474 201.068C96.9474 202.798 95.8053 204.025 94.186 204.025C92.5752 204.025 91.4502 202.798 91.4502 201.051ZM112.214 209.616C112.223 211.713 113.561 213.494 116.058 213.494C118.529 213.494 119.91 211.713 119.902 209.616V208.695C119.91 206.582 118.563 204.818 116.058 204.818C113.595 204.818 112.223 206.599 112.214 208.695V209.616ZM103.257 199.627C103.265 201.724 104.603 203.488 107.092 203.488C109.572 203.488 110.953 201.741 110.944 199.627V198.707C110.953 196.593 109.606 194.829 107.092 194.829C104.654 194.829 103.265 196.593 103.257 198.707V199.627ZM104.092 212.889H106.316L118.316 195.434H116.092L104.092 212.889ZM114.694 208.695C114.703 207.86 115.035 206.999 116.058 206.999C117.132 206.999 117.413 207.86 117.404 208.695V209.616C117.413 210.451 117.098 211.295 116.058 211.295C115.018 211.295 114.703 210.426 114.694 209.616V208.695ZM105.754 198.707C105.762 197.897 106.078 197.011 107.092 197.011C108.166 197.011 108.456 197.872 108.447 198.707V199.627C108.456 200.463 108.132 201.306 107.092 201.306C106.086 201.306 105.762 200.463 105.754 199.627V198.707Z" fill="#F9A54B"/>
<rect x="24.5" y="240.889" width="254.5" height="54" rx="8" fill="#172330"/>
<path d="M41.8125 264.914C41.8125 268.195 44.1392 270.565 47.3352 270.565C47.7869 270.565 48.2386 270.463 48.6562 270.335L44.1733 276.889H46.9602L50.9148 271.034C52.6875 268.4 53.3182 266.713 53.3438 265.008C53.3693 261.531 50.8466 259.195 47.5568 259.195C44.233 259.195 41.8125 261.565 41.8125 264.914ZM44.3352 264.872C44.3352 262.843 45.6648 261.386 47.5653 261.386C49.4659 261.386 50.804 262.843 50.804 264.906C50.804 266.934 49.4659 268.366 47.5653 268.366C45.6648 268.366 44.3352 266.934 44.3352 264.872ZM55.3491 264.914C55.3491 268.195 57.6758 270.565 60.8718 270.565C61.3235 270.565 61.7752 270.463 62.1928 270.335L57.7099 276.889H60.4968L64.4513 271.034C66.2241 268.4 66.8547 266.713 66.8803 265.008C66.9059 261.531 64.3832 259.195 61.0934 259.195C57.7695 259.195 55.3491 261.565 55.3491 264.914ZM57.8718 264.872C57.8718 262.843 59.2013 261.386 61.1019 261.386C63.0025 261.386 64.3405 262.843 64.3405 264.906C64.3405 266.934 63.0025 268.366 61.1019 268.366C59.2013 268.366 57.8718 266.934 57.8718 264.872ZM68.5745 277.051C69.5035 277.051 70.2791 276.292 70.2791 275.346C70.2791 274.417 69.5035 273.65 68.5745 273.65C67.637 273.65 66.87 274.417 66.87 275.346C66.87 276.292 67.637 277.051 68.5745 277.051ZM71.3831 264.914C71.3831 268.195 73.7098 270.565 76.9059 270.565C77.3576 270.565 77.8093 270.463 78.2269 270.335L73.7439 276.889H76.5309L80.4854 271.034C82.2581 268.4 82.8888 266.713 82.9144 265.008C82.9399 261.531 80.4172 259.195 77.1274 259.195C73.8036 259.195 71.3831 261.565 71.3831 264.914ZM73.9059 264.872C73.9059 262.843 75.2354 261.386 77.136 261.386C79.0365 261.386 80.3746 262.843 80.3746 264.906C80.3746 266.934 79.0365 268.366 77.136 268.366C75.2354 268.366 73.9059 266.934 73.9059 264.872ZM94.397 273.616C94.4055 275.585 95.6413 277.247 97.9509 277.247C100.235 277.247 101.488 275.585 101.488 273.616V272.695C101.488 270.718 100.269 269.065 97.9509 269.065C95.6754 269.065 94.4055 270.727 94.397 272.695V273.616ZM85.6186 263.627C85.6186 265.596 86.8629 267.258 89.1725 267.258C91.4481 267.258 92.7095 265.605 92.7009 263.627V262.707C92.7095 260.73 91.4822 259.076 89.1725 259.076C86.9055 259.076 85.6186 260.73 85.6186 262.707V263.627ZM86.3345 276.889H88.3714L100.371 259.434H98.3345L86.3345 276.889ZM96.3828 272.695C96.3913 271.715 96.8174 270.769 97.9509 270.769C99.1271 270.769 99.4936 271.715 99.4936 272.695V273.616C99.4936 274.596 99.093 275.542 97.9509 275.542C96.7918 275.542 96.3913 274.588 96.3828 273.616V272.695ZM87.6129 262.707C87.6129 261.735 88.039 260.781 89.1725 260.781C90.3487 260.781 90.7151 261.727 90.7151 262.707V263.627C90.7151 264.607 90.3146 265.553 89.1725 265.553C88.0134 265.553 87.6129 264.607 87.6129 263.627V262.707Z" fill="#939BA3"/>
<rect x="24.5" y="304.889" width="254.5" height="54" rx="8" fill="#172330"/>
<path d="M41.8125 328.914C41.8125 332.195 44.1392 334.565 47.3352 334.565C47.7869 334.565 48.2386 334.463 48.6562 334.335L44.1733 340.889H46.9602L50.9148 335.034C52.6875 332.4 53.3182 330.713 53.3438 329.008C53.3693 325.531 50.8466 323.195 47.5568 323.195C44.233 323.195 41.8125 325.565 41.8125 328.914ZM44.3352 328.872C44.3352 326.843 45.6648 325.386 47.5653 325.386C49.4659 325.386 50.804 326.843 50.804 328.906C50.804 330.934 49.4659 332.366 47.5653 332.366C45.6648 332.366 44.3352 330.934 44.3352 328.872ZM55.3491 328.914C55.3491 332.195 57.6758 334.565 60.8718 334.565C61.3235 334.565 61.7752 334.463 62.1928 334.335L57.7099 340.889H60.4968L64.4513 335.034C66.2241 332.4 66.8547 330.713 66.8803 329.008C66.9059 325.531 64.3832 323.195 61.0934 323.195C57.7695 323.195 55.3491 325.565 55.3491 328.914ZM57.8718 328.872C57.8718 326.843 59.2013 325.386 61.1019 325.386C63.0025 325.386 64.3405 326.843 64.3405 328.906C64.3405 330.934 63.0025 332.366 61.1019 332.366C59.2013 332.366 57.8718 330.934 57.8718 328.872ZM78.3629 337.616C78.3714 339.585 79.6072 341.247 81.9169 341.247C84.201 341.247 85.4538 339.585 85.4538 337.616V336.695C85.4538 334.718 84.2351 333.065 81.9169 333.065C79.6413 333.065 78.3714 334.727 78.3629 336.695V337.616ZM69.5845 327.627C69.5845 329.596 70.8288 331.258 73.1385 331.258C75.414 331.258 76.6754 329.605 76.6669 327.627V326.707C76.6754 324.73 75.4481 323.076 73.1385 323.076C70.8714 323.076 69.5845 324.73 69.5845 326.707V327.627ZM70.3004 340.889H72.3373L84.3373 323.434H82.3004L70.3004 340.889ZM80.3487 336.695C80.3572 335.715 80.7834 334.769 81.9169 334.769C83.093 334.769 83.4595 335.715 83.4595 336.695V337.616C83.4595 338.596 83.0589 339.542 81.9169 339.542C80.7578 339.542 80.3572 338.588 80.3487 337.616V336.695ZM71.5788 326.707C71.5788 325.735 72.0049 324.781 73.1385 324.781C74.3146 324.781 74.6811 325.727 74.6811 326.707V327.627C74.6811 328.607 74.2805 329.553 73.1385 329.553C71.9794 329.553 71.5788 328.607 71.5788 327.627V326.707Z" fill="#939BA3"/>
<rect x="24.5" y="368.889" width="254.5" height="54" rx="8" fill="#172330"/>
<path d="M41.8125 392.914C41.8125 396.195 44.1392 398.565 47.3352 398.565C47.7869 398.565 48.2386 398.463 48.6562 398.335L44.1733 404.889H46.9602L50.9148 399.034C52.6875 396.4 53.3182 394.713 53.3438 393.008C53.3693 389.531 50.8466 387.195 47.5568 387.195C44.233 387.195 41.8125 389.565 41.8125 392.914ZM44.3352 392.872C44.3352 390.843 45.6648 389.386 47.5653 389.386C49.4659 389.386 50.804 390.843 50.804 392.906C50.804 394.934 49.4659 396.366 47.5653 396.366C45.6648 396.366 44.3352 394.934 44.3352 392.872ZM61.4769 405.127C64.9883 405.127 67.4939 402.647 67.4854 399.247C67.4939 395.872 65.1417 393.417 61.9627 393.417C60.6672 393.417 59.4655 393.911 58.7837 394.576H58.6814L59.2354 389.693H66.6417V387.434H57.0451L56.065 396.23L58.4769 396.588C59.1332 395.999 60.3093 395.599 61.3661 395.599C63.4371 395.616 64.9371 397.167 64.9371 399.298C64.9371 401.394 63.4797 402.911 61.4769 402.911C59.7894 402.911 58.4513 401.838 58.315 400.338H55.7582C55.8604 403.116 58.2724 405.127 61.4769 405.127ZM79.0191 401.616C79.0277 403.585 80.2635 405.247 82.5731 405.247C84.8572 405.247 86.1101 403.585 86.1101 401.616V400.695C86.1101 398.718 84.8913 397.065 82.5731 397.065C80.2976 397.065 79.0277 398.727 79.0191 400.695V401.616ZM70.2407 391.627C70.2407 393.596 71.4851 395.258 73.7947 395.258C76.0703 395.258 77.3316 393.605 77.3231 391.627V390.707C77.3316 388.73 76.1044 387.076 73.7947 387.076C71.5277 387.076 70.2407 388.73 70.2407 390.707V391.627ZM70.9566 404.889H72.9936L84.9936 387.434H82.9566L70.9566 404.889ZM81.0049 400.695C81.0135 399.715 81.4396 398.769 82.5731 398.769C83.7493 398.769 84.1157 399.715 84.1157 400.695V401.616C84.1157 402.596 83.7152 403.542 82.5731 403.542C81.414 403.542 81.0135 402.588 81.0049 401.616V400.695ZM72.2351 390.707C72.2351 389.735 72.6612 388.781 73.7947 388.781C74.9709 388.781 75.3373 389.727 75.3373 390.707V391.627C75.3373 392.607 74.9368 393.553 73.7947 393.553C72.6356 393.553 72.2351 392.607 72.2351 391.627V390.707Z" fill="#939BA3"/>
<path d="M300.23 94.8887C303.776 94.8887 305.923 92.6955 305.923 89.0591C305.923 85.4341 303.776 83.2523 300.264 83.2523H296.105V94.8887H300.23ZM298.565 92.7807V85.3603H300.134C302.315 85.3603 303.469 86.4739 303.469 89.0591C303.469 91.6557 302.315 92.7807 300.128 92.7807H298.565ZM315.921 83.2523V90.5989C315.921 91.9284 314.989 92.8887 313.557 92.8887C312.131 92.8887 311.193 91.9284 311.193 90.5989V83.2523H308.733V90.8091C308.733 93.3546 310.654 95.0534 313.557 95.0534C316.449 95.0534 318.381 93.3546 318.381 90.8091V83.2523H315.921ZM321.393 94.8887H323.853V90.7637H325.648L327.853 94.8887H330.569L328.097 90.3659C329.421 89.7978 330.154 88.6444 330.154 87.0534C330.154 84.7409 328.626 83.2523 325.984 83.2523H321.393V94.8887ZM323.853 88.7864V85.2637H325.512C326.932 85.2637 327.62 85.8944 327.62 87.0534C327.62 88.2069 326.932 88.7864 325.523 88.7864H323.853ZM334.886 94.8887L335.749 92.2353H339.948L340.812 94.8887H343.448L339.437 83.2523H336.266L332.249 94.8887H334.886ZM336.374 90.3148L337.806 85.9114H337.897L339.329 90.3148H336.374ZM343.956 85.2807H347.518V94.8887H349.95V85.2807H353.513V83.2523H343.956V85.2807ZM355.631 85.2807H357.67V92.8603H355.631V94.8887H362.17V92.8603H360.131V85.2807H362.17V83.2523H355.631V85.2807ZM375.426 89.0705C375.426 85.2637 373.063 83.0932 369.978 83.0932C366.875 83.0932 364.529 85.2637 364.529 89.0705C364.529 92.8603 366.875 95.0478 369.978 95.0478C373.063 95.0478 375.426 92.8773 375.426 89.0705ZM372.932 89.0705C372.932 91.5364 371.762 92.8716 369.978 92.8716C368.188 92.8716 367.023 91.5364 367.023 89.0705C367.023 86.6046 368.188 85.2694 369.978 85.2694C371.762 85.2694 372.932 86.6046 372.932 89.0705ZM387.969 83.2523H385.52V90.5705H385.418L380.395 83.2523H378.236V94.8887H380.697V87.5648H380.782L385.844 94.8887H387.969V83.2523Z" fill="#939BA3"/>
<rect x="295" y="112.889" width="254.5" height="54" rx="8" fill="#172330"/>
<path d="M319.301 131.434H316.736L312.381 134.281V136.803L316.557 134.076H316.659V148.889H319.301V131.434ZM335.024 148.889C340.342 148.889 343.419 145.59 343.419 140.136C343.419 134.707 340.342 131.434 335.203 131.434H329.374V148.889H335.024ZM332.007 146.588V133.735H335.041C338.859 133.735 340.828 136.019 340.828 140.136C340.828 144.269 338.859 146.588 334.879 146.588H332.007ZM349.75 149.178C351.914 149.178 353.133 148.079 353.619 147.099H353.721V148.889H356.21V140.195C356.21 136.386 353.21 135.627 351.13 135.627C348.761 135.627 346.579 136.582 345.727 138.968L348.122 139.514C348.497 138.585 349.451 137.69 351.164 137.69C352.809 137.69 353.653 138.551 353.653 140.034V140.093C353.653 141.022 352.698 141.005 350.346 141.278C347.866 141.568 345.326 142.215 345.326 145.19C345.326 147.764 347.261 149.178 349.75 149.178ZM350.304 147.133C348.863 147.133 347.823 146.485 347.823 145.224C347.823 143.86 349.034 143.374 350.508 143.178C351.335 143.068 353.295 142.846 353.662 142.48V144.167C353.662 145.718 352.426 147.133 350.304 147.133ZM360.056 153.798C362.161 153.798 363.491 152.698 364.249 150.636L369.661 135.823L366.908 135.798L363.593 145.957H363.457L360.141 135.798H357.414L362.204 149.059L361.888 149.928C361.241 151.667 360.329 151.812 358.931 151.428L358.317 153.517C358.624 153.653 359.289 153.798 360.056 153.798Z" fill="#939BA3"/>
<rect x="295" y="176.889" width="254.5" height="54" rx="8" fill="#172330"/>
<path d="M313.267 212.889H316.02L323.614 197.769V195.434H312.074V197.693H320.886V197.82L313.267 212.889ZM337.579 212.889C342.897 212.889 345.974 209.59 345.974 204.136C345.974 198.707 342.897 195.434 337.758 195.434H331.928V212.889H337.579ZM334.562 210.588V197.735H337.596C341.414 197.735 343.383 200.019 343.383 204.136C343.383 208.269 341.414 210.588 337.434 210.588H334.562ZM352.304 213.178C354.469 213.178 355.688 212.079 356.174 211.099H356.276V212.889H358.765V204.195C358.765 200.386 355.765 199.627 353.685 199.627C351.316 199.627 349.134 200.582 348.282 202.968L350.676 203.514C351.051 202.585 352.006 201.69 353.719 201.69C355.364 201.69 356.208 202.551 356.208 204.034V204.093C356.208 205.022 355.253 205.005 352.901 205.278C350.421 205.568 347.881 206.215 347.881 209.19C347.881 211.764 349.816 213.178 352.304 213.178ZM352.858 211.133C351.418 211.133 350.378 210.485 350.378 209.224C350.378 207.86 351.588 207.374 353.063 207.178C353.89 207.068 355.85 206.846 356.216 206.48V208.167C356.216 209.718 354.98 211.133 352.858 211.133ZM362.611 217.798C364.716 217.798 366.045 216.698 366.804 214.636L372.216 199.823L369.463 199.798L366.148 209.957H366.011L362.696 199.798H359.969L364.758 213.059L364.443 213.928C363.795 215.667 362.883 215.812 361.486 215.428L360.872 217.517C361.179 217.653 361.844 217.798 362.611 217.798ZM383.737 202.994C383.208 200.957 381.615 199.627 378.785 199.627C375.828 199.627 373.731 201.187 373.731 203.505C373.731 205.363 374.856 206.599 377.311 207.144L379.527 207.63C380.788 207.911 381.376 208.474 381.376 209.292C381.376 210.306 380.294 211.099 378.623 211.099C377.098 211.099 376.117 210.443 375.811 209.156L373.348 209.531C373.774 211.849 375.7 213.153 378.64 213.153C381.802 213.153 383.992 211.474 383.992 209.105C383.992 207.255 382.816 206.113 380.413 205.559L378.333 205.082C376.893 204.741 376.271 204.255 376.279 203.369C376.271 202.363 377.362 201.647 378.811 201.647C380.396 201.647 381.129 202.525 381.427 203.403L383.737 202.994Z" fill="#939BA3"/>
<rect x="295" y="240.889" width="254.5" height="54" rx="8" fill="#F9A54B" fill-opacity="0.3"/>
<path d="M312.142 271.954C312.244 275.056 314.946 277.127 318.781 277.127C322.625 277.127 325.506 275.022 325.506 271.92C325.506 269.593 323.886 267.326 320.213 266.968V266.832L324.901 262.093V259.434H313.02V262.451H320.366V262.57L316.497 266.593V269.159H318.381C320.545 269.159 321.662 270.232 321.662 271.673C321.662 273.164 320.477 274.085 318.79 274.085C317.205 274.085 315.96 273.267 315.866 271.954H312.142ZM334.319 277.272C338.708 277.272 341.358 273.931 341.367 268.178C341.375 262.468 338.691 259.195 334.319 259.195C329.938 259.195 327.279 262.46 327.27 268.178C327.253 273.914 329.921 277.264 334.319 277.272ZM334.319 274.213C332.316 274.213 331.02 272.201 331.029 268.178C331.037 264.215 332.324 262.221 334.319 262.221C336.304 262.221 337.6 264.215 337.6 268.178C337.608 272.201 336.313 274.213 334.319 274.213ZM354.603 276.889C359.921 276.889 363.143 273.599 363.143 268.144C363.143 262.707 359.921 259.434 354.654 259.434H348.416V276.889H354.603ZM352.106 273.727V262.596H354.458C357.731 262.596 359.461 264.267 359.461 268.144C359.461 272.039 357.731 273.727 354.45 273.727H352.106ZM368.992 277.136C370.927 277.136 372.18 276.292 372.819 275.073H372.921V276.889H376.364V268.059C376.364 264.94 373.722 263.627 370.807 263.627C367.671 263.627 365.609 265.127 365.106 267.514L368.464 267.786C368.711 266.917 369.486 266.278 370.79 266.278C372.026 266.278 372.734 266.9 372.734 267.974V268.025C372.734 268.869 371.839 268.98 369.563 269.201C366.972 269.44 364.646 270.309 364.646 273.232C364.646 275.823 366.495 277.136 368.992 277.136ZM370.032 274.63C368.915 274.63 368.114 274.11 368.114 273.113C368.114 272.09 368.958 271.588 370.236 271.409C371.029 271.298 372.325 271.11 372.759 270.82V272.21C372.759 273.582 371.626 274.63 370.032 274.63ZM380.264 281.798C382.965 281.798 384.397 280.417 385.139 278.303L390.227 263.815L386.383 263.798L383.647 273.411H383.511L380.801 263.798H376.983L381.679 277.264L381.465 277.818C380.988 279.045 380.076 279.105 378.798 278.713L377.98 281.423C378.5 281.644 379.343 281.798 380.264 281.798ZM402.287 267.531C401.963 265.119 400.02 263.627 396.713 263.627C393.364 263.627 391.156 265.178 391.165 267.701C391.156 269.661 392.392 270.931 394.949 271.443L397.216 271.894C398.358 272.124 398.878 272.542 398.895 273.198C398.878 273.974 398.034 274.528 396.764 274.528C395.469 274.528 394.608 273.974 394.386 272.909L390.815 273.096C391.156 275.602 393.287 277.144 396.756 277.144C400.148 277.144 402.577 275.414 402.585 272.832C402.577 270.94 401.341 269.806 398.801 269.286L396.432 268.809C395.213 268.545 394.761 268.127 394.77 267.497C394.761 266.713 395.648 266.201 396.773 266.201C398.034 266.201 398.784 266.892 398.963 267.735L402.287 267.531Z" fill="#F9A54B"/>
<rect x="296.5" y="370.389" width="251.5" height="51" rx="6.5" fill="#26D7A0" fill-opacity="0.3"/>
<path d="M322.126 392.454H325.663C325.612 389.343 323.055 387.195 319.169 387.195C315.342 387.195 312.538 389.309 312.555 392.48C312.547 395.053 314.362 396.528 317.311 397.235L319.212 397.713C321.112 398.173 322.169 398.718 322.178 399.894C322.169 401.173 320.959 402.042 319.084 402.042C317.166 402.042 315.786 401.156 315.666 399.409H312.095C312.189 403.184 314.891 405.136 319.126 405.136C323.388 405.136 325.893 403.099 325.902 399.903C325.893 396.997 323.703 395.454 320.669 394.772L319.101 394.397C317.584 394.048 316.314 393.485 316.339 392.232C316.339 391.107 317.337 390.281 319.143 390.281C320.908 390.281 321.99 391.082 322.126 392.454ZM333.733 405.144C336.971 405.144 339.153 403.568 339.664 401.139L336.306 400.917C335.94 401.914 335.002 402.434 333.792 402.434C331.977 402.434 330.826 401.232 330.826 399.281V399.272H339.741V398.275C339.741 393.826 337.048 391.627 333.588 391.627C329.735 391.627 327.238 394.363 327.238 398.403C327.238 402.553 329.701 405.144 333.733 405.144ZM330.826 397.022C330.903 395.531 332.037 394.338 333.647 394.338C335.224 394.338 336.315 395.463 336.323 397.022H330.826ZM348.383 391.798H345.92V388.661H342.29V391.798H340.5V394.525H342.29V401.343C342.273 403.909 344.02 405.178 346.653 405.068C347.591 405.034 348.256 404.846 348.622 404.727L348.051 402.025C347.872 402.059 347.489 402.144 347.148 402.144C346.423 402.144 345.92 401.872 345.92 400.866V394.525H348.383V391.798ZM364.601 392.454H368.138C368.087 389.343 365.53 387.195 361.643 387.195C357.817 387.195 355.013 389.309 355.03 392.48C355.021 395.053 356.837 396.528 359.785 397.235L361.686 397.713C363.587 398.173 364.643 398.718 364.652 399.894C364.643 401.173 363.433 402.042 361.558 402.042C359.641 402.042 358.26 401.156 358.141 399.409H354.57C354.663 403.184 357.365 405.136 361.601 405.136C365.862 405.136 368.368 403.099 368.376 399.903C368.368 396.997 366.178 395.454 363.143 394.772L361.575 394.397C360.058 394.048 358.788 393.485 358.814 392.232C358.814 391.107 359.811 390.281 361.618 390.281C363.382 390.281 364.464 391.082 364.601 392.454ZM370.45 404.889H381.623V401.846H374.14V387.434H370.45V404.889ZM399.018 396.161C399.018 390.451 395.473 387.195 390.845 387.195C386.192 387.195 382.672 390.451 382.672 396.161C382.672 401.846 386.192 405.127 390.845 405.127C395.473 405.127 399.018 401.872 399.018 396.161ZM395.277 396.161C395.277 399.86 393.521 401.863 390.845 401.863C388.16 401.863 386.413 399.86 386.413 396.161C386.413 392.463 388.16 390.46 390.845 390.46C393.521 390.46 395.277 392.463 395.277 396.161Z" fill="#26D7A0"/>
<path d="M524.748 407.385C531.13 407.385 536.304 402.211 536.304 395.829C536.304 389.447 531.13 384.273 524.748 384.273C518.366 384.273 513.192 389.447 513.192 395.829C513.192 402.211 518.366 407.385 524.748 407.385Z" fill="#26D7A0" fill-opacity="0.3" stroke="#26D7A0" stroke-width="3" stroke-miterlimit="10"/>
<path d="M524.749 398.08C525.992 398.08 527 397.072 527 395.829C527 394.585 525.992 393.577 524.749 393.577C523.505 393.577 522.497 394.585 522.497 395.829C522.497 397.072 523.505 398.08 524.749 398.08Z" fill="#26D7A0"/>
<path d="M524.748 384.273V389.213" stroke="#26D7A0" stroke-width="3" stroke-miterlimit="10" stroke-linecap="round"/>
<path d="M513.192 395.829H518.132" stroke="#26D7A0" stroke-width="3" stroke-miterlimit="10" stroke-linecap="round"/>
<path d="M524.748 407.387V402.444" stroke="#26D7A0" stroke-width="3" stroke-miterlimit="10" stroke-linecap="round"/>
<path d="M536.307 395.829H531.364" stroke="#26D7A0" stroke-width="3" stroke-miterlimit="10" stroke-linecap="round"/>
<rect x="296.5" y="370.389" width="251.5" height="51" rx="6.5" stroke="#26D7A0" stroke-width="3" stroke-miterlimit="10"/>
</g>
<defs>
<clipPath id="clip0_210_318">
<rect x="0.5" y="0.888672" width="573" height="454" rx="16" fill="white"/>
</clipPath>
</defs>
</svg>
