<svg width="128" height="128" viewBox="0 0 128 128" fill="none" xmlns="http://www.w3.org/2000/svg">
<path d="M20.639 93.1295C20.8651 89.0647 21.279 85.0164 21.9096 80.997C22.2245 78.9923 22.5995 76.9828 23.0124 74.9966C23.3494 73.4221 23.6185 71.7123 24.3144 70.2489C24.7176 69.3975 25.2812 68.6499 26.2858 68.668C27.4997 68.6846 28.4802 69.5474 28.9448 70.6142C30.3093 73.6923 28.4562 76.768 27.5343 79.676C26.6124 82.584 30.076 84.1024 31.8856 81.9794C31.0748 82.9346 31.0736 82.6057 31.6317 82.3756C31.8695 82.2769 32.0983 82.1674 32.327 82.0579C32.6796 81.8994 33.0025 81.7384 33.3379 81.5486C34.5432 80.867 35.7038 80.2413 37.1347 80.3964C40.0065 80.7074 40.712 83.1202 41.7807 85.3656C42.4957 86.8726 43.4447 87.9818 44.7617 88.9837C45.686 89.6921 46.3142 90.2552 46.3337 91.5121C46.3872 94.3162 43.2747 95.6179 42.9836 98.2624C42.6488 101.291 46.1314 102.592 48.2728 103.736C49.7959 104.547 51.3654 105.282 52.9758 105.891C53.6604 106.15 54.3486 106.37 55.0358 106.599C55.4622 106.736 56.5032 106.907 56.7618 107.368C56.9434 107.683 56.5837 108.378 56.2783 108.68C55.5037 109.45 54.1672 109.582 53.1367 109.631C50.2458 109.767 47.4314 108.913 44.787 107.825C38.7873 105.347 31.6931 100.463 25.0997 103.861C22.2725 105.317 24.3696 109.814 27.2174 108.35C30.0652 106.885 33.3969 108.203 36.1827 109.383C39.2187 110.665 42.1272 112.264 45.263 113.316C48.3988 114.367 52.2432 115.062 55.6271 114.302C59.011 113.542 61.7523 111.132 61.706 107.561C61.6855 105.746 60.8184 104.156 59.3252 103.119C57.8319 102.082 55.9295 101.736 54.2624 101.092C52.5952 100.448 51.1353 99.7128 49.6239 98.8832C49.0532 98.5742 48.4593 98.3031 47.9127 97.9464L47.6776 97.7864C47.4254 97.595 47.3875 97.5717 47.5848 97.7085C47.9504 98.1988 48.0068 98.6919 47.7551 99.1779C47.8579 99.0275 47.9698 98.8879 48.0915 98.7491C50.2689 96.18 51.8739 93.0927 51.0212 89.6309C50.5939 87.9099 49.636 86.5609 48.2683 85.455C47.6917 84.9861 47.0445 84.6406 46.6218 84.0059C46.1991 83.3711 45.9395 82.5813 45.6433 81.868C44.0899 78.2154 40.8798 75.3942 36.7324 75.4298C34.4691 75.451 32.772 76.2888 30.8121 77.2829C29.7276 77.8356 28.6145 78.1466 27.793 79.1108L32.1442 81.4142C32.8741 79.1071 33.9701 76.9415 34.2628 74.5065C34.5171 72.3968 34.2235 70.0598 33.2332 68.17C31.2153 64.2477 26.1103 62.2469 22.283 65.0004C20.571 66.2354 19.6165 68.2639 19.0652 70.238C18.4278 72.5134 17.983 74.8654 17.5398 77.1977C16.5832 82.3242 15.9808 87.5017 15.6956 92.697C15.5169 95.8793 20.4593 96.3216 20.639 93.1295Z" fill="black"/>
</svg>
