<svg width="128" height="128" viewBox="0 0 128 128" fill="none" xmlns="http://www.w3.org/2000/svg">
<path d="M32.5096 66.3302C30.2968 63.4824 27.8855 60.575 24.3232 59.4338C20.5625 58.2332 16.2659 59.6025 13.7256 62.5794C8.73443 68.4239 11.0365 77.4736 17.0795 81.6015C21.0487 84.3203 25.9109 84.0723 30.4555 83.5067C31.7852 83.338 32.9362 82.4846 32.9362 81.026C32.9362 79.8154 31.7951 78.3766 30.4555 78.5452C27.4191 78.9223 23.9958 79.4581 21.1281 78.2079C19.8182 77.6423 19.1435 77.0866 18.2207 76.0745C17.6352 75.4295 16.8315 74.1097 16.5536 73.3556C16.3353 72.7801 16.1666 72.1847 16.0476 71.5794C16.0376 71.5298 15.9483 70.994 15.988 71.2619C16.0178 71.4901 15.9682 71.0733 15.9682 71.0733C15.9384 70.6864 15.9186 70.2894 15.9285 69.9024C15.9483 69.0491 15.9483 69.1483 16.1468 68.3743C16.2262 68.0766 16.3155 67.7889 16.4246 67.5011C16.5239 67.2332 16.4544 67.4317 16.4246 67.4813C16.5139 67.2729 16.6231 67.0744 16.7322 66.876C17.3475 65.7646 18.1016 65.0502 19.2626 64.4548C19.6793 64.2365 20.2945 64.038 20.9494 63.9587C20.88 63.9587 20.7113 63.9884 20.9991 63.9686C21.1876 63.9686 21.3761 63.9587 21.5647 63.9686C22.0211 63.9785 21.9417 63.9587 22.4577 64.0777C23.6882 64.3754 24.7201 65.07 25.7025 66.0127C26.923 67.1737 27.955 68.5133 28.987 69.8429C29.8105 70.9047 31.6264 70.7062 32.4996 69.8429C33.5415 68.801 33.3232 67.392 32.4996 66.3302H32.5096Z" fill="black"/>
<path d="M28.2129 81.0656C28.3716 88.0612 28.5205 95.0568 28.6793 102.043C28.7487 105.228 33.7101 105.238 33.6407 102.043C33.4819 95.0469 33.3331 88.0513 33.1743 81.0656C33.1048 77.8804 28.1434 77.8705 28.2129 81.0656Z" fill="black"/>
</svg>
