<svg width="128" height="128" viewBox="0 0 128 128" fill="none" xmlns="http://www.w3.org/2000/svg">
<path d="M32.5158 66.3363C30.3032 63.4886 27.8921 60.5815 24.3301 59.4404C20.5696 58.2398 16.2733 59.6091 13.7332 62.5857C8.74241 68.4299 11.0443 77.4788 17.0869 81.6064C21.0558 84.3251 25.9176 84.077 30.4619 83.5115C31.7915 83.3428 32.9425 82.4895 32.9425 81.0309C32.9425 79.8204 31.8014 78.3817 30.4619 78.5504C27.4258 78.9275 24.0026 79.4633 21.1351 78.2131C19.8254 77.6475 19.1507 77.0919 18.228 76.0798C17.6426 75.4349 16.8389 74.1152 16.561 73.3612C16.3427 72.7857 16.1741 72.1903 16.055 71.5851C16.0451 71.5355 15.9558 70.9997 15.9955 71.2676C16.0252 71.4958 15.9756 71.0791 15.9756 71.0791C15.9459 70.6921 15.926 70.2952 15.936 69.9083C15.9558 69.0549 15.9558 69.1542 16.1542 68.3803C16.2336 68.0826 16.3229 67.7948 16.4321 67.5071C16.5313 67.2392 16.4618 67.4376 16.4321 67.4873C16.5214 67.2789 16.6305 67.0804 16.7396 66.882C17.3548 65.7707 18.1089 65.0563 19.2698 64.461C19.6865 64.2427 20.3017 64.0443 20.9565 63.9649C20.8871 63.9649 20.7184 63.9947 21.0062 63.9748C21.1947 63.9748 21.3832 63.9649 21.5717 63.9748C22.0281 63.9847 21.9487 63.9649 22.4647 64.084C23.695 64.3816 24.7269 65.0762 25.7092 66.0188C26.9297 67.1797 27.9616 68.5192 28.9935 69.8487C29.817 70.9104 31.6328 70.7119 32.5059 69.8487C33.5477 68.8069 33.3294 67.398 32.5059 66.3363H32.5158Z" fill="black"/>
<path d="M28.2097 81.0607C28.3685 88.0558 28.5173 95.0509 28.676 102.036C28.7455 105.221 33.7066 105.231 33.6371 102.036C33.4784 95.041 33.3295 88.0459 33.1708 81.0607C33.1013 77.8757 28.1403 77.8658 28.2097 81.0607Z" fill="black"/>
<path d="M13.2471 77.8063C11.3023 79.6022 10.6673 82.3605 11.1634 84.8907C11.6595 87.4208 13.7333 89.435 16.1543 90.3578C21.1153 92.2628 26.632 88.4924 27.4357 83.4222C27.9517 80.1876 26.8999 77.0423 24.7171 74.6312C23.8439 73.6688 22.0877 73.6787 21.2046 74.6312C20.262 75.6631 20.272 77.1117 21.2046 78.1436C21.284 78.2329 21.3733 78.3322 21.4527 78.4215C21.4924 78.4612 21.6809 78.7191 21.4924 78.4611C21.2939 78.1932 21.6809 78.7389 21.7305 78.8282C21.8496 79.0168 21.9587 79.2053 22.0579 79.3938C22.1175 79.503 22.1671 79.622 22.2266 79.7312C22.3854 80.0288 22.0877 79.3343 22.1968 79.6617C22.3358 80.0785 22.4747 80.4853 22.564 80.9218C22.6929 81.5568 22.564 80.6341 22.6036 81.0905C22.6235 81.3385 22.6334 81.5866 22.6334 81.8346C22.6334 81.9239 22.5441 82.5292 22.5838 82.5788C22.564 82.559 22.6731 82.1224 22.6036 82.3705C22.5838 82.4498 22.5739 82.5391 22.554 82.6185C22.5044 82.8368 22.4449 83.0551 22.3655 83.2734C22.3358 83.3527 22.306 83.4321 22.2762 83.5115C22.177 83.8092 22.5441 82.9757 22.2861 83.4619C22.1968 83.6405 22.1075 83.8092 21.9984 83.9878C21.9389 84.0969 21.6809 84.3747 21.671 84.4839C21.671 84.4739 21.9785 84.1167 21.8 84.3152C21.7206 84.4045 21.6511 84.4839 21.5817 84.5732C21.4328 84.7418 21.2741 84.9006 21.1054 85.0494C21.0657 85.0792 20.9268 85.1685 20.9169 85.2181C20.9764 85.0395 21.284 84.9601 21.0161 85.1387C20.8574 85.2479 20.6887 85.357 20.52 85.4562C20.4009 85.5257 20.1132 85.744 19.9941 85.7241C19.9743 85.7241 20.4803 85.5555 20.1926 85.6348C20.0537 85.6745 19.9247 85.7241 19.7957 85.7638C19.6072 85.8134 19.4186 85.8531 19.2301 85.8928C18.9027 85.9623 19.7362 85.8631 19.3988 85.8631C19.3194 85.8631 19.2301 85.873 19.1507 85.873C18.9622 85.873 18.7638 85.873 18.5753 85.873C18.476 85.873 18.1089 85.8233 18.4959 85.873C18.8828 85.9226 18.4959 85.873 18.4165 85.8531C18.228 85.8134 18.0395 85.7638 17.8509 85.7142C17.7716 85.6944 17.1564 85.4761 17.5235 85.6051C17.8906 85.7341 17.3251 85.486 17.2259 85.4364C17.0373 85.3272 16.8687 85.1685 16.6801 85.0792C17.1167 85.3074 16.9282 85.2876 16.7992 85.1586C16.7198 85.0792 16.6404 85.0098 16.5611 84.9304C16.5015 84.8708 16.4519 84.8014 16.3924 84.7518C16.2039 84.5831 16.5115 84.9105 16.5214 84.9304C16.4519 84.7518 16.2733 84.5632 16.1741 84.3946C16.1344 84.3251 16.1047 84.2557 16.065 84.1862C15.9161 83.9382 16.2535 84.7617 16.1047 84.2656C16.0451 84.0671 15.9757 83.8687 15.936 83.6603C15.9161 83.581 15.9062 83.5016 15.8963 83.4321C15.8368 83.1345 15.9161 83.9977 15.9261 83.5413C15.9261 83.3329 15.9161 83.1245 15.9261 82.9063C15.9261 82.807 15.9558 82.688 15.9558 82.5887C15.9558 82.7078 15.8566 83.1146 15.9459 82.7773C15.9955 82.5689 16.055 82.3705 16.1146 82.172C16.2336 81.7454 16.0848 82.3208 16.0352 82.3308C16.0749 82.3308 16.184 82.0232 16.2138 81.9835C16.2535 81.914 16.2932 81.8446 16.3329 81.785C16.3825 81.7057 16.6504 81.3286 16.4122 81.6561C16.3626 81.7156 16.2039 81.9339 16.4122 81.6561C16.5214 81.5469 16.6305 81.4279 16.7496 81.3187C17.7021 80.4356 17.712 78.6893 16.7496 77.8063C15.7276 76.8637 14.2591 76.8637 13.2372 77.8063H13.2471Z" fill="black"/>
</svg>
