<svg width="128" height="128" viewBox="0 0 128 128" fill="none" xmlns="http://www.w3.org/2000/svg">
<path d="M17.9247 67.8308C17.0714 61.5499 16.228 55.279 15.3747 48.9981C14.5908 43.1836 13.4795 37.2897 13.5986 31.4058C13.6978 26.3255 15.206 21.543 18.788 17.8419C22.0624 14.4584 26.3687 12.2259 30.8734 10.9558C37.3726 9.12017 44.1595 9.05072 50.8571 8.97134C54.0421 8.92173 54.052 3.96055 50.8471 4.00024C38.8907 4.14907 26.0214 4.71465 16.5952 13.0593C12.4178 16.7604 9.75865 21.7414 8.9847 27.2682C8.08177 33.678 9.21292 40.1077 10.0762 46.4481C11.0982 54.0089 12.1202 61.5797 13.1422 69.1405C13.3208 70.4701 15.0274 71.1944 16.1983 70.8769C17.637 70.48 18.1133 69.1603 17.9347 67.8208L17.9247 67.8308Z" fill="#FF5007"/>
<path d="M7.82371 79.9559C5.93846 88.2212 11.6041 97.4689 19.8298 99.5426C28.0554 101.606 37.4221 96.1492 39.6745 87.9732C45.4294 67.037 12.6658 58.8014 7.83363 79.9658L7.82371 79.9559Z" fill="#FF5007"/>
<path d="M5.43245 79.2911C3.26937 88.7669 9.451 99.235 18.8375 101.835C28.2241 104.434 38.593 98.6 41.7582 89.5707C44.0205 83.1013 42.6016 75.7488 37.6702 70.9166C33.344 66.6798 26.9243 64.5366 20.9113 65.251C13.0925 66.1837 7.22839 71.641 5.42252 79.2911C4.68827 82.3968 9.47084 83.7264 10.2051 80.6108C10.3837 79.8368 10.602 79.0629 10.8798 78.3187C11.1576 77.5745 11.1973 77.4753 11.6339 76.6617C12.3979 75.2527 12.7948 74.7169 13.797 73.7048C14.0054 73.4964 14.2137 73.298 14.4221 73.1095C14.5114 73.0301 15.1564 72.5042 14.7495 72.8217C15.2754 72.4149 15.841 72.0478 16.4264 71.7303C16.7042 71.5814 16.9821 71.4326 17.2599 71.2937C17.3889 71.2341 17.508 71.1746 17.6369 71.1151C17.5476 71.1548 17.1805 71.2937 17.6171 71.1151C18.2025 70.8869 18.7979 70.6884 19.4031 70.5297C20.0084 70.3709 20.6236 70.2518 21.2487 70.1625C20.693 70.2419 21.4769 70.1427 21.6257 70.1328C21.973 70.103 22.3203 70.0831 22.6775 70.0732C23.2728 70.0633 23.8682 70.0732 24.4635 70.1228C24.781 70.1427 25.0986 70.1725 25.4061 70.2121C24.8406 70.1427 25.7435 70.2717 25.8923 70.3014C27.1426 70.5396 28.363 70.8968 29.5438 71.3731C29.8911 71.512 29.1866 71.2143 29.5438 71.3731C29.6728 71.4326 29.8018 71.4921 29.9307 71.5517C30.2185 71.6906 30.4963 71.8295 30.7741 71.9783C31.3298 72.276 31.8656 72.6034 32.3915 72.9606C32.5304 73.0499 33.1456 73.5163 32.9868 73.3873C32.8082 73.2484 33.3738 73.7147 33.4631 73.7941C33.9592 74.2307 34.4355 74.6871 34.8721 75.1832C35.0606 75.3916 35.2392 75.6 35.4079 75.8183C35.0804 75.4115 35.6163 76.1259 35.7056 76.2449C36.0628 76.7708 36.3803 77.3066 36.668 77.8722C36.7375 78.0012 37.0947 78.8347 36.8962 78.3485C37.0054 78.6164 37.1046 78.8843 37.1939 79.1522C37.4023 79.7773 37.561 80.4222 37.69 81.0672C37.69 81.0474 37.8091 81.7717 37.7496 81.4046C37.7099 81.097 37.7694 81.5732 37.7694 81.6427C37.7992 81.99 37.8289 82.3373 37.8389 82.6845C37.8587 83.4089 37.8389 84.1431 37.7595 84.8675C37.7099 85.3735 37.7396 85.0758 37.7595 84.9667C37.7396 85.1354 37.7099 85.304 37.6801 85.4727C37.6106 85.8597 37.5313 86.2566 37.442 86.6436C37.2336 87.5167 36.9756 88.38 36.5886 89.1936C35.7949 90.8705 34.6736 92.3192 33.3143 93.5594C30.6551 96.0003 27.0433 97.4788 23.4415 97.4887C15.1564 97.4986 8.36946 88.6578 10.215 80.6108C10.9294 77.5051 6.14686 76.1755 5.43245 79.2911Z" fill="black"/>
<path d="M29.1468 84.9369C28.4522 87.487 25.5449 89.1936 22.9751 88.5784C20.4052 87.9632 18.6092 85.1056 19.145 82.5258C20.554 75.7786 30.9824 78.2294 29.1368 84.9369H29.1468Z" fill="white"/>
<path d="M26.7456 84.282C26.7159 84.3912 26.5075 84.9071 26.696 84.5003C26.8846 84.0935 26.6663 84.5499 26.6266 84.6293C26.5571 84.7682 26.4678 84.9071 26.3884 85.0361C26.3488 85.0957 26.3091 85.1453 26.2694 85.2048C26.1106 85.4529 26.6167 84.8079 26.4083 85.0262C26.1999 85.2445 26.0015 85.4529 25.7832 85.6513C25.4855 85.9192 26.2396 85.3338 25.7931 85.6315C25.6443 85.7307 25.4855 85.8299 25.3267 85.9093C25.2077 85.9787 25.0787 86.0284 24.9596 86.0879C24.7314 86.207 25.2573 85.9688 25.2374 85.9688C25.1581 85.9787 25.0588 86.0284 24.9795 86.0581C24.8505 86.0978 24.7215 86.1375 24.5925 86.1673C24.5032 86.1871 24.4139 86.207 24.3246 86.2268C23.9872 86.3062 24.5131 86.197 24.5826 86.197C24.2948 86.197 23.9972 86.2367 23.7094 86.2169C23.1637 86.1772 24.1658 86.326 23.7689 86.2169C23.6102 86.1772 23.4613 86.1474 23.3125 86.0978C22.8065 85.9291 23.7193 86.3161 23.3423 86.1276C23.2232 86.068 23.1041 86.0085 22.9851 85.9391C22.8462 85.8597 22.7172 85.7704 22.5882 85.6811C22.3699 85.5422 22.8362 85.8795 22.8263 85.8597C22.7668 85.7902 22.6874 85.7406 22.6179 85.6811C22.4989 85.5719 22.3897 85.4628 22.2806 85.3437C22.231 85.2941 22.1913 85.2445 22.1417 85.1949C21.8738 84.9071 22.2607 85.3437 22.2707 85.3735C22.1119 85.0957 21.9135 84.8476 21.7745 84.5599C21.7448 84.5003 21.715 84.4408 21.6852 84.3713C21.5662 84.1431 21.8043 84.669 21.8043 84.6491C21.7745 84.5003 21.6952 84.3515 21.6555 84.2026C21.6158 84.0538 21.5761 83.8951 21.5463 83.7462C21.457 83.3592 21.5959 84.3416 21.5463 83.8058C21.5265 83.5081 21.5662 83.2203 21.5662 82.9326C21.5662 82.9723 21.4471 83.5775 21.5463 83.1906C21.5463 83.1707 21.5563 83.1211 21.5563 83.141C21.586 83.0219 21.6158 82.8929 21.6456 82.7738C21.6753 82.6548 21.715 82.5456 21.7547 82.4265C21.8341 82.1983 22.0524 81.9304 21.6654 82.6051C21.7745 82.4166 21.8539 82.2082 21.973 82.0197C22.0226 81.9403 22.0722 81.8709 22.1218 81.7915C22.1318 81.7717 22.231 81.6427 22.231 81.6427C22.2409 81.6526 21.8539 82.0892 21.9829 81.9701C22.1318 81.8312 22.2508 81.6625 22.3997 81.5335C22.4393 81.4938 22.608 81.3946 22.6279 81.3351C22.5981 81.4343 22.0524 81.7419 22.3997 81.5236C22.5683 81.4244 22.7271 81.3152 22.9057 81.2259C23.0148 81.1664 23.372 81.0176 22.9057 81.216C22.4393 81.4145 22.7668 81.2755 22.8759 81.2359C23.0744 81.1664 23.2728 81.1069 23.4713 81.0672C23.5506 81.0473 23.64 81.0374 23.7193 81.0176C24.0567 80.9382 22.9652 81.087 23.4316 81.0573C23.63 81.0473 23.8186 81.0275 24.017 81.0275C24.1956 81.0275 24.3841 81.0473 24.5627 81.0573C24.9199 81.0672 23.8781 80.9382 24.2353 81.0076C24.3444 81.0275 24.4536 81.0473 24.5627 81.0672C24.7413 81.1069 24.9199 81.1565 25.0886 81.2061C25.1779 81.2359 25.2771 81.2656 25.3664 81.3053C25.7931 81.4542 25.0489 81.1565 25.1283 81.1962C25.4756 81.3748 25.803 81.5732 26.1404 81.7816C26.2198 81.8312 25.6046 81.3351 25.932 81.6228C26.0114 81.6923 26.1007 81.7717 26.1801 81.8411C26.2595 81.9106 26.3388 81.9999 26.4083 82.0793C26.4877 82.1686 26.7258 82.4762 26.4281 82.0793C26.1305 81.6824 26.3884 82.0296 26.4579 82.1289C26.5174 82.2182 26.577 82.3174 26.6365 82.4166C26.6861 82.5059 26.7258 82.5952 26.7754 82.6746C26.9441 82.9822 26.5274 81.9999 26.6861 82.4762C26.7556 82.6845 26.8151 82.8929 26.8647 83.1112C26.8647 83.1509 26.8746 83.2005 26.8945 83.2402C26.9838 83.6073 26.8449 82.6647 26.8449 82.8929C26.8449 83.002 26.8647 83.1112 26.8647 83.2203C26.8647 83.4386 26.7754 83.8057 26.8349 84.0042C26.8349 84.034 26.9342 83.3791 26.8846 83.5974C26.8647 83.6668 26.8647 83.7363 26.8449 83.8058C26.8151 83.9645 26.7754 84.1233 26.7357 84.282C26.4083 85.5322 27.1525 87.0305 28.4721 87.3381C29.7918 87.6457 31.171 86.9511 31.5282 85.6017C32.2228 82.9822 31.6374 80.0749 29.5735 78.2095C27.6287 76.4533 25.0489 75.7786 22.489 76.2052C19.929 76.6319 17.7957 78.656 16.9424 81.1565C15.7715 84.6095 17.5079 88.8364 20.822 90.414C23.0248 91.4658 25.3367 91.3765 27.5196 90.3545C29.4445 89.4516 30.9329 87.6358 31.5282 85.6116C31.8854 84.3614 31.0916 82.8532 29.7918 82.5555C28.492 82.2579 27.1326 82.9524 26.7357 84.2919L26.7456 84.282Z" fill="black"/>
<path d="M23.3621 101.497C24.7909 104.196 24.5528 107.55 22.9752 110.12C21.9631 111.767 17.9346 114.992 16.7737 112.204C16.6546 111.926 16.5951 111.638 16.6943 111.519C17.0118 111.162 17.5972 111.182 18.0338 111.281C19.6512 111.668 20.7029 113.613 21.4471 114.932C23.511 118.564 24.4139 121.162 24.2353 125.319C24.1063 128.514 29.0675 128.504 29.1965 125.319C29.4048 120.388 28.234 116.927 25.8328 112.62C23.6697 108.741 19.2642 104.315 14.4717 107.034C10.1059 109.515 11.4057 115.786 15.6326 117.611C20.0877 119.536 24.9497 116.401 27.2517 112.63C29.762 108.512 29.891 103.234 27.6387 98.9969C26.1404 96.1789 21.8638 98.6794 23.3522 101.497H23.3621Z" fill="black"/>
</svg>
