<svg width="128" height="128" viewBox="0 0 128 128" fill="none" xmlns="http://www.w3.org/2000/svg">
<path d="M32.5086 66.3302C30.2958 63.4824 27.8845 60.575 24.3222 59.4338C20.5615 58.2332 16.2649 59.6025 13.7246 62.5794C8.73345 68.4239 11.0356 77.4736 17.0786 81.6015C21.0477 84.3203 25.9099 84.0723 30.4546 83.5067C31.7842 83.338 32.9353 82.4846 32.9353 81.026C32.9353 79.8154 31.7941 78.3766 30.4546 78.5452C27.4182 78.9223 23.9948 79.4581 21.1271 78.2079C19.8173 77.6423 19.1425 77.0866 18.2197 76.0745C17.6342 75.4295 16.8305 74.1097 16.5527 73.3556C16.3344 72.7801 16.1657 72.1847 16.0466 71.5794C16.0367 71.5298 15.9474 70.994 15.9871 71.2619C16.0168 71.4901 15.9672 71.0733 15.9672 71.0733C15.9374 70.6864 15.9176 70.2894 15.9275 69.9024C15.9474 69.0491 15.9474 69.1483 16.1458 68.3743C16.2252 68.0766 16.3145 67.7889 16.4237 67.5011C16.5229 67.2332 16.4534 67.4317 16.4237 67.4813C16.513 67.2729 16.6221 67.0744 16.7313 66.876C17.3465 65.7646 18.1006 65.0502 19.2616 64.4548C19.6784 64.2365 20.2936 64.038 20.9485 63.9587C20.879 63.9587 20.7103 63.9884 20.9981 63.9686C21.1866 63.9686 21.3752 63.9587 21.5637 63.9686C22.0201 63.9785 21.9408 63.9587 22.4567 64.0777C23.6872 64.3754 24.7192 65.07 25.7015 66.0127C26.922 67.1737 27.954 68.5133 28.986 69.8429C29.8096 70.9047 31.6255 70.7062 32.4987 69.8429C33.5406 68.801 33.3223 67.392 32.4987 66.3302H32.5086Z" fill="black"/>
<path d="M28.2121 81.0655C28.3709 88.0611 28.5198 95.0567 28.6785 102.042C28.748 105.228 33.7094 105.238 33.6399 102.042C33.4812 95.0468 33.3323 88.0512 33.1736 81.0655C33.1041 77.8803 28.1427 77.8703 28.2121 81.0655Z" fill="black"/>
<path d="M13.7243 126.51C12.0478 122.571 8.84899 115.274 7.17246 111.335C6.34907 109.401 5.52568 107.466 4.7023 105.532C3.87891 103.597 2.96624 101.732 2.41071 99.7286C1.38892 96.0184 2.17262 91.5939 5.9225 89.7289C7.61887 88.8857 9.59301 88.8063 11.2795 89.7289C12.9659 90.6515 13.8587 92.2189 14.5432 93.8756C16.3487 98.2604 17.688 102.893 19.2355 107.377L14.454 108.697C13.6603 104.322 12.8667 99.9468 12.083 95.572C11.6961 93.4193 11.3092 91.2765 10.9124 89.1238C10.5156 86.9711 10.0196 84.6299 10.466 82.368C11.2299 78.5884 15.4857 75.5131 19.176 77.765C22.4596 79.7788 22.6581 84.5803 23.3029 87.9432C24.2751 92.9629 25.2473 97.9727 26.2095 102.992L21.4279 104.312C20.3962 96.9906 20.2077 89.6396 21.041 82.2887C21.1898 80.9593 22.0728 79.8086 23.5211 79.8086C24.7512 79.8185 26.1599 80.9593 26.0111 82.2986C25.2373 89.1634 25.2473 96.1473 26.2194 103.002C26.4079 104.332 25.8921 105.671 24.4834 106.058C23.2731 106.395 21.6859 105.651 21.4279 104.322C20.5252 99.6294 19.6125 94.9371 18.7098 90.2448C18.2832 88.0524 17.9856 85.7806 17.3805 83.618C17.1523 82.8045 16.8844 81.6538 16.1206 82.1101C14.7813 82.9136 15.2277 85.1953 15.4361 86.4354C15.8329 88.7369 16.2694 91.0285 16.686 93.32C17.5392 98.0124 18.3824 102.705 19.2355 107.397C19.801 110.522 15.5055 111.762 14.454 108.716C13.0254 104.55 11.6465 100.363 10.1485 96.2168C9.8807 95.4827 9.33508 93.8557 8.45218 94.0343C7.25182 94.2823 6.85501 95.8299 6.91453 96.8715C7.02365 98.7762 7.96608 100.621 8.70018 102.357L11.2596 108.379C12.9957 112.466 16.2639 119.913 18 124C18.5258 125.23 18.3671 126.659 17.1072 127.393C16.0655 127.998 14.2402 127.74 13.7144 126.5L13.7243 126.51Z" fill="black"/>
</svg>
