<svg width="128" height="128" viewBox="0 0 128 128" fill="none" xmlns="http://www.w3.org/2000/svg">
<path d="M32.5087 66.3302C30.2959 63.4824 27.8847 60.575 24.3224 59.4338C20.5616 58.2332 16.265 59.6025 13.7248 62.5794C8.73357 68.4239 11.0357 77.4736 17.0787 81.6015C21.0478 84.3203 25.91 84.0723 30.4547 83.5067C31.7843 83.338 32.9354 82.4846 32.9354 81.026C32.9354 79.8154 31.7943 78.3766 30.4547 78.5452C27.4183 78.9223 23.9949 79.4581 21.1272 78.2079C19.8174 77.6423 19.1426 77.0866 18.2198 76.0745C17.6344 75.4295 16.8306 74.1097 16.5528 73.3556C16.3345 72.7801 16.1658 72.1847 16.0467 71.5794C16.0368 71.5298 15.9475 70.994 15.9872 71.2619C16.0169 71.4901 15.9673 71.0733 15.9673 71.0733C15.9376 70.6864 15.9177 70.2894 15.9276 69.9024C15.9475 69.0491 15.9475 69.1483 16.1459 68.3743C16.2253 68.0766 16.3146 67.7889 16.4238 67.5011C16.523 67.2332 16.4535 67.4317 16.4238 67.4813C16.5131 67.2729 16.6222 67.0744 16.7314 66.876C17.3466 65.7646 18.1007 65.0502 19.2617 64.4548C19.6785 64.2365 20.2937 64.038 20.9486 63.9587C20.8791 63.9587 20.7104 63.9884 20.9982 63.9686C21.1867 63.9686 21.3753 63.9587 21.5638 63.9686C22.0203 63.9785 21.9409 63.9587 22.4569 64.0777C23.6873 64.3754 24.7193 65.07 25.7016 66.0127C26.9221 67.1737 27.9541 68.5133 28.9861 69.8429C29.8097 70.9047 31.6256 70.7062 32.4988 69.8429C33.5407 68.801 33.3224 67.392 32.4988 66.3302H32.5087Z" fill="black"/>
<path d="M28.212 81.0656C28.3708 88.0612 28.5196 95.0568 28.6784 102.043C28.7479 105.228 33.7093 105.238 33.6398 102.043C33.4811 95.0469 33.3322 88.0513 33.1734 81.0656C33.104 77.8804 28.1426 77.8705 28.212 81.0656Z" fill="black"/>
<path d="M12.2018 123.16C10.5253 119.222 8.84874 115.274 7.17221 111.335C6.34883 109.401 5.52544 107.466 4.70205 105.532C3.87867 103.597 2.966 101.732 2.41046 99.7286C1.38867 96.0184 2.17238 91.5939 5.92225 89.7289C7.61863 88.8857 9.59277 88.8063 11.2792 89.7289C12.9657 90.6515 13.8585 92.2189 14.543 93.8756C16.3485 98.2604 17.6877 102.893 19.2353 107.377L14.4537 108.697C13.6601 104.322 12.8665 99.9468 12.0828 95.572C11.6959 93.4193 11.309 91.2765 10.9122 89.1238C10.5154 86.9711 10.0193 84.6299 10.4658 82.368C11.2296 78.5884 15.4854 75.5131 19.1758 77.765C22.4594 79.7788 22.6578 84.5803 23.3026 87.9432C24.2748 92.9629 25.247 97.9727 26.2093 102.992L21.4277 104.312C20.396 96.9906 20.2075 89.6396 21.0408 82.2887C21.1896 80.9593 22.0725 79.8086 23.5209 79.8086C24.751 79.8185 26.1597 80.9593 26.0109 82.2986C25.2371 89.1634 25.247 96.1473 26.2192 103.002C26.4077 104.332 25.8918 105.671 24.4831 106.058C23.2729 106.395 21.6856 105.651 21.4277 104.322C20.5249 99.6294 19.6123 94.9371 18.7095 90.2448C18.283 88.0524 17.9853 85.7806 17.3802 83.618C17.152 82.8045 16.8842 81.6538 16.1203 82.1101C14.7811 82.9136 15.2275 85.1953 15.4358 86.4354C15.8326 88.7369 16.2691 91.0285 16.6858 93.32C17.5389 98.0124 18.3822 102.705 19.2353 107.397C19.8008 110.522 15.5053 111.762 14.4537 108.716C13.0252 104.55 11.6463 100.363 10.1483 96.2168C9.88046 95.4827 9.33484 93.8557 8.45193 94.0343C7.25157 94.2823 6.85476 95.8299 6.91428 96.8715C7.02341 98.7762 7.96584 100.621 8.69994 102.357L11.2594 108.379C12.9954 112.466 14.7414 116.563 16.4775 120.65C17.0032 121.881 16.8445 123.309 15.5846 124.043C14.543 124.648 12.7177 124.39 12.1919 123.15L12.2018 123.16Z" fill="black"/>
</svg>
