<svg width="128" height="128" viewBox="0 0 128 128" fill="none" xmlns="http://www.w3.org/2000/svg">
<path d="M32.5086 66.3302C30.2958 63.4824 27.8845 60.575 24.3222 59.4338C20.5615 58.2332 16.2649 59.6025 13.7246 62.5794C8.73345 68.4239 11.0356 77.4736 17.0786 81.6015C21.0477 84.3203 25.9099 84.0723 30.4546 83.5067C31.7842 83.338 32.9353 82.4846 32.9353 81.026C32.9353 79.8154 31.7941 78.3766 30.4546 78.5452C27.4182 78.9223 23.9948 79.4581 21.1271 78.2079C19.8173 77.6423 19.1425 77.0866 18.2197 76.0745C17.6342 75.4295 16.8305 74.1097 16.5527 73.3556C16.3344 72.7801 16.1657 72.1847 16.0466 71.5794C16.0367 71.5298 15.9474 70.994 15.9871 71.2619C16.0168 71.4901 15.9672 71.0733 15.9672 71.0733C15.9374 70.6864 15.9176 70.2894 15.9275 69.9024C15.9474 69.0491 15.9474 69.1483 16.1458 68.3743C16.2252 68.0766 16.3145 67.7889 16.4237 67.5011C16.5229 67.2332 16.4534 67.4317 16.4237 67.4813C16.513 67.2729 16.6221 67.0744 16.7313 66.876C17.3465 65.7646 18.1006 65.0502 19.2616 64.4548C19.6784 64.2365 20.2936 64.038 20.9485 63.9587C20.879 63.9587 20.7103 63.9884 20.9981 63.9686C21.1866 63.9686 21.3752 63.9587 21.5637 63.9686C22.0201 63.9785 21.9408 63.9587 22.4567 64.0777C23.6872 64.3754 24.7192 65.07 25.7015 66.0127C26.922 67.1737 27.954 68.5133 28.986 69.8429C29.8096 70.9047 31.6255 70.7062 32.4987 69.8429C33.5406 68.801 33.3223 67.392 32.4987 66.3302H32.5086Z" fill="black"/>
<path d="M24.3624 103.419C25.5628 100.413 26.6144 97.3279 27.16 94.1335C27.1798 94.0045 27.2889 93.3101 27.2691 93.449C27.2493 93.6077 27.3187 92.943 27.3286 92.8339C27.3782 92.3379 27.408 91.832 27.4278 91.3359C27.4576 90.5225 27.4278 89.6991 27.408 88.8856C27.279 85.6714 27.4973 82.5167 29.4516 79.7985C31.4059 77.0803 34.6598 76.2569 37.626 77.7053C40.5922 79.1537 42.3382 82.7845 42.8243 86.0285C43.8759 93.0224 41.4553 100.066 38.5486 106.316C37.9832 107.526 36.2372 107.834 35.1558 107.209C33.9059 106.484 33.6975 105.036 34.263 103.816C36.5546 98.8854 38.4097 93.4986 38.1022 88.1614C38.0923 87.9233 38.0625 87.6951 38.0526 87.467C38.0526 87.3876 37.9435 86.6535 38.0328 87.2388C37.9732 86.8221 37.8939 86.4154 37.7947 86.0087C37.7153 85.6912 37.6359 85.3837 37.5268 85.0762C37.4673 84.8976 37.3978 84.7289 37.3383 84.5504C37.2094 84.1337 37.5566 84.9472 37.2391 84.342C37.0903 84.0544 36.9415 83.7567 36.7729 83.479C36.6935 83.35 36.5844 83.231 36.5149 83.0921C36.2768 82.6457 36.9018 83.4591 36.5447 83.1218C36.3463 82.9333 36.1578 82.7151 35.9693 82.5167C35.88 82.4175 35.761 82.348 35.6717 82.2588C36.2074 82.7746 35.8602 82.3877 35.6618 82.2786C35.4038 82.1397 34.7293 81.9314 35.503 82.1397C35.2947 82.0802 35.0467 82.0107 34.8483 81.9314C34.3324 81.7231 35.4733 81.9115 34.7491 81.9314C34.6598 81.9314 34.511 81.9611 34.4316 81.9314C34.134 81.852 35.0765 81.7231 34.5606 81.9115C34.4217 81.9611 34.1936 82.0405 34.0447 82.0604C34.6598 81.9909 34.4812 81.8123 34.2432 81.981C34.1638 82.0405 34.0447 82.11 33.9555 82.1397C33.4892 82.3381 34.3126 81.7131 33.8364 82.2389C33.7571 82.3282 33.6777 82.4175 33.5884 82.4968C33.1618 82.9036 33.7273 82.1496 33.5884 82.4869C33.4793 82.7746 33.2313 83.0623 33.0924 83.35C33.0031 83.5187 32.9337 83.6972 32.8444 83.8559C32.5468 84.3916 33.013 83.3599 32.8146 83.9155C32.7055 84.223 32.5964 84.5206 32.517 84.8381C32.4575 85.0762 32.3087 86.1972 32.3781 85.3539C32.2789 86.5642 32.3285 87.7447 32.3781 88.955C32.5864 94.441 31.1777 99.6691 29.154 104.728C28.658 105.969 27.4973 106.842 26.0985 106.465C24.918 106.137 23.8664 104.669 24.3624 103.409V103.419Z" fill="black"/>
<path d="M35.3938 101.237C37.3382 97.3379 42.4274 94.2129 46.2368 97.6553C49.461 100.572 48.3102 105.185 46.8618 108.677L42.7151 106.266C44.9571 103.737 49.0939 103.171 51.8816 105.125C54.8775 107.229 55.2247 110.82 53.9946 114.064C53.0819 116.474 51.1474 118.32 49.3419 120.075C46.6634 122.675 45.8995 122.764 43.3698 125.512C41.2072 127.863 37.7053 124.351 39.858 122C41.8818 119.807 42.0504 120.175 44.2131 118.121C45.7607 116.643 47.4571 115.185 48.7467 113.468C48.5483 113.726 49.0443 112.982 49.1336 112.843C49.203 112.734 49.2626 112.605 49.3122 112.486C48.9848 113.151 49.4411 112.03 49.461 111.961C49.6991 111.177 49.8578 110.304 49.6395 109.808C49.1038 108.598 47.1694 108.687 46.217 109.768C44.6496 111.544 41.108 109.669 42.0703 107.357C42.477 106.375 42.8738 105.393 43.1318 104.362C43.3103 103.677 43.3698 103.399 43.3698 102.675C43.3698 102.149 43.3103 101.881 43.1119 101.574C42.6357 100.86 42.2687 100.969 41.5445 101.465C40.7013 102.04 40.1556 102.774 39.6695 103.737C38.241 106.594 33.9653 104.084 35.3839 101.237H35.3938Z" fill="black"/>
<path d="M24.3623 104.729C24.154 103.598 23.787 102.437 23.3703 101.614C22.8048 100.512 22.2791 99.7287 21.5152 98.9053C19.9874 97.2486 17.9537 95.8299 15.6919 95.5323C15.2554 95.4728 14.8288 95.4827 14.4122 95.6415C14.6403 95.5621 14.1146 95.8101 14.0352 95.8696C14.1245 95.8002 13.9558 96.0184 13.936 96.0482C13.8169 96.326 13.936 96.1077 13.936 96.068C13.9459 95.9093 13.9459 96.3656 13.936 96.3359C13.8765 96.0978 14.0352 96.6831 13.9856 96.5541C14.2237 97.1295 14.5709 97.5263 14.9975 97.9628C16.0689 99.0442 17.2196 99.9767 18.1323 101.207C18.916 102.258 19.4716 103.538 19.7692 104.818C20.4636 107.844 19.9577 111.226 18.0728 113.736C17.2692 114.808 15.93 115.363 14.68 114.629C13.6284 114.014 12.9836 112.308 13.7872 111.236C13.9856 110.978 14.1741 110.711 14.3328 110.433C14.432 110.274 14.5114 110.105 14.6006 109.947C14.7197 109.699 14.6602 109.847 14.6304 109.907C14.7594 109.609 14.8487 109.292 14.928 108.984C14.9776 108.806 15.0173 108.627 15.0471 108.439C15.1364 107.963 15.0272 108.974 15.0867 108.131C15.1066 107.804 15.1165 107.477 15.1066 107.149C15.1066 107.01 15.0967 106.871 15.0867 106.732C15.0867 106.703 15.0173 106.256 15.0669 106.564C15.0074 106.246 14.928 105.929 14.8387 105.611C14.7991 105.483 14.7594 105.344 14.7098 105.215C14.6007 104.917 14.6602 105.086 14.5808 104.907C13.9459 103.627 12.9638 102.893 11.8428 101.832C10.5531 100.612 9.41227 99.0938 9.09482 97.3081C8.38055 93.33 11.813 90.3142 15.6522 90.592C18.8863 90.8201 21.9914 92.5364 24.3227 94.7288C26.654 96.9212 28.519 100.135 29.144 103.429C29.392 104.748 28.7769 106.107 27.4079 106.484C26.1976 106.812 24.6004 106.078 24.3524 104.748L24.3623 104.729Z" fill="black"/>
</svg>
