<svg width="128" height="128" viewBox="0 0 128 128" fill="none" xmlns="http://www.w3.org/2000/svg">
<path d="M117.629 101.856C119.306 97.9171 120.983 93.968 122.66 90.0288L125.131 84.2242C125.925 82.3687 126.818 80.5231 127.363 78.5684C128.316 75.1153 127.641 70.9975 124.139 69.271C120.636 67.5445 117.739 69.8962 116.429 73.0614C114.613 77.4471 113.283 82.0809 111.735 86.5658L115.327 87.5581C116.121 83.1823 116.915 78.8065 117.699 74.4307C118.086 72.2775 118.473 70.1343 118.87 67.9811C119.267 65.828 119.733 63.6946 119.316 61.5513C118.642 58.1579 114.861 55.2209 111.517 57.2946C108.431 59.2097 108.282 63.9328 107.667 67.098C106.695 72.1188 105.732 77.1395 104.76 82.1503L108.352 83.1426C109.374 75.8794 109.543 68.5765 108.709 61.2835C108.6 60.2813 107.935 59.4181 106.844 59.4181C105.921 59.4181 104.869 60.2714 104.978 61.2835C105.762 68.2093 105.732 75.2443 104.75 82.1503C104.611 83.1525 104.998 84.1348 106.05 84.4424C106.963 84.7004 108.144 84.1249 108.342 83.1426C109.245 78.4493 110.158 73.756 111.061 69.0626C111.487 66.8698 111.785 64.5976 112.39 62.4345C112.668 61.4422 113.254 59.7653 114.563 60.5591C116.211 61.5513 115.794 64.022 115.526 65.5898C115.129 67.8918 114.692 70.1839 114.276 72.476C113.422 77.1693 112.579 81.8626 111.726 86.5559C111.299 88.8976 114.524 89.8303 115.317 87.5481C116.746 83.3807 118.126 79.1935 119.624 75.0459C119.991 74.0338 120.666 72.089 122.085 72.4363C123.583 72.7935 124.139 74.5299 124.079 75.8694C123.99 77.8837 122.978 79.8384 122.204 81.6641L119.644 87.6871C117.907 91.7751 116.161 95.8731 114.424 99.9611C114.028 100.894 114.157 101.946 115.089 102.511C115.863 102.978 117.242 102.769 117.639 101.846L117.629 101.856Z" fill="#EBDBB2"/>
</svg>
