<svg width="128" height="128" viewBox="0 0 128 128" fill="none" xmlns="http://www.w3.org/2000/svg">
<path d="M117.554 102.16C119.23 98.2212 120.907 94.2729 122.583 90.3345C123.407 88.4001 124.23 86.4656 125.054 84.5312C125.877 82.5967 126.79 80.7317 127.345 78.7278C128.367 75.0176 127.583 70.5931 123.833 68.7281C122.137 67.8849 120.163 67.8055 118.476 68.7281C116.79 69.6507 115.897 71.2181 115.213 72.8748C113.407 77.2596 112.068 81.8924 110.52 86.3763L115.302 87.6957C116.096 83.3209 116.889 78.946 117.673 74.5712C118.06 72.4185 118.447 70.2757 118.843 68.123C119.24 65.9703 119.736 63.6291 119.29 61.3672C118.526 57.5876 114.27 54.5123 110.58 56.7642C107.296 58.778 107.098 63.5795 106.453 66.9424C105.481 71.9621 104.509 76.9719 103.546 81.9916L108.328 83.311C109.36 75.9898 109.548 68.6388 108.715 61.2879C108.566 59.9586 107.683 58.8078 106.235 58.8078C105.005 58.8177 103.596 59.9586 103.745 61.2978C104.519 68.1626 104.509 75.1465 103.536 82.0015C103.348 83.3308 103.864 84.67 105.272 85.0569C106.483 85.3942 108.07 84.6502 108.328 83.3209C109.231 78.6286 110.143 73.9363 111.046 69.244C111.473 67.0516 111.77 64.7798 112.375 62.6172C112.604 61.8037 112.871 60.653 113.635 61.1093C114.975 61.9129 114.528 64.1945 114.32 65.4346C113.923 67.7361 113.486 70.0277 113.07 72.3193C112.217 77.0116 111.373 81.7039 110.52 86.3962C109.955 89.5211 114.25 90.7611 115.302 87.7156C116.73 83.549 118.109 79.3627 119.607 75.216C119.875 74.4819 120.421 72.855 121.304 73.0335C122.504 73.2815 122.901 74.8291 122.841 75.8707C122.732 77.7754 121.79 79.6206 121.056 81.3567L118.496 87.3783C116.76 91.4654 115.014 95.5625 113.278 99.6497C112.752 100.88 112.911 102.308 114.171 103.042C115.213 103.648 117.038 103.39 117.564 102.15L117.554 102.16Z" fill="#EBDBB2"/>
</svg>
