<svg width="128" height="128" viewBox="0 0 128 128" fill="none" xmlns="http://www.w3.org/2000/svg">
<path d="M105.466 60.429C108.948 67.5625 109.663 78.7936 107.301 90.5902C113.314 88.8043 118.304 83.3872 118.949 77.0871C119.941 67.1656 113.046 61.431 105.466 60.429Z" fill="#FF5007"/>
<path d="M107.956 92.9813C114.385 90.997 119.951 85.56 121.181 78.8035C122.412 72.047 120.239 65.7072 114.931 61.6493C112.371 59.7047 109.296 58.4843 106.121 58.0379C104.801 57.8494 103.462 58.3554 103.075 59.7642C102.757 60.925 103.472 62.6315 104.811 62.82C110.556 63.6336 115.546 67.1458 116.439 73.1879C117.441 79.9246 113.056 86.2148 106.647 88.1892C103.611 89.1317 104.9 93.9139 107.966 92.9713L107.956 92.9813Z" fill="#FF5007"/>
</svg>
