<svg width="128" height="128" viewBox="0 0 128 128" fill="none" xmlns="http://www.w3.org/2000/svg">
<path d="M105.478 60.4331C108.961 67.5673 109.675 78.7995 107.313 90.5973C113.326 88.8113 118.317 83.3936 118.962 77.0929C119.965 67.1704 113.068 61.4452 105.488 60.4331H105.478Z" fill="#FF5007"/>
<path d="M107.81 92.3833C114.041 90.4583 119.419 85.1895 120.6 78.6407C121.731 72.4293 119.697 66.069 114.626 62.1893C112.116 60.2643 109.09 59.0737 105.964 58.6371C104.962 58.4982 103.979 58.8851 103.672 59.9369C103.424 60.8101 103.979 62.0901 104.972 62.229C110.905 63.0625 116.075 66.8528 117.037 73.0345C118.139 80.1092 113.535 86.7275 106.807 88.8013C104.525 89.5058 105.498 93.0977 107.8 92.3932L107.81 92.3833Z" fill="#FF5007"/>
</svg>
