<svg width="128" height="128" viewBox="0 0 128 128" fill="none" xmlns="http://www.w3.org/2000/svg">
<path d="M71.4155 39.2594C75.0373 39.7555 78.5897 39.1403 81.7948 37.3542C84.7518 35.707 87.292 33.0675 88.6217 29.9418C89.1277 28.7511 89.0186 27.223 87.7286 26.5482C86.6669 25.9826 84.8808 26.1612 84.335 27.4413C84.0671 28.0664 83.7595 28.6717 83.4023 29.2572C83.2931 29.4259 83.1839 29.6045 83.0649 29.7632C83.0252 29.8128 82.6977 30.2792 82.8962 30.0014C83.0946 29.7235 82.7077 30.2296 82.7077 30.2296C82.5985 30.3586 82.4894 30.4876 82.3703 30.6166C81.9138 31.1227 81.4177 31.589 80.8918 32.0256C80.7132 32.1745 80.5544 32.2737 80.8322 32.0753C80.6635 32.1943 80.5048 32.3134 80.3262 32.4325C80.0483 32.621 79.7506 32.7996 79.4629 32.9782C79.1751 33.1568 78.8675 33.3057 78.5599 33.4545C78.4111 33.5339 78.2523 33.5935 78.0935 33.6728C77.8256 33.8018 78.4706 33.5438 78.0241 33.6927C77.3791 33.9209 76.744 34.1392 76.0693 34.2881C75.7418 34.3674 75.4044 34.417 75.0671 34.4766C75.6823 34.3774 75.0075 34.4766 74.9182 34.4766C74.7495 34.4865 74.5808 34.4964 74.4122 34.5064C74.0748 34.5262 73.7374 34.5262 73.3901 34.5064C73.2214 34.5064 73.0527 34.4865 72.884 34.4766C72.7451 34.4667 72.1299 34.3873 72.7253 34.4766C71.4452 34.298 69.9965 34.7842 69.669 36.2131C69.4011 37.384 70.0263 39.0808 71.4055 39.2693L71.4155 39.2594Z" fill="black"/>
<path d="M93.4144 23.6309C94.7044 23.4821 95.8157 23.1844 96.9866 22.6188C97.8995 22.1822 98.7529 21.5471 99.4772 20.8426C100.956 19.4336 102.087 17.4788 102.395 15.4446C102.494 14.7599 102.504 14.1546 102.146 13.5295C101.849 13.0135 101.253 12.5273 100.668 12.3884C100.033 12.2395 99.3185 12.2792 98.7529 12.6364C98.2468 12.9639 97.711 13.4997 97.6118 14.1149C97.5225 14.7004 97.3637 15.2759 97.1355 15.8217L97.3835 15.2263C97.1255 15.8316 96.7882 16.3972 96.3912 16.9132L96.7782 16.4071C96.3516 16.9529 95.8653 17.4391 95.3196 17.8558L95.8256 17.4689C95.2997 17.8658 94.7341 18.1932 94.1388 18.4611L94.7341 18.2131C94.1586 18.4512 93.5533 18.6199 92.9381 18.7092L93.593 18.6199C93.5335 18.6199 93.464 18.6397 93.4045 18.6397C92.7297 18.7191 92.1542 18.868 91.6481 19.3641C91.2214 19.7908 90.894 20.5052 90.9238 21.1205C90.9535 21.7357 91.1619 22.4303 91.6481 22.8768C92.1046 23.2936 92.7595 23.6806 93.4045 23.6012L93.4144 23.6309Z" fill="black"/>
<path d="M102.256 35.4591C103.546 35.3102 104.657 35.0125 105.828 34.4469C106.741 34.0103 107.594 33.3753 108.319 32.6707C109.797 31.2617 110.928 29.3069 111.236 27.2727C111.335 26.588 111.345 25.9827 110.988 25.3576C110.69 24.8416 110.095 24.3554 109.509 24.2165C108.874 24.0676 108.16 24.1073 107.594 24.4646C107.088 24.792 106.552 25.3278 106.453 25.9431C106.364 26.5285 106.205 27.104 105.977 27.6498L106.225 27.0544C105.967 27.6597 105.629 28.2253 105.233 28.7413L105.62 28.2352C105.193 28.781 104.707 29.2672 104.161 29.684L104.667 29.297C104.141 29.6939 103.575 30.0213 102.98 30.2893L103.575 30.0412C103 30.2793 102.395 30.448 101.779 30.5373L102.434 30.448C102.375 30.448 102.305 30.4679 102.246 30.4679C101.571 30.5473 100.995 30.6961 100.489 31.1922C100.063 31.6189 99.7353 32.3334 99.7651 32.9486C99.7948 33.5638 100.003 34.2584 100.489 34.7049C100.946 35.1217 101.601 35.5087 102.246 35.4293L102.256 35.4591Z" fill="black"/>
<path d="M100.857 45.6398C100.708 44.3498 100.41 43.2384 99.8444 42.0675C99.4078 41.1546 98.7727 40.3013 98.0682 39.5769C96.6592 38.0984 94.7044 36.9672 92.6702 36.6596C91.9855 36.5604 91.3802 36.5504 90.7551 36.9077C90.2391 37.2053 89.7529 37.8007 89.6139 38.3862C89.4651 39.0212 89.5048 39.7357 89.862 40.3013C90.1895 40.8073 90.7253 41.3432 91.3405 41.4424C91.926 41.5317 92.5015 41.6905 93.0472 41.9187L92.4519 41.6706C93.0572 41.9286 93.6228 42.266 94.1388 42.6629L93.6327 42.2759C94.1785 42.7026 94.6647 43.1888 95.0814 43.7346L94.6944 43.2285C95.0914 43.7544 95.4188 44.32 95.6867 44.9154L95.4387 44.32C95.6768 44.8955 95.8455 45.5008 95.9348 46.1161L95.8455 45.4611C95.8455 45.5207 95.8653 45.5901 95.8653 45.6497C95.9447 46.3244 96.0936 46.9 96.5897 47.406C97.0164 47.8327 97.7308 48.1602 98.346 48.1304C98.9613 48.1006 99.6559 47.8922 100.102 47.406C100.519 46.9496 100.906 46.2947 100.827 45.6497L100.857 45.6398Z" fill="black"/>
<path d="M59.2599 23.0355C62.9115 20.3266 65.6205 16.6254 66.9501 12.2593C67.3272 11.019 66.5036 9.50079 65.2136 9.2031C63.9237 8.90542 62.5642 9.60994 62.1574 10.9396C62.0185 11.3861 61.8696 11.8327 61.701 12.2693C61.6513 12.3883 61.6017 12.4975 61.562 12.6166C61.5918 12.5273 61.7803 12.1303 61.6414 12.428C61.5521 12.6265 61.4529 12.8349 61.3636 13.0333C60.9468 13.8768 60.4705 14.6904 59.9347 15.4545C59.8156 15.6232 59.6172 15.8117 59.5378 15.9903C59.5775 15.901 59.8652 15.5736 59.6569 15.8415C59.5775 15.9407 59.4981 16.03 59.4187 16.1292C59.121 16.4865 58.8035 16.8437 58.476 17.1811C58.1684 17.4986 57.841 17.8062 57.5135 18.1039C57.325 18.2726 57.1365 18.4313 56.9479 18.5802C56.8685 18.6397 56.7892 18.6993 56.7197 18.7687C57.2456 18.3024 56.8785 18.6397 56.7495 18.739C56.2136 19.1359 55.7969 19.5526 55.6083 20.2175C55.4496 20.8128 55.519 21.6067 55.8564 22.1326C56.5212 23.1645 58.1387 23.8492 59.25 23.0256L59.2599 23.0355Z" fill="black"/>
<path d="M75.1068 25.8436C78.421 24.0178 80.9613 20.6341 81.6757 16.9031C81.8047 16.2383 81.775 15.5933 81.4277 14.988C81.13 14.472 80.5346 13.9858 79.9492 13.8469C78.7287 13.569 77.1608 14.214 76.8929 15.5834C76.754 16.3177 76.5357 17.0321 76.2479 17.7267L76.496 17.1313C76.1289 17.9946 75.6526 18.7984 75.087 19.5525L75.474 19.0465C74.8984 19.7907 74.2435 20.4555 73.5092 21.031L74.0153 20.644C73.5688 20.9814 73.1024 21.289 72.6063 21.5669C71.4651 22.192 70.9988 23.859 71.7132 24.9605C72.4276 26.0619 73.8863 26.5184 75.1068 25.8535V25.8436Z" fill="black"/>
</svg>
