<svg width="128" height="128" viewBox="0 0 128 128" fill="none" xmlns="http://www.w3.org/2000/svg">
<path d="M58.9573 47.718C72.7987 41.9731 88.8824 42.4395 102.257 49.3056C105.095 50.7641 107.605 46.4778 104.758 45.0192C90.2814 37.5875 72.6994 36.6846 57.6377 42.9356C56.3974 43.4515 55.5143 44.5826 55.9013 45.9916C56.2188 47.1624 57.7071 48.2439 58.9573 47.728V47.718Z" fill="black"/>
<path d="M64.8609 32.9737C76.3508 27.9035 90.1822 29.0445 100.829 35.6031C103.557 37.2799 106.048 32.9936 103.329 31.3167C91.0553 23.7561 75.4875 22.8928 62.3506 28.6874C61.1203 29.2331 60.8425 31.0191 61.4577 32.0807C62.1919 33.3408 63.6207 33.5095 64.851 32.9737H64.8609Z" fill="black"/>
<path d="M64.3946 20.442C74.2374 16.5029 85.5387 16.6319 95.1632 21.1862C96.3737 21.7617 97.8421 21.5235 98.5565 20.2932C99.1915 19.2117 98.8839 17.4753 97.6635 16.8998C86.8782 11.7999 74.1878 11.2045 63.0651 15.6596C61.8248 16.1557 60.9517 17.3166 61.3287 18.7156C61.6561 19.8963 63.1246 20.9481 64.3847 20.452L64.3946 20.442Z" fill="black"/>
</svg>
