<svg width="128" height="128" viewBox="0 0 128 128" fill="none" xmlns="http://www.w3.org/2000/svg">
<path d="M72.7021 38.1222C76.3236 38.6183 79.8758 38.0032 83.0806 36.2172C86.0374 34.5701 88.5775 31.9308 89.907 28.8053C90.4131 27.6147 90.3039 26.0867 89.014 25.412C87.9524 24.8464 86.1664 25.025 85.6207 26.305C85.3528 26.9301 85.0452 27.5353 84.688 28.1207C84.5788 28.2894 84.4697 28.468 84.3506 28.6268C84.311 28.6764 83.9835 29.1427 84.182 28.8649C84.3804 28.5871 83.9934 29.0931 83.9934 29.0931C83.8843 29.2221 83.7752 29.3511 83.6561 29.4801C83.1997 29.9861 82.7036 30.4524 82.1777 30.889C81.9991 31.0378 81.8403 31.137 82.1182 30.9386C81.9495 31.0577 81.7907 31.1767 81.6121 31.2958C81.3343 31.4843 81.0367 31.6629 80.7489 31.8415C80.4612 32.0201 80.1536 32.1689 79.846 32.3178C79.6972 32.3972 79.5384 32.4567 79.3797 32.5361C79.1118 32.665 79.7567 32.4071 79.3102 32.5559C78.6653 32.7841 78.0302 33.0024 77.3555 33.1512C77.0281 33.2306 76.6908 33.2802 76.3534 33.3398C76.9686 33.2405 76.2939 33.3398 76.2046 33.3398C76.0359 33.3497 75.8672 33.3596 75.6985 33.3695C75.3612 33.3894 75.0238 33.3894 74.6766 33.3695C74.5079 33.3695 74.3392 33.3497 74.1705 33.3398C74.0316 33.3298 73.4165 33.2505 74.0118 33.3398C72.7318 33.1612 71.2832 33.6474 70.9558 35.0761C70.6879 36.2469 71.313 37.9436 72.6921 38.1321L72.7021 38.1222Z" fill="black"/>
<path d="M98.8172 47.8558C99.0354 46.5759 99.0354 45.4348 98.8172 44.1549C98.6485 43.1428 98.2615 42.1506 97.7853 41.2378C96.8427 39.4319 95.2551 37.8146 93.3898 36.9514C92.7647 36.6637 92.1594 36.5148 91.4748 36.7034C90.8993 36.8621 90.2742 37.3086 89.9964 37.8444C89.4209 38.9358 89.6293 40.6623 90.8894 41.2378C91.3061 41.4263 91.6931 41.6644 92.0701 41.9224C92.4075 42.1506 91.5938 41.5255 91.9312 41.8133C92.0007 41.8728 92.08 41.9323 92.1495 42.0018C92.3182 42.1506 92.4868 42.3094 92.6357 42.478C92.7746 42.6269 92.9036 42.7955 93.0425 42.9543C92.467 42.3292 92.9829 42.8848 93.1219 43.1031C93.3699 43.4901 93.5783 43.8969 93.7668 44.3136L93.5187 43.7183C93.7866 44.3533 93.9652 45.0181 94.0645 45.6928L93.9752 45.0379C94.0545 45.6829 94.0545 46.3278 93.9752 46.9728L94.0645 46.3179C94.0545 46.3973 94.0446 46.4667 94.0248 46.5461C93.9156 47.2208 93.9156 47.8459 94.2728 48.4611C94.5705 48.977 95.1658 49.4632 95.7512 49.6021C96.9518 49.88 98.5691 49.235 98.8072 47.8658L98.8172 47.8558Z" fill="black"/>
<path d="M63.276 22.9117C68.5943 17.3652 76.8693 15.0832 84.2316 17.4545C87.7043 18.5658 90.7901 20.6792 93.221 23.3781C94.4613 24.7473 95.4833 26.2952 96.3167 27.9522C97.1502 29.6092 97.5669 31.3753 98.2615 33.062C99.2041 35.3342 100.742 37.3484 103.232 37.9933C105.723 38.6383 107.995 37.8644 109.354 35.7906C111.121 33.1216 106.824 30.6311 105.068 33.2903C105.217 33.072 105.445 33.3498 104.989 33.2704C105.227 33.3101 104.701 33.2506 104.691 33.2506C104.086 33.1513 103.768 32.8735 103.391 32.308C102.389 30.7998 102.072 28.8551 101.377 27.1981C99.8391 23.5071 97.4379 20.1831 94.3621 17.6133C88.0516 12.3248 79.7269 10.3305 71.7297 12.4141C67.1953 13.5948 62.9982 16.0357 59.7537 19.4191C57.5411 21.7211 61.0436 25.2335 63.2661 22.9316L63.276 22.9117Z" fill="black"/>
</svg>
