<svg width="128" height="128" viewBox="0 0 128 128" fill="none" xmlns="http://www.w3.org/2000/svg">
<path d="M63.276 23.817C68.5943 18.2705 76.8694 15.9884 84.2316 18.3598C87.7043 19.4711 90.7901 21.5845 93.221 24.2833C94.4613 25.6526 95.4833 27.2004 96.3167 28.8574C97.1502 30.5144 97.5669 32.2806 98.2614 33.9673C99.204 36.2395 100.742 38.2537 103.232 38.8986C105.723 39.5436 107.995 38.7696 109.354 36.6959C111.121 34.0269 106.824 31.5364 105.068 34.1955C105.217 33.9773 105.445 34.2551 104.989 34.1757C105.227 34.2154 104.701 34.1558 104.691 34.1558C104.086 34.0566 103.768 33.7788 103.391 33.2132C102.389 31.7051 102.072 29.7603 101.377 28.1034C99.8391 24.4123 97.4379 21.0884 94.3621 18.5186C88.0516 13.2301 79.7269 11.2357 71.7297 13.3194C67.1953 14.5001 62.9982 16.941 59.7537 20.3244C57.5411 22.6263 61.0436 26.1388 63.2661 23.8368L63.276 23.817Z" fill="black"/>
<path d="M68.7431 36.8249C73.2279 43.4231 80.7588 47.6698 88.7858 47.7591C96.8128 47.8484 104.671 43.5818 109.255 36.9241C110.019 35.8227 109.464 34.1757 108.362 33.5307C107.132 32.8064 105.733 33.3124 104.969 34.4237C101.377 39.6428 95.1161 42.8774 88.7858 42.8079C82.4555 42.7385 76.5121 39.4542 73.0294 34.3245C71.2435 31.6951 66.9472 34.1757 68.7431 36.8249Z" fill="black"/>
</svg>
