<svg width="128" height="128" viewBox="0 0 128 128" fill="none" xmlns="http://www.w3.org/2000/svg">
<path d="M70.0514 46.7372C80.549 41.8456 94.2415 43.5423 103.062 51.103C104.074 51.9761 105.573 52.1051 106.575 51.103C107.468 50.21 107.597 48.4736 106.575 47.5905C95.9283 38.4721 80.2017 36.5571 67.551 42.4509C66.3405 43.0164 66.0329 44.7627 66.658 45.8442C67.3823 47.0944 68.8309 47.3028 70.0514 46.7372Z" fill="black"/>
<path d="M67.1541 36.7359C78.8225 31.1101 93.2393 30.991 105.037 36.3291C106.257 36.8847 107.706 36.6763 108.43 35.4361C109.055 34.3744 108.767 32.5984 107.537 32.0427C94.0033 25.9109 78.0585 25.9704 64.6438 32.4495C63.4333 33.0349 63.1158 34.7515 63.7508 35.8429C64.4751 37.0732 65.9336 37.3213 67.1441 36.7359H67.1541Z" fill="black"/>
<path d="M64.2965 27.4288C74.7048 18.9454 90.0246 16.8816 102.268 22.4677C103.489 23.0234 104.938 22.815 105.662 21.5747C106.287 20.5131 105.999 18.737 104.769 18.1814C90.3222 11.5931 73.0776 13.905 60.794 23.9263C59.7522 24.7697 59.9109 26.5556 60.794 27.4387C61.8259 28.4706 63.2646 28.292 64.3064 27.4387L64.2965 27.4288Z" fill="black"/>
</svg>
