<svg width="128" height="128" viewBox="0 0 128 128" fill="none" xmlns="http://www.w3.org/2000/svg">
<path d="M62.1309 23.5142C77.1034 29.2988 94.606 27.6716 108.338 19.3965C111.067 17.7495 108.576 13.4631 105.838 15.1102C93.1375 22.7601 77.2721 24.0599 63.4506 18.7218C62.2004 18.2356 60.7319 19.2576 60.3945 20.4582C60.0076 21.8572 60.8708 23.028 62.1309 23.5142Z" fill="black"/>
<path d="M73.8291 36.8794C84.6343 39.9453 96.2928 38.7943 106.334 33.8035C109.192 32.3847 106.681 28.0983 103.834 29.5172C94.9831 33.9127 84.6442 34.7858 75.1587 32.0969C72.0828 31.2238 70.7731 36.0062 73.839 36.8794H73.8291Z" fill="black"/>
<path d="M68.878 46.0473C76.5676 51.5839 86.9859 53.0424 95.9059 49.8872C97.166 49.4407 98.0094 48.1905 97.6422 46.8312C97.3049 45.6107 95.8562 44.6483 94.5862 45.0948C86.7676 47.8631 78.1056 46.6029 71.3784 41.7609C70.2869 40.9771 68.62 41.5724 67.985 42.6539C67.2508 43.9041 67.7866 45.2635 68.878 46.0473Z" fill="black"/>
</svg>
